<svg width="318" height="187" viewBox="0 0 318 187" fill="none" xmlns="http://www.w3.org/2000/svg">
<rect x="73" y="17" width="226" height="140" fill="#FFE296"/>
<rect x="83" y="121" width="207" height="28" fill="white"/>
<path d="M226.937 54.6824C223.065 50.952 216.935 50.952 213.063 54.6824L152.988 112.548C146.507 118.791 150.926 129.75 159.926 129.75H280.074C289.074 129.75 293.493 118.791 287.012 112.548L226.937 54.6824Z" fill="white"/>
<path d="M144.914 70.6182C141.048 66.9171 134.952 66.9171 131.085 70.6182L85.9953 113.776C79.4827 120.009 83.8949 131 92.9099 131H183.09C192.105 131 196.517 120.009 190.004 113.776L144.914 70.6182Z" fill="white"/>
<circle cx="121.5" cy="49.5" r="14.5" fill="white"/>
<rect x="62" y="7" width="223" height="136" stroke="#D0E3FF" stroke-width="3" stroke-dasharray="6 6"/>
<rect x="55" width="13" height="13" fill="#D0E3FF"/>
<rect x="55" y="136" width="13" height="13" fill="#D0E3FF"/>
<rect x="278" width="13" height="13" fill="#D0E3FF"/>
<rect x="278" y="136" width="13" height="13" fill="#D0E3FF"/>
<rect y="72.5273" width="25.7394" height="208" rx="5" transform="rotate(-56.7571 0 72.5273)" fill="#649DF6"/>
<path d="M17.3228 69.8127C17.0201 70.2746 17.1491 70.8944 17.611 71.1972C18.0729 71.5 18.6928 71.3709 18.9955 70.909L17.3228 69.8127ZM18.9955 70.909L26.6553 59.2228L24.9826 58.1264L17.3228 69.8127L18.9955 70.909Z" fill="white"/>
<path d="M31.8541 73.1823C31.5513 73.6442 31.6803 74.2641 32.1422 74.5668C32.6041 74.8696 33.224 74.7406 33.5268 74.2787L31.8541 73.1823ZM33.5268 74.2787L38.3645 66.8979L36.6918 65.8015L31.8541 73.1823L33.5268 74.2787Z" fill="white"/>
<path d="M43.5631 80.8566C43.2603 81.3185 43.3893 81.9384 43.8512 82.2411C44.3131 82.5439 44.933 82.4149 45.2358 81.953L43.5631 80.8566ZM45.2358 81.953L50.0735 74.5722L48.4008 73.4758L43.5631 80.8566L45.2358 81.953Z" fill="white"/>
<path d="M55.272 88.5314C54.9693 88.9933 55.0983 89.6132 55.5602 89.9159C56.0221 90.2187 56.642 90.0897 56.9448 89.6278L55.272 88.5314ZM56.9448 89.6278L61.7825 82.247L60.1098 81.1506L55.272 88.5314L56.9448 89.6278Z" fill="white"/>
<path d="M66.981 96.2062C66.6783 96.6681 66.8073 97.288 67.2692 97.5907C67.7311 97.8935 68.351 97.7645 68.6537 97.3026L66.981 96.2062ZM68.6537 97.3026L73.4915 89.9218L71.8188 88.8254L66.981 96.2062L68.6537 97.3026Z" fill="white"/>
<path d="M75.8677 108.186C75.565 108.648 75.694 109.268 76.1559 109.571C76.6178 109.873 77.2377 109.744 77.5405 109.283L75.8677 108.186ZM77.5405 109.283L85.2002 97.5963L83.5275 96.5L75.8677 108.186L77.5405 109.283Z" fill="white"/>
<path d="M90.399 111.555C90.0962 112.017 90.2253 112.637 90.6872 112.94C91.1491 113.243 91.7689 113.114 92.0717 112.652L90.399 111.555ZM92.0717 112.652L96.9094 105.271L95.2367 104.175L90.399 111.555L92.0717 112.652Z" fill="white"/>
<path d="M102.107 119.23C101.805 119.692 101.934 120.312 102.396 120.615C102.858 120.917 103.477 120.788 103.78 120.327L102.107 119.23ZM103.78 120.327L108.618 112.946L106.945 111.849L102.107 119.23L103.78 120.327Z" fill="white"/>
<path d="M113.816 126.904C113.514 127.366 113.643 127.986 114.105 128.289C114.567 128.592 115.186 128.463 115.489 128.001L113.816 126.904ZM115.489 128.001L120.327 120.62L118.654 119.524L113.816 126.904L115.489 128.001Z" fill="white"/>
<path d="M125.525 134.579C125.223 135.041 125.352 135.661 125.814 135.964C126.276 136.267 126.895 136.138 127.198 135.676L125.525 134.579ZM127.198 135.676L132.036 128.295L130.363 127.198L125.525 134.579L127.198 135.676Z" fill="white"/>
<path d="M134.412 146.559C134.109 147.021 134.238 147.641 134.7 147.944C135.162 148.247 135.782 148.118 136.085 147.656L134.412 146.559ZM136.085 147.656L143.745 135.969L142.072 134.873L134.412 146.559L136.085 147.656Z" fill="white"/>
<path d="M148.943 149.929C148.641 150.391 148.77 151.011 149.232 151.313C149.694 151.616 150.313 151.487 150.616 151.025L148.943 149.929ZM150.616 151.025L155.454 143.644L153.781 142.548L148.943 149.929L150.616 151.025Z" fill="white"/>
<path d="M160.652 157.603C160.35 158.065 160.479 158.685 160.941 158.988C161.402 159.29 162.022 159.161 162.325 158.7L160.652 157.603ZM162.325 158.7L167.163 151.319L165.49 150.222L160.652 157.603L162.325 158.7Z" fill="white"/>
<path d="M172.361 165.278C172.059 165.74 172.188 166.36 172.65 166.663C173.111 166.965 173.731 166.836 174.034 166.374L172.361 165.278ZM174.034 166.374L178.872 158.994L177.199 157.897L172.361 165.278L174.034 166.374Z" fill="white"/>
</svg>
