<svg width="237" height="229" viewBox="0 0 237 229" fill="none" xmlns="http://www.w3.org/2000/svg">
<path fill-rule="evenodd" clip-rule="evenodd" d="M160.405 78.3713C164.133 73.3785 165.472 66.8614 163.019 61.133C148.744 27.788 112.438 8.11157 75.6453 16.0222C33.8676 25.0045 7.28162 66.1537 16.2639 107.931C23.4042 141.141 50.8705 164.752 82.821 168.527C89.0096 169.258 94.876 166.124 98.6046 161.131L160.405 78.3713ZM81.3971 147.945C89.5758 146.187 94.8961 138.669 93.2802 131.153C91.6643 123.638 83.7242 118.971 75.5455 120.729C67.3668 122.488 62.0466 130.006 63.6624 137.521C65.2783 145.037 73.2184 149.704 81.3971 147.945Z" fill="#D0E3FF"/>
<ellipse cx="64.4545" cy="41.8774" rx="15.9661" ry="13.9191" transform="rotate(-28.5536 64.4545 41.8774)" fill="#FFB84E"/>
<ellipse cx="108.111" cy="40.4167" rx="15.9661" ry="13.9191" transform="rotate(7.04655 108.111 40.4167)" fill="#FFE296"/>
<ellipse cx="141.351" cy="62.5818" rx="15.9661" ry="13.9191" transform="rotate(50.3858 141.351 62.5818)" fill="#7096D1"/>
<ellipse cx="39.6619" cy="76.5891" rx="15.9661" ry="13.9191" transform="rotate(-75.2251 39.6619 76.5891)" fill="#649DF6"/>
<ellipse cx="39.6619" cy="76.5891" rx="15.9661" ry="13.9191" transform="rotate(-75.2251 39.6619 76.5891)" fill="#649DF6"/>
<path d="M106.235 94.7227C101.31 85.2923 112.564 75.7139 121.086 82.0831L127.593 86.9465C129.666 88.4959 131.53 90.3072 133.139 92.3352L196.276 171.945L208.553 192.279C211.481 197.129 205.357 202.341 201.037 198.675L182.927 183.307L114.43 108.259C112.685 106.347 111.195 104.218 109.996 101.924L106.235 94.7227Z" fill="#649DF6"/>
<path fill-rule="evenodd" clip-rule="evenodd" d="M107.885 62.2514C98.1111 60.3483 89.7598 56.0703 79.0598 48.1686C85.0252 59.9107 86.5407 66.7144 88.243 78.9695L88.2484 78.965C88.3758 81.9073 89.4033 84.7548 91.3861 87.0844C96.4947 93.0865 106.01 93.378 112.64 87.7355C119.269 82.093 120.502 72.6532 115.393 66.6511C113.41 64.3215 110.764 62.8522 107.88 62.2562L107.885 62.2514Z" fill="#FFB84E"/>
<mask id="mask0_44_84" style="mask-type:alpha" maskUnits="userSpaceOnUse" x="105" y="80" width="105" height="120">
<path d="M106.235 94.7227C101.31 85.2923 112.564 75.7139 121.086 82.0831L127.593 86.9465C129.666 88.4959 131.53 90.3072 133.139 92.3352L196.276 171.945L208.553 192.279C211.481 197.129 205.357 202.341 201.037 198.675L182.927 183.307L114.43 108.259C112.685 106.347 111.195 104.218 109.996 101.924L106.235 94.7227Z" fill="#649DF6"/>
</mask>
<g mask="url(#mask0_44_84)">
<rect x="104.925" y="103.196" width="34.3916" height="32.0022" transform="rotate(-40.4022 104.925 103.196)" fill="#FFF2D0"/>
</g>
</svg>
