<svg width="247" height="198" viewBox="0 0 247 198" fill="none" xmlns="http://www.w3.org/2000/svg">
<path fill-rule="evenodd" clip-rule="evenodd" d="M103.654 72.8307C51.7059 99.4874 17.828 137.144 27.9857 156.94L20.7186 142.778L20.6917 142.727C10.5335 122.931 43.6917 85.6427 94.7528 59.4415C143.365 34.4972 190.678 28.5944 203.87 45.1676L203.798 45.1832L205.153 51.4049C185.276 43.7726 144.971 51.6295 103.654 72.8307ZM207.696 52.5221C207.835 52.5919 207.972 52.6622 208.109 52.734L207.97 52.462L207.696 52.5221Z" fill="#D0E3FF"/>
<path fill-rule="evenodd" clip-rule="evenodd" d="M143 1.19727C128.737 1.79834 113.293 3.99756 97.4372 7.93604C37.549 22.8125 -5.53495 56.8711 1.20577 84.0078L1.23555 84.1265L6.0461 103.492C-0.694622 76.3555 42.3899 42.2974 102.278 27.4209C116.356 23.9238 130.109 21.7983 143 20.9448V1.19727Z" fill="#D0E3FF"/>
<path fill-rule="evenodd" clip-rule="evenodd" d="M17 0H85.0059C85.2715 11.0908 94.3452 20 105.5 20C116.655 20 125.729 11.0908 125.994 0H195V56H166V156H47V56H17V0Z" fill="#FFB84E"/>
<path fill-rule="evenodd" clip-rule="evenodd" d="M1.01514 83.1001L5.04604 101.122L5.0464 101.122L5.04644 101.122C10.6813 126.315 60.3204 136.657 115.918 124.221C171.517 111.786 212.02 81.2818 206.385 56.0889C206.376 56.0471 206.366 56.0054 206.357 55.9636L203.841 44.716C201.558 68.3364 163.253 94.6402 112.417 106.011C56.5673 118.502 6.72318 108.244 1.01514 83.1001Z" fill="white"/>
<path d="M95.3706 83.3813C94.7663 85.9406 96.3511 88.5053 98.9104 89.1096L170.218 105.947L173.657 91.3829L95.3706 83.3813Z" fill="#EEEEEE"/>
<mask id="mask0_44_56" style="mask-type:alpha" maskUnits="userSpaceOnUse" x="95" y="83" width="79" height="23">
<path d="M95.3706 83.3808C94.7663 85.9401 96.3511 88.5048 98.9104 89.1091L170.218 105.947L173.657 91.3824L95.3706 83.3808Z" fill="#EEEEEE"/>
</mask>
<g mask="url(#mask0_44_56)">
<path d="M157.302 89.3218L165.174 106.986L167.127 106.116L159.255 88.4516L157.302 89.3218Z" fill="#D9D9D9"/>
</g>
<path fill-rule="evenodd" clip-rule="evenodd" d="M174.351 97.7461C173.082 103.121 176.41 108.507 181.785 109.777L222.658 119.428C228.033 120.697 233.419 117.368 234.688 111.993L237.128 101.659C239.667 90.9089 233.01 80.1365 222.26 77.5981L207.664 74.1518C193.152 70.7251 178.609 79.7119 175.182 94.2245L174.351 97.7461ZM185.815 95.708C185.045 98.969 187.064 102.237 190.325 103.007L217.711 109.473C221.732 110.423 225.762 107.932 226.712 103.91C228.611 95.8667 223.63 87.8064 215.587 85.9071L205.521 83.5304C196.717 81.4515 187.894 86.9036 185.815 95.708Z" fill="#649DF6"/>
<rect x="190.042" y="115.021" width="5.34454" height="9.62017" rx="2.67227" transform="rotate(-76.7144 190.042 115.021)" fill="#649DF6"/>
<path d="M170.677 107.154C167.99 106.519 166.325 103.826 166.96 101.139L168.838 93.186C169.472 90.4984 172.166 88.8342 174.853 89.4688L180.725 90.8554C183.413 91.4899 185.077 94.183 184.442 96.8706L181.416 109.689L170.677 107.154Z" fill="#649DF6"/>
<path d="M129.657 39.6961C132.056 38.6183 134.874 39.6891 135.952 42.0877L165.982 108.92L152.332 115.053L129.657 39.6961Z" fill="#EEEEEE"/>
<path fill-rule="evenodd" clip-rule="evenodd" d="M158.712 114.53C163.749 112.267 169.668 114.515 171.932 119.553L189.144 157.86C191.408 162.898 189.159 168.817 184.121 171.08L174.436 175.432C164.36 179.96 152.523 175.462 147.995 165.387L141.849 151.707C135.737 138.106 141.809 122.125 155.411 116.013L158.712 114.53ZM158.88 126.173C161.936 124.8 165.527 126.164 166.9 129.22L178.433 154.886C180.127 158.656 178.444 163.084 174.675 164.778C167.136 168.166 158.279 164.8 154.891 157.261L150.652 147.828C146.945 139.576 150.628 129.881 158.88 126.173Z" fill="#649DF6"/>
<rect width="5.34454" height="9.62017" rx="2.67227" transform="matrix(-0.91215 0.409857 0.409857 0.91215 178.644 126.667)" fill="#649DF6"/>
<path d="M167.253 109.142C166.122 106.623 163.162 105.499 160.643 106.631L153.19 109.98C150.671 111.112 149.547 114.071 150.678 116.59L153.151 122.094C154.283 124.612 157.242 125.737 159.761 124.605L171.776 119.207L167.253 109.142Z" fill="#649DF6"/>
<circle cx="153.363" cy="95.9267" r="3.74118" transform="rotate(-76.7144 153.363 95.9267)" fill="#D9D9D9"/>
</svg>
