<svg width="238" height="116" viewBox="0 0 238 116" fill="none" xmlns="http://www.w3.org/2000/svg">
<rect x="174.101" y="32" width="36.1167" height="52" fill="#D0E3FF"/>
<path d="M201.883 29.8037C201.883 27.5561 203.383 25.5848 205.549 24.985L231.666 17.7538C234.851 16.8719 238 19.2676 238 22.5725V92.4275C238 95.7324 234.851 98.1281 231.666 97.2462L205.549 90.015C203.383 89.4152 201.883 87.4439 201.883 85.1963V29.8037Z" fill="#649DF6"/>
<rect width="43.5253" height="65" rx="10" transform="matrix(-1 0 0 1 43.5254 37)" fill="#D0E3FF"/>
<rect width="11.1128" height="79" rx="5.55642" transform="matrix(-1 0 0 1 11.1128 32)" fill="#649DF6"/>
<rect x="23.1519" width="161.136" height="116" rx="20" fill="#649DF6"/>
<rect x="58.3423" y="46" width="90.7549" height="50" rx="5" fill="#FFF2D0"/>
<ellipse cx="148.634" cy="24.8" rx="8.79767" ry="8.8" fill="#FF7878"/>
<ellipse cx="119.798" cy="24.8" rx="8.79767" ry="8.8" fill="#D0E3FF"/>
</svg>
