<svg width="211" height="164" viewBox="0 0 211 164" fill="none" xmlns="http://www.w3.org/2000/svg">
<path d="M0 131C0 129.343 1.34315 128 3 128H208C209.657 128 211 129.343 211 131V136C211 137.657 209.657 139 208 139H3C1.34315 139 0 137.657 0 136V131Z" fill="#649DF6"/>
<rect x="4" y="11" width="203" height="117" fill="#FFF7E2"/>
<path d="M0 3C0 1.34315 1.34315 0 3 0H208C209.657 0 211 1.34315 211 3V8C211 9.65685 209.657 11 208 11H3C1.34315 11 0 9.65685 0 8V3Z" fill="#649DF6"/>
<path d="M22.5481 45.505C21.8557 45.2888 21.0869 44.9594 20.2418 44.5168C19.45 44.0461 18.9242 43.368 18.6644 42.4823C18.5319 41.9046 18.5202 41.2975 18.6295 40.6612C18.7388 40.0248 18.9639 39.447 19.3048 38.9276C19.9866 37.889 21.0007 37.2893 22.3472 37.1285C22.617 37.1234 22.8868 37.1182 23.1566 37.113C23.4263 37.1079 23.7165 37.1091 24.027 37.1166C24.8644 37.1545 25.5275 37.2498 26.0163 37.4024C26.5584 37.527 27.2432 37.696 28.0704 37.9096C28.437 38.024 28.7221 38.113 28.9257 38.1766C29.1294 38.2402 29.4005 38.3025 29.739 38.3635C30.0648 38.4652 30.3906 38.5669 30.7165 38.6686C31.055 38.7296 31.4076 38.8173 31.7741 38.9317C31.9777 38.9953 32.5072 39.1606 33.3625 39.4276C34.2178 39.6946 35.236 40.0125 36.4171 40.3812C37.5982 40.75 38.8341 41.1581 40.1247 41.6058C41.4687 42.0253 42.7109 42.4131 43.8513 42.7692C45.0324 43.1379 46.0442 43.4761 46.8868 43.7839C47.7421 44.0509 48.2716 44.2162 48.4752 44.2798C49.0734 44.5112 49.6983 44.7287 50.35 44.9321C51.0016 45.1355 51.6533 45.339 52.3049 45.5424C53.038 45.7713 53.7444 46.0141 54.4241 46.271C55.1445 46.5406 55.8585 46.8306 56.5662 47.1409C56.8666 47.3241 57.1733 47.4869 57.4864 47.6293C57.8403 47.7845 58.1483 48.0148 58.4106 48.3201C58.7823 48.7044 59.014 49.179 59.1058 49.744C59.2103 50.2683 59.2347 50.8346 59.1789 51.443C59.1765 52.0233 59.1066 52.6049 58.9694 53.1878C58.8321 53.7707 58.6935 54.2862 58.5536 54.7342C58.3756 55.3044 58.204 55.8542 58.0387 56.3837C57.9141 56.9259 57.7628 57.482 57.5848 58.0522C57.4704 58.4188 57.3051 58.9483 57.089 59.6406C56.9262 60.305 56.7368 60.9834 56.5207 61.6757C56.3045 62.3681 56.068 63.0541 55.8111 63.7338C55.6077 64.3855 55.4487 64.8946 55.3343 65.2611C54.7723 66.9182 54.2166 68.555 53.6672 70.1714C53.1714 71.7598 52.6628 73.3889 52.1415 75.0588C51.938 75.7104 51.6735 76.343 51.3479 76.9565C51.035 77.5293 50.5859 78.0372 50.0006 78.4803C49.3746 78.9106 48.6976 79.1462 47.9696 79.1871C47.2544 79.1873 46.5824 78.9775 45.9536 78.5578C45.2026 78.0998 44.6998 77.5629 44.4451 76.947C44.2438 76.3031 44.1431 75.6236 44.1429 74.9083C44.1961 74.1651 44.3168 73.4206 44.5049 72.6747C44.7058 71.8882 44.8672 71.1564 44.9892 70.4793C45.2789 68.6924 45.678 66.9844 46.1866 65.3553C46.3264 64.9073 46.5108 64.3168 46.7397 63.5836C46.9685 62.8505 47.1771 62.1111 47.3652 61.3653C47.566 60.5787 47.7542 59.8329 47.9296 59.1278C48.1585 58.3947 48.3429 57.8041 48.4827 57.3561C48.6989 56.6638 48.8616 55.9994 48.9708 55.363C49.0928 54.686 48.9196 54.0955 48.4511 53.5917C48.2449 53.3932 47.9789 53.2431 47.653 53.1414C47.3272 53.0397 46.9403 52.9189 46.4923 52.779L45.2093 52.3785C44.993 52.3556 44.783 52.3124 44.5794 52.2489C44.3884 52.1446 44.1911 52.0606 43.9875 51.997L36.9619 49.8037C36.1474 49.5494 35.3201 49.3359 34.4801 49.163C33.6935 48.9622 32.893 48.7346 32.0784 48.4803C31.2639 48.226 30.4289 47.9653 29.5736 47.6983C28.7718 47.4033 27.9509 47.1694 27.1109 46.9965C26.7723 46.9355 26.5076 46.8529 26.3167 46.7486C26.1665 46.657 25.9285 46.5603 25.6027 46.4586L22.5481 45.505Z" fill="#7096D1"/>
<path d="M22.5481 45.505C21.8557 45.2888 21.0869 44.9594 20.2418 44.5168C19.45 44.0461 18.9242 43.368 18.6644 42.4823C18.5319 41.9046 18.5202 41.2975 18.6295 40.6612C18.7388 40.0248 18.9639 39.447 19.3048 38.9276C19.9866 37.889 21.0007 37.2893 22.3472 37.1285C22.617 37.1234 22.8868 37.1182 23.1566 37.113C23.4263 37.1079 23.7165 37.1091 24.027 37.1166C24.8644 37.1545 25.5275 37.2498 26.0163 37.4024C26.5584 37.527 27.2432 37.696 28.0704 37.9096C28.437 38.024 28.7221 38.113 28.9257 38.1766C29.1294 38.2402 29.4005 38.3025 29.739 38.3635C30.0648 38.4652 30.3906 38.5669 30.7165 38.6686C31.055 38.7296 31.4076 38.8173 31.7741 38.9317C31.9777 38.9953 32.5072 39.1606 33.3625 39.4276C34.2178 39.6946 35.236 40.0125 36.4171 40.3812C37.5982 40.75 38.8341 41.1581 40.1247 41.6058C41.4687 42.0253 42.7109 42.4131 43.8513 42.7692C45.0324 43.1379 46.0442 43.4761 46.8868 43.7839C47.7421 44.0509 48.2716 44.2162 48.4752 44.2798C49.0734 44.5112 49.6983 44.7287 50.35 44.9321C51.0016 45.1355 51.6533 45.339 52.3049 45.5424C53.038 45.7713 53.7444 46.0141 54.4241 46.271C55.1445 46.5406 55.8585 46.8306 56.5662 47.1409C56.8666 47.3241 57.1733 47.4869 57.4864 47.6293C57.8403 47.7845 58.1483 48.0148 58.4106 48.3201C58.7823 48.7044 59.014 49.179 59.1058 49.744C59.2103 50.2683 59.2347 50.8346 59.1789 51.443C59.1765 52.0233 59.1066 52.6049 58.9694 53.1878C58.8321 53.7707 58.6935 54.2862 58.5536 54.7342C58.3756 55.3044 58.204 55.8542 58.0387 56.3837C57.9141 56.9259 57.7628 57.482 57.5848 58.0522C57.4704 58.4188 57.3051 58.9483 57.089 59.6406C56.9262 60.305 56.7368 60.9834 56.5207 61.6757C56.3045 62.3681 56.068 63.0541 55.8111 63.7338C55.6077 64.3855 55.4487 64.8946 55.3343 65.2611C54.7723 66.9182 54.2166 68.555 53.6672 70.1714C53.1714 71.7598 52.6628 73.3889 52.1415 75.0588C51.938 75.7104 51.6735 76.343 51.3479 76.9565C51.035 77.5293 50.5859 78.0372 50.0006 78.4803C49.3746 78.9106 48.6976 79.1462 47.9696 79.1871C47.2544 79.1873 46.5824 78.9775 45.9536 78.5578C45.2026 78.0998 44.6998 77.5629 44.4451 76.947C44.2438 76.3031 44.1431 75.6236 44.1429 74.9083C44.1961 74.1651 44.3168 73.4206 44.5049 72.6747C44.7058 71.8882 44.8672 71.1564 44.9892 70.4793C45.2789 68.6924 45.678 66.9844 46.1866 65.3553C46.3264 64.9073 46.5108 64.3168 46.7397 63.5836C46.9685 62.8505 47.1771 62.1111 47.3652 61.3653C47.566 60.5787 47.7542 59.8329 47.9296 59.1278C48.1585 58.3947 48.3429 57.8041 48.4827 57.3561C48.6989 56.6638 48.8616 55.9994 48.9708 55.363C49.0928 54.686 48.9196 54.0955 48.4511 53.5917C48.2449 53.3932 47.9789 53.2431 47.653 53.1414C47.3272 53.0397 46.9403 52.9189 46.4923 52.779L45.2093 52.3785C44.993 52.3556 44.783 52.3124 44.5794 52.2489C44.3884 52.1446 44.1911 52.0606 43.9875 51.997L36.9619 49.8037C36.1474 49.5494 35.3201 49.3359 34.4801 49.163C33.6935 48.9622 32.893 48.7346 32.0784 48.4803C31.2639 48.226 30.4289 47.9653 29.5736 47.6983C28.7718 47.4033 27.9509 47.1694 27.1109 46.9965C26.7723 46.9355 26.5076 46.8529 26.3167 46.7486C26.1665 46.657 25.9285 46.5603 25.6027 46.4586L22.5481 45.505Z" fill="#7096D1"/>
<path d="M115.263 91.5904C115.987 91.6225 116.747 91.827 117.542 92.2039C118.379 92.5827 119.014 93.1874 119.447 94.018C119.921 94.8932 120.006 95.8579 119.703 96.9122C119.462 97.5421 119.141 98.0404 118.74 98.407C118.384 98.7329 117.9 99.0531 117.288 99.3677C116.283 99.8784 115.31 100.156 114.369 100.199C113.427 100.243 112.402 100.24 111.294 100.191C111.166 100.185 110.996 100.178 110.783 100.168C110.612 100.161 110.228 100.144 109.632 100.118C109.078 100.093 108.268 100.057 107.202 100.01C106.181 99.9219 104.754 99.8373 102.921 99.7561C101.133 99.6342 98.8745 99.5127 96.1466 99.3919C93.4631 99.2303 90.2042 99.0432 86.3698 98.8306C84.7501 98.7588 83.4334 98.5937 82.4199 98.3352C81.4489 98.0787 80.6561 97.6592 80.0412 97.0767C79.4283 96.4516 78.9731 95.6414 78.6755 94.6459C78.4225 93.6097 78.2447 92.3205 78.1422 90.7785C78.0084 88.9788 77.984 87.1199 78.069 85.2018C78.1539 83.2836 78.2285 81.6 78.2928 80.1507C78.2992 79.0406 78.3261 77.9527 78.3733 76.8871C78.465 75.7807 78.5354 74.6734 78.5845 73.5652C78.6261 72.6274 78.7306 71.7138 78.8982 70.8244C79.1234 69.5958 79.7674 68.5566 80.8301 67.7068C81.3178 67.3014 81.8407 67.0683 82.3986 67.0076C82.9583 66.9043 83.5338 66.9298 84.1249 67.0841C84.9253 67.3331 85.5709 67.7034 86.0616 68.1949C86.5968 68.6457 87.0023 69.1334 87.278 69.6582C87.5537 70.1829 87.7442 70.7038 87.8494 71.221C87.9565 71.6955 88.0025 72.1033 87.9874 72.4443L87.738 88.1927C87.741 89.0897 87.9277 89.6959 88.2981 90.0113C88.713 90.2859 89.4106 90.4449 90.391 90.4884C93.801 90.6395 96.6782 90.767 99.0226 90.8708C101.41 90.9766 103.37 91.0635 104.905 91.1315C106.482 91.2013 107.718 91.2561 108.613 91.2958C109.551 91.3373 110.254 91.3685 110.723 91.3893C111.192 91.41 111.512 91.4242 111.682 91.4318C111.895 91.4412 112.066 91.4487 112.194 91.4544C112.666 91.3899 113.157 91.3903 113.667 91.4556C114.219 91.5228 114.751 91.5677 115.263 91.5904Z" fill="#FFF2D0"/>
<path d="M115.263 91.5904C115.987 91.6225 116.747 91.827 117.542 92.2039C118.379 92.5827 119.014 93.1874 119.447 94.018C119.921 94.8932 120.006 95.8579 119.703 96.9122C119.462 97.5421 119.141 98.0404 118.74 98.407C118.384 98.7329 117.9 99.0531 117.288 99.3677C116.283 99.8784 115.31 100.156 114.369 100.199C113.427 100.243 112.402 100.24 111.294 100.191C111.166 100.185 110.996 100.178 110.783 100.168C110.612 100.161 110.228 100.144 109.632 100.118C109.078 100.093 108.268 100.057 107.202 100.01C106.181 99.9219 104.754 99.8373 102.921 99.7561C101.133 99.6342 98.8745 99.5127 96.1466 99.3919C93.4631 99.2303 90.2042 99.0432 86.3698 98.8306C84.7501 98.7588 83.4334 98.5937 82.4199 98.3352C81.4489 98.0787 80.6561 97.6592 80.0412 97.0767C79.4283 96.4516 78.9731 95.6414 78.6755 94.6459C78.4225 93.6097 78.2447 92.3205 78.1422 90.7785C78.0084 88.9788 77.984 87.1199 78.069 85.2018C78.1539 83.2836 78.2285 81.6 78.2928 80.1507C78.2992 79.0406 78.3261 77.9527 78.3733 76.8871C78.465 75.7807 78.5354 74.6734 78.5845 73.5652C78.6261 72.6274 78.7306 71.7138 78.8982 70.8244C79.1234 69.5958 79.7674 68.5566 80.8301 67.7068C81.3178 67.3014 81.8407 67.0683 82.3986 67.0076C82.9583 66.9043 83.5338 66.9298 84.1249 67.0841C84.9253 67.3331 85.5709 67.7034 86.0616 68.1949C86.5968 68.6457 87.0023 69.1334 87.278 69.6582C87.5537 70.1829 87.7442 70.7038 87.8494 71.221C87.9565 71.6955 88.0025 72.1033 87.9874 72.4443L87.738 88.1927C87.741 89.0897 87.9277 89.6959 88.2981 90.0113C88.713 90.2859 89.4106 90.4449 90.391 90.4884C93.801 90.6395 96.6782 90.767 99.0226 90.8708C101.41 90.9766 103.37 91.0635 104.905 91.1315C106.482 91.2013 107.718 91.2561 108.613 91.2958C109.551 91.3373 110.254 91.3685 110.723 91.3893C111.192 91.41 111.512 91.4242 111.682 91.4318C111.895 91.4412 112.066 91.4487 112.194 91.4544C112.666 91.3899 113.157 91.3903 113.667 91.4556C114.219 91.5228 114.751 91.5677 115.263 91.5904Z" fill="#ADC8F0"/>
<rect x="99.5221" y="103.292" width="67.5805" height="18" rx="9" transform="rotate(25.0131 99.5221 103.292)" fill="#FFB84E"/>
<path d="M166.46 65.2076C166.899 65.3932 167.284 65.732 167.615 66.2239C167.943 66.6732 168.165 67.1293 168.28 67.5923C168.437 68.0525 168.467 68.5208 168.37 68.9974C168.312 69.4286 168.145 69.8241 167.868 70.1838C166.854 71.7023 165.326 72.5483 163.285 72.7216C159.163 73.1135 154.972 73.4244 150.711 73.6542C146.49 73.8387 141.91 74.089 136.971 74.4049C135.991 74.4676 134.968 74.5117 133.901 74.5372C132.874 74.5174 131.905 74.4084 130.994 74.2101C130.257 74.0435 129.572 73.7025 128.941 73.1871C128.352 72.669 127.864 72.0589 127.477 71.3568C127.234 70.9021 127.049 70.3581 126.923 69.7248C126.797 69.0916 126.694 68.4782 126.613 67.8849C126.53 67.2489 126.475 66.718 126.447 66.2922C126.46 65.8211 126.465 65.5643 126.462 65.5217L125.719 53.8974C125.713 53.8123 125.674 53.5369 125.602 53.0712C125.572 52.6029 125.559 52.0692 125.563 51.4704C125.608 50.8263 125.673 50.1808 125.76 49.5339C125.844 48.8445 126.04 48.2334 126.348 47.7006C126.847 46.8136 127.663 46.2056 128.797 45.8766C129.93 45.5476 131.093 45.3449 132.285 45.2686L159.046 43.5567C159.089 43.554 159.41 43.5548 160.009 43.5593C160.605 43.5211 161.269 43.5428 162.001 43.6242C162.733 43.7057 163.429 43.8963 164.09 44.196C164.793 44.4931 165.272 44.9754 165.529 45.6431C165.63 45.8931 165.693 46.2098 165.718 46.593C165.782 46.9309 165.827 47.2915 165.851 47.6747C165.876 48.0579 165.856 48.4225 165.793 48.7686C165.772 49.112 165.725 49.3715 165.65 49.5473C165.348 50.1652 164.84 50.5825 164.127 50.7991C163.499 51.0103 162.334 51.1703 160.631 51.2793L137.702 52.7461C136.722 52.8088 135.988 53.0267 135.499 53.4001C135.052 53.7707 134.716 54.1983 134.491 54.683C134.305 55.1225 134.227 55.5763 134.257 56.0447C134.284 56.4705 134.305 56.7899 134.318 57.0028L134.946 62.7985C135.015 63.2216 135.091 63.7299 135.171 64.3232C135.295 64.9139 135.514 65.3274 135.828 65.5639C136.281 65.9624 136.828 66.1626 137.47 66.1643C138.151 66.1207 138.875 66.0744 139.641 66.0254L161.161 64.5846C163.248 64.4511 165.014 64.6588 166.46 65.2076Z" fill="#FFF2D0"/>
<path d="M166.46 65.2076C166.899 65.3932 167.284 65.732 167.615 66.2239C167.943 66.6732 168.165 67.1293 168.28 67.5923C168.437 68.0525 168.467 68.5208 168.37 68.9974C168.312 69.4286 168.145 69.8241 167.868 70.1838C166.854 71.7023 165.326 72.5483 163.285 72.7216C159.163 73.1135 154.972 73.4244 150.711 73.6542C146.49 73.8387 141.91 74.089 136.971 74.4049C135.991 74.4676 134.968 74.5117 133.901 74.5372C132.874 74.5174 131.905 74.4084 130.994 74.2101C130.257 74.0435 129.572 73.7025 128.941 73.1871C128.352 72.669 127.864 72.0589 127.477 71.3568C127.234 70.9021 127.049 70.3581 126.923 69.7248C126.797 69.0916 126.694 68.4782 126.613 67.8849C126.53 67.2489 126.475 66.718 126.447 66.2922C126.46 65.8211 126.465 65.5643 126.462 65.5217L125.719 53.8974C125.713 53.8123 125.674 53.5369 125.602 53.0712C125.572 52.6029 125.559 52.0692 125.563 51.4704C125.608 50.8263 125.673 50.1808 125.76 49.5339C125.844 48.8445 126.04 48.2334 126.348 47.7006C126.847 46.8136 127.663 46.2056 128.797 45.8766C129.93 45.5476 131.093 45.3449 132.285 45.2686L159.046 43.5567C159.089 43.554 159.41 43.5548 160.009 43.5593C160.605 43.5211 161.269 43.5428 162.001 43.6242C162.733 43.7057 163.429 43.8963 164.09 44.196C164.793 44.4931 165.272 44.9754 165.529 45.6431C165.63 45.8931 165.693 46.2098 165.718 46.593C165.782 46.9309 165.827 47.2915 165.851 47.6747C165.876 48.0579 165.856 48.4225 165.793 48.7686C165.772 49.112 165.725 49.3715 165.65 49.5473C165.348 50.1652 164.84 50.5825 164.127 50.7991C163.499 51.0103 162.334 51.1703 160.631 51.2793L137.702 52.7461C136.722 52.8088 135.988 53.0267 135.499 53.4001C135.052 53.7707 134.716 54.1983 134.491 54.683C134.305 55.1225 134.227 55.5763 134.257 56.0447C134.284 56.4705 134.305 56.7899 134.318 57.0028L134.946 62.7985C135.015 63.2216 135.091 63.7299 135.171 64.3232C135.295 64.9139 135.514 65.3274 135.828 65.5639C136.281 65.9624 136.828 66.1626 137.47 66.1643C138.151 66.1207 138.875 66.0744 139.641 66.0254L161.161 64.5846C163.248 64.4511 165.014 64.6588 166.46 65.2076Z" fill="#577DB7"/>
<circle cx="165.5" cy="97.5" r="27.5" fill="#FFB84E"/>
<path d="M130 155C130 140.088 142.088 128 157 128H177C191.912 128 204 140.088 204 155V164H130V155Z" fill="#FFB84E"/>
<path d="M167 140L158.34 128L175.66 128L167 140Z" fill="white"/>
</svg>
