<svg width="211" height="164" viewBox="0 0 211 164" fill="none" xmlns="http://www.w3.org/2000/svg">
<path d="M0 131C0 129.343 1.34315 128 3 128H208C209.657 128 211 129.343 211 131V136C211 137.657 209.657 139 208 139H3C1.34315 139 0 137.657 0 136V131Z" fill="#577DB7"/>
<rect x="4" y="11" width="203" height="117" fill="#FFF7E2"/>
<rect x="99.5221" y="103.292" width="67.5805" height="18" rx="9" transform="rotate(25.0131 99.5221 103.292)" fill="#649DF6"/>
<path d="M0 3C0 1.34315 1.34315 0 3 0H208C209.657 0 211 1.34315 211 3V8C211 9.65685 209.657 11 208 11H3C1.34315 11 0 9.65685 0 8V3Z" fill="#577DB7"/>
<path d="M20.85 37.6L20.75 45.45H22.75C24.1167 45.4167 25.3333 45.4 26.4 45.4C27.4667 45.4 28.65 45.4167 29.95 45.45H30.2C30.6 45.45 30.9833 45.4667 31.35 45.5C31.75 45.5 32.1333 45.5 32.5 45.5C32.9 45.5333 33.2833 45.6 33.65 45.7C34.0167 45.7667 34.3833 45.85 34.75 45.95C35.3167 46.15 35.7833 46.45 36.15 46.85C36.4833 47.2833 36.65 47.7667 36.65 48.3C36.65 48.4667 36.65 48.6667 36.65 48.9C36.65 49.1 36.6167 49.2833 36.55 49.45C36.4833 49.8167 36.2667 50.15 35.9 50.45C35.7333 50.6833 35.4167 50.85 34.95 50.95C34.5167 51.0833 34.0833 51.1667 33.65 51.2C33.1833 51.3 32.7167 51.35 32.25 51.35H29.9L20.65 51.4L20.55 61.2L30.5 61.3H32.85C33.1167 61.3 33.3667 61.3 33.6 61.3C33.8333 61.3 34.05 61.3167 34.25 61.35C34.5167 61.4167 34.75 61.4667 34.95 61.5C35.1833 61.5 35.4 61.5333 35.6 61.6C36 61.7333 36.3333 61.9167 36.6 62.15C36.9333 62.4833 37.15 62.8333 37.25 63.2C37.2833 63.3667 37.3 63.55 37.3 63.75C37.3333 63.9167 37.3333 64.1 37.3 64.3C37.3 64.8333 37.1333 65.3167 36.8 65.75C36.4 66.2167 35.9333 66.5167 35.4 66.65C34.7 66.95 33.9333 67.1 33.1 67.1C32.7333 67.1333 32.35 67.15 31.95 67.15C31.55 67.15 31.1667 67.1667 30.8 67.2H30.5C27.9 67.2667 25.2 67.2667 22.4 67.2C21.7333 67.2 21.2 67.1833 20.8 67.15C20.4 67.15 20.0333 67.15 19.7 67.15C19.4 67.15 19.0833 67.15 18.75 67.15C18.4167 67.15 17.9833 67.15 17.45 67.15C16.6833 67.2167 16.05 67.0833 15.55 66.75C15.1833 66.5167 14.9 66.2 14.7 65.8C14.6 65.7 14.55 65.6 14.55 65.5C14.5167 65.4333 14.4833 65.3833 14.45 65.35C14.4167 65.3167 14.3833 65.2667 14.35 65.2C14.2833 65.0333 14.2333 64.8667 14.2 64.7C14.1667 64.5 14.15 64.3167 14.15 64.15C14.1167 63.9833 14.0833 63.8167 14.05 63.65C14.05 63.4833 14.0333 63.3167 14 63.15V62.35C14 62.2167 14 62.0833 14 61.95C14.0333 61.8167 14.05 61.6833 14.05 61.55V57.65L14.15 50.45V43.8C14.15 42.6 14.15 41.5333 14.15 40.6C14.1833 39.6667 14.2167 38.65 14.25 37.55V37.3C14.2833 36.9333 14.3 36.6 14.3 36.3C14.3333 35.9667 14.35 35.6333 14.35 35.3C14.3833 34.6333 14.5667 33.9833 14.9 33.35C15.0333 33.0833 15.1667 32.85 15.3 32.65C15.4667 32.45 15.6833 32.2833 15.95 32.15C16.45 31.85 16.9667 31.7 17.5 31.7C17.7667 31.7 17.9667 31.7167 18.1 31.75V31.7C18.7 31.7 19.1833 31.7 19.55 31.7C19.9167 31.7 20.2667 31.7 20.6 31.7C20.9667 31.7 21.35 31.7 21.75 31.7C22.15 31.6667 22.7 31.65 23.4 31.65C24.7333 31.6167 26 31.6 27.2 31.6C28.4 31.6 29.6333 31.6167 30.9 31.65H31.1C31.4667 31.6833 31.85 31.7 32.25 31.7C32.65 31.7 33.0333 31.7167 33.4 31.75C33.7667 31.75 34.1333 31.8 34.5 31.9C34.8667 31.9667 35.2333 32.0667 35.6 32.2C36.1667 32.3667 36.6333 32.65 37 33.05C37.3 33.5167 37.45 33.9833 37.45 34.45C37.45 34.65 37.45 34.85 37.45 35.05C37.45 35.2167 37.4167 35.3833 37.35 35.55C37.3167 35.8833 37.1167 36.2333 36.75 36.6C36.6167 36.6667 36.4667 36.75 36.3 36.85C36.1667 36.95 36 37.0333 35.8 37.1C35.6 37.1667 35.3833 37.2167 35.15 37.25C34.95 37.25 34.75 37.2667 34.55 37.3C34.2833 37.3667 34.0333 37.4 33.8 37.4C33.6 37.4 33.3667 37.4 33.1 37.4H30.85L20.85 37.45V37.6ZM107.849 48.05C107.849 48.9833 107.849 50.0333 107.849 51.2C107.882 52.3667 107.899 53.5833 107.899 54.85C107.899 56.0833 107.899 57.3167 107.899 58.55C107.899 59.75 107.882 60.8667 107.849 61.9C107.815 62.4 107.765 62.95 107.699 63.55C107.632 64.1167 107.499 64.65 107.299 65.15C107.099 65.65 106.782 66.0667 106.349 66.4C105.949 66.7 105.399 66.8333 104.699 66.8C103.665 66.7333 102.915 66.2833 102.449 65.45C102.015 64.6167 101.765 63.45 101.699 61.95C101.699 61.1833 101.682 60.3 101.649 59.3C101.649 58.3 101.632 57.2833 101.599 56.25C101.599 55.2167 101.599 54.2167 101.599 53.25C101.599 52.25 101.599 51.35 101.599 50.55C101.599 50.0833 101.582 49.5167 101.549 48.85C101.549 48.1833 101.565 47.5 101.599 46.8C101.632 46.1 101.715 45.4333 101.849 44.8C101.982 44.1333 102.199 43.5833 102.499 43.15C102.732 42.8833 103.065 42.6833 103.499 42.55C103.932 42.3833 104.382 42.3 104.849 42.3C105.349 42.3 105.815 42.3833 106.249 42.55C106.715 42.7167 107.049 42.95 107.249 43.25C107.382 43.45 107.482 43.7333 107.549 44.1C107.615 44.4667 107.665 44.8833 107.699 45.35C107.765 45.7833 107.799 46.25 107.799 46.75C107.832 47.2167 107.849 47.65 107.849 48.05ZM105.949 37.95C104.915 38.2167 104.049 38.1167 103.349 37.65C102.682 37.15 102.265 36.4167 102.099 35.45C101.965 34.75 102.015 34.1333 102.249 33.6C102.482 33.0667 102.832 32.6667 103.299 32.4C103.765 32.1 104.299 31.9667 104.899 32C105.499 32.0333 106.099 32.2667 106.699 32.7C107.265 33.1 107.665 33.5667 107.899 34.1C108.165 34.6333 108.249 35.15 108.149 35.65C108.082 36.15 107.865 36.6167 107.499 37.05C107.132 37.45 106.615 37.75 105.949 37.95Z" fill="#FFB84E"/>
<path d="M20.85 37.6L20.75 45.45H22.75C24.1167 45.4167 25.3333 45.4 26.4 45.4C27.4667 45.4 28.65 45.4167 29.95 45.45H30.2C30.6 45.45 30.9833 45.4667 31.35 45.5C31.75 45.5 32.1333 45.5 32.5 45.5C32.9 45.5333 33.2833 45.6 33.65 45.7C34.0167 45.7667 34.3833 45.85 34.75 45.95C35.3167 46.15 35.7833 46.45 36.15 46.85C36.4833 47.2833 36.65 47.7667 36.65 48.3C36.65 48.4667 36.65 48.6667 36.65 48.9C36.65 49.1 36.6167 49.2833 36.55 49.45C36.4833 49.8167 36.2667 50.15 35.9 50.45C35.7333 50.6833 35.4167 50.85 34.95 50.95C34.5167 51.0833 34.0833 51.1667 33.65 51.2C33.1833 51.3 32.7167 51.35 32.25 51.35H29.9L20.65 51.4L20.55 61.2L30.5 61.3H32.85C33.1167 61.3 33.3667 61.3 33.6 61.3C33.8333 61.3 34.05 61.3167 34.25 61.35C34.5167 61.4167 34.75 61.4667 34.95 61.5C35.1833 61.5 35.4 61.5333 35.6 61.6C36 61.7333 36.3333 61.9167 36.6 62.15C36.9333 62.4833 37.15 62.8333 37.25 63.2C37.2833 63.3667 37.3 63.55 37.3 63.75C37.3333 63.9167 37.3333 64.1 37.3 64.3C37.3 64.8333 37.1333 65.3167 36.8 65.75C36.4 66.2167 35.9333 66.5167 35.4 66.65C34.7 66.95 33.9333 67.1 33.1 67.1C32.7333 67.1333 32.35 67.15 31.95 67.15C31.55 67.15 31.1667 67.1667 30.8 67.2H30.5C27.9 67.2667 25.2 67.2667 22.4 67.2C21.7333 67.2 21.2 67.1833 20.8 67.15C20.4 67.15 20.0333 67.15 19.7 67.15C19.4 67.15 19.0833 67.15 18.75 67.15C18.4167 67.15 17.9833 67.15 17.45 67.15C16.6833 67.2167 16.05 67.0833 15.55 66.75C15.1833 66.5167 14.9 66.2 14.7 65.8C14.6 65.7 14.55 65.6 14.55 65.5C14.5167 65.4333 14.4833 65.3833 14.45 65.35C14.4167 65.3167 14.3833 65.2667 14.35 65.2C14.2833 65.0333 14.2333 64.8667 14.2 64.7C14.1667 64.5 14.15 64.3167 14.15 64.15C14.1167 63.9833 14.0833 63.8167 14.05 63.65C14.05 63.4833 14.0333 63.3167 14 63.15V62.35C14 62.2167 14 62.0833 14 61.95C14.0333 61.8167 14.05 61.6833 14.05 61.55V57.65L14.15 50.45V43.8C14.15 42.6 14.15 41.5333 14.15 40.6C14.1833 39.6667 14.2167 38.65 14.25 37.55V37.3C14.2833 36.9333 14.3 36.6 14.3 36.3C14.3333 35.9667 14.35 35.6333 14.35 35.3C14.3833 34.6333 14.5667 33.9833 14.9 33.35C15.0333 33.0833 15.1667 32.85 15.3 32.65C15.4667 32.45 15.6833 32.2833 15.95 32.15C16.45 31.85 16.9667 31.7 17.5 31.7C17.7667 31.7 17.9667 31.7167 18.1 31.75V31.7C18.7 31.7 19.1833 31.7 19.55 31.7C19.9167 31.7 20.2667 31.7 20.6 31.7C20.9667 31.7 21.35 31.7 21.75 31.7C22.15 31.6667 22.7 31.65 23.4 31.65C24.7333 31.6167 26 31.6 27.2 31.6C28.4 31.6 29.6333 31.6167 30.9 31.65H31.1C31.4667 31.6833 31.85 31.7 32.25 31.7C32.65 31.7 33.0333 31.7167 33.4 31.75C33.7667 31.75 34.1333 31.8 34.5 31.9C34.8667 31.9667 35.2333 32.0667 35.6 32.2C36.1667 32.3667 36.6333 32.65 37 33.05C37.3 33.5167 37.45 33.9833 37.45 34.45C37.45 34.65 37.45 34.85 37.45 35.05C37.45 35.2167 37.4167 35.3833 37.35 35.55C37.3167 35.8833 37.1167 36.2333 36.75 36.6C36.6167 36.6667 36.4667 36.75 36.3 36.85C36.1667 36.95 36 37.0333 35.8 37.1C35.6 37.1667 35.3833 37.2167 35.15 37.25C34.95 37.25 34.75 37.2667 34.55 37.3C34.2833 37.3667 34.0333 37.4 33.8 37.4C33.6 37.4 33.3667 37.4 33.1 37.4H30.85L20.85 37.45V37.6ZM107.849 48.05C107.849 48.9833 107.849 50.0333 107.849 51.2C107.882 52.3667 107.899 53.5833 107.899 54.85C107.899 56.0833 107.899 57.3167 107.899 58.55C107.899 59.75 107.882 60.8667 107.849 61.9C107.815 62.4 107.765 62.95 107.699 63.55C107.632 64.1167 107.499 64.65 107.299 65.15C107.099 65.65 106.782 66.0667 106.349 66.4C105.949 66.7 105.399 66.8333 104.699 66.8C103.665 66.7333 102.915 66.2833 102.449 65.45C102.015 64.6167 101.765 63.45 101.699 61.95C101.699 61.1833 101.682 60.3 101.649 59.3C101.649 58.3 101.632 57.2833 101.599 56.25C101.599 55.2167 101.599 54.2167 101.599 53.25C101.599 52.25 101.599 51.35 101.599 50.55C101.599 50.0833 101.582 49.5167 101.549 48.85C101.549 48.1833 101.565 47.5 101.599 46.8C101.632 46.1 101.715 45.4333 101.849 44.8C101.982 44.1333 102.199 43.5833 102.499 43.15C102.732 42.8833 103.065 42.6833 103.499 42.55C103.932 42.3833 104.382 42.3 104.849 42.3C105.349 42.3 105.815 42.3833 106.249 42.55C106.715 42.7167 107.049 42.95 107.249 43.25C107.382 43.45 107.482 43.7333 107.549 44.1C107.615 44.4667 107.665 44.8833 107.699 45.35C107.765 45.7833 107.799 46.25 107.799 46.75C107.832 47.2167 107.849 47.65 107.849 48.05ZM105.949 37.95C104.915 38.2167 104.049 38.1167 103.349 37.65C102.682 37.15 102.265 36.4167 102.099 35.45C101.965 34.75 102.015 34.1333 102.249 33.6C102.482 33.0667 102.832 32.6667 103.299 32.4C103.765 32.1 104.299 31.9667 104.899 32C105.499 32.0333 106.099 32.2667 106.699 32.7C107.265 33.1 107.665 33.5667 107.899 34.1C108.165 34.6333 108.249 35.15 108.149 35.65C108.082 36.15 107.865 36.6167 107.499 37.05C107.132 37.45 106.615 37.75 105.949 37.95Z" fill="#FFB84E"/>
<path d="M41.4914 49.15C41.4914 48.3833 41.4747 47.5667 41.4414 46.7C41.4414 45.8333 41.5914 45.05 41.8914 44.35C42.1581 43.7167 42.5914 43.2667 43.1914 43C43.8247 42.7 44.4414 42.6333 45.0414 42.8C45.6414 42.9 46.1081 43.0833 46.4414 43.35C46.7747 43.6167 47.0081 43.9333 47.1414 44.3C47.3081 44.6333 47.4081 45.0333 47.4414 45.5C47.4747 45.9333 47.5081 46.3667 47.5414 46.8C47.8747 46.2 48.2914 45.7167 48.7914 45.35C49.2914 44.9833 49.8081 44.6833 50.3414 44.45C50.8747 44.2167 51.3747 44.05 51.8414 43.95C52.3414 43.85 52.7247 43.8 52.9914 43.8C54.2581 43.8 55.5081 44.0833 56.7414 44.65C58.0081 45.1833 59.0581 45.95 59.8914 46.95C60.3581 47.55 60.7081 48.1833 60.9414 48.85C61.2081 49.4833 61.3914 50.15 61.4914 50.85C61.6247 51.55 61.7081 52.2667 61.7414 53C61.7747 53.7 61.8081 54.4167 61.8414 55.15C62.0081 57.2833 62.0081 59.4 61.8414 61.5C61.8081 61.9333 61.7914 62.4333 61.7914 63C61.7914 63.5667 61.7414 64.1333 61.6414 64.7C61.5747 65.2333 61.4247 65.7167 61.1914 66.15C60.9914 66.55 60.6414 66.8 60.1414 66.9C59.4414 67.0667 58.8581 67.1 58.3914 67C57.9581 66.9333 57.6081 66.7833 57.3414 66.55C57.0747 66.3167 56.8747 66.0167 56.7414 65.65C56.6081 65.2833 56.4914 64.8667 56.3914 64.4C56.3247 64.0333 56.2581 63.6167 56.1914 63.15C56.1581 62.65 56.1247 62.15 56.0914 61.65C56.0914 61.15 56.0747 60.6667 56.0414 60.2C56.0414 59.7 56.0414 59.25 56.0414 58.85C56.0414 58.2167 56.0247 57.5167 55.9914 56.75C55.9581 55.9833 55.9581 55.2667 55.9914 54.6C55.9914 53.0333 55.5747 51.85 54.7414 51.05C53.9414 50.2167 52.8414 49.8667 51.4414 50C50.3747 50.1333 49.4414 50.5667 48.6414 51.3C47.8414 52 47.4581 52.9167 47.4914 54.05C47.4914 54.4833 47.4914 54.8833 47.4914 55.25C47.4914 55.6167 47.4747 55.9833 47.4414 56.35C47.4414 56.7167 47.4414 57.1167 47.4414 57.55C47.4414 57.9833 47.4414 58.4667 47.4414 59C47.4414 60.1 47.4414 61.2667 47.4414 62.5C47.4414 63.7 47.2914 64.6833 46.9914 65.45C46.7247 66.25 46.2747 66.8 45.6414 67.1C45.0081 67.4 44.2581 67.3167 43.3914 66.85C43.0247 66.65 42.7247 66.3833 42.4914 66.05C42.2914 65.6833 42.1247 65.3 41.9914 64.9C41.8914 64.5 41.8247 64.1 41.7914 63.7C41.7581 63.2667 41.7247 62.8667 41.6914 62.5C41.5914 61.4 41.5247 60.3833 41.4914 59.45C41.4914 58.4833 41.4914 57.45 41.4914 56.35V49.15Z" fill="#FFB84E"/>
<path d="M41.4914 49.15C41.4914 48.3833 41.4747 47.5667 41.4414 46.7C41.4414 45.8333 41.5914 45.05 41.8914 44.35C42.1581 43.7167 42.5914 43.2667 43.1914 43C43.8247 42.7 44.4414 42.6333 45.0414 42.8C45.6414 42.9 46.1081 43.0833 46.4414 43.35C46.7747 43.6167 47.0081 43.9333 47.1414 44.3C47.3081 44.6333 47.4081 45.0333 47.4414 45.5C47.4747 45.9333 47.5081 46.3667 47.5414 46.8C47.8747 46.2 48.2914 45.7167 48.7914 45.35C49.2914 44.9833 49.8081 44.6833 50.3414 44.45C50.8747 44.2167 51.3747 44.05 51.8414 43.95C52.3414 43.85 52.7247 43.8 52.9914 43.8C54.2581 43.8 55.5081 44.0833 56.7414 44.65C58.0081 45.1833 59.0581 45.95 59.8914 46.95C60.3581 47.55 60.7081 48.1833 60.9414 48.85C61.2081 49.4833 61.3914 50.15 61.4914 50.85C61.6247 51.55 61.7081 52.2667 61.7414 53C61.7747 53.7 61.8081 54.4167 61.8414 55.15C62.0081 57.2833 62.0081 59.4 61.8414 61.5C61.8081 61.9333 61.7914 62.4333 61.7914 63C61.7914 63.5667 61.7414 64.1333 61.6414 64.7C61.5747 65.2333 61.4247 65.7167 61.1914 66.15C60.9914 66.55 60.6414 66.8 60.1414 66.9C59.4414 67.0667 58.8581 67.1 58.3914 67C57.9581 66.9333 57.6081 66.7833 57.3414 66.55C57.0747 66.3167 56.8747 66.0167 56.7414 65.65C56.6081 65.2833 56.4914 64.8667 56.3914 64.4C56.3247 64.0333 56.2581 63.6167 56.1914 63.15C56.1581 62.65 56.1247 62.15 56.0914 61.65C56.0914 61.15 56.0747 60.6667 56.0414 60.2C56.0414 59.7 56.0414 59.25 56.0414 58.85C56.0414 58.2167 56.0247 57.5167 55.9914 56.75C55.9581 55.9833 55.9581 55.2667 55.9914 54.6C55.9914 53.0333 55.5747 51.85 54.7414 51.05C53.9414 50.2167 52.8414 49.8667 51.4414 50C50.3747 50.1333 49.4414 50.5667 48.6414 51.3C47.8414 52 47.4581 52.9167 47.4914 54.05C47.4914 54.4833 47.4914 54.8833 47.4914 55.25C47.4914 55.6167 47.4747 55.9833 47.4414 56.35C47.4414 56.7167 47.4414 57.1167 47.4414 57.55C47.4414 57.9833 47.4414 58.4667 47.4414 59C47.4414 60.1 47.4414 61.2667 47.4414 62.5C47.4414 63.7 47.2914 64.6833 46.9914 65.45C46.7247 66.25 46.2747 66.8 45.6414 67.1C45.0081 67.4 44.2581 67.3167 43.3914 66.85C43.0247 66.65 42.7247 66.3833 42.4914 66.05C42.2914 65.6833 42.1247 65.3 41.9914 64.9C41.8914 64.5 41.8247 64.1 41.7914 63.7C41.7581 63.2667 41.7247 62.8667 41.6914 62.5C41.5914 61.4 41.5247 60.3833 41.4914 59.45C41.4914 58.4833 41.4914 57.45 41.4914 56.35V49.15Z" fill="#D0E3FF"/>
<path d="M86.752 57.55C86.752 58.6167 86.7186 59.7667 86.652 61C86.6186 62.2333 86.5686 63.3833 86.502 64.45C86.502 65.45 86.452 66.45 86.352 67.45C86.2853 68.3167 86.152 69.25 85.952 70.25C85.752 71.2833 85.4686 72.2333 85.102 73.1C84.6353 74.2333 84.002 75.2 83.202 76C82.402 76.8333 81.3686 77.4333 80.102 77.8C79.0353 78.0667 78.0353 78.2333 77.102 78.3C76.1686 78.4 75.1686 78.3833 74.102 78.25C73.402 78.15 72.652 77.95 71.852 77.65C71.052 77.3833 70.302 77.0333 69.602 76.6C68.902 76.1667 68.2853 75.65 67.752 75.05C67.2186 74.4833 66.852 73.8333 66.652 73.1C66.4186 72.2 66.402 71.4167 66.602 70.75C66.8353 70.0833 67.1853 69.6 67.652 69.3C68.1186 69 68.6686 68.95 69.302 69.15C69.9353 69.35 70.5353 69.8667 71.102 70.7C71.502 71.3 72.0853 71.7833 72.852 72.15C73.6186 72.5167 74.4353 72.7333 75.302 72.8C76.1686 72.8667 77.002 72.75 77.802 72.45C78.6353 72.1833 79.2853 71.7 79.752 71C80.0853 70.5 80.3186 69.7833 80.452 68.85C80.6186 67.9167 80.7186 67 80.752 66.1C79.052 66.8 77.302 67.0667 75.502 66.9C73.7353 66.7 72.1186 66.15 70.652 65.25C69.2186 64.3167 68.052 63.0833 67.152 61.55C66.2853 59.9833 65.9186 58.2167 66.052 56.25C66.152 54.55 66.502 52.95 67.102 51.45C67.7353 49.95 68.7686 48.7 70.202 47.7C71.3686 46.9 72.6853 46.3833 74.152 46.15C75.6186 45.8833 77.0353 45.75 78.402 45.75C79.202 45.75 79.9853 45.75 80.752 45.75C81.552 45.75 82.2853 45.85 82.952 46.05C83.6186 46.25 84.2186 46.5833 84.752 47.05C85.2853 47.5167 85.6853 48.2 85.952 49.1C86.3853 50.5 86.6186 51.8833 86.652 53.25C86.7186 54.6167 86.752 56.05 86.752 57.55ZM77.102 61.7C77.4353 61.7 77.752 61.6667 78.052 61.6C78.3853 61.5333 78.702 61.45 79.002 61.35C79.5686 61.15 79.9853 60.8833 80.252 60.55C80.552 60.2167 80.752 59.85 80.852 59.45C80.952 59.0167 80.9853 58.55 80.952 58.05C80.952 57.55 80.952 57.0333 80.952 56.5C80.952 56.0667 80.9353 55.5833 80.902 55.05C80.902 54.5167 80.8686 54.0167 80.802 53.55C80.7353 53.05 80.6353 52.6167 80.502 52.25C80.3686 51.8833 80.1686 51.65 79.902 51.55C79.4353 51.4167 78.902 51.3333 78.302 51.3C77.702 51.2333 77.102 51.2333 76.502 51.3C75.902 51.3333 75.3186 51.45 74.752 51.65C74.2186 51.8167 73.7686 52.05 73.402 52.35C72.902 52.7833 72.5186 53.3167 72.252 53.95C71.9853 54.5833 71.8186 55.25 71.752 55.95C71.7186 56.65 71.7686 57.3333 71.902 58C72.0686 58.6667 72.352 59.2667 72.752 59.8C73.2186 60.4667 73.852 60.95 74.652 61.25C75.452 61.55 76.2686 61.7 77.102 61.7Z" fill="#FFB84E"/>
<path d="M86.752 57.55C86.752 58.6167 86.7186 59.7667 86.652 61C86.6186 62.2333 86.5686 63.3833 86.502 64.45C86.502 65.45 86.452 66.45 86.352 67.45C86.2853 68.3167 86.152 69.25 85.952 70.25C85.752 71.2833 85.4686 72.2333 85.102 73.1C84.6353 74.2333 84.002 75.2 83.202 76C82.402 76.8333 81.3686 77.4333 80.102 77.8C79.0353 78.0667 78.0353 78.2333 77.102 78.3C76.1686 78.4 75.1686 78.3833 74.102 78.25C73.402 78.15 72.652 77.95 71.852 77.65C71.052 77.3833 70.302 77.0333 69.602 76.6C68.902 76.1667 68.2853 75.65 67.752 75.05C67.2186 74.4833 66.852 73.8333 66.652 73.1C66.4186 72.2 66.402 71.4167 66.602 70.75C66.8353 70.0833 67.1853 69.6 67.652 69.3C68.1186 69 68.6686 68.95 69.302 69.15C69.9353 69.35 70.5353 69.8667 71.102 70.7C71.502 71.3 72.0853 71.7833 72.852 72.15C73.6186 72.5167 74.4353 72.7333 75.302 72.8C76.1686 72.8667 77.002 72.75 77.802 72.45C78.6353 72.1833 79.2853 71.7 79.752 71C80.0853 70.5 80.3186 69.7833 80.452 68.85C80.6186 67.9167 80.7186 67 80.752 66.1C79.052 66.8 77.302 67.0667 75.502 66.9C73.7353 66.7 72.1186 66.15 70.652 65.25C69.2186 64.3167 68.052 63.0833 67.152 61.55C66.2853 59.9833 65.9186 58.2167 66.052 56.25C66.152 54.55 66.502 52.95 67.102 51.45C67.7353 49.95 68.7686 48.7 70.202 47.7C71.3686 46.9 72.6853 46.3833 74.152 46.15C75.6186 45.8833 77.0353 45.75 78.402 45.75C79.202 45.75 79.9853 45.75 80.752 45.75C81.552 45.75 82.2853 45.85 82.952 46.05C83.6186 46.25 84.2186 46.5833 84.752 47.05C85.2853 47.5167 85.6853 48.2 85.952 49.1C86.3853 50.5 86.6186 51.8833 86.652 53.25C86.7186 54.6167 86.752 56.05 86.752 57.55ZM77.102 61.7C77.4353 61.7 77.752 61.6667 78.052 61.6C78.3853 61.5333 78.702 61.45 79.002 61.35C79.5686 61.15 79.9853 60.8833 80.252 60.55C80.552 60.2167 80.752 59.85 80.852 59.45C80.952 59.0167 80.9853 58.55 80.952 58.05C80.952 57.55 80.952 57.0333 80.952 56.5C80.952 56.0667 80.9353 55.5833 80.902 55.05C80.902 54.5167 80.8686 54.0167 80.802 53.55C80.7353 53.05 80.6353 52.6167 80.502 52.25C80.3686 51.8833 80.1686 51.65 79.902 51.55C79.4353 51.4167 78.902 51.3333 78.302 51.3C77.702 51.2333 77.102 51.2333 76.502 51.3C75.902 51.3333 75.3186 51.45 74.752 51.65C74.2186 51.8167 73.7686 52.05 73.402 52.35C72.902 52.7833 72.5186 53.3167 72.252 53.95C71.9853 54.5833 71.8186 55.25 71.752 55.95C71.7186 56.65 71.7686 57.3333 71.902 58C72.0686 58.6667 72.352 59.2667 72.752 59.8C73.2186 60.4667 73.852 60.95 74.652 61.25C75.452 61.55 76.2686 61.7 77.102 61.7Z" fill="#7096D1"/>
<path d="M97.4566 63C97.4233 63.1667 97.39 63.3333 97.3566 63.5C97.3566 63.6333 97.3566 63.7833 97.3566 63.95L97.0566 65C96.99 65.1333 96.94 65.2167 96.9066 65.25L96.7566 65.55C96.59 65.9167 96.29 66.2167 95.8566 66.45C95.0566 66.85 94.2066 66.95 93.3066 66.75C92.74 66.6833 92.29 66.5167 91.9566 66.25C91.6233 66.0167 91.39 65.7333 91.2566 65.4C91.1233 65.0667 91.0233 64.7333 90.9566 64.4C90.8566 64.0667 90.8066 63.7667 90.8066 63.5V35.5C90.8066 35.2667 90.8066 35.0667 90.8066 34.9C90.84 34.7 90.8733 34.5167 90.9066 34.35C90.94 34.1167 90.9733 33.9167 91.0066 33.75C91.0733 33.5833 91.14 33.4 91.2066 33.2C91.3066 32.8667 91.49 32.6 91.7566 32.4C92.1566 32.1 92.54 31.9333 92.9066 31.9C93.14 31.8333 93.3566 31.8 93.5566 31.8C93.7566 31.7667 93.99 31.75 94.2566 31.75C94.7233 31.75 95.2566 31.8833 95.8566 32.15C96.3233 32.4167 96.6566 32.7833 96.8566 33.25C97.19 33.9167 97.3566 34.5333 97.3566 35.1C97.39 35.4333 97.4066 35.9333 97.4066 36.6C97.44 37.2667 97.4566 37.7667 97.4566 38.1V38.3C97.5233 39.3667 97.5566 40.4 97.5566 41.4C97.5566 42.3667 97.54 43.4333 97.5066 44.6C97.5066 45.7333 97.49 46.8333 97.4566 47.9C97.4566 48.9333 97.4566 49.9667 97.4566 51V61.5C97.4566 61.6333 97.4566 61.7667 97.4566 61.9C97.49 62 97.5066 62.1167 97.5066 62.25C97.5066 62.5833 97.49 62.8333 97.4566 63Z" fill="#FFB84E"/>
<path d="M97.4566 63C97.4233 63.1667 97.39 63.3333 97.3566 63.5C97.3566 63.6333 97.3566 63.7833 97.3566 63.95L97.0566 65C96.99 65.1333 96.94 65.2167 96.9066 65.25L96.7566 65.55C96.59 65.9167 96.29 66.2167 95.8566 66.45C95.0566 66.85 94.2066 66.95 93.3066 66.75C92.74 66.6833 92.29 66.5167 91.9566 66.25C91.6233 66.0167 91.39 65.7333 91.2566 65.4C91.1233 65.0667 91.0233 64.7333 90.9566 64.4C90.8566 64.0667 90.8066 63.7667 90.8066 63.5V35.5C90.8066 35.2667 90.8066 35.0667 90.8066 34.9C90.84 34.7 90.8733 34.5167 90.9066 34.35C90.94 34.1167 90.9733 33.9167 91.0066 33.75C91.0733 33.5833 91.14 33.4 91.2066 33.2C91.3066 32.8667 91.49 32.6 91.7566 32.4C92.1566 32.1 92.54 31.9333 92.9066 31.9C93.14 31.8333 93.3566 31.8 93.5566 31.8C93.7566 31.7667 93.99 31.75 94.2566 31.75C94.7233 31.75 95.2566 31.8833 95.8566 32.15C96.3233 32.4167 96.6566 32.7833 96.8566 33.25C97.19 33.9167 97.3566 34.5333 97.3566 35.1C97.39 35.4333 97.4066 35.9333 97.4066 36.6C97.44 37.2667 97.4566 37.7667 97.4566 38.1V38.3C97.5233 39.3667 97.5566 40.4 97.5566 41.4C97.5566 42.3667 97.54 43.4333 97.5066 44.6C97.5066 45.7333 97.49 46.8333 97.4566 47.9C97.4566 48.9333 97.4566 49.9667 97.4566 51V61.5C97.4566 61.6333 97.4566 61.7667 97.4566 61.9C97.49 62 97.5066 62.1167 97.5066 62.25C97.5066 62.5833 97.49 62.8333 97.4566 63Z" fill="#649DF6"/>
<path d="M124.192 58.2C123.559 57.8 122.842 57.4833 122.042 57.25C121.276 57.0167 120.476 56.8 119.642 56.6C118.842 56.4 118.059 56.1833 117.292 55.95C116.526 55.6833 115.826 55.3167 115.192 54.85C113.826 53.8167 113.026 52.55 112.792 51.05C112.592 49.5167 112.926 47.9833 113.792 46.45C114.259 45.65 114.876 45 115.642 44.5C116.409 43.9667 117.242 43.5667 118.142 43.3C119.076 43 120.026 42.8333 120.992 42.8C121.959 42.7667 122.876 42.8167 123.742 42.95C124.309 43.05 124.909 43.2 125.542 43.4C126.176 43.5667 126.759 43.8 127.292 44.1C127.859 44.4 128.359 44.7833 128.792 45.25C129.259 45.6833 129.592 46.2333 129.792 46.9C129.926 47.3333 129.942 47.75 129.842 48.15C129.776 48.55 129.609 48.8833 129.342 49.15C129.109 49.4167 128.792 49.6167 128.392 49.75C128.026 49.8833 127.626 49.9167 127.192 49.85C126.692 49.75 126.226 49.6 125.792 49.4C125.359 49.2 124.926 48.9833 124.492 48.75C124.059 48.5167 123.609 48.3167 123.142 48.15C122.709 47.9833 122.242 47.9 121.742 47.9C120.976 47.8667 120.342 48 119.842 48.3C119.342 48.6 118.992 48.9667 118.792 49.4C118.626 49.8333 118.642 50.3 118.842 50.8C119.076 51.3 119.542 51.7333 120.242 52.1C120.876 52.4333 121.576 52.7 122.342 52.9C123.109 53.1 123.859 53.3 124.592 53.5C125.359 53.7 126.092 53.9333 126.792 54.2C127.526 54.4667 128.176 54.8333 128.742 55.3C129.842 56.2 130.509 57.25 130.742 58.45C131.009 59.65 130.942 60.8333 130.542 62C130.142 63.1667 129.442 64.2 128.442 65.1C127.476 66 126.326 66.6 124.992 66.9C124.026 67.1 122.976 67.2 121.842 67.2C120.742 67.2 119.642 67.0833 118.542 66.85C117.476 66.6167 116.442 66.25 115.442 65.75C114.476 65.25 113.659 64.6167 112.992 63.85C112.526 63.3167 112.276 62.7167 112.242 62.05C112.242 61.35 112.376 60.75 112.642 60.25C112.942 59.7167 113.359 59.35 113.892 59.15C114.426 58.95 115.026 59.0667 115.692 59.5C116.226 59.8667 116.859 60.2333 117.592 60.6C118.326 60.9333 119.059 61.2 119.792 61.4C120.526 61.6 121.226 61.7 121.892 61.7C122.592 61.7 123.192 61.55 123.692 61.25C124.426 60.7833 124.809 60.25 124.842 59.65C124.876 59.0167 124.659 58.5333 124.192 58.2Z" fill="#FFB84E"/>
<path d="M124.192 58.2C123.559 57.8 122.842 57.4833 122.042 57.25C121.276 57.0167 120.476 56.8 119.642 56.6C118.842 56.4 118.059 56.1833 117.292 55.95C116.526 55.6833 115.826 55.3167 115.192 54.85C113.826 53.8167 113.026 52.55 112.792 51.05C112.592 49.5167 112.926 47.9833 113.792 46.45C114.259 45.65 114.876 45 115.642 44.5C116.409 43.9667 117.242 43.5667 118.142 43.3C119.076 43 120.026 42.8333 120.992 42.8C121.959 42.7667 122.876 42.8167 123.742 42.95C124.309 43.05 124.909 43.2 125.542 43.4C126.176 43.5667 126.759 43.8 127.292 44.1C127.859 44.4 128.359 44.7833 128.792 45.25C129.259 45.6833 129.592 46.2333 129.792 46.9C129.926 47.3333 129.942 47.75 129.842 48.15C129.776 48.55 129.609 48.8833 129.342 49.15C129.109 49.4167 128.792 49.6167 128.392 49.75C128.026 49.8833 127.626 49.9167 127.192 49.85C126.692 49.75 126.226 49.6 125.792 49.4C125.359 49.2 124.926 48.9833 124.492 48.75C124.059 48.5167 123.609 48.3167 123.142 48.15C122.709 47.9833 122.242 47.9 121.742 47.9C120.976 47.8667 120.342 48 119.842 48.3C119.342 48.6 118.992 48.9667 118.792 49.4C118.626 49.8333 118.642 50.3 118.842 50.8C119.076 51.3 119.542 51.7333 120.242 52.1C120.876 52.4333 121.576 52.7 122.342 52.9C123.109 53.1 123.859 53.3 124.592 53.5C125.359 53.7 126.092 53.9333 126.792 54.2C127.526 54.4667 128.176 54.8333 128.742 55.3C129.842 56.2 130.509 57.25 130.742 58.45C131.009 59.65 130.942 60.8333 130.542 62C130.142 63.1667 129.442 64.2 128.442 65.1C127.476 66 126.326 66.6 124.992 66.9C124.026 67.1 122.976 67.2 121.842 67.2C120.742 67.2 119.642 67.0833 118.542 66.85C117.476 66.6167 116.442 66.25 115.442 65.75C114.476 65.25 113.659 64.6167 112.992 63.85C112.526 63.3167 112.276 62.7167 112.242 62.05C112.242 61.35 112.376 60.75 112.642 60.25C112.942 59.7167 113.359 59.35 113.892 59.15C114.426 58.95 115.026 59.0667 115.692 59.5C116.226 59.8667 116.859 60.2333 117.592 60.6C118.326 60.9333 119.059 61.2 119.792 61.4C120.526 61.6 121.226 61.7 121.892 61.7C122.592 61.7 123.192 61.55 123.692 61.25C124.426 60.7833 124.809 60.25 124.842 59.65C124.876 59.0167 124.659 58.5333 124.192 58.2Z" fill="#FFD596"/>
<path d="M154.447 57.15C154.481 57.8167 154.497 58.5167 154.497 59.25C154.497 59.95 154.481 60.6 154.447 61.2C154.414 62.1 154.364 62.9333 154.297 63.7C154.231 64.4333 154.097 65.0667 153.897 65.6C153.697 66.1 153.381 66.4833 152.947 66.75C152.547 66.9833 151.981 67.05 151.247 66.95C150.481 66.85 149.931 66.4833 149.597 65.85C149.264 65.2167 149.031 64.5 148.897 63.7C148.797 62.8667 148.764 62.0333 148.797 61.2C148.831 60.3667 148.831 59.7167 148.797 59.25C148.764 58.5167 148.731 57.6833 148.697 56.75C148.697 55.7833 148.597 54.8833 148.397 54.05C148.231 53.1833 147.931 52.45 147.497 51.85C147.064 51.25 146.414 50.9333 145.547 50.9C144.447 50.8333 143.597 50.9167 142.997 51.15C142.431 51.3833 142.014 51.7333 141.747 52.2C141.481 52.6333 141.314 53.1667 141.247 53.8C141.214 54.4333 141.147 55.1167 141.047 55.85L140.997 57.8V61.45C140.997 62.05 140.981 62.6833 140.947 63.35C140.947 63.9833 140.847 64.5667 140.647 65.1C140.447 65.6333 140.131 66.0833 139.697 66.45C139.297 66.8167 138.697 67 137.897 67C136.897 67 136.147 66.6833 135.647 66.05C135.181 65.3833 134.947 64.5667 134.947 63.6V34.85C134.947 34.65 134.947 34.4667 134.947 34.3C134.981 34.1 135.014 33.9 135.047 33.7C135.114 33.5 135.164 33.3167 135.197 33.15C135.231 32.95 135.281 32.7667 135.347 32.6C135.447 32.2667 135.614 32.0167 135.847 31.85C136.014 31.6833 136.181 31.55 136.347 31.45C136.514 31.35 136.697 31.2833 136.897 31.25C137.064 31.2167 137.247 31.2 137.447 31.2C137.647 31.1667 137.847 31.15 138.047 31.15C138.547 31.15 139.031 31.3 139.497 31.6C139.697 31.7333 139.881 31.8833 140.047 32.05C140.214 32.1833 140.347 32.3833 140.447 32.65C140.714 33.2833 140.847 33.8833 140.847 34.45C140.881 34.6167 140.897 34.8667 140.897 35.2C140.931 35.5 140.947 35.8167 140.947 36.15C140.947 36.4833 140.947 36.8167 140.947 37.15C140.981 37.45 140.997 37.6833 140.997 37.85V38.1C141.031 39.1667 141.047 40.25 141.047 41.35C141.047 42.45 141.047 43.5667 141.047 44.7V45.55C142.447 45.0833 143.914 44.8667 145.447 44.9C146.981 44.9 148.347 45.2 149.547 45.8C150.781 46.4333 151.714 47.15 152.347 47.95C153.014 48.75 153.497 49.6333 153.797 50.6C154.097 51.5667 154.264 52.6 154.297 53.7C154.364 54.8 154.414 55.95 154.447 57.15Z" fill="#FFB84E"/>
<path d="M154.447 57.15C154.481 57.8167 154.497 58.5167 154.497 59.25C154.497 59.95 154.481 60.6 154.447 61.2C154.414 62.1 154.364 62.9333 154.297 63.7C154.231 64.4333 154.097 65.0667 153.897 65.6C153.697 66.1 153.381 66.4833 152.947 66.75C152.547 66.9833 151.981 67.05 151.247 66.95C150.481 66.85 149.931 66.4833 149.597 65.85C149.264 65.2167 149.031 64.5 148.897 63.7C148.797 62.8667 148.764 62.0333 148.797 61.2C148.831 60.3667 148.831 59.7167 148.797 59.25C148.764 58.5167 148.731 57.6833 148.697 56.75C148.697 55.7833 148.597 54.8833 148.397 54.05C148.231 53.1833 147.931 52.45 147.497 51.85C147.064 51.25 146.414 50.9333 145.547 50.9C144.447 50.8333 143.597 50.9167 142.997 51.15C142.431 51.3833 142.014 51.7333 141.747 52.2C141.481 52.6333 141.314 53.1667 141.247 53.8C141.214 54.4333 141.147 55.1167 141.047 55.85L140.997 57.8V61.45C140.997 62.05 140.981 62.6833 140.947 63.35C140.947 63.9833 140.847 64.5667 140.647 65.1C140.447 65.6333 140.131 66.0833 139.697 66.45C139.297 66.8167 138.697 67 137.897 67C136.897 67 136.147 66.6833 135.647 66.05C135.181 65.3833 134.947 64.5667 134.947 63.6V34.85C134.947 34.65 134.947 34.4667 134.947 34.3C134.981 34.1 135.014 33.9 135.047 33.7C135.114 33.5 135.164 33.3167 135.197 33.15C135.231 32.95 135.281 32.7667 135.347 32.6C135.447 32.2667 135.614 32.0167 135.847 31.85C136.014 31.6833 136.181 31.55 136.347 31.45C136.514 31.35 136.697 31.2833 136.897 31.25C137.064 31.2167 137.247 31.2 137.447 31.2C137.647 31.1667 137.847 31.15 138.047 31.15C138.547 31.15 139.031 31.3 139.497 31.6C139.697 31.7333 139.881 31.8833 140.047 32.05C140.214 32.1833 140.347 32.3833 140.447 32.65C140.714 33.2833 140.847 33.8833 140.847 34.45C140.881 34.6167 140.897 34.8667 140.897 35.2C140.931 35.5 140.947 35.8167 140.947 36.15C140.947 36.4833 140.947 36.8167 140.947 37.15C140.981 37.45 140.997 37.6833 140.997 37.85V38.1C141.031 39.1667 141.047 40.25 141.047 41.35C141.047 42.45 141.047 43.5667 141.047 44.7V45.55C142.447 45.0833 143.914 44.8667 145.447 44.9C146.981 44.9 148.347 45.2 149.547 45.8C150.781 46.4333 151.714 47.15 152.347 47.95C153.014 48.75 153.497 49.6333 153.797 50.6C154.097 51.5667 154.264 52.6 154.297 53.7C154.364 54.8 154.414 55.95 154.447 57.15Z" fill="#577DB7"/>
<circle cx="165.5" cy="97.5" r="27.5" fill="#649DF6"/>
<path d="M130 155C130 140.088 142.088 128 157 128H177C191.912 128 204 140.088 204 155V164H130V155Z" fill="#649DF6"/>
<path d="M167 140L158.34 128L175.66 128L167 140Z" fill="white"/>
</svg>
