<svg width="242" height="203" viewBox="0 0 242 203" fill="none" xmlns="http://www.w3.org/2000/svg">
<path d="M136.812 47.5003C141.771 38.8131 155.065 42.8513 154.355 52.829V52.829C154.182 55.2564 153.696 57.6512 152.909 59.9538L126.656 136.717L120.884 148.458C118.385 153.543 110.691 151.206 111.441 145.59L113.175 132.622L134.051 54.2259C134.677 51.8743 135.605 49.6137 136.812 47.5003V47.5003Z" fill="#649DF6"/>
<path fill-rule="evenodd" clip-rule="evenodd" d="M162.461 29.3085C159.504 21.872 158.771 14.3664 159.469 3.69908C154.118 12.832 150.175 16.8112 142.626 23.2837L142.632 23.2853C140.697 24.6491 139.217 26.5804 138.503 28.9329C136.662 34.994 140.596 41.5559 147.291 43.5893C153.985 45.6228 160.905 42.3577 162.746 36.2966C163.46 33.9441 163.305 31.5161 162.456 29.3068L162.461 29.3085Z" fill="#FFB84E"/>
<mask id="mask0_63_101" style="mask-type:alpha" maskUnits="userSpaceOnUse" x="111" y="42" width="44" height="110">
<path d="M136.812 47.5003C141.771 38.8131 155.065 42.8513 154.355 52.829V52.829C154.182 55.2564 153.696 57.6512 152.909 59.9538L126.656 136.717L120.884 148.458C118.385 153.543 110.691 151.206 111.441 145.59L113.175 132.622L134.051 54.2259C134.677 51.8743 135.605 49.6137 136.812 47.5003V47.5003Z" fill="#649DF6"/>
</mask>
<g mask="url(#mask0_63_101)">
<rect x="133.485" y="45.0854" width="27.6401" height="25.7198" transform="rotate(16.8959 133.485 45.0854)" fill="#FFF2D0"/>
</g>
<rect x="2.6814" y="36" width="121.202" height="133" fill="#FFE296"/>
<rect x="8.04443" y="130.923" width="111.012" height="32.7137" fill="white"/>
<path d="M84.9848 95.1153C83.0484 93.2502 79.9837 93.2502 78.0473 95.1153L44.9303 127.015C41.6894 130.137 43.8992 135.616 48.399 135.616H114.633C119.133 135.616 121.343 130.136 118.102 127.015L84.9848 95.1153Z" fill="white"/>
<path d="M40.9975 103.664C39.0641 101.813 36.0163 101.813 34.0829 103.664L8.99757 127.674C5.74127 130.791 7.94735 136.286 12.4549 136.286H62.6255C67.133 136.286 69.3391 130.791 66.0828 127.674L40.9975 103.664Z" fill="white"/>
<circle cx="96.8003" cy="66.8367" r="14.2117" fill="white"/>
<path fill-rule="evenodd" clip-rule="evenodd" d="M169.156 173.55C173.662 177.855 180 180.031 185.888 177.993C209.524 169.811 225.466 146.34 223.102 120.31C220.32 89.6676 193.224 67.0819 162.581 69.8639C139.196 71.987 120.503 88.2713 114.197 109.486C112.421 115.459 114.883 121.691 119.388 125.996L169.156 173.55ZM128.31 112.933C128.854 118.932 133.765 123.389 139.277 122.889C144.789 122.388 148.817 117.12 148.272 111.121C147.727 105.122 142.817 100.665 137.305 101.165C131.792 101.666 127.765 106.934 128.31 112.933Z" fill="#D0E3FF"/>
<ellipse cx="205.596" cy="110.06" rx="11.4961" ry="10.0222" transform="rotate(68.393 205.596 110.06)" fill="#FFB84E"/>
<ellipse cx="202.84" cy="141.39" rx="11.4961" ry="10.0222" transform="rotate(103.993 202.84 141.39)" fill="#FFE296"/>
<ellipse cx="184.102" cy="163.219" rx="11.4961" ry="10.0222" transform="rotate(147.332 184.102 163.219)" fill="#7096D1"/>
<ellipse cx="182.946" cy="89.3167" rx="11.4961" ry="10.0222" transform="rotate(21.7214 182.946 89.3167)" fill="#649DF6"/>
<ellipse cx="182.946" cy="89.3167" rx="11.4961" ry="10.0222" transform="rotate(21.7214 182.946 89.3167)" fill="#649DF6"/>
<circle cx="132.095" cy="117.932" r="34.9324" fill="#649DF6"/>
<path d="M87 183.676C87 168.764 99.0883 156.676 114 156.676H154C168.912 156.676 181 168.764 181 183.676V202.406H87V183.676Z" fill="#649DF6"/>
<path d="M134 171.919L122.999 156.676L145.001 156.676L134 171.919Z" fill="white"/>
<rect x="57.4543" y="129" width="73.2707" height="24.7249" rx="12.3624" transform="rotate(25.0131 57.4543 129)" fill="#649DF6"/>
</svg>
