<svg width="238" height="236" viewBox="0 0 238 236" fill="none" xmlns="http://www.w3.org/2000/svg">
<circle cx="105.5" cy="91.5" r="78.5" fill="#FFF2D0"/>
<path d="M34.56 25.12C33.8667 24.48 33.52 23.52 33.52 22.24C33.5733 21.6533 33.68 21.0933 33.84 20.56C34 19.9733 34.2933 19.4667 34.72 19.04C35.8933 17.9733 37.1467 17.36 38.48 17.2C39.8133 17.04 41.2533 16.9067 42.8 16.8C44.0267 16.7467 45.12 16.7467 46.08 16.8C47.04 16.8 48.1333 16.8 49.36 16.8C51.2267 16.8 53.2533 16.8267 55.44 16.88C57.68 16.9333 59.7867 17.0133 61.76 17.12C62.56 17.1733 63.36 17.28 64.16 17.44C64.96 17.6 65.68 17.8933 66.32 18.32C66.96 18.6933 67.4667 19.2 67.84 19.84C68.2667 20.4267 68.5067 21.1733 68.56 22.08C68.6133 23.1467 68.4533 24.16 68.08 25.12C67.76 26.08 67.3067 27.0133 66.72 27.92C66.1333 28.7733 65.4667 29.6 64.72 30.4C64.0267 31.1467 63.36 31.84 62.72 32.48C61.5467 33.7067 60.2133 35.0133 58.72 36.4C57.2267 37.7867 55.8933 39.0933 54.72 40.32C56.8 40.5867 58.8 41.0667 60.72 41.76C62.6933 42.4533 64.4267 43.4133 65.92 44.64C67.4133 45.8667 68.5867 47.4133 69.44 49.28C70.3467 51.0933 70.8 53.28 70.8 55.84C70.8 58.4 70.2933 60.7733 69.28 62.96C68.32 65.1467 66.96 67.0667 65.2 68.72C63.44 70.32 61.36 71.5733 58.96 72.48C56.56 73.3867 53.92 73.84 51.04 73.84C49.8133 73.84 48.48 73.7333 47.04 73.52C45.6533 73.3067 44.2667 72.9867 42.88 72.56C41.4933 72.1333 40.16 71.6 38.88 70.96C37.6533 70.2667 36.5867 69.44 35.68 68.48C35.04 67.84 34.48 67.0933 34 66.24C33.5733 65.3333 33.3067 64.4267 33.2 63.52C33.1467 62.56 33.3333 61.7067 33.76 60.96C34.1867 60.16 34.9333 59.5733 36 59.2C36.8 58.9333 37.5733 58.8267 38.32 58.88C39.0667 58.9333 39.7867 59.12 40.48 59.44C41.1733 59.7067 41.84 60.0267 42.48 60.4C43.1733 60.7733 43.84 61.1467 44.48 61.52C46.4533 62.7467 48.5067 63.4667 50.64 63.68C52.8267 63.8933 54.96 63.3867 57.04 62.16C58.2133 61.4667 59.0667 60.6133 59.6 59.6C60.1333 58.5333 60.3467 57.4667 60.24 56.4C60.1867 55.3333 59.84 54.32 59.2 53.36C58.6133 52.4 57.7867 51.6 56.72 50.96C55.7067 50.3733 54.5867 49.9733 53.36 49.76C52.1333 49.5467 50.9067 49.3333 49.68 49.12C48.4533 48.9067 47.28 48.6133 46.16 48.24C45.04 47.8667 44.08 47.2267 43.28 46.32C42.3733 45.3067 42.08 44.2133 42.4 43.04C42.72 41.8667 43.3067 40.72 44.16 39.6C45.0667 38.48 46.0533 37.4133 47.12 36.4C48.24 35.3867 49.12 34.5333 49.76 33.84C50.1333 33.4667 50.56 33.0133 51.04 32.48C51.5733 31.9467 52.0533 31.4133 52.48 30.88C52.96 30.3467 53.36 29.84 53.68 29.36C54.0533 28.8267 54.2933 28.3467 54.4 27.92C54.56 27.4933 54.48 27.2 54.16 27.04C53.84 26.8267 53.44 26.72 52.96 26.72C52.48 26.6667 51.9467 26.6667 51.36 26.72C50.8267 26.72 50.4 26.72 50.08 26.72H44.72C43.9733 26.72 43.1467 26.7467 42.24 26.8C41.3333 26.8 40.4 26.7733 39.44 26.72C38.5333 26.6133 37.6267 26.4533 36.72 26.24C35.8667 26.0267 35.1467 25.6533 34.56 25.12Z" fill="#7096D1"/>
<path d="M90.1466 154.435C89.619 154.942 89.0673 155.198 88.4917 155.202C87.942 155.212 87.4443 155.056 86.9986 154.735C86.5528 154.413 86.215 153.979 85.9851 153.434C85.7871 152.868 85.7861 152.279 85.9819 151.668C86.1038 151.258 86.3126 150.827 86.6084 150.376C86.9041 149.924 87.2329 149.507 87.5946 149.125C87.9883 148.723 88.386 148.364 88.7878 148.046C89.2215 147.708 89.6402 147.435 90.0439 147.227C90.7814 146.877 91.5819 146.61 92.4453 146.426C93.3347 146.248 94.2292 146.167 95.1286 146.183C96.054 146.205 96.9425 146.328 97.794 146.552C98.6715 146.781 99.46 147.1 100.16 147.508C102.089 148.637 103.463 150.035 104.282 151.702C105.102 153.369 105.254 155.319 104.739 157.554C104.493 158.619 104.167 159.557 103.762 160.366C103.388 161.156 102.864 161.884 102.191 162.549C101.543 163.221 100.724 163.867 99.7327 164.486C98.7673 165.112 97.5891 165.771 96.1981 166.462C95.7304 166.71 95.2497 166.955 94.7561 167.197C94.2624 167.439 93.7687 167.681 93.2751 167.923C93.1212 167.997 92.8383 168.096 92.4266 168.22C92.0149 168.344 91.6421 168.477 91.3084 168.619C90.9746 168.761 90.7607 168.916 90.6668 169.086C90.5729 169.256 90.7568 169.408 91.2185 169.542C91.7782 169.726 92.2299 169.844 92.5737 169.896C92.9175 169.948 93.3752 170.04 93.9469 170.171C94.6225 170.327 95.2881 170.467 95.9437 170.591C96.5993 170.715 97.2459 170.878 97.8835 171.079C98.1374 171.165 98.4202 171.244 98.732 171.316C99.0498 171.362 99.3616 171.434 99.6674 171.532C99.9793 171.604 100.269 171.712 100.537 171.856C100.811 171.974 101.031 172.147 101.197 172.377C101.362 172.607 101.461 172.89 101.493 173.226C101.525 173.561 101.5 173.911 101.416 174.275C101.364 174.619 101.26 174.951 101.104 175.27C100.954 175.564 100.767 175.781 100.543 175.921C100.116 176.233 99.655 176.332 99.1613 176.218C98.6735 176.078 98.2088 175.957 97.7671 175.855L83.7745 172.628C83.5146 172.568 83.2258 172.515 82.908 172.469C82.6162 172.429 82.3623 172.343 82.1465 172.211C81.7087 171.974 81.5318 171.673 81.6157 171.309C81.7256 170.951 81.8255 170.577 81.9154 170.188C82.0652 169.538 82.359 168.976 82.7967 168.503C83.2403 168.003 83.75 167.573 84.3256 167.213C84.9332 166.833 85.5577 166.499 86.1993 166.209C86.8409 165.919 87.4405 165.633 87.9981 165.351C88.8115 164.909 89.6769 164.479 90.5943 164.062C91.5117 163.644 92.3901 163.217 93.2295 162.781C94.3128 162.237 95.2382 161.726 96.0056 161.246C96.7991 160.772 97.4536 160.307 97.9693 159.851C98.4849 159.396 98.8936 158.929 99.1954 158.451C99.5031 157.947 99.7259 157.397 99.8638 156.799C100.169 155.474 100 154.368 99.3567 153.48C98.719 152.567 97.7766 151.966 96.5293 151.679C95.6199 151.469 94.7174 151.466 93.822 151.67C92.9526 151.88 92.1711 152.302 91.4776 152.935C91.2558 153.185 91.0309 153.448 90.8031 153.724C90.6073 153.98 90.3884 154.217 90.1466 154.435Z" fill="#649DF6"/>
<path d="M116.346 115.738C117.111 114.987 118.053 114.388 119.17 113.943C120.263 113.422 121.456 112.952 122.75 112.534L164.085 99.1749C165.151 98.8305 166.281 98.4234 167.474 97.9536C168.667 97.4839 169.845 97.3555 171.007 97.5686C172.623 97.887 173.816 98.8466 174.586 100.448C175.331 101.972 175.769 103.848 175.9 106.076C176.083 108.203 176.049 110.568 175.797 113.172C175.521 115.699 175.182 118.163 174.781 120.562C174.355 122.886 173.917 125.045 173.469 127.039C172.996 128.958 172.705 130.397 172.595 131.358C172.115 134.035 171.649 136.497 171.199 138.745C170.824 140.968 170.45 143.191 170.075 145.414C169.777 147.612 169.402 149.835 168.951 152.082C168.577 154.305 168.149 156.755 167.67 159.433C167.156 163.046 166.463 166.885 165.591 170.95C164.77 174.915 163.964 178.664 163.173 182.199C162.935 183.284 162.621 184.395 162.231 185.53C161.841 186.665 161.288 187.684 160.572 188.588C159.931 189.468 159.064 190.168 157.972 190.69C156.955 191.186 155.701 191.339 154.211 191.148C151.887 190.722 150.089 189.58 148.815 187.722C147.618 185.838 147.193 183.874 147.541 181.828C148.151 178.772 148.723 175.729 149.257 172.698C149.766 169.591 150.287 166.522 150.821 163.491C151.622 158.944 152.319 154.599 152.914 150.455C153.584 146.287 154.32 141.93 155.121 137.383C155.361 136.045 155.755 134.404 156.304 132.461C156.829 130.442 157.265 128.409 157.613 126.363C158.036 124.292 158.244 122.333 158.236 120.487C158.279 118.539 157.977 116.955 157.33 115.735C154.592 116.367 152.132 117.078 149.949 117.868C147.817 118.557 145.458 119.319 142.869 120.156L131.793 123.735C130.423 124.178 128.951 124.696 127.377 125.289C125.879 125.857 124.408 126.248 122.964 126.463C121.496 126.601 120.131 126.412 118.871 125.894C117.687 125.352 116.673 124.166 115.83 122.337C115.161 120.787 114.907 119.482 115.069 118.421C115.23 117.36 115.656 116.466 116.346 115.738Z" fill="#ADC8F0"/>
<path d="M117.105 41.2204C117.741 41.3542 118.17 41.6699 118.394 42.1672C118.614 42.628 118.709 43.1355 118.679 43.6895C118.549 44.84 117.982 45.5834 116.979 45.9198C116.405 46.112 115.808 46.2326 115.186 46.2815C114.602 46.3275 114 46.3932 113.381 46.4787L114.378 59.1445C114.447 60.0218 114.463 60.9217 114.425 61.8442C114.451 62.1732 114.387 62.5276 114.233 62.9075C114.174 63.0961 114.128 63.21 114.094 63.2495C114.1 63.3226 114.072 63.4351 114.01 63.5871C113.823 64.0064 113.556 64.3584 113.211 64.6431C112.441 65.145 111.591 65.3222 110.66 65.1748C110.103 65.1083 109.668 64.9586 109.355 64.7258C109.006 64.4958 108.744 64.2038 108.569 63.8497C108.482 63.6727 108.412 63.4943 108.362 63.3144C108.311 63.1345 108.241 62.956 108.154 62.779C108.103 62.5991 108.053 62.4375 108.005 62.2942C107.991 62.1114 107.98 61.9652 107.971 61.8555L107.721 58.6753C107.571 56.7746 107.416 54.8007 107.255 52.7536C107.13 50.7038 106.993 48.7284 106.844 46.8276C106 46.8572 105.121 46.908 104.207 46.9799C103.327 47.0124 102.67 46.8434 102.237 46.4729C102 46.2709 101.832 46.0082 101.733 45.685C101.631 45.3252 101.566 44.9626 101.537 44.597C101.545 44.2286 101.592 43.8939 101.679 43.5928C101.763 43.2552 101.89 43.0061 102.061 42.8455C102.502 42.3695 102.904 42.0988 103.266 42.0335C103.663 41.9287 104.152 41.8351 104.734 41.7525C104.807 41.7467 105.045 41.728 105.447 41.6964C105.882 41.6253 106.155 41.5855 106.265 41.5769C106.204 40.3312 106.142 39.0855 106.081 37.8398C106.02 36.594 106.04 35.4523 106.143 34.4144C106.279 33.3371 106.517 32.3988 106.859 31.5995C107.234 30.7608 107.845 30.1059 108.691 29.6348C109.713 29.0762 110.896 28.6888 112.24 28.4727C113.584 28.2566 114.822 28.3248 115.953 28.6771C116.479 28.8196 117.001 29.1463 117.519 29.6572C118.074 30.1653 118.359 30.7497 118.375 31.4106C118.39 32.0714 118.309 32.6846 118.133 33.2502C117.957 33.8157 117.511 34.2187 116.794 34.459C116.471 34.5579 116.126 34.6218 115.761 34.6506C115.429 34.6399 115.08 34.649 114.715 34.6777C114.349 34.7065 114.006 34.7887 113.686 34.9242C113.399 35.0203 113.156 35.2049 112.957 35.4781C112.792 35.7118 112.687 36.0143 112.642 36.3856C112.634 36.754 112.628 37.1407 112.623 37.5456C112.618 37.9506 112.632 38.3541 112.663 38.7562C112.729 39.1189 112.771 39.4282 112.791 39.684L112.899 41.0548C113.746 41.0617 114.518 41.0562 115.215 41.0381C115.949 41.0171 116.579 41.0779 117.105 41.2204ZM139.137 65.8028C138.882 66.3011 138.413 66.6506 137.73 66.8515C137.086 67.086 136.481 67.1152 135.916 66.939C135.39 66.7965 134.873 66.5429 134.366 66.1782C133.896 65.8106 133.44 65.3868 132.997 64.9067C132.555 64.4266 132.13 63.9267 131.721 63.4072C131.352 62.9213 131.022 62.4691 130.731 62.0506C130.187 61.2107 129.679 60.368 129.208 59.5223C128.771 58.6372 128.369 57.731 128.001 56.8036C127.637 55.9128 127.309 55.0191 127.018 54.1225C126.724 53.1894 126.482 52.2154 126.292 51.2005C126.071 50.2616 125.9 49.2636 125.78 48.2064C125.657 47.1127 125.554 46.0358 125.471 44.9757C125.405 44.135 125.369 43.2182 125.365 42.2255C125.36 41.2328 125.406 40.181 125.503 39.07C125.593 37.8859 125.725 36.7538 125.897 35.6736C126.067 34.5568 126.272 33.4189 126.511 32.2599C126.788 31.0979 127.085 29.9711 127.404 28.8794C127.72 27.7512 128.11 26.6355 128.575 25.5323C128.911 24.6599 129.299 23.7466 129.739 22.7925C130.215 21.8355 130.851 21.0315 131.645 20.3805C132.064 20.0901 132.579 19.8657 133.192 19.7071C133.802 19.512 134.384 19.4294 134.938 19.4594C135.602 19.4807 136.018 19.6318 136.188 19.9128C136.357 20.1937 136.384 20.5409 136.27 20.9545C136.192 21.3653 136.024 21.8014 135.766 22.2631C135.544 22.7219 135.375 23.1398 135.257 23.5168C134.852 24.9096 134.482 26.2812 134.147 27.6316C133.809 28.9455 133.545 30.272 133.357 31.6109C132.737 35.8894 132.593 40.1304 132.923 44.3341C133.087 46.4177 133.357 48.4378 133.731 50.3944C133.949 51.2967 134.167 52.1991 134.386 53.1014C134.601 53.9672 134.892 54.8638 135.259 55.7912C135.548 56.6512 135.856 57.5281 136.183 58.4218C136.548 59.3126 136.946 60.164 137.378 60.976C137.646 61.5801 138.01 62.2319 138.469 62.9313C138.968 63.6645 139.209 64.3811 139.19 65.0814C139.202 65.2276 139.192 65.3387 139.161 65.4147C139.17 65.5244 139.162 65.6538 139.137 65.8028ZM161.427 50.5321C161.87 51.0123 162.47 51.6271 163.228 52.3766C164.019 53.0867 164.76 53.856 165.451 54.6843C166.175 55.4733 166.771 56.2723 167.239 57.0814C167.707 57.8905 167.875 58.613 167.741 59.2488C167.523 60.2222 167.018 60.8136 166.225 61.0231C165.433 61.2326 164.58 61.1525 163.669 60.7829C163.024 60.5394 162.271 60.0837 161.409 59.4159C160.548 58.7482 159.701 58.0424 158.87 57.2986C158.076 56.5519 157.359 55.8544 156.72 55.2059C156.077 54.5208 155.635 54.0407 155.393 53.7655C155.39 53.729 155.37 53.7121 155.333 53.715C155.333 53.715 155.332 53.6967 155.329 53.6602C155.096 53.9727 154.866 54.3219 154.639 54.7075C154.409 55.0567 154.161 55.4072 153.894 55.7592C153.563 56.2266 153.185 56.7897 152.758 57.4485C152.366 58.0679 151.918 58.6916 151.416 59.3196C150.95 59.9447 150.445 60.5362 149.901 61.0939C149.39 61.6123 148.869 62.0027 148.338 62.2652C147.63 62.6151 146.912 62.6164 146.186 62.2689C145.5 61.9552 145.039 61.4765 144.804 60.8329C144.525 60.0825 144.516 59.2741 144.779 58.4074C145.042 57.5408 145.417 56.7021 145.905 55.8913C146.39 55.044 146.915 54.2304 147.478 53.4504C148.079 52.6675 148.559 51.9861 148.918 51.4062C149.279 50.8628 149.592 50.3968 149.856 50.0083C150.153 49.5803 150.434 49.1721 150.697 48.7835C150.142 48.2755 149.547 47.7155 148.91 47.1035C148.27 46.455 147.378 45.6242 146.231 44.611C145.834 44.2377 145.397 43.8307 144.921 43.39C144.442 42.9127 143.999 42.4144 143.59 41.8948C143.181 41.3753 142.844 40.8317 142.579 40.2641C142.314 39.6965 142.211 39.0977 142.272 38.4676C142.339 37.9107 142.542 37.4534 142.881 37.0956C143.218 36.7013 143.638 36.4292 144.141 36.2793C144.641 36.0928 145.17 36.0328 145.727 36.0993C146.284 36.1658 146.813 36.3449 147.314 36.6365C148.319 37.2562 149.282 38.0448 150.203 39.0021C151.125 39.9594 152.023 40.8634 152.899 41.714C153.181 42.0228 153.443 42.3148 153.686 42.59C153.962 42.8257 154.219 43.0629 154.459 43.3015C154.619 42.9947 154.815 42.685 155.048 42.3725C155.317 42.057 155.582 41.6868 155.843 41.2617C156.505 40.3268 157.164 39.3555 157.821 38.3476C158.513 37.3368 159.289 36.4481 160.149 35.6817C160.595 35.2788 161.071 35.0206 161.577 34.9072C162.117 34.7544 162.63 34.7325 163.117 34.8413C163.601 34.9135 164.038 35.0998 164.43 35.4C164.821 35.7002 165.09 36.0836 165.237 36.5502C165.43 37.1235 165.457 37.7098 165.321 38.3091C165.22 38.9054 165.009 39.4922 164.687 40.0692C164.401 40.6434 164.059 41.2036 163.66 41.7499C163.296 42.2568 162.946 42.7256 162.613 43.1565C161.844 44.1365 161.177 45.0164 160.613 45.7964C160.05 46.5764 159.519 47.3169 159.023 48.018C159.381 48.3577 159.741 48.7339 160.105 49.1466C160.502 49.52 160.943 49.9818 161.427 50.5321ZM174.089 63.0525C174.041 62.9091 173.995 62.7841 173.949 62.6773C173.944 62.6042 173.935 62.4945 173.924 62.3483C173.796 61.6595 173.903 60.9155 174.244 60.1162C174.626 59.3506 174.901 58.6485 175.072 58.0098C175.371 57.1403 175.613 56.2386 175.797 55.3046C176.017 54.3678 176.203 53.4521 176.353 52.5575C176.571 51.5841 176.718 50.653 176.795 49.7642C176.87 48.8389 176.944 47.9135 177.018 46.9882C177.082 44.997 177.032 42.9597 176.868 40.8761C176.537 36.6724 175.732 32.5062 174.45 28.3773C174.054 27.0844 173.587 25.8155 173.047 24.5706C172.505 23.2892 171.925 21.9924 171.307 20.6802C171.095 20.329 170.844 19.9442 170.554 19.5257C170.264 19.1072 170.029 18.7026 169.852 18.312C169.71 17.9186 169.701 17.5699 169.824 17.2659C169.948 16.962 170.335 16.7476 170.988 16.6227C171.53 16.5064 172.118 16.497 172.751 16.5943C173.381 16.6551 173.925 16.7961 174.384 17.0175C175.271 17.5362 176.006 18.2323 176.59 19.1059C177.21 19.9766 177.754 20.8165 178.222 21.6256C178.854 22.6425 179.414 23.6834 179.902 24.7484C180.388 25.7768 180.858 26.8432 181.313 27.9476C181.731 29.0549 182.111 30.1468 182.453 31.2233C182.793 32.2632 183.1 33.3608 183.374 34.5161C183.643 35.5984 183.853 36.6301 184.004 37.6113C184.155 38.5925 184.263 39.5034 184.33 40.3442C184.413 41.4042 184.48 42.484 184.529 43.5835C184.576 44.6464 184.564 45.6588 184.492 46.6207C184.463 47.6529 184.376 48.6528 184.232 49.6204C184.085 50.5515 183.901 51.4855 183.68 52.4223C183.462 53.3958 183.188 54.3552 182.858 55.3007C182.562 56.2067 182.21 57.1171 181.804 58.0318C181.546 58.4934 181.273 58.9931 180.984 59.5307C180.698 60.1049 180.375 60.6637 180.013 61.2071C179.651 61.7505 179.248 62.2419 178.805 62.6814C178.398 63.118 177.946 63.4478 177.448 63.6709C176.917 63.9333 176.297 64.0005 175.588 63.8724C174.919 63.778 174.419 63.5046 174.089 63.0525Z" fill="#FFB84E"/>
<path d="M56.444 118.67C57.8363 118.553 59.1698 118.832 60.4446 119.506C61.7986 120.193 62.9869 121.178 64.0095 122.462C64.4812 123.098 64.7771 123.829 64.8971 124.656C65.0962 125.494 65.1312 126.348 65.002 127.219C64.8611 128.168 64.5502 129.174 64.0693 130.235C63.6792 131.228 63.2057 131.967 62.6487 132.45C61.91 133.068 60.9969 133.499 59.9094 133.742C58.822 133.985 57.7917 134.115 56.8186 134.133C55.8573 134.071 55.0205 133.987 54.3083 133.881C53.6752 133.787 53.3191 133.735 53.24 133.723L29.9571 130.39C28.9958 130.328 27.9948 130.26 26.9544 130.187C26.0048 130.046 25.061 129.865 24.1232 129.645C23.197 129.346 22.3222 128.974 21.4987 128.528C20.7661 128.015 20.0907 127.389 19.4724 126.65C18.7311 125.651 18.1817 124.72 17.8243 123.858C17.4787 122.917 17.3881 121.893 17.5525 120.785C17.7521 119.44 18.3019 118.187 19.202 117.026C20.1929 115.798 21.3963 115.047 22.812 114.772C24.5795 114.306 26.3278 114.242 28.057 114.579C29.8771 114.849 31.703 115.08 33.5348 115.271L56.444 118.67Z" fill="#FFD596"/>
<path d="M98.3478 85.9438L109.547 86.0943C110.682 85.8994 111.515 85.9699 112.046 86.3056C112.645 86.6416 113.409 87.1784 114.339 87.9159C115.269 88.6535 115.731 89.6889 115.725 91.0222C115.722 91.6889 115.586 92.3883 115.316 93.1204C115.112 93.8528 114.81 94.3848 114.408 94.7163C113.873 95.2472 113.304 95.6447 112.703 95.9086C112.102 96.1059 111.501 96.2699 110.901 96.4005C110.367 96.4648 109.9 96.496 109.5 96.4942C109.167 96.4927 108.967 96.4918 108.9 96.4915L98.3005 96.4437L98.2482 108.044C98.4431 109.178 98.3711 110.344 98.0324 111.543C97.694 112.674 97.156 113.705 96.4184 114.635C95.6809 115.565 94.6455 116.027 93.3122 116.021C92.6455 116.018 91.7793 115.914 90.7135 115.71C89.6481 115.438 88.9496 115.102 88.6181 114.7C88.0871 114.164 87.6902 113.496 87.4271 112.695C87.231 111.827 87.0681 110.993 86.9384 110.193C86.8753 109.392 86.845 108.726 86.8474 108.192C86.8501 107.592 86.8516 107.259 86.8519 107.192L86.8002 96.4918L78.4002 96.454C77.6669 96.4507 77.0334 96.4811 76.4998 96.5454C76.0332 96.5433 75.5666 96.5079 75.1003 96.4391C74.7009 96.304 74.3016 96.1355 73.9025 95.9337C73.5035 95.7319 73.0383 95.3964 72.5071 94.9274C71.1116 93.9211 70.4172 92.6846 70.4238 91.2179C70.428 90.2846 70.6987 89.3858 71.2359 88.5216C71.8401 87.591 72.6763 86.9614 73.7445 86.6329C74.412 86.4359 74.9461 86.2716 75.3467 86.1401C75.814 86.0089 76.2144 85.9107 76.5481 85.8455C76.9484 85.7806 77.3485 85.7491 77.7485 85.7509C78.2155 85.6864 78.8156 85.6557 79.5489 85.659L86.8484 85.792L86.8831 78.092C86.8234 76.5584 86.8304 74.9918 86.9043 73.3921C86.9785 71.7257 87.4848 70.328 88.4233 69.1989C88.9599 68.468 89.6958 67.9046 90.6309 67.5088C91.566 67.113 92.4003 66.9168 93.1336 66.9201C94.0669 66.9243 94.9654 67.2617 95.829 67.9323C96.7597 68.5365 97.3892 69.3727 97.7177 70.4408C98.1781 71.8429 98.3716 73.2771 98.2984 74.7435C98.2917 76.2101 98.3183 77.7103 98.3781 79.2439L98.3478 85.9438Z" fill="#577DB7"/>
<circle cx="189.095" cy="116.527" r="34.9324" fill="#649DF6"/>
<path d="M144 182.27C144 167.359 156.088 155.27 171 155.27H211C225.912 155.27 238 167.359 238 182.27V201H144V182.27Z" fill="#649DF6"/>
<path d="M191 170.513L179.999 155.27L202.001 155.27L191 170.513Z" fill="white"/>
</svg>
