<svg width="228" height="176" viewBox="0 0 228 176" fill="none" xmlns="http://www.w3.org/2000/svg">
<path d="M30.6581 36.1161C30.6581 30.5933 35.1352 26.1161 40.6581 26.1161H184.168C189.691 26.1161 194.168 30.5933 194.168 36.1161V130.581H30.6581V36.1161Z" fill="#D0E3FF"/>
<rect x="44.2839" y="42.0129" width="136.258" height="86.2968" rx="5" fill="#FFF2D0"/>
<path d="M29.466 132.685C31.3279 129.948 34.4238 128.31 37.7342 128.31H190.312C193.676 128.31 196.814 130.001 198.664 132.811L219.955 165.151C223.019 169.805 219.68 176 214.108 176H13.2281C7.60748 176 4.27893 169.71 7.4403 165.063L29.466 132.685Z" fill="#D0E3FF"/>
<rect x="6.81293" y="161.239" width="213.471" height="14.7613" rx="7.38065" fill="#A8C6F3"/>
<path fill-rule="evenodd" clip-rule="evenodd" d="M178.658 0H189.738V6.89846C195.134 7.75436 200.121 9.84034 204.401 12.8601L209.853 7.40848L217.688 15.2435L212.34 20.5912C215.656 25.0364 217.944 30.2939 218.851 36.0111H226.673V47.0914H218.851C217.959 52.7147 215.731 57.8931 212.503 62.2915L217.688 67.4766L209.853 75.3116L204.625 70.0834C200.295 73.1889 195.228 75.3332 189.738 76.204V84.0258H178.658V76.204C172.941 75.2972 167.683 73.0094 163.238 69.6933L156.967 75.9645L149.132 68.1296L155.507 61.7545C152.487 57.4739 150.401 52.4874 149.545 47.0914H140.8V36.0111H149.545C150.416 30.5209 152.56 25.4547 155.666 21.1246L150.438 15.8964L158.273 8.06142L163.458 13.2466C167.856 10.0182 173.035 7.79041 178.658 6.89846V0ZM184.66 62.7885C196.134 62.7885 205.435 53.487 205.435 42.0129C205.435 30.5389 196.134 21.2373 184.66 21.2373C173.186 21.2373 163.884 30.5389 163.884 42.0129C163.884 53.487 173.186 62.7885 184.66 62.7885Z" fill="#FFB84E"/>
<path fill-rule="evenodd" clip-rule="evenodd" d="M143.067 70.4H150.045V74.7443C153.443 75.2834 156.584 76.5971 159.279 78.4988L162.713 75.0656L167.647 79.9998L164.279 83.3676C166.367 86.167 167.808 89.4779 168.379 93.0783H173.305V100.056H168.379C167.817 103.598 166.414 106.859 164.381 109.629L167.647 112.894L162.713 117.828L159.42 114.536C156.693 116.491 153.503 117.842 150.045 118.39V123.316H143.067V118.39C139.467 117.819 136.156 116.378 133.356 114.29L129.407 118.239L124.473 113.305L128.488 109.29C126.586 106.595 125.272 103.454 124.733 100.056H119.226V93.0783H124.733C125.282 89.6208 126.632 86.4303 128.588 83.7034L125.295 80.4109L130.229 75.4768L133.495 78.7421C136.265 76.7091 139.526 75.3061 143.067 74.7443V70.4ZM146.847 109.942C154.073 109.942 159.931 104.084 159.931 96.858C159.931 89.6321 154.073 83.7744 146.847 83.7744C139.621 83.7744 133.763 89.6321 133.763 96.858C133.763 104.084 139.621 109.942 146.847 109.942Z" fill="#7096D1"/>
</svg>
