<svg width="205" height="222" viewBox="0 0 205 222" fill="none" xmlns="http://www.w3.org/2000/svg">
<rect x="52.6108" y="148.761" width="98.8717" height="19.0487" rx="9.52434" fill="#FFD596"/>
<path d="M116.106 30.4957C116.106 25.694 121.206 22.6006 125.583 24.574C151.15 36.0996 169.049 35.7678 195.503 24.3402C199.938 22.4247 205 25.5852 205 30.4156C205 32.9932 203.479 35.342 201.109 36.3538C170.321 49.494 151.281 49.6458 119.925 36.3154C117.599 35.3262 116.106 33.0238 116.106 30.4957Z" fill="#FFD596"/>
<path d="M0 30.4957C0 25.694 5.09995 22.6006 9.47744 24.574C35.0439 36.0996 52.9429 35.7678 79.3972 24.3402C83.8316 22.4247 88.8938 25.5852 88.8938 30.4156C88.8938 32.9932 87.3735 35.342 85.0027 36.3538C54.2149 49.494 35.1748 49.6458 3.81923 36.3154C1.49264 35.3262 0 33.0238 0 30.4957Z" fill="#FFD596"/>
<path d="M94.3364 19.9558L110.664 19.9558L108.13 145.133H96.87L94.3364 19.9558Z" fill="#FFD596"/>
<path fill-rule="evenodd" clip-rule="evenodd" d="M10.8848 86.1726C10.8848 104.708 25.911 119.735 44.4467 119.735C62.9825 119.735 78.0087 104.708 78.0087 86.1726H10.8848Z" fill="#FFD596"/>
<path d="M43.9935 46.261L71.0951 97.2842H16.8919L43.9935 46.261Z" stroke="#FFD596" stroke-width="5"/>
<path fill-rule="evenodd" clip-rule="evenodd" d="M126.991 86.1726C126.991 104.708 142.017 119.735 160.553 119.735C179.089 119.735 194.115 104.708 194.115 86.1726H126.991Z" fill="#FFD596"/>
<path d="M160.099 46.261L187.201 97.2842H132.998L160.099 46.261Z" stroke="#FFD596" stroke-width="5"/>
<circle cx="102.047" cy="13.1527" r="13.1527" fill="#FFD596"/>
<path fill-rule="evenodd" clip-rule="evenodd" d="M51.769 175.001L52 175.005V175.035C52.1633 175.012 52.3302 175 52.5 175H171.5C173.433 175 175 176.567 175 178.5C175 180.433 173.433 182 171.5 182H52.5C52.3302 182 52.1633 181.988 52 181.965V182.004C51.8833 182.001 51.7661 182 51.6489 182C42.5361 182 35.1489 189.387 35.1489 198.5C35.1489 207.613 42.5361 215 51.6489 215C51.7661 215 51.8833 214.999 52 214.996V215.035C52.1633 215.012 52.3302 215 52.5 215H171.5C173.433 215 175 216.567 175 218.5C175 220.433 173.433 222 171.5 222H52.5C52.3302 222 52.1633 221.988 52 221.965V221.995C51.834 221.998 51.667 222 51.5 222C38.5215 222 28 211.479 28 198.5C28 185.521 38.5215 175 51.5 175L51.769 175.001Z" fill="#7096D1"/>
<path fill-rule="evenodd" clip-rule="evenodd" d="M52.5 185H168V212H52.5H52V211.991C44.7754 211.728 39 205.788 39 198.5C39 191.212 44.7754 185.272 52 185.009V185H52.5Z" fill="#E8E8E8"/>
</svg>
