<svg width="220" height="221" viewBox="0 0 220 221" fill="none" xmlns="http://www.w3.org/2000/svg">
<rect x="46.2119" y="130.668" width="86.8466" height="16.7319" rx="8.36596" fill="#FFD596"/>
<path d="M101.985 26.7868C101.985 22.5691 106.465 19.8519 110.31 21.5853C132.767 31.7091 148.489 31.4177 171.726 21.38C175.621 19.6974 180.067 22.4735 180.067 26.7164C180.067 28.9806 178.732 31.0437 176.649 31.9324C149.606 43.4744 132.882 43.6079 105.34 31.8987C103.296 31.0298 101.985 29.0075 101.985 26.7868Z" fill="#FFD596"/>
<path d="M0 26.7868C0 22.5691 4.47968 19.8519 8.32477 21.5853C30.7817 31.7091 46.5038 31.4177 69.7407 21.38C73.6357 19.6974 78.0823 22.4735 78.0823 26.7164C78.0823 28.9806 76.7469 31.0437 74.6645 31.9324C47.6211 43.4744 30.8968 43.6079 3.35472 31.8987C1.3111 31.0298 0 29.0075 0 26.7868Z" fill="#FFD596"/>
<path d="M82.8628 17.5288L97.2044 17.5288L94.979 127.481H85.0882L82.8628 17.5288Z" fill="#FFD596"/>
<path fill-rule="evenodd" clip-rule="evenodd" d="M9.56104 75.6921C9.56113 91.9734 22.7598 105.172 39.0411 105.172C55.3224 105.172 68.521 91.9734 68.5211 75.6921H9.56104Z" fill="#FFD596"/>
<path d="M38.6429 40.6343L62.4484 85.4519H14.8375L38.6429 40.6343Z" stroke="#FFD596" stroke-width="5"/>
<path fill-rule="evenodd" clip-rule="evenodd" d="M111.546 75.6921C111.546 91.9734 124.745 105.172 141.026 105.172C157.307 105.172 170.506 91.9734 170.506 75.6921H111.546Z" fill="#FFD596"/>
<path d="M140.628 40.6343L164.433 85.4519H116.822L140.628 40.6343Z" stroke="#FFD596" stroke-width="5"/>
<circle cx="89.6355" cy="11.553" r="11.553" fill="#FFD596"/>
<path fill-rule="evenodd" clip-rule="evenodd" d="M45.2366 153.716C45.3833 153.716 45.5296 153.717 45.6756 153.72V153.747C45.8189 153.727 45.9655 153.716 46.1145 153.716H150.641C152.339 153.716 153.716 155.093 153.716 156.79C153.716 158.488 152.339 159.865 150.641 159.865H46.1145C45.9655 159.865 45.8189 159.854 45.6756 159.834V159.868C45.5731 159.866 45.4704 159.865 45.3674 159.865C37.363 159.865 30.8742 166.354 30.8742 174.358C30.8742 182.362 37.363 188.851 45.3674 188.851C45.4704 188.851 45.5731 188.85 45.6756 188.848V188.882C45.8189 188.862 45.9655 188.851 46.1145 188.851H150.641C152.339 188.851 153.716 190.228 153.716 191.926C153.716 193.624 152.339 195 150.641 195H46.1145C45.9655 195 45.8189 194.989 45.6756 194.969V194.995C45.5296 194.998 45.3833 195 45.2366 195C33.8364 195 24.5947 185.758 24.5947 174.358C24.5947 162.957 33.8364 153.716 45.2366 153.716Z" fill="#7096D1"/>
<path fill-rule="evenodd" clip-rule="evenodd" d="M147.567 162.5H45.6756V162.508C39.3301 162.739 34.2568 167.956 34.2568 174.358C34.2568 180.76 39.3301 185.977 45.6756 186.208V186.216H46.0597C46.0781 186.216 46.0965 186.216 46.1149 186.216C46.1333 186.216 46.1518 186.216 46.1702 186.216H147.567V162.5Z" fill="#E8E8E8"/>
<circle cx="167.567" cy="115.5" r="33.5" fill="#D0E3FF"/>
<mask id="mask0_13_797" style="mask-type:alpha" maskUnits="userSpaceOnUse" x="115" y="154" width="105" height="67">
<path d="M115.067 204C115.067 176.386 137.453 154 165.067 154H169.067C196.682 154 219.067 176.386 219.067 204V221H115.067V204Z" fill="#DDDDDD"/>
</mask>
<g mask="url(#mask0_13_797)">
<path d="M115.067 204C115.067 176.386 137.453 154 165.067 154H169.067C196.682 154 219.067 176.386 219.067 204V221H115.067V204Z" fill="white"/>
<path fill-rule="evenodd" clip-rule="evenodd" d="M186.514 157.128L166.567 212L146.743 157.465C128.194 164.775 115.067 182.854 115.067 204V221H219.067V204C219.067 182.522 205.525 164.208 186.514 157.128Z" fill="#D0E3FF"/>
<path d="M166.567 206L175.067 183H158.067L166.567 206Z" fill="#D0E3FF"/>
<path d="M159.067 153H174.067L171.067 161H162.067L159.067 153Z" fill="#D0E3FF"/>
<path d="M158.067 183H175.067L171.067 163H162.067L158.067 183Z" fill="#D0E3FF"/>
</g>
</svg>
