<svg width="144" height="152" viewBox="0 0 144 152" fill="none" xmlns="http://www.w3.org/2000/svg">
<path fill-rule="evenodd" clip-rule="evenodd" d="M0 15.5C0 9.70101 4.70101 5 10.5 5C16.299 5 21 9.70101 21 15.5V47.0767L54.8643 80.9409C57.686 83.7627 59.3187 87.3233 59.7622 91H60V114H29V103.573L10.2132 84.7864C8.77975 83.353 7.52169 81.8106 6.43902 80.1859C2.65653 78.5981 0 74.8593 0 70.5V15.5Z" fill="#FFF2D0"/>
<rect x="26" y="120" width="37" height="32" rx="5" fill="#A8C6F3"/>
<rect x="21" y="110" width="46" height="20" rx="5" fill="#D0E3FF"/>
<path fill-rule="evenodd" clip-rule="evenodd" d="M144 15.5C144 9.70101 139.299 5 133.5 5C127.701 5 123 9.70101 123 15.5V47.0767L89.1357 80.9409C86.314 83.7627 84.6813 87.3233 84.2378 91H84V114H115V103.573L133.787 84.7864C135.22 83.353 136.478 81.8106 137.561 80.1859C141.343 78.5981 144 74.8593 144 70.5V15.5Z" fill="#FFF2D0"/>
<rect width="37" height="32" rx="5" transform="matrix(-1 0 0 1 118 120)" fill="#A8C6F3"/>
<rect width="46" height="20" rx="5" transform="matrix(-1 0 0 1 123 110)" fill="#D0E3FF"/>
<path fill-rule="evenodd" clip-rule="evenodd" d="M72.6001 25.5759C72.5996 25.5781 72.5992 25.5802 72.5987 25.5824V70.4994C70.7853 69.1457 68.6588 67.6903 66.3416 66.1044C54.5156 58.0104 37.7218 46.5163 32.2236 27.7944C31.8571 26.7221 31.575 25.6107 31.3851 24.4682C31.2827 23.9834 31.1878 23.494 31.1006 23C30.9643 22.2276 30.9688 21.5547 31.1001 20.9723C31.1151 9.38703 40.5114 0 52.1001 0C62.1265 0 70.5117 7.02657 72.6001 16.4241C74.6885 7.02657 83.0737 0 93.1001 0C104.689 0 114.085 9.38703 114.1 20.9723C114.231 21.5547 114.236 22.2276 114.1 23C114.012 23.494 113.918 23.9834 113.815 24.4682C113.625 25.6107 113.343 26.7221 112.977 27.7944C107.478 46.5163 90.6846 58.0104 78.8586 66.1044C76.5414 67.6903 74.4149 69.1457 72.6015 70.4994V25.5824C72.6011 25.5802 72.6006 25.5781 72.6001 25.5759Z" fill="#FF7878"/>
</svg>
