<svg width="185" height="181" viewBox="0 0 185 181" fill="none" xmlns="http://www.w3.org/2000/svg">
<path fill-rule="evenodd" clip-rule="evenodd" d="M92.5 70.8695C92.4989 70.8742 92.4979 70.879 92.4968 70.8838V170.759C88.4646 167.749 83.7363 164.513 78.5839 160.986C52.2882 142.989 14.9462 117.431 2.72071 75.8024C1.90588 73.4181 1.27857 70.9468 0.856366 68.4063C0.628599 67.3283 0.417529 66.2401 0.223705 65.1416C-0.0793403 63.4242 -0.0693965 61.9279 0.222604 60.6329C0.255914 34.8726 21.149 14 46.9172 14C69.2113 14 87.8563 29.6239 92.5 50.5197C97.1437 29.6239 115.789 14 138.083 14C163.851 14 184.744 34.8726 184.777 60.6329C185.069 61.9279 185.079 63.4242 184.776 65.1416C184.582 66.2401 184.371 67.3283 184.144 68.4063C183.721 70.9468 183.094 73.4181 182.279 75.8024C170.054 117.431 132.712 142.989 106.416 160.986C101.264 164.513 96.5353 167.749 92.5032 170.759V70.8838C92.5021 70.879 92.5011 70.8742 92.5 70.8695Z" fill="#FF7878"/>
<ellipse cx="92.3304" cy="34.113" rx="34.0565" ry="33.2258" fill="#649DF6"/>
<path d="M40 122C40 94.3858 62.3858 72 90 72H93C120.614 72 143 94.3858 143 122V172H40V122Z" fill="#649DF6"/>
<ellipse cx="49.3616" cy="111.277" rx="19.759" ry="19.2771" fill="#D0E3FF"/>
<path d="M19 163.325C19 146.823 32.3775 133.446 48.8795 133.446C65.3815 133.446 78.759 146.823 78.759 163.325V172H19V163.325Z" fill="#D0E3FF"/>
<ellipse cx="136.108" cy="111.277" rx="19.759" ry="19.2771" fill="#ADC8F0"/>
<path d="M105.747 163.325C105.747 146.823 119.124 133.446 135.626 133.446C152.128 133.446 165.506 146.823 165.506 163.325V172H105.747V163.325Z" fill="#ADC8F0"/>
<ellipse cx="92.5" cy="118" rx="20.5" ry="20" fill="#FFD596"/>
<path d="M61 172C61 154.879 74.8792 141 92 141C109.121 141 123 154.879 123 172V181H61V172Z" fill="#FFD596"/>
<rect x="16" y="134.231" width="27" height="15" rx="7.5" transform="rotate(-26.9368 16 134.231)" fill="#649DF6"/>
<rect width="27" height="15" rx="7.5" transform="matrix(-0.891507 -0.453008 -0.453008 0.891507 167.866 135.231)" fill="#649DF6"/>
</svg>
