<svg width="235" height="199" viewBox="0 0 235 199" fill="none" xmlns="http://www.w3.org/2000/svg">
<path fill-rule="evenodd" clip-rule="evenodd" d="M113.337 10.26C113.491 10.26 113.645 10.2604 113.799 10.2611V10.2685C120.483 10.5118 125.827 16.007 125.827 22.7502C125.827 29.4935 120.483 34.9886 113.799 35.232V35.2419C113.645 35.2409 113.491 35.2404 113.337 35.2404C75.7803 35.2404 45.3348 65.6859 45.3348 103.242C45.3348 103.397 45.3353 103.551 45.3363 103.705H45.3264C45.083 110.389 39.5879 115.733 32.8446 115.733C26.1014 115.733 20.6063 110.389 20.3629 103.705H20.3558C20.3551 103.574 20.3548 103.443 20.3547 103.311C20.3546 103.288 20.3545 103.265 20.3545 103.242C20.3545 103.219 20.3546 103.196 20.3547 103.173C20.3919 51.8524 62.0072 10.26 113.337 10.26Z" fill="#FFB84E"/>
<path fill-rule="evenodd" clip-rule="evenodd" d="M113.337 10.26C113.182 10.26 113.028 10.2604 112.874 10.2611V10.2685C106.19 10.5118 100.846 16.007 100.846 22.7502C100.846 29.4935 106.19 34.9886 112.874 35.232V35.2419C113.028 35.2409 113.182 35.2404 113.337 35.2404C150.893 35.2404 181.339 65.6859 181.339 103.242C181.339 103.397 181.338 103.551 181.337 103.705H181.347C181.59 110.389 187.085 115.733 193.829 115.733C200.572 115.733 206.067 110.389 206.31 103.705H206.318C206.318 103.564 206.319 103.422 206.319 103.281C206.319 103.268 206.319 103.255 206.319 103.242M113.337 10.26C164.676 10.26 206.298 51.8689 206.319 103.204L113.337 10.26Z" fill="#FFE296"/>
<path fill-rule="evenodd" clip-rule="evenodd" d="M113.301 196.225C113.313 196.225 113.325 196.225 113.337 196.225L113.301 196.225ZM113.301 196.225C113.158 196.225 113.016 196.224 112.874 196.223V196.216C106.19 195.973 100.846 190.478 100.846 183.734C100.846 176.991 106.19 171.496 112.874 171.253V171.243C113.028 171.244 113.182 171.244 113.337 171.244C150.893 171.244 181.339 140.799 181.339 103.242C181.339 103.088 181.338 102.934 181.337 102.78H181.347C181.59 96.096 187.085 90.7522 193.829 90.7522C200.572 90.7522 206.067 96.096 206.31 102.78H206.318C206.318 102.921 206.319 103.063 206.319 103.204C206.319 103.217 206.319 103.23 206.319 103.242M113.373 196.225C164.696 196.205 206.298 154.604 206.319 103.281L113.373 196.225Z" fill="#D0E3FF"/>
<circle cx="26.3679" cy="19.0493" r="18.9665" fill="#FFB84E"/>
<circle cx="18.9665" cy="180.033" r="18.9665" fill="#7096D1"/>
<circle cx="216.033" cy="20.8996" r="18.9665" fill="#FFE296"/>
<circle cx="216.033" cy="180.033" r="18.9665" fill="#D0E3FF"/>
<path fill-rule="evenodd" clip-rule="evenodd" d="M113.373 196.225C113.361 196.225 113.349 196.225 113.337 196.225L113.373 196.225ZM113.373 196.225C113.515 196.225 113.657 196.224 113.799 196.223V196.216C120.483 195.973 125.827 190.478 125.827 183.734C125.827 176.991 120.483 171.496 113.799 171.253V171.243C113.645 171.244 113.491 171.244 113.337 171.244C75.7803 171.244 45.3348 140.799 45.3348 103.242C45.3348 103.088 45.3353 102.934 45.3363 102.78H45.3264C45.083 96.096 39.5879 90.7522 32.8446 90.7522C26.1014 90.7522 20.6063 96.096 20.3629 102.78H20.3558C20.3551 102.911 20.3548 103.042 20.3547 103.173C20.3546 103.196 20.3545 103.219 20.3545 103.242C20.3545 103.265 20.3546 103.288 20.3547 103.311C20.392 154.62 61.9876 196.205 113.301 196.225" fill="#7096D1"/>
<circle cx="32.8447" cy="103.242" r="12.4902" fill="#FFB84E"/>
<path fill-rule="evenodd" clip-rule="evenodd" d="M69.4009 25.063L31.4565 63.0073L70.7186 91.5127C74.6691 78.5257 85.009 68.3215 98.0775 64.5609L69.4009 25.063Z" fill="#FFB84E"/>
<path fill-rule="evenodd" clip-rule="evenodd" d="M103.384 142.08C89.6506 139.938 78.2169 130.852 72.787 118.525L35.1577 145.845L73.1021 183.79L103.384 142.08Z" fill="#7096D1"/>
<path fill-rule="evenodd" clip-rule="evenodd" d="M192.959 63.0073L155.015 25.063L125.719 65.4132C137.726 70.6534 146.681 81.5814 149.18 94.7924L192.959 63.0073Z" fill="#FFE296"/>
<path fill-rule="evenodd" clip-rule="evenodd" d="M128.491 137.882L157.79 178.238L195.735 140.294L149.633 106.823C148.13 120.313 139.959 131.79 128.491 137.882Z" fill="#D0E3FF"/>
</svg>
