<svg width="325" height="264" viewBox="0 0 325 264" fill="none" xmlns="http://www.w3.org/2000/svg">
<path fill-rule="evenodd" clip-rule="evenodd" d="M232.419 69.8098C233.033 63.6088 230.853 57.2411 225.528 54.0064C207.465 43.0358 183.622 44.9327 167.474 60.113C148.067 78.3571 147.125 108.879 165.369 128.286C178.97 142.754 199.395 146.96 216.951 140.604C222.811 138.483 226.197 132.667 226.811 126.466L232.419 69.8098ZM213.015 128.674C216.815 125.102 217.234 119.377 213.952 115.886C210.67 112.394 204.929 112.46 201.13 116.031C197.331 119.603 196.912 125.328 200.194 128.82C203.476 132.311 209.216 132.245 213.015 128.674Z" fill="#D0E3FF"/>
<ellipse cx="169.825" cy="77.5158" rx="9.95194" ry="8.67605" transform="rotate(-59.6509 169.825 77.5158)" fill="#FFB84E"/>
<ellipse cx="192.656" cy="62.6814" rx="9.95194" ry="8.67605" transform="rotate(-24.0508 192.656 62.6814)" fill="#FFE296"/>
<ellipse cx="217.533" cy="63.8104" rx="9.95194" ry="8.67605" transform="rotate(19.2885 217.533 63.8104)" fill="#7096D1"/>
<ellipse cx="167.767" cy="104.025" rx="9.95194" ry="8.67605" transform="rotate(-106.322 167.767 104.025)" fill="#649DF6"/>
<ellipse cx="167.767" cy="104.025" rx="9.95194" ry="8.67605" transform="rotate(-106.322 167.767 104.025)" fill="#649DF6"/>
<path d="M213.111 94.6887C206.484 90.6554 209.903 80.4362 217.623 81.2035V81.2035C219.501 81.3901 221.347 81.8191 223.115 82.4796L282.057 104.5L284.959 106.028C289.972 108.669 287.42 116.295 281.828 115.388L278.59 114.862L218.265 96.9749C216.456 96.4384 214.723 95.6699 213.111 94.6887V94.6887Z" fill="#649DF6"/>
<path fill-rule="evenodd" clip-rule="evenodd" d="M199.565 74.408C193.735 76.5389 187.9 76.9441 179.645 76.1715C186.61 80.5182 189.609 83.6617 194.463 89.6548L194.464 89.6509C195.48 91.1802 196.945 92.3692 198.753 92.9742C203.412 94.5331 208.585 91.6253 210.306 86.4794C212.028 81.3335 209.647 75.8981 204.988 74.3392C203.18 73.7342 201.294 73.802 199.563 74.4124L199.565 74.408Z" fill="#FFB84E"/>
<mask id="mask0_67_375" style="mask-type:alpha" maskUnits="userSpaceOnUse" x="209" y="81" width="79" height="35">
<path d="M213.111 94.6887C206.484 90.6554 209.903 80.4362 217.623 81.2035V81.2035C219.501 81.3901 221.347 81.8191 223.115 82.4796L282.057 104.5L284.959 106.028C289.972 108.669 287.42 116.295 281.828 115.388L278.59 114.862L218.265 96.9749C216.456 96.4384 214.723 95.6699 213.111 94.6887V94.6887Z" fill="#649DF6"/>
</mask>
<g mask="url(#mask0_67_375)">
<rect x="211.167" y="97.2153" width="21.4369" height="19.9476" transform="rotate(-71.4996 211.167 97.2153)" fill="#FFF2D0"/>
</g>
<circle cx="102.802" cy="119.198" r="41.1979" fill="#FFD596"/>
<circle cx="102.802" cy="119.198" r="41.1979" fill="#FFD596"/>
<path d="M107.709 160.85C107.229 161.544 106.563 162.05 105.709 162.37C104.856 162.69 103.976 162.797 103.069 162.69C102.216 162.584 101.416 162.264 100.669 161.73C99.9761 161.25 99.5227 160.557 99.3094 159.65C99.2561 159.544 99.2027 159.25 99.1494 158.77C99.1494 158.29 99.1227 157.81 99.0694 157.33C99.0694 156.797 99.0427 156.317 98.9894 155.89C98.9894 155.464 98.9894 155.25 98.9894 155.25C97.7627 155.09 96.3227 154.877 94.6694 154.61C93.0694 154.29 91.6561 153.917 90.4294 153.49C89.6294 153.17 88.7761 152.85 87.8694 152.53C87.0161 152.157 86.1894 151.757 85.3894 151.33C84.5894 150.85 83.8427 150.317 83.1494 149.73C82.5094 149.09 82.0294 148.344 81.7094 147.49C81.4427 146.85 81.2561 146.184 81.1494 145.49C81.0961 144.744 81.1494 144.024 81.3094 143.33C81.5227 142.637 81.8427 142.024 82.2694 141.49C82.7494 140.957 83.3894 140.61 84.1894 140.45C84.7227 140.29 85.2561 140.317 85.7894 140.53C86.3227 140.69 86.8294 140.93 87.3094 141.25C87.7894 141.57 88.2694 141.944 88.7494 142.37C89.2294 142.744 89.7094 143.037 90.1894 143.25C91.4161 143.73 92.8294 144.184 94.4294 144.61C96.0827 144.984 97.6027 145.277 98.9894 145.49V131.57C98.0294 131.25 96.9361 130.957 95.7094 130.69C94.5361 130.424 93.5761 130.184 92.8294 129.97C92.1361 129.704 91.4961 129.49 90.9094 129.33C90.3761 129.117 89.8961 128.877 89.4694 128.61C87.1227 127.704 85.4161 126.29 84.3494 124.37C83.8161 123.41 83.4161 122.45 83.1494 121.49C82.8827 120.477 82.7494 119.357 82.7494 118.13C82.7494 117.064 82.8561 116.077 83.0694 115.17C83.2827 114.21 83.5494 113.33 83.8694 112.53C84.5094 110.93 85.5494 109.544 86.9894 108.37C87.6294 107.73 88.3494 107.197 89.1494 106.77C90.0027 106.344 90.9094 105.917 91.8694 105.49C92.7761 105.064 93.9227 104.744 95.3094 104.53C96.6961 104.317 97.9227 104.157 98.9894 104.05C98.9894 103.304 98.9894 102.53 98.9894 101.73C98.9894 100.877 99.2027 100.157 99.6294 99.5702C100.269 98.6635 100.856 98.0235 101.389 97.6502C101.923 97.2768 102.723 97.1435 103.789 97.2502C104.749 97.3568 105.603 97.5968 106.349 97.9702C107.096 98.3435 107.656 99.0102 108.029 99.9702C108.029 100.077 108.029 100.37 108.029 100.85C108.083 101.277 108.136 101.757 108.189 102.29C108.243 102.877 108.269 103.544 108.269 104.29C109.976 104.664 111.736 105.144 113.549 105.73C115.416 106.264 117.096 106.957 118.589 107.81C119.763 108.557 120.696 109.41 121.389 110.37C122.136 111.277 122.483 112.424 122.429 113.81C122.376 114.557 122.083 115.277 121.549 115.97C121.016 116.664 120.376 117.064 119.629 117.17C118.776 117.277 117.976 117.144 117.229 116.77C116.483 116.344 115.763 115.944 115.069 115.57C114.163 115.144 113.096 114.717 111.869 114.29C110.696 113.81 109.496 113.517 108.269 113.41V124.45C109.389 124.77 110.563 125.197 111.789 125.73C113.016 126.21 114.083 126.637 114.989 127.01C117.976 128.237 120.163 130.184 121.549 132.85C122.989 135.464 123.656 138.29 123.549 141.33C123.496 143.357 123.096 145.224 122.349 146.93C121.923 147.677 121.443 148.37 120.909 149.01C120.376 149.65 119.789 150.237 119.149 150.77C118.509 151.357 117.816 151.864 117.069 152.29C116.323 152.664 115.496 153.064 114.589 153.49C113.683 153.757 112.669 154.024 111.549 154.29C110.429 154.504 109.336 154.717 108.269 154.93C108.216 154.93 108.163 155.117 108.109 155.49C108.109 155.81 108.109 156.184 108.109 156.61C108.163 157.037 108.189 157.464 108.189 157.89C108.243 158.264 108.269 158.477 108.269 158.53C108.269 159.437 108.083 160.21 107.709 160.85ZM93.3094 118.53C93.3627 118.957 93.5494 119.437 93.8694 119.97C94.1894 120.45 94.5627 120.85 94.9894 121.17C95.4694 121.49 96.0561 121.757 96.7494 121.97C97.4427 122.13 98.1894 122.264 98.9894 122.37V113.33C97.2294 113.437 95.7627 113.89 94.5894 114.69C93.4694 115.437 93.0427 116.717 93.3094 118.53ZM114.669 139.97C114.563 139.277 114.296 138.637 113.869 138.05C113.496 137.41 112.989 136.85 112.349 136.37C111.763 135.89 111.096 135.49 110.349 135.17C109.656 134.797 108.963 134.53 108.269 134.37C108.269 136.237 108.296 138.13 108.349 140.05C108.456 141.917 108.483 143.784 108.429 145.65C109.229 145.757 110.029 145.704 110.829 145.49C111.629 145.224 112.323 144.85 112.909 144.37C113.496 143.837 113.949 143.197 114.269 142.45C114.643 141.704 114.776 140.877 114.669 139.97Z" fill="white"/>
<line x1="2.5" y1="198.512" x2="98.377" y2="198.512" stroke="#BBBBBB" stroke-width="5" stroke-linecap="round"/>
<rect x="8.83594" y="158.305" width="17.6719" height="35.3438" fill="#FFB84E"/>
<rect x="30.9258" y="133.27" width="17.6719" height="60.3789" fill="#FFD596"/>
<rect x="53.0156" y="112.652" width="17.6719" height="80.9961" fill="#A8C6F3"/>
<rect x="75.106" y="152.414" width="17.6719" height="41.2344" fill="#7096D1"/>
<rect x="292.815" y="149.612" width="32.278" height="5.02102" rx="2.51051" transform="rotate(38.303 292.815 149.612)" fill="white"/>
<path d="M292.517 155.775L312.781 171.78L258.541 240.452C254.121 246.048 246.002 247.001 240.407 242.582V242.582C234.811 238.162 233.857 230.043 238.277 224.447L292.517 155.775Z" fill="white"/>
<path d="M281.875 173.877L297.636 186.326L256.289 238.674C252.852 243.027 246.537 243.768 242.185 240.331V240.331C237.833 236.893 237.091 230.578 240.529 226.226L281.875 173.877Z" fill="#649DF6"/>
<rect x="292.517" y="155.775" width="25.8224" height="3.58644" transform="rotate(38.303 292.517 155.775)" fill="#D0E3FF"/>
<path fill-rule="evenodd" clip-rule="evenodd" d="M250.234 145.641L225.685 144.073L224.669 159.97L191.442 209.875C187.175 216.283 191.445 224.906 199.128 225.397L265.544 229.641C273.226 230.132 278.559 222.122 275.143 215.224L249.143 162.719L250.234 145.641Z" fill="white"/>
<rect x="225.685" y="144.073" width="24.5994" height="2.73326" transform="rotate(3.65617 225.685 144.073)" fill="#D0E3FF"/>
<rect x="222.581" y="139.082" width="30.7492" height="4.78321" rx="2.39161" transform="rotate(3.65617 222.581 139.082)" fill="white"/>
<path fill-rule="evenodd" clip-rule="evenodd" d="M213.457 191.221C210.961 191.062 208.57 192.246 207.184 194.328L196.466 210.426C193.479 214.911 196.468 220.947 201.846 221.291L262.688 225.179C268.065 225.522 271.798 219.916 269.407 215.087L260.825 197.755C259.715 195.514 257.494 194.035 254.998 193.876L213.457 191.221Z" fill="#FFB84E"/>
<circle cx="226.538" cy="132.452" r="4.44155" transform="rotate(14.8757 226.538 132.452)" fill="#FFE296"/>
<circle cx="248.564" cy="128.052" r="3.41658" transform="rotate(14.8757 248.564 128.052)" fill="#FFD596"/>
<circle cx="241.418" cy="134.991" r="3.07492" transform="rotate(14.8757 241.418 134.991)" fill="#FFB84E"/>
<circle cx="235.206" cy="129.099" r="1.70829" transform="rotate(14.8757 235.206 129.099)" fill="#FFB84E"/>
<g filter="url(#filter0_d_67_375)">
<circle cx="164.219" cy="121.299" r="38.2993" fill="#649DF6"/>
<ellipse cx="164.219" cy="108.532" rx="4.64234" ry="3.48176" fill="#649DF6"/>
<path d="M105.029 211.561C105.029 186.708 125.176 166.561 150.029 166.561H177.248C202.101 166.561 222.248 186.708 222.248 211.561V241.999H105.029V211.561Z" fill="#649DF6"/>
<rect x="167.52" y="179.081" width="113.602" height="29.7949" rx="14.8974" transform="rotate(-15.2745 167.52 179.081)" fill="#649DF6"/>
<rect width="113.602" height="29.7949" rx="14.8974" transform="matrix(-0.964675 -0.263443 -0.263443 0.964675 164.438 179.081)" fill="#649DF6"/>
</g>
<defs>
<filter id="filter0_d_67_375" x="40.3945" y="68" width="251.169" height="178.999" filterUnits="userSpaceOnUse" color-interpolation-filters="sRGB">
<feFlood flood-opacity="0" result="BackgroundImageFix"/>
<feColorMatrix in="SourceAlpha" type="matrix" values="0 0 0 0 0 0 0 0 0 0 0 0 0 0 0 0 0 0 127 0" result="hardAlpha"/>
<feOffset dy="-5"/>
<feGaussianBlur stdDeviation="5"/>
<feComposite in2="hardAlpha" operator="out"/>
<feColorMatrix type="matrix" values="0 0 0 0 1 0 0 0 0 1 0 0 0 0 1 0 0 0 0.5 0"/>
<feBlend mode="normal" in2="BackgroundImageFix" result="effect1_dropShadow_67_375"/>
<feBlend mode="normal" in="SourceGraphic" in2="effect1_dropShadow_67_375" result="shape"/>
</filter>
</defs>
</svg>

