<svg width="212" height="158" viewBox="0 0 212 158" fill="none" xmlns="http://www.w3.org/2000/svg">
<rect x="15.5" y="10.5" width="174" height="121" fill="white" stroke="#D0E3FF" stroke-width="3"/>
<rect x="8" width="188" height="12" rx="6" fill="#7096D1"/>
<rect x="8" y="127" width="188" height="12" rx="6" fill="#7096D1"/>
<line x1="2.5" y1="118.5" x2="128.5" y2="118.5" stroke="#BBBBBB" stroke-width="5" stroke-linecap="round"/>
<rect x="11.4746" y="65.54" width="22.9489" height="45.8978" fill="#FFB84E"/>
<rect x="40.1606" y="33.0291" width="22.9489" height="78.4088" fill="#FFD596"/>
<rect x="68.8467" y="6.25537" width="22.9489" height="105.182" fill="#A8C6F3"/>
<rect x="97.5332" y="57.8904" width="22.9489" height="53.5474" fill="#7096D1"/>
<g filter="url(#filter0_d_9_467)">
<rect x="130.5" y="6.5" width="76" height="48.0875" fill="white" stroke="#AEAEAE"/>
<rect x="130.5" y="6.5" width="76" height="9.5875" fill="white" stroke="#AEAEAE"/>
<rect x="130.5" y="16.125" width="76" height="9.5875" fill="white" stroke="#AEAEAE"/>
<rect x="130.5" y="25.75" width="76" height="9.5875" fill="white" stroke="#AEAEAE"/>
<rect x="130.5" y="35.375" width="76" height="9.5875" fill="white" stroke="#AEAEAE"/>
<rect x="130.5" y="45" width="76" height="9.5875" fill="white" stroke="#AEAEAE"/>
<line x1="149.75" y1="6" x2="149.75" y2="55.0875" stroke="#AEAEAE"/>
<line x1="169" y1="6" x2="169" y2="55.0875" stroke="#AEAEAE"/>
<line x1="187.288" y1="6" x2="187.288" y2="55.0875" stroke="#AEAEAE"/>
<line x1="206.538" y1="6" x2="206.538" y2="55.0875" stroke="#AEAEAE"/>
</g>
<circle cx="161" cy="96" r="20" fill="#FFD596"/>
<path d="M130 149.5C130 132.655 143.655 119 160.5 119C177.345 119 191 132.655 191 149.5V158H130V149.5Z" fill="#FFD596"/>
<defs>
<filter id="filter0_d_9_467" x="130" y="6" width="81.0376" height="53.0874" filterUnits="userSpaceOnUse" color-interpolation-filters="sRGB">
<feFlood flood-opacity="0" result="BackgroundImageFix"/>
<feColorMatrix in="SourceAlpha" type="matrix" values="0 0 0 0 0 0 0 0 0 0 0 0 0 0 0 0 0 0 127 0" result="hardAlpha"/>
<feOffset dx="4" dy="4"/>
<feComposite in2="hardAlpha" operator="out"/>
<feColorMatrix type="matrix" values="0 0 0 0 0.680354 0 0 0 0 0.785991 0 0 0 0 0.941667 0 0 0 1 0"/>
<feBlend mode="normal" in2="BackgroundImageFix" result="effect1_dropShadow_9_467"/>
<feBlend mode="normal" in="SourceGraphic" in2="effect1_dropShadow_9_467" result="shape"/>
</filter>
</defs>
</svg>
