<svg width="162" height="180" viewBox="0 0 162 180" fill="none" xmlns="http://www.w3.org/2000/svg">
<mask id="path-1-inside-1_9_504" fill="white">
<path fill-rule="evenodd" clip-rule="evenodd" d="M162 0H27V169H162V0ZM161.688 168.688H128L161.688 135V168.688Z"/>
</mask>
<path fill-rule="evenodd" clip-rule="evenodd" d="M162 0H27V169H162V0ZM161.688 168.688H128L161.688 135V168.688Z" fill="white"/>
<path d="M27 0V-5H22V0H27ZM162 0H167V-5H162V0ZM27 169H22V174H27V169ZM162 169V174H167V169H162ZM128 168.688L124.465 165.152L115.929 173.688H128V168.688ZM161.688 168.688V173.688H166.688V168.688H161.688ZM161.688 135H166.688V122.929L158.152 131.464L161.688 135ZM27 5H162V-5H27V5ZM32 169V0H22V169H32ZM162 164H27V174H162V164ZM157 0V169H167V0H157ZM128 173.688H161.688V163.688H128V173.688ZM158.152 131.464L124.465 165.152L131.536 172.223L165.224 138.535L158.152 131.464ZM166.688 168.688V135H156.688V168.688H166.688Z" fill="#D0E3FF" mask="url(#path-1-inside-1_9_504)"/>
<path fill-rule="evenodd" clip-rule="evenodd" d="M158.688 131H125V164.688L158.688 131Z" fill="#D0E3FF"/>
<circle cx="122.5" cy="42.5" r="23.5" fill="#FFD596"/>
<path d="M125.4 57.96C125.16 58.3067 124.827 58.56 124.4 58.72C123.974 58.88 123.534 58.9333 123.08 58.88C122.654 58.8267 122.254 58.6667 121.88 58.4C121.534 58.16 121.307 57.8133 121.2 57.36C121.174 57.3067 121.147 57.16 121.12 56.92C121.12 56.68 121.107 56.44 121.08 56.2C121.08 55.9333 121.067 55.6933 121.04 55.48C121.04 55.2667 121.04 55.16 121.04 55.16C120.427 55.08 119.707 54.9733 118.88 54.84C118.08 54.68 117.374 54.4933 116.76 54.28C116.36 54.12 115.934 53.96 115.48 53.8C115.054 53.6133 114.64 53.4133 114.24 53.2C113.84 52.96 113.467 52.6933 113.12 52.4C112.8 52.08 112.56 51.7067 112.4 51.28C112.267 50.96 112.174 50.6267 112.12 50.28C112.094 49.9067 112.12 49.5467 112.2 49.2C112.307 48.8533 112.467 48.5467 112.68 48.28C112.92 48.0133 113.24 47.84 113.64 47.76C113.907 47.68 114.174 47.6933 114.44 47.8C114.707 47.88 114.96 48 115.2 48.16C115.44 48.32 115.68 48.5067 115.92 48.72C116.16 48.9067 116.4 49.0533 116.64 49.16C117.254 49.4 117.96 49.6267 118.76 49.84C119.587 50.0267 120.347 50.1733 121.04 50.28V43.32C120.56 43.16 120.014 43.0133 119.4 42.88C118.814 42.7467 118.334 42.6267 117.96 42.52C117.614 42.3867 117.294 42.28 117 42.2C116.734 42.0933 116.494 41.9733 116.28 41.84C115.107 41.3867 114.254 40.68 113.72 39.72C113.454 39.24 113.254 38.76 113.12 38.28C112.987 37.7733 112.92 37.2133 112.92 36.6C112.92 36.0667 112.974 35.5733 113.08 35.12C113.187 34.64 113.32 34.2 113.48 33.8C113.8 33 114.32 32.3067 115.04 31.72C115.36 31.4 115.72 31.1333 116.12 30.92C116.547 30.7067 117 30.4933 117.48 30.28C117.934 30.0667 118.507 29.9067 119.2 29.8C119.894 29.6933 120.507 29.6133 121.04 29.56C121.04 29.1867 121.04 28.8 121.04 28.4C121.04 27.9733 121.147 27.6133 121.36 27.32C121.68 26.8667 121.974 26.5467 122.24 26.36C122.507 26.1733 122.907 26.1067 123.44 26.16C123.92 26.2133 124.347 26.3333 124.72 26.52C125.094 26.7067 125.374 27.04 125.56 27.52C125.56 27.5733 125.56 27.72 125.56 27.96C125.587 28.1733 125.614 28.4133 125.64 28.68C125.667 28.9733 125.68 29.3067 125.68 29.68C126.534 29.8667 127.414 30.1067 128.32 30.4C129.254 30.6667 130.094 31.0133 130.84 31.44C131.427 31.8133 131.894 32.24 132.24 32.72C132.614 33.1733 132.787 33.7467 132.76 34.44C132.734 34.8133 132.587 35.1733 132.32 35.52C132.054 35.8667 131.734 36.0667 131.36 36.12C130.934 36.1733 130.534 36.1067 130.16 35.92C129.787 35.7067 129.427 35.5067 129.08 35.32C128.627 35.1067 128.094 34.8933 127.48 34.68C126.894 34.44 126.294 34.2933 125.68 34.24V39.76C126.24 39.92 126.827 40.1333 127.44 40.4C128.054 40.64 128.587 40.8533 129.04 41.04C130.534 41.6533 131.627 42.6267 132.32 43.96C133.04 45.2667 133.374 46.68 133.32 48.2C133.294 49.2133 133.094 50.1467 132.72 51C132.507 51.3733 132.267 51.72 132 52.04C131.734 52.36 131.44 52.6533 131.12 52.92C130.8 53.2133 130.454 53.4667 130.08 53.68C129.707 53.8667 129.294 54.0667 128.84 54.28C128.387 54.4133 127.88 54.5467 127.32 54.68C126.76 54.7867 126.214 54.8933 125.68 55C125.654 55 125.627 55.0933 125.6 55.28C125.6 55.44 125.6 55.6267 125.6 55.84C125.627 56.0533 125.64 56.2667 125.64 56.48C125.667 56.6667 125.68 56.7733 125.68 56.8C125.68 57.2533 125.587 57.64 125.4 57.96ZM118.2 36.8C118.227 37.0133 118.32 37.2533 118.48 37.52C118.64 37.76 118.827 37.96 119.04 38.12C119.28 38.28 119.574 38.4133 119.92 38.52C120.267 38.6 120.64 38.6667 121.04 38.72V34.2C120.16 34.2533 119.427 34.48 118.84 34.88C118.28 35.2533 118.067 35.8933 118.2 36.8ZM128.88 47.52C128.827 47.1733 128.694 46.8533 128.48 46.56C128.294 46.24 128.04 45.96 127.72 45.72C127.427 45.48 127.094 45.28 126.72 45.12C126.374 44.9333 126.027 44.8 125.68 44.72C125.68 45.6533 125.694 46.6 125.72 47.56C125.774 48.4933 125.787 49.4267 125.76 50.36C126.16 50.4133 126.56 50.3867 126.96 50.28C127.36 50.1467 127.707 49.96 128 49.72C128.294 49.4533 128.52 49.1333 128.68 48.76C128.867 48.3867 128.934 47.9733 128.88 47.52Z" fill="white"/>
<path d="M47 29H83" stroke="#BABABA" stroke-width="5" stroke-linecap="round"/>
<path d="M47 45H83" stroke="#BABABA" stroke-width="5" stroke-linecap="round"/>
<path d="M47 62H83" stroke="#BABABA" stroke-width="5" stroke-linecap="round"/>
<path d="M86 82.5H83.5V87.5H86V82.5ZM145 87.5C146.381 87.5 147.5 86.3807 147.5 85C147.5 83.6193 146.381 82.5 145 82.5V87.5ZM86 87.5H145V82.5H86V87.5Z" fill="#BABABA"/>
<path d="M86 98.5H83.5V103.5H86V98.5ZM145 103.5C146.381 103.5 147.5 102.381 147.5 101C147.5 99.6193 146.381 98.5 145 98.5V103.5ZM86 103.5H145V98.5H86V103.5Z" fill="#BABABA"/>
<path d="M86 115.5H83.5V120.5H86V115.5ZM145 120.5C146.381 120.5 147.5 119.381 147.5 118C147.5 116.619 146.381 115.5 145 115.5V120.5ZM86 120.5H145V115.5H86V120.5Z" fill="#BABABA"/>
<rect y="73" width="76" height="107" rx="7" fill="#FFEACB"/>
<rect x="8" y="82" width="61" height="14" fill="white"/>
<rect x="8" y="107" width="13" height="13" fill="#7096D1"/>
<rect x="24" y="107" width="13" height="13" fill="#7096D1"/>
<rect x="40" y="107" width="13" height="13" fill="#7096D1"/>
<rect x="56" y="107" width="13" height="13" fill="#7096D1"/>
<rect x="8" y="123" width="13" height="13" fill="#D0E3FF"/>
<rect x="24" y="123" width="13" height="13" fill="#D0E3FF"/>
<rect x="40" y="123" width="13" height="13" fill="#D0E3FF"/>
<rect x="8" y="139" width="13" height="13" fill="#D0E3FF"/>
<rect x="24" y="139" width="13" height="13" fill="#D0E3FF"/>
<rect x="40" y="139" width="13" height="13" fill="#D0E3FF"/>
<rect x="8" y="155" width="13" height="13" fill="#D0E3FF"/>
<rect x="24" y="155" width="13" height="13" fill="#D0E3FF"/>
<rect x="40" y="155" width="13" height="13" fill="#D0E3FF"/>
<rect x="56" y="123" width="13" height="45" fill="#FFD596"/>
</svg>
