<svg width="185" height="154" viewBox="0 0 185 154" fill="none" xmlns="http://www.w3.org/2000/svg">
<rect x="13" y="80" width="9" height="10" fill="white" stroke="#ADC8F0" stroke-width="4"/>
<path fill-rule="evenodd" clip-rule="evenodd" d="M116.456 143.925C124.942 142.217 132.922 135.208 139.15 123.955C141.091 120.449 142.836 116.569 144.351 112.375C135.776 114.598 126.356 115.948 116.456 116.24V143.925ZM116.456 111.237C127.195 110.909 137.277 109.29 146.208 106.677C149.148 96.6265 150.83 85.1188 150.83 72.8564H116.456L116.456 111.237ZM116.456 67.8564V34.4756C127.195 34.8038 137.277 36.4225 146.208 39.0355C148.745 47.7082 150.345 57.4655 150.736 67.8564H116.456ZM155.83 72.8564C155.83 84.2442 154.431 95.078 151.906 104.82C156.099 103.306 159.98 101.56 163.486 99.6201C176.523 92.4043 183.863 82.8375 183.863 72.8564H155.83ZM183.246 67.8564H155.739C155.393 58.2972 154.058 49.1982 151.906 40.8925C156.099 42.4067 159.98 44.1524 163.486 46.0928C174.327 52.0929 181.228 59.7187 183.246 67.8564ZM111.456 67.8564H74.0377C74.4287 57.4656 76.0285 47.7083 78.5659 39.0356C88.3622 36.1695 99.5423 34.4996 111.456 34.4168V67.8564ZM73.9439 72.8564H111.456L111.456 111.296C99.5423 111.213 88.3622 109.543 78.5659 106.677C75.6253 96.6264 73.9439 85.1188 73.9439 72.8564ZM69.0343 67.8564C69.381 58.2973 70.7153 49.1983 72.868 40.8926C68.6745 42.4068 64.7942 44.1525 61.2885 46.0928C50.4473 52.0929 43.5456 59.7187 41.5278 67.8564H69.0343ZM40.9107 72.8564H68.9439C68.9439 84.2441 70.343 95.0779 72.868 104.82C68.6745 103.306 64.7942 101.56 61.2885 99.6201C48.2509 92.4043 40.9107 82.8375 40.9107 72.8564ZM143.525 126.376C146.12 121.689 148.369 116.414 150.21 110.68C155.944 108.839 161.219 106.589 165.907 103.995C173.94 99.5487 180.429 93.9734 184.432 87.5839C178.535 116.776 155.451 139.739 126.194 145.457C132.969 141.514 138.867 134.793 143.525 126.376ZM126.194 0.255781C155.451 5.97429 178.535 28.9369 184.432 58.129C180.429 51.7395 173.94 46.1642 165.907 41.7181C161.219 39.1236 155.944 36.8738 150.21 35.0332C148.369 29.2989 146.12 24.0243 143.525 19.3367C138.867 10.9202 132.969 4.19928 126.194 0.255781ZM139.15 21.7579C141.091 25.2637 142.836 29.144 144.351 33.3376C135.776 31.1152 126.356 29.7651 116.456 29.4734V1.78828C124.942 3.4958 132.922 10.5045 139.15 21.7579ZM111.456 1.40137V29.4167C100.409 29.4907 89.8995 30.8815 80.4229 33.3377C81.9371 29.1441 83.6828 25.2637 85.6232 21.7579C92.6144 9.12598 101.813 1.84244 111.456 1.40137ZM81.2485 19.3367C78.654 24.0244 76.4042 29.299 74.5636 35.0334C68.8294 36.8739 63.5549 39.1237 58.8673 41.7181C49.8331 46.7182 42.7524 53.1465 38.9634 60.5548C44.1189 29.7527 68.3082 5.39961 99.027 0C92.0641 3.9049 86.0089 10.7354 81.2485 19.3367ZM99.027 145.713C68.3082 140.313 44.1189 115.96 38.9634 85.1581C42.7524 92.5664 49.8331 98.9947 58.8673 103.995C63.5549 106.589 68.8294 108.839 74.5636 110.68C76.4042 116.414 78.654 121.689 81.2485 126.376C86.0089 134.978 92.064 141.808 99.027 145.713ZM85.6232 123.955C83.6828 120.449 81.9371 116.569 80.4229 112.375C89.8995 114.831 100.409 116.222 111.456 116.296V144.312C101.813 143.87 92.6144 136.587 85.6232 123.955Z" fill="#D0E3FF"/>
<path fill-rule="evenodd" clip-rule="evenodd" d="M53.1715 90.1716C52.4213 89.4214 51.4039 89 50.3431 89H9C6.79086 89 5 90.7909 5 93V120C5 122.209 6.79086 124 9 124H70C72.2091 124 74 122.209 74 120V112.657C74 111.596 73.5786 110.579 72.8284 109.829L53.1715 90.1716Z" fill="#ADC8F0"/>
<path fill-rule="evenodd" clip-rule="evenodd" d="M4 111C1.79086 111 0 112.791 0 115V122V150C0 152.209 1.79086 154 4 154H35H91.9997L92 154L92.0001 154L118.082 124.657C120.375 122.078 118.544 118 115.093 118H92H60H39V115C39 112.791 37.2091 111 35 111H4Z" fill="#FFC672"/>
<rect x="63" y="124" width="8" height="8" fill="white"/>
<rect x="77" y="124" width="8" height="8" fill="white"/>
<rect x="91" y="124" width="8" height="8" fill="white"/>
<rect x="13" y="97" width="8" height="8" fill="white"/>
<rect x="27" y="97" width="8" height="8" fill="white"/>
<rect x="41" y="97" width="8" height="8" fill="white"/>
</svg>
