<svg width="187" height="160" viewBox="0 0 187 160" fill="none" xmlns="http://www.w3.org/2000/svg">
<circle cx="133.5" cy="53.5" r="53.5" fill="#FFD596"/>
<circle cx="133.5" cy="53.5" r="53.5" fill="#FFD596"/>
<path d="M138.439 84.92C137.959 85.6133 137.292 86.12 136.439 86.44C135.586 86.76 134.706 86.8667 133.799 86.76C132.946 86.6533 132.146 86.3333 131.399 85.8C130.706 85.32 130.252 84.6267 130.039 83.72C129.986 83.6133 129.932 83.32 129.879 82.84C129.879 82.36 129.852 81.88 129.799 81.4C129.799 80.8667 129.772 80.3867 129.719 79.96C129.719 79.5333 129.719 79.32 129.719 79.32C128.492 79.16 127.052 78.9467 125.399 78.68C123.799 78.36 122.386 77.9867 121.159 77.56C120.359 77.24 119.506 76.92 118.599 76.6C117.746 76.2267 116.919 75.8267 116.119 75.4C115.319 74.92 114.572 74.3867 113.879 73.8C113.239 73.16 112.759 72.4133 112.439 71.56C112.172 70.92 111.986 70.2533 111.879 69.56C111.826 68.8133 111.879 68.0933 112.039 67.4C112.252 66.7067 112.572 66.0933 112.999 65.56C113.479 65.0267 114.119 64.68 114.919 64.52C115.452 64.36 115.986 64.3867 116.519 64.6C117.052 64.76 117.559 65 118.039 65.32C118.519 65.64 118.999 66.0133 119.479 66.44C119.959 66.8133 120.439 67.1067 120.919 67.32C122.146 67.8 123.559 68.2533 125.159 68.68C126.812 69.0533 128.332 69.3467 129.719 69.56V55.64C128.759 55.32 127.666 55.0267 126.439 54.76C125.266 54.4933 124.306 54.2533 123.559 54.04C122.866 53.7733 122.226 53.56 121.639 53.4C121.106 53.1867 120.626 52.9467 120.199 52.68C117.852 51.7733 116.146 50.36 115.079 48.44C114.546 47.48 114.146 46.52 113.879 45.56C113.612 44.5467 113.479 43.4267 113.479 42.2C113.479 41.1333 113.586 40.1467 113.799 39.24C114.012 38.28 114.279 37.4 114.599 36.6C115.239 35 116.279 33.6133 117.719 32.44C118.359 31.8 119.079 31.2667 119.879 30.84C120.732 30.4133 121.639 29.9867 122.599 29.56C123.506 29.1333 124.652 28.8133 126.039 28.6C127.426 28.3867 128.652 28.2267 129.719 28.12C129.719 27.3733 129.719 26.6 129.719 25.8C129.719 24.9467 129.932 24.2267 130.359 23.64C130.999 22.7333 131.586 22.0933 132.119 21.72C132.652 21.3467 133.452 21.2133 134.519 21.32C135.479 21.4267 136.332 21.6667 137.079 22.04C137.826 22.4133 138.386 23.08 138.759 24.04C138.759 24.1467 138.759 24.44 138.759 24.92C138.812 25.3467 138.866 25.8267 138.919 26.36C138.972 26.9467 138.999 27.6133 138.999 28.36C140.706 28.7333 142.466 29.2133 144.279 29.8C146.146 30.3333 147.826 31.0267 149.319 31.88C150.492 32.6267 151.426 33.48 152.119 34.44C152.866 35.3467 153.212 36.4933 153.159 37.88C153.106 38.6267 152.812 39.3467 152.279 40.04C151.746 40.7333 151.106 41.1333 150.359 41.24C149.506 41.3467 148.706 41.2133 147.959 40.84C147.212 40.4133 146.492 40.0133 145.799 39.64C144.892 39.2133 143.826 38.7867 142.599 38.36C141.426 37.88 140.226 37.5867 138.999 37.48V48.52C140.119 48.84 141.292 49.2667 142.519 49.8C143.746 50.28 144.812 50.7067 145.719 51.08C148.706 52.3067 150.892 54.2533 152.279 56.92C153.719 59.5333 154.386 62.36 154.279 65.4C154.226 67.4267 153.826 69.2933 153.079 71C152.652 71.7467 152.172 72.44 151.639 73.08C151.106 73.72 150.519 74.3067 149.879 74.84C149.239 75.4267 148.546 75.9333 147.799 76.36C147.052 76.7333 146.226 77.1333 145.319 77.56C144.412 77.8267 143.399 78.0933 142.279 78.36C141.159 78.5733 140.066 78.7867 138.999 79C138.946 79 138.892 79.1867 138.839 79.56C138.839 79.88 138.839 80.2533 138.839 80.68C138.892 81.1067 138.919 81.5333 138.919 81.96C138.972 82.3333 138.999 82.5467 138.999 82.6C138.999 83.5067 138.812 84.28 138.439 84.92ZM124.039 42.6C124.092 43.0267 124.279 43.5067 124.599 44.04C124.919 44.52 125.292 44.92 125.719 45.24C126.199 45.56 126.786 45.8267 127.479 46.04C128.172 46.2 128.919 46.3333 129.719 46.44V37.4C127.959 37.5067 126.492 37.96 125.319 38.76C124.199 39.5067 123.772 40.7867 124.039 42.6ZM145.399 64.04C145.292 63.3467 145.026 62.7067 144.599 62.12C144.226 61.48 143.719 60.92 143.079 60.44C142.492 59.96 141.826 59.56 141.079 59.24C140.386 58.8667 139.692 58.6 138.999 58.44C138.999 60.3067 139.026 62.2 139.079 64.12C139.186 65.9867 139.212 67.8533 139.159 69.72C139.959 69.8267 140.759 69.7733 141.559 69.56C142.359 69.2933 143.052 68.92 143.639 68.44C144.226 67.9067 144.679 67.2667 144.999 66.52C145.372 65.7733 145.506 64.9467 145.399 64.04Z" fill="white"/>
<line x1="2.5" y1="157.245" x2="128.5" y2="157.245" stroke="#BBBBBB" stroke-width="5" stroke-linecap="round"/>
<rect x="11.4746" y="104.285" width="22.9489" height="45.8978" fill="#FFB84E"/>
<rect x="40.1606" y="71.7737" width="22.9489" height="78.4088" fill="#FFD596"/>
<rect x="68.8467" y="45" width="22.9489" height="105.182" fill="#A8C6F3"/>
<rect x="97.5332" y="96.635" width="22.9489" height="53.5474" fill="#7096D1"/>
</svg>
