<svg width="225" height="150" viewBox="0 0 225 150" fill="none" xmlns="http://www.w3.org/2000/svg">
<rect x="6.31836" y="9" width="114.517" height="139" fill="#FFEACB"/>
<rect y="9" width="127.153" height="8.6875" rx="4.34375" fill="#FFB84E"/>
<rect x="41.0684" y="107.722" width="44.2273" height="40.2784" fill="#D0E3FF"/>
<line x1="64.3921" y1="106.142" x2="64.3921" y2="148" stroke="#FFEACB" stroke-width="4"/>
<rect x="15.0059" y="25.5852" width="18.1648" height="14.2159" fill="white"/>
<rect x="41.0684" y="25.5852" width="18.1648" height="14.2159" fill="white"/>
<rect x="67.1309" y="25.5852" width="18.1648" height="14.2159" fill="white"/>
<rect x="93.1934" y="25.5852" width="18.1648" height="14.2159" fill="white"/>
<rect x="15.0059" y="46.1194" width="18.1648" height="14.2159" fill="white"/>
<rect x="41.0684" y="46.1194" width="18.1648" height="14.2159" fill="white"/>
<rect x="67.1309" y="46.1194" width="18.1648" height="14.2159" fill="white"/>
<rect x="93.1934" y="46.1194" width="18.1648" height="14.2159" fill="white"/>
<rect x="15.0059" y="66.6533" width="18.1648" height="14.2159" fill="white"/>
<rect x="41.0684" y="66.6533" width="18.1648" height="14.2159" fill="white"/>
<rect x="67.1309" y="66.6533" width="18.1648" height="14.2159" fill="white"/>
<rect x="93.1934" y="66.6533" width="18.1648" height="14.2159" fill="white"/>
<rect x="15.0059" y="87.1875" width="18.1648" height="14.2159" fill="white"/>
<rect x="41.0684" y="87.1875" width="18.1648" height="14.2159" fill="white"/>
<rect x="67.1309" y="87.1875" width="18.1648" height="14.2159" fill="white"/>
<rect x="93.1934" y="87.1875" width="18.1648" height="14.2159" fill="white"/>
<path d="M91.3442 31.2261H129.832L172.204 10.0403C175.035 8.62457 174.028 4.35703 170.862 4.35703H158.677C157.372 4.35703 156.081 4.61218 154.874 5.10812L91.3442 31.2261Z" fill="#FFB84E"/>
<rect width="13.7976" height="4.35714" transform="matrix(1 0 0 -1 91.3442 26.8689)" fill="#FFB84E"/>
<path d="M168.532 6.53589H176.52V2.17875H168.532V6.53589Z" fill="#FFB84E"/>
<path d="M91.3442 26.8689H129.832L172.204 5.68312C175.035 4.26739 174.028 -0.000152588 170.862 -0.000152588H158.677C157.372 -0.000152588 156.081 0.255003 154.874 0.75094L91.3442 26.8689Z" fill="#FFE3BA"/>
<path d="M193.011 25.4167H215.463L221.731 10.7122C222.574 8.73326 221.122 6.5358 218.971 6.5358H212.7C209.63 6.5358 206.731 7.94558 204.835 10.3598L193.011 25.4167Z" fill="#D0E3FF"/>
<path fill-rule="evenodd" clip-rule="evenodd" d="M196.41 41.0973C198.788 41.0199 201.144 40.0982 202.992 38.3319L209.099 32.4952C215.619 26.2641 211.209 15.2659 202.19 15.2659H189.976C189.96 15.2659 189.944 15.2659 189.928 15.266H93.8006V16.3046C91.4223 16.382 89.0663 17.3037 87.2182 19.07L81.111 24.9067C74.5911 31.1378 79.0015 42.136 88.0201 42.136H93.8006V42.1362H196.41V41.0973Z" fill="#D0E3FF"/>
<path d="M118.939 34.1311H157.428L199.799 55.3169C202.631 56.7326 201.623 61.0002 198.457 61.0002H186.272C184.968 61.0002 183.676 60.745 182.47 60.2491L118.939 34.1311Z" fill="#FFB84E"/>
<rect x="118.939" y="29.7739" width="13.7976" height="4.35714" fill="#FFB84E"/>
<path d="M196.127 54.4641H204.115V58.8213H196.127V54.4641Z" fill="#FFB84E"/>
<path d="M118.939 29.7739H157.428L199.799 50.9597C202.631 52.3754 201.623 56.643 198.457 56.643H186.272C184.968 56.643 183.676 56.3878 182.47 55.8919L118.939 29.7739Z" fill="#FFE3BA"/>
<rect x="208.261" y="13.7976" width="16.7024" height="2.90476" rx="1.45238" fill="#FFB84E"/>
<path d="M92.0708 20.3335H100.059V25.4168H92.0708V20.3335Z" fill="white"/>
<path d="M102.963 20.3335H110.951V25.4168H102.963V20.3335Z" fill="white"/>
<path d="M113.856 20.3335H121.844V25.4168H113.856V20.3335Z" fill="white"/>
<path d="M124.749 20.3335H132.737V25.4168H124.749V20.3335Z" fill="white"/>
<path d="M135.642 20.3335H143.63V25.4168H135.642V20.3335Z" fill="white"/>
<path d="M146.535 20.3335H154.523V25.4168H146.535V20.3335Z" fill="white"/>
<path d="M157.428 20.3335H165.416V25.4168H157.428V20.3335Z" fill="white"/>
<path d="M168.321 20.3335H176.309V25.4168H168.321V20.3335Z" fill="white"/>
<path d="M179.213 20.3335H187.201V25.4168H179.213V20.3335Z" fill="white"/>
<path d="M100.153 141.5C100.153 124.655 113.809 111 130.653 111C147.498 111 161.153 124.655 161.153 141.5V150H100.153V141.5Z" fill="#7096D1"/>
<path fill-rule="evenodd" clip-rule="evenodd" d="M119.153 70.0001C119.153 71.657 124.302 73.0001 130.653 73.0001C137.005 73.0001 142.153 71.657 142.153 70.0001C142.153 69.9306 142.144 69.8617 142.126 69.7935V70.0001H119.153Z" fill="#7096D1"/>
<path fill-rule="evenodd" clip-rule="evenodd" d="M142.37 71.439C140.599 72.9347 136.021 74 130.653 74C125.724 74 121.462 73.1018 119.427 71.797C114.414 75.4312 111.153 81.3349 111.153 88.0001C111.153 99.0458 120.108 108 131.153 108C142.199 108 151.153 99.0458 151.153 88.0001C151.153 81.1114 147.671 75.0361 142.37 71.439Z" fill="#7096D1"/>
<circle cx="119.153" cy="126" r="2" fill="white"/>
<circle cx="119.153" cy="135" r="2" fill="white"/>
<circle cx="119.153" cy="144" r="2" fill="white"/>
<circle cx="142.153" cy="126" r="2" fill="white"/>
<circle cx="142.153" cy="135" r="2" fill="white"/>
<circle cx="142.153" cy="144" r="2" fill="white"/>
<path fill-rule="evenodd" clip-rule="evenodd" d="M119.126 53H142.126V63H119.126V53ZM119.126 65H142.126V68H119.153V70H119.126V65Z" fill="#7096D1"/>
</svg>
