<svg width="214" height="160" viewBox="0 0 214 160" fill="none" xmlns="http://www.w3.org/2000/svg">
<rect x="16" y="4" width="182" height="127" rx="7" fill="#7096D1"/>
<rect x="24" y="12" width="166" height="110" rx="5" fill="white"/>
<rect x="54" y="139" width="107" height="11" rx="5.5" fill="#7096D1"/>
<rect x="89" y="130" width="38" height="12" fill="#7096D1"/>
<line x1="2.5" y1="112.5" x2="128.5" y2="112.5" stroke="#BBBBBB" stroke-width="5" stroke-linecap="round"/>
<rect x="11.4746" y="59.54" width="22.9489" height="45.8978" fill="#FFB84E"/>
<rect x="40.1606" y="27.0291" width="22.9489" height="78.4088" fill="#FFD596"/>
<rect x="68.8467" y="0.255371" width="22.9489" height="105.182" fill="#A8C6F3"/>
<rect x="97.5332" y="51.8904" width="22.9489" height="53.5474" fill="#7096D1"/>
<g filter="url(#filter0_d_13_691)">
<rect x="132.5" y="0.5" width="76" height="48.0875" fill="white" stroke="#AEAEAE"/>
<rect x="132.5" y="0.5" width="76" height="9.5875" fill="white" stroke="#AEAEAE"/>
<rect x="132.5" y="10.125" width="76" height="9.5875" fill="white" stroke="#AEAEAE"/>
<rect x="132.5" y="19.75" width="76" height="9.5875" fill="white" stroke="#AEAEAE"/>
<rect x="132.5" y="29.375" width="76" height="9.5875" fill="white" stroke="#AEAEAE"/>
<rect x="132.5" y="39" width="76" height="9.5875" fill="white" stroke="#AEAEAE"/>
<line x1="151.75" y1="2.18557e-08" x2="151.75" y2="49.0875" stroke="#AEAEAE"/>
<line x1="171" y1="2.18557e-08" x2="171" y2="49.0875" stroke="#AEAEAE"/>
<line x1="189.288" y1="2.18557e-08" x2="189.288" y2="49.0875" stroke="#AEAEAE"/>
<line x1="208.538" y1="2.18557e-08" x2="208.538" y2="49.0875" stroke="#AEAEAE"/>
</g>
<circle cx="170" cy="88" r="23" fill="#FFD596"/>
<path d="M134 149.5C134 129.894 149.894 114 169.5 114C189.106 114 205 129.894 205 149.5V160H134V149.5Z" fill="#FFD596"/>
<defs>
<filter id="filter0_d_13_691" x="132" y="0" width="81.0376" height="53.0874" filterUnits="userSpaceOnUse" color-interpolation-filters="sRGB">
<feFlood flood-opacity="0" result="BackgroundImageFix"/>
<feColorMatrix in="SourceAlpha" type="matrix" values="0 0 0 0 0 0 0 0 0 0 0 0 0 0 0 0 0 0 127 0" result="hardAlpha"/>
<feOffset dx="4" dy="4"/>
<feComposite in2="hardAlpha" operator="out"/>
<feColorMatrix type="matrix" values="0 0 0 0 0.680354 0 0 0 0 0.785991 0 0 0 0 0.941667 0 0 0 1 0"/>
<feBlend mode="normal" in2="BackgroundImageFix" result="effect1_dropShadow_13_691"/>
<feBlend mode="normal" in="SourceGraphic" in2="effect1_dropShadow_13_691" result="shape"/>
</filter>
</defs>
</svg>
