<svg width="365" height="239" viewBox="0 0 365 239" fill="none" xmlns="http://www.w3.org/2000/svg">
<rect x="24.8804" y="11.4165" width="283.014" height="197.488" rx="7" fill="#7096D1"/>
<rect x="37.3206" y="23.8564" width="258.134" height="171.053" rx="5" fill="white"/>
<rect x="83.9713" y="221.345" width="166.388" height="17.1053" rx="8.55263" fill="#7096D1"/>
<rect x="138.397" y="207.35" width="59.0909" height="18.6603" fill="#7096D1"/>
<line x1="2.5" y1="181.524" x2="201.208" y2="181.524" stroke="#BBBBBB" stroke-width="5" stroke-linecap="round"/>
<rect x="17.8433" y="97.7822" width="35.6861" height="71.3722" fill="#FFB84E"/>
<rect x="62.4509" y="47.2275" width="35.6861" height="121.927" fill="#FFD596"/>
<rect x="107.059" y="5.59326" width="35.6861" height="163.561" fill="#A8C6F3"/>
<rect x="151.666" y="85.8872" width="35.6861" height="83.2676" fill="#7096D1"/>
<g filter="url(#filter0_d_63_259)">
<rect x="190.775" y="0.5" width="112.462" height="71.3322" fill="white" stroke="#AEAEAE"/>
<rect x="190.775" y="0.5" width="112.462" height="14.6011" fill="white" stroke="#AEAEAE"/>
<rect x="190.775" y="14.6826" width="112.462" height="14.6011" fill="white" stroke="#AEAEAE"/>
<rect x="190.775" y="28.8652" width="112.462" height="14.6011" fill="white" stroke="#AEAEAE"/>
<rect x="190.775" y="43.0483" width="112.462" height="14.6011" fill="white" stroke="#AEAEAE"/>
<rect x="190.775" y="57.231" width="112.462" height="14.6011" fill="white" stroke="#AEAEAE"/>
<line x1="219.14" y1="2.18557e-08" x2="219.14" y2="72.3322" stroke="#AEAEAE"/>
<line x1="247.506" y1="2.18557e-08" x2="247.506" y2="72.3322" stroke="#AEAEAE"/>
<line x1="274.453" y1="2.18557e-08" x2="274.453" y2="72.3322" stroke="#AEAEAE"/>
<line x1="302.819" y1="2.18557e-08" x2="302.819" y2="72.3322" stroke="#AEAEAE"/>
</g>
<path fill-rule="evenodd" clip-rule="evenodd" d="M258.677 95.8671L272.404 99.9257L269.877 108.472C276.248 111.509 281.661 115.919 285.858 121.228L294.609 116.471L301.445 129.048L292.861 133.714C295.341 140.435 296.249 147.786 295.279 155.201L304.969 158.066L300.91 171.792L291.22 168.927C288.056 175.567 283.399 181.166 277.788 185.433L282.312 193.756L269.736 200.592L265.174 192.2C258.673 194.461 251.611 195.262 244.491 194.329L241.626 204.019L227.899 199.96L230.764 190.271C224.014 187.053 218.339 182.293 214.046 176.557L203.98 182.029L197.144 169.453L207.377 163.89C205.204 157.481 204.446 150.54 205.362 143.541L194.529 140.338L198.587 126.611L209.421 129.815C212.511 123.332 217.023 117.842 222.456 113.615L217.895 105.223L230.471 98.3867L234.995 106.71C241.626 104.321 248.857 103.458 256.15 104.413L258.677 95.8671ZM243.113 175.85C257.328 180.053 272.258 171.937 276.461 157.722C280.664 143.508 272.548 128.578 258.333 124.375C244.119 120.172 229.189 128.288 224.986 142.502C220.783 156.717 228.899 171.647 243.113 175.85Z" fill="#FFD596"/>
<path fill-rule="evenodd" clip-rule="evenodd" d="M307.562 69.9589L316.215 67.4299L317.789 72.8164C322.198 72.2532 326.568 72.744 330.6 74.1252L333.613 68.624L341.519 72.9539L338.564 78.3504C342.168 81.0647 345.154 84.6479 347.167 88.9052L353.275 87.12L355.804 95.7724L349.696 97.5576C350.283 102.152 349.725 106.705 348.208 110.876L353.441 113.742L349.111 121.648L343.835 118.759C341.162 122.172 337.696 125.003 333.607 126.936L335.393 133.043L326.74 135.572L324.955 129.465C320.284 130.061 315.656 129.475 311.428 127.9L307.963 134.229L300.056 129.899L303.579 123.465C300.244 120.812 297.477 117.394 295.577 113.376L288.748 115.372L286.219 106.72L293.048 104.724C292.475 100.238 292.993 95.7922 294.43 91.7021L289.154 88.813L293.484 80.9066L298.716 83.7719C301.414 80.247 304.949 77.3253 309.137 75.3453L307.562 69.9589ZM326.58 117.619C335.539 115 340.68 105.613 338.061 96.6535C335.442 87.6937 326.056 82.5533 317.096 85.1721C308.136 87.791 302.996 97.1774 305.615 106.137C308.233 115.097 317.62 120.237 326.58 117.619Z" fill="#FFB84E"/>
<defs>
<filter id="filter0_d_63_259" x="190.275" y="0" width="117.462" height="76.332" filterUnits="userSpaceOnUse" color-interpolation-filters="sRGB">
<feFlood flood-opacity="0" result="BackgroundImageFix"/>
<feColorMatrix in="SourceAlpha" type="matrix" values="0 0 0 0 0 0 0 0 0 0 0 0 0 0 0 0 0 0 127 0" result="hardAlpha"/>
<feOffset dx="4" dy="4"/>
<feComposite in2="hardAlpha" operator="out"/>
<feColorMatrix type="matrix" values="0 0 0 0 0.680354 0 0 0 0 0.785991 0 0 0 0 0.941667 0 0 0 1 0"/>
<feBlend mode="normal" in2="BackgroundImageFix" result="effect1_dropShadow_63_259"/>
<feBlend mode="normal" in="SourceGraphic" in2="effect1_dropShadow_63_259" result="shape"/>
</filter>
</defs>
</svg>
