<svg width="252" height="220" viewBox="0 0 252 220" fill="none" xmlns="http://www.w3.org/2000/svg">
<path d="M72.6763 73H18C9.71573 73 3 79.7157 3 88V187C3 195.284 9.71573 202 18 202H234C242.284 202 249 195.284 249 187V67C249 58.7157 242.284 52 234 52H51.8208" stroke="black" stroke-width="6"/>
<path d="M133.512 79.9895C134.05 76.7464 129.732 75.1239 128.002 77.919L105.594 114.112C104.716 115.53 105.163 117.392 106.588 118.257L119.014 125.795C120.183 126.504 120.725 127.915 120.33 129.225L111.898 157.232C110.93 160.445 115.164 162.581 117.173 159.893L144.87 122.849C145.983 121.36 145.488 119.227 143.833 118.381L130.398 111.515C129.235 110.92 128.59 109.641 128.804 108.352L133.512 79.9895Z" fill="#FFB84E"/>
<circle cx="45" cy="29" r="29" fill="#FFF2D0"/>
<rect x="32" y="46" width="25" height="19" rx="6" fill="#FFF2D0"/>
<circle cx="9" cy="9" r="9" transform="matrix(1 0 0 -1 36 72.1724)" fill="#7B7B7B"/>
<rect width="7.75862" height="5.89655" rx="1" transform="matrix(1 0 0 -1 40.9656 57.8965)" fill="#7B7B7B"/>
<path d="M44 52.0018C44 52.0018 43 35.5024 42.5 33.0019C42 30.5013 40.5 30.0004 38.5 30.5012C36.5 31.0019 36 32.2755 36 34.5018C36 36.7282 39 37 39 37H50C51.8296 36.4862 52.4631 36.6072 53 34.5018C53.5577 32.3149 52.3414 30.3037 50 30.5012C47.9148 30.677 46.7897 31.5572 46.5 33.0019C46.2103 34.4465 46.3663 51.8608 46 52.0018" stroke="black"/>
<rect x="180" y="41.146" width="30" height="21" rx="8" fill="#D0E3FF"/>
<path d="M199.5 51.646C199.5 54.4533 197.442 56.646 195 56.646C192.558 56.646 190.5 54.4533 190.5 51.646C190.5 48.8387 192.558 46.646 195 46.646C197.442 46.646 199.5 48.8387 199.5 51.646Z" stroke="black"/>
<line x1="192.023" y1="47.0576" x2="186.169" y2="38.2771" stroke="black"/>
<rect x="72" y="190" width="8" height="20" rx="4" fill="#BABABA"/>
<rect x="76" y="180" width="97" height="40" rx="8" fill="#7096D1"/>
<path d="M105 180H165C169.418 180 173 183.582 173 188V212C173 216.418 169.418 220 165 220H105V180Z" fill="#A8C6F3"/>
<line x1="157" y1="202" x2="169" y2="202" stroke="black" stroke-width="2"/>
<line x1="84" y1="202" x2="96" y2="202" stroke="black" stroke-width="2"/>
<line x1="90" y1="208" x2="90" y2="196" stroke="black" stroke-width="2"/>
</svg>
