<svg width="277" height="198" viewBox="0 0 277 198" fill="none" xmlns="http://www.w3.org/2000/svg">
<path d="M3.75012 15H244.011V164H3.75012C3.75012 105.812 3.75012 73.1881 3.75012 15Z" fill="#FFF7E2"/>
<path d="M0.100979 150H29.9265V164H1.88039C0.161496 164.751 -0.21381 157.853 0.100979 150Z" fill="#FFF7E2"/>
<path d="M0.100979 150H29.9265V164H1.88039C0.161496 164.751 -0.21381 157.853 0.100979 150Z" fill="black" fill-opacity="0.2"/>
<path d="M0.305769 7.00101C0.968205 4.0016 13.891 -4.47264 34.0114 3.00085V157C34.0114 157 18.2193 144.903 0.305769 157C0.305769 157 -0.356667 10.0004 0.305769 7.00101Z" fill="#FFDE88"/>
<path d="M93 69.5L126 44.5L159 69.5V131H139V104H126H114V131H93V69.5Z" fill="#7096D1"/>
<rect x="75.4725" y="83.2876" width="69" height="11.1602" transform="rotate(-45 75.4725 83.2876)" fill="#7096D1"/>
<rect width="71.1868" height="11.16" transform="matrix(0.707107 0.707107 0.707107 -0.707107 117.854 40.8174)" fill="#7096D1"/>
<line x1="75" y1="143.5" x2="176" y2="143.5" stroke="black"/>
<line x1="186.5" y1="130.99" x2="188.51" y2="32.9898" stroke="black"/>
<line x1="75.5" y1="141" x2="75.5" y2="146" stroke="black"/>
<line x1="184" y1="130.5" x2="189" y2="130.5" stroke="black"/>
<line x1="186" y1="33.5" x2="191" y2="33.5" stroke="black"/>
<line x1="175.5" y1="141" x2="175.5" y2="146" stroke="black"/>
<circle cx="230.395" cy="117.841" r="32.8411" fill="#FFB84E"/>
<path d="M188 181.265C188 166.353 200.088 154.265 215 154.265H249.372C264.284 154.265 276.372 166.353 276.372 181.265V197.257H188V181.265Z" fill="#FFB84E"/>
<path d="M232.186 168.595L221.844 154.265L242.528 154.265L232.186 168.595Z" fill="white"/>
<path d="M266 105.722C266 124.347 249.158 106 229 106C208.842 106 193 124.347 193 105.722C193 87.0981 209.341 72 229.5 72C249.658 72 266 87.0981 266 105.722Z" fill="#FFB84E"/>
<rect x="191" y="106" width="78" height="10" fill="#FFB84E"/>
<rect x="191" y="106" width="78" height="10" fill="black" fill-opacity="0.2"/>
<path d="M223 69H237L234 103H226L223 69Z" fill="#FFB84E"/>
<path d="M223 69H237L234 103H226L223 69Z" fill="black" fill-opacity="0.2"/>
<line x1="244.5" y1="75" x2="244.5" y2="103" stroke="#FFB84E"/>
<line x1="244.5" y1="75" x2="244.5" y2="103" stroke="#FFB84E"/>
<line x1="244.5" y1="75" x2="244.5" y2="103" stroke="black" stroke-opacity="0.2"/>
<line x1="214.5" y1="75" x2="214.5" y2="103" stroke="#FFB84E"/>
<line x1="214.5" y1="75" x2="214.5" y2="103" stroke="#FFB84E"/>
<line x1="214.5" y1="75" x2="214.5" y2="103" stroke="black" stroke-opacity="0.2"/>
</svg>
