<svg width="259" height="254" viewBox="0 0 259 254" fill="none" xmlns="http://www.w3.org/2000/svg">
<circle cx="79.8682" cy="79.8679" r="62.1087" transform="rotate(-20.4086 79.8682 79.8679)" fill="#649DF6"/>
<circle cx="80.919" cy="80.3487" r="36.7749" transform="rotate(-20.4086 80.919 80.3487)" fill="white"/>
<rect x="45.0293" y="14.355" width="19.6133" height="26.151" transform="rotate(-20.4086 45.0293 14.355)" fill="#649DF6"/>
<rect x="87.7756" y="129.244" width="19.6133" height="26.151" transform="rotate(-20.4086 87.7756 129.244)" fill="#649DF6"/>
<rect x="120.872" y="54.1489" width="27.7855" height="19.6133" transform="rotate(-20.4086 120.872 54.1489)" fill="#649DF6"/>
<rect x="4.45215" y="97.4648" width="27.7855" height="19.6133" transform="rotate(-20.4086 4.45215 97.4648)" fill="#649DF6"/>
<rect x="8.02466" y="58.147" width="19.6133" height="26.151" transform="rotate(-65.4086 8.02466 58.147)" fill="#649DF6"/>
<rect x="119.489" y="109.158" width="19.6133" height="26.151" transform="rotate(-65.4086 119.489 109.158)" fill="#649DF6"/>
<rect x="89.792" y="32.6567" width="27.7855" height="19.6133" transform="rotate(-65.4086 89.792 32.6567)" fill="#649DF6"/>
<rect x="38.0999" y="145.607" width="27.7855" height="19.6133" transform="rotate(-65.4086 38.0999 145.607)" fill="#649DF6"/>
<circle cx="209.36" cy="114.246" r="40.3946" transform="rotate(-6.289 209.36 114.246)" fill="#A8C6F3"/>
<circle cx="209.947" cy="114.716" r="23.9178" transform="rotate(-6.289 209.947 114.716)" fill="white"/>
<rect x="197.78" y="67.3975" width="12.7562" height="17.0082" transform="rotate(-6.289 197.78 67.3975)" fill="#A8C6F3"/>
<rect x="206.513" y="146.643" width="12.7562" height="17.0082" transform="rotate(-6.289 206.513 146.643)" fill="#A8C6F3"/>
<rect x="239.303" y="104.529" width="18.0713" height="12.7562" transform="rotate(-6.289 239.303 104.529)" fill="#A8C6F3"/>
<rect x="159" y="113.38" width="18.0713" height="12.7562" transform="rotate(-6.289 159 113.38)" fill="#A8C6F3"/>
<rect x="167.492" y="89.146" width="12.7562" height="17.0082" transform="rotate(-51.289 167.492 89.146)" fill="#A8C6F3"/>
<rect x="229.703" y="139.006" width="12.7562" height="17.0082" transform="rotate(-51.289 229.703 139.006)" fill="#A8C6F3"/>
<rect x="223.11" y="86.042" width="18.0713" height="12.7562" transform="rotate(-51.289 223.11 86.042)" fill="#A8C6F3"/>
<rect x="172.585" y="149.083" width="18.0713" height="12.7562" transform="rotate(-51.289 172.585 149.083)" fill="#A8C6F3"/>
<circle cx="130.324" cy="88.0541" r="49.0541" fill="#FFB84E"/>
<path d="M67 169.46C67 154.548 79.0883 142.46 94 142.46H172C186.912 142.46 199 154.548 199 169.46V206.676H67V169.46Z" fill="#FFB84E"/>
<path d="M133.001 163.865L117.553 142.46L148.449 142.46L133.001 163.865Z" fill="white"/>
<mask id="path-24-outside-1_63_182" maskUnits="userSpaceOnUse" x="178" y="178" width="48" height="53" fill="black">
<rect fill="white" x="178" y="178" width="48" height="53"/>
<path fill-rule="evenodd" clip-rule="evenodd" d="M206.054 191.849L220.166 201.494C224.726 204.61 225.897 210.832 222.78 215.392L216.224 224.987C213.108 229.546 206.885 230.717 202.325 227.601L183.359 214.639C178.799 211.523 177.629 205.301 180.745 200.741L187.302 191.146C187.811 190.401 188.404 189.746 189.059 189.185C189.55 188.033 190.404 187.024 191.572 186.347L201.119 180.812C203.991 179.147 207.67 180.125 209.335 182.998C211.001 185.87 210.022 189.549 207.15 191.214L206.054 191.849Z"/>
</mask>
<path fill-rule="evenodd" clip-rule="evenodd" d="M206.054 191.849L220.166 201.494C224.726 204.61 225.897 210.832 222.78 215.392L216.224 224.987C213.108 229.546 206.885 230.717 202.325 227.601L183.359 214.639C178.799 211.523 177.629 205.301 180.745 200.741L187.302 191.146C187.811 190.401 188.404 189.746 189.059 189.185C189.55 188.033 190.404 187.024 191.572 186.347L201.119 180.812C203.991 179.147 207.67 180.125 209.335 182.998C211.001 185.87 210.022 189.549 207.15 191.214L206.054 191.849Z" fill="#FFB84E"/>
<path d="M206.054 191.849L205.552 190.984L204.18 191.78L205.49 192.675L206.054 191.849ZM220.166 201.494L219.602 202.319L220.166 201.494ZM222.78 215.392L223.606 215.956L222.78 215.392ZM216.224 224.987L217.049 225.551L216.224 224.987ZM202.325 227.601L201.761 228.426L202.325 227.601ZM183.359 214.639L183.923 213.814L183.359 214.639ZM180.745 200.741L181.57 201.305L180.745 200.741ZM187.302 191.146L186.476 190.582L187.302 191.146ZM189.059 189.185L189.709 189.945L189.887 189.793L189.978 189.578L189.059 189.185ZM191.572 186.347L192.073 187.212L191.572 186.347ZM201.119 180.812L200.617 179.947V179.947L201.119 180.812ZM209.335 182.998L208.47 183.499V183.499L209.335 182.998ZM207.15 191.214L206.648 190.349L207.15 191.214ZM205.49 192.675L219.602 202.319L220.731 200.668L206.618 191.024L205.49 192.675ZM219.602 202.319C223.706 205.124 224.759 210.724 221.955 214.828L223.606 215.956C227.034 210.94 225.746 204.096 220.731 200.668L219.602 202.319ZM221.955 214.828L215.398 224.422L217.049 225.551L223.606 215.956L221.955 214.828ZM215.398 224.422C212.594 228.526 206.993 229.58 202.889 226.775L201.761 228.426C206.777 231.854 213.622 230.567 217.049 225.551L215.398 224.422ZM202.889 226.775L183.923 213.814L182.795 215.465L201.761 228.426L202.889 226.775ZM183.923 213.814C179.819 211.009 178.766 205.409 181.57 201.305L179.919 200.177C176.491 205.192 177.779 212.037 182.795 215.465L183.923 213.814ZM181.57 201.305L188.127 191.71L186.476 190.582L179.919 200.177L181.57 201.305ZM188.127 191.71C188.587 191.038 189.12 190.449 189.709 189.945L188.408 188.425C187.687 189.043 187.036 189.763 186.476 190.582L188.127 191.71ZM189.978 189.578C190.388 188.617 191.099 187.777 192.073 187.212L191.07 185.482C189.71 186.271 188.712 187.449 188.139 188.793L189.978 189.578ZM192.073 187.212L201.62 181.677L200.617 179.947L191.07 185.482L192.073 187.212ZM201.62 181.677C204.015 180.289 207.082 181.104 208.47 183.499L210.201 182.496C208.258 179.146 203.968 178.004 200.617 179.947L201.62 181.677ZM208.47 183.499C209.859 185.894 209.043 188.961 206.648 190.349L207.651 192.079C211.002 190.137 212.143 185.846 210.201 182.496L208.47 183.499ZM206.648 190.349L205.552 190.984L206.556 192.714L207.651 192.079L206.648 190.349Z" fill="white" mask="url(#path-24-outside-1_63_182)"/>
<mask id="path-26-outside-2_63_182" maskUnits="userSpaceOnUse" x="39.5251" y="173" width="48" height="53" fill="black">
<rect fill="white" x="39.5251" y="173" width="48" height="53"/>
<path fill-rule="evenodd" clip-rule="evenodd" d="M59.4712 186.849L45.3587 196.494C40.799 199.61 39.6286 205.832 42.7447 210.392L49.3015 219.987C52.4176 224.546 58.6402 225.717 63.2 222.601L82.1664 209.639C86.7262 206.523 87.8965 200.301 84.7804 195.741L78.2236 186.146C77.7141 185.401 77.1214 184.746 76.4666 184.185C75.9751 183.033 75.1207 182.024 73.9536 181.347L64.4062 175.812C61.5338 174.147 57.8551 175.125 56.1897 177.998C54.5243 180.87 55.5029 184.549 58.3753 186.214L59.4712 186.849Z"/>
</mask>
<path fill-rule="evenodd" clip-rule="evenodd" d="M59.4712 186.849L45.3587 196.494C40.799 199.61 39.6286 205.832 42.7447 210.392L49.3015 219.987C52.4176 224.546 58.6402 225.717 63.2 222.601L82.1664 209.639C86.7262 206.523 87.8965 200.301 84.7804 195.741L78.2236 186.146C77.7141 185.401 77.1214 184.746 76.4666 184.185C75.9751 183.033 75.1207 182.024 73.9536 181.347L64.4062 175.812C61.5338 174.147 57.8551 175.125 56.1897 177.998C54.5243 180.87 55.5029 184.549 58.3753 186.214L59.4712 186.849Z" fill="#FFB84E"/>
<path d="M59.4712 186.849L59.9727 185.984L61.3451 186.78L60.0354 187.675L59.4712 186.849ZM45.3587 196.494L45.923 197.319L45.3587 196.494ZM42.7447 210.392L41.9191 210.956H41.9191L42.7447 210.392ZM49.3015 219.987L48.4759 220.551L49.3015 219.987ZM63.2 222.601L63.7642 223.426L63.2 222.601ZM82.1664 209.639L81.6022 208.814L82.1664 209.639ZM84.7804 195.741L83.9548 196.305L84.7804 195.741ZM78.2236 186.146L79.0492 185.582L78.2236 186.146ZM76.4666 184.185L75.8164 184.945L75.6386 184.793L75.5468 184.578L76.4666 184.185ZM73.9536 181.347L73.452 182.212L73.9536 181.347ZM64.4062 175.812L64.9078 174.947V174.947L64.4062 175.812ZM56.1897 177.998L55.3246 177.496L56.1897 177.998ZM58.3753 186.214L58.8769 185.349L58.3753 186.214ZM60.0354 187.675L45.923 197.319L44.7945 195.668L58.9069 186.024L60.0354 187.675ZM45.923 197.319C41.8191 200.124 40.7658 205.724 43.5703 209.828L41.9191 210.956C38.4914 205.94 39.7788 199.096 44.7945 195.668L45.923 197.319ZM43.5703 209.828L50.1272 219.422L48.4759 220.551L41.9191 210.956L43.5703 209.828ZM50.1272 219.422C52.9316 223.526 58.5319 224.58 62.6358 221.775L63.7642 223.426C58.7484 226.854 51.9036 225.567 48.4759 220.551L50.1272 219.422ZM62.6358 221.775L81.6022 208.814L82.7306 210.465L63.7642 223.426L62.6358 221.775ZM81.6022 208.814C85.706 206.009 86.7593 200.409 83.9548 196.305L85.6061 195.177C89.0338 200.192 87.7464 207.037 82.7306 210.465L81.6022 208.814ZM83.9548 196.305L77.398 186.71L79.0492 185.582L85.6061 195.177L83.9548 196.305ZM77.398 186.71C76.9385 186.038 76.405 185.449 75.8164 184.945L77.1168 183.425C77.8379 184.043 78.4896 184.763 79.0492 185.582L77.398 186.71ZM75.5468 184.578C75.1371 183.617 74.426 182.777 73.452 182.212L74.4551 180.482C75.8154 181.271 76.8132 182.449 77.3864 183.793L75.5468 184.578ZM73.452 182.212L63.9046 176.677L64.9078 174.947L74.4551 180.482L73.452 182.212ZM63.9046 176.677C61.51 175.289 58.4432 176.104 57.0548 178.499L55.3246 177.496C57.267 174.146 61.5575 173.004 64.9078 174.947L63.9046 176.677ZM57.0548 178.499C55.6665 180.894 56.4822 183.961 58.8769 185.349L57.8738 187.079C54.5235 185.137 53.3822 180.846 55.3246 177.496L57.0548 178.499ZM58.8769 185.349L59.9727 185.984L58.9696 187.714L57.8738 187.079L58.8769 185.349Z" fill="white" mask="url(#path-26-outside-2_63_182)"/>
<g filter="url(#filter0_d_63_182)">
<path d="M89.3445 191.574L133.297 166.574L177.249 191.574V253.074H150.611V226.074H133.297H117.314V253.074H89.3445V191.574Z" fill="#649DF6"/>
<rect width="81.2607" height="13.1432" transform="matrix(0.799687 -0.600417 0.799687 0.600417 66 205.361)" fill="#649DF6"/>
<rect width="83.8361" height="13.143" transform="matrix(0.799687 0.600417 0.799687 -0.600417 122.447 162.891)" fill="#649DF6"/>
</g>
<defs>
<filter id="filter0_d_63_182" x="62" y="147" width="142" height="106.074" filterUnits="userSpaceOnUse" color-interpolation-filters="sRGB">
<feFlood flood-opacity="0" result="BackgroundImageFix"/>
<feColorMatrix in="SourceAlpha" type="matrix" values="0 0 0 0 0 0 0 0 0 0 0 0 0 0 0 0 0 0 127 0" result="hardAlpha"/>
<feOffset dy="-4"/>
<feGaussianBlur stdDeviation="2"/>
<feComposite in2="hardAlpha" operator="out"/>
<feColorMatrix type="matrix" values="0 0 0 0 1 0 0 0 0 1 0 0 0 0 1 0 0 0 0.5 0"/>
<feBlend mode="normal" in2="BackgroundImageFix" result="effect1_dropShadow_63_182"/>
<feBlend mode="normal" in="SourceGraphic" in2="effect1_dropShadow_63_182" result="shape"/>
</filter>
</defs>
</svg>
