<svg width="285" height="205" viewBox="0 0 285 205" fill="none" xmlns="http://www.w3.org/2000/svg">
<path d="M53.2606 34.0014C68.2134 33.7138 83.5831 77.6641 93.9446 115.064C101.283 141.554 80.7882 166.751 53.3009 166.751C25.7873 166.751 5.28753 141.507 12.6797 115.005C23.0398 77.8626 38.3573 34.288 53.2606 34.0014Z" fill="#8CC669"/>
<line x1="53.2605" y1="150.002" x2="53.2605" y2="175.002" stroke="black" stroke-width="9"/>
<path d="M100 64.001C110.939 63.7911 122.183 95.8457 129.77 123.157C135.156 142.547 120.154 161 100.03 161C79.8859 161 64.8803 142.513 70.3059 123.114C77.8918 95.9906 89.0973 64.2102 100 64.001Z" fill="#8CC669"/>
<line x1="101.5" y1="157" x2="101.5" y2="175" stroke="black" stroke-width="9"/>
<rect x="17" y="171" width="268" height="28" rx="5" fill="#FFB84E"/>
<circle cx="200.642" cy="77.5471" r="52.3987" fill="#649DF6"/>
<path d="M133 162.662C133 147.75 145.088 135.662 160 135.662H247C261.912 135.662 274 147.75 274 162.662V204.256H133V162.662Z" fill="#649DF6"/>
<path d="M203.5 158.526L186.999 135.662L220.001 135.662L203.5 158.526Z" fill="white"/>
<path d="M257 58.5041C257 88.6059 230.239 58.9527 198.206 58.9527C166.174 58.9527 141 88.6059 141 58.5041C141 28.4023 166.967 4 199 4C231.033 4 257 28.4023 257 58.5041Z" fill="#FFB84E"/>
<rect x="138" y="59" width="124" height="16" fill="#FFB84E"/>
<rect x="138" y="59" width="124" height="16" fill="black" fill-opacity="0.2"/>
<path d="M189 0H211L206.286 54H193.714L189 0Z" fill="#FFB84E"/>
<path d="M189 0H211L206.286 54H193.714L189 0Z" fill="black" fill-opacity="0.2"/>
<line x1="223.5" y1="9" x2="223.5" y2="54" stroke="#FFB84E" stroke-width="3"/>
<line x1="223.5" y1="9" x2="223.5" y2="54" stroke="#FFB84E" stroke-width="3"/>
<line x1="223.5" y1="9" x2="223.5" y2="54" stroke="black" stroke-opacity="0.2" stroke-width="3"/>
<line x1="175.5" y1="9" x2="175.5" y2="54" stroke="#FFB84E" stroke-width="3"/>
<line x1="175.5" y1="9" x2="175.5" y2="54" stroke="#FFB84E" stroke-width="3"/>
<line x1="175.5" y1="9" x2="175.5" y2="54" stroke="black" stroke-opacity="0.2" stroke-width="3"/>
</svg>
