<svg width="215" height="204" viewBox="0 0 215 204" fill="none" xmlns="http://www.w3.org/2000/svg">
<circle cx="110.5" cy="112.5" r="91.5" fill="white"/>
<circle cx="79.8682" cy="79.8679" r="62.1087" transform="rotate(-20.4086 79.8682 79.8679)" fill="#FFB84E"/>
<circle cx="80.919" cy="80.3487" r="36.7749" transform="rotate(-20.4086 80.919 80.3487)" fill="white"/>
<rect x="45.0293" y="14.355" width="19.6133" height="26.151" transform="rotate(-20.4086 45.0293 14.355)" fill="#FFB84E"/>
<rect x="87.7756" y="129.244" width="19.6133" height="26.151" transform="rotate(-20.4086 87.7756 129.244)" fill="#FFB84E"/>
<rect x="120.872" y="54.1489" width="27.7855" height="19.6133" transform="rotate(-20.4086 120.872 54.1489)" fill="#FFB84E"/>
<rect x="4.45215" y="97.4648" width="27.7855" height="19.6133" transform="rotate(-20.4086 4.45215 97.4648)" fill="#FFB84E"/>
<rect x="8.02466" y="58.147" width="19.6133" height="26.151" transform="rotate(-65.4086 8.02466 58.147)" fill="#FFB84E"/>
<rect x="119.489" y="109.158" width="19.6133" height="26.151" transform="rotate(-65.4086 119.489 109.158)" fill="#FFB84E"/>
<rect x="89.792" y="32.6567" width="27.7855" height="19.6133" transform="rotate(-65.4086 89.792 32.6567)" fill="#FFB84E"/>
<rect x="38.0999" y="145.607" width="27.7855" height="19.6133" transform="rotate(-65.4086 38.0999 145.607)" fill="#FFB84E"/>
<circle cx="165.36" cy="154.246" r="40.3946" transform="rotate(-6.289 165.36 154.246)" fill="#7096D1"/>
<circle cx="165.947" cy="154.716" r="23.9178" transform="rotate(-6.289 165.947 154.716)" fill="white"/>
<rect x="153.78" y="107.397" width="12.7562" height="17.0082" transform="rotate(-6.289 153.78 107.397)" fill="#7096D1"/>
<rect x="162.513" y="186.643" width="12.7562" height="17.0082" transform="rotate(-6.289 162.513 186.643)" fill="#7096D1"/>
<rect x="195.303" y="144.529" width="18.0713" height="12.7562" transform="rotate(-6.289 195.303 144.529)" fill="#7096D1"/>
<rect x="115" y="153.38" width="18.0713" height="12.7562" transform="rotate(-6.289 115 153.38)" fill="#7096D1"/>
<rect x="123.492" y="129.146" width="12.7562" height="17.0082" transform="rotate(-51.289 123.492 129.146)" fill="#7096D1"/>
<rect x="185.703" y="179.006" width="12.7562" height="17.0082" transform="rotate(-51.289 185.703 179.006)" fill="#7096D1"/>
<rect x="179.11" y="126.042" width="18.0713" height="12.7562" transform="rotate(-51.289 179.11 126.042)" fill="#7096D1"/>
<rect x="128.585" y="189.083" width="18.0713" height="12.7562" transform="rotate(-51.289 128.585 189.083)" fill="#7096D1"/>
</svg>
