<svg width="273" height="273" viewBox="0 0 273 273" fill="none" xmlns="http://www.w3.org/2000/svg">
<circle cx="136.5" cy="136.5" r="106.148" transform="rotate(-20.4086 136.5 136.5)" fill="#FFE7C4"/>
<circle cx="136.214" cy="137.214" r="85.7071" transform="rotate(-20.4086 136.214 137.214)" fill="white"/>
<rect x="76.958" y="24.5332" width="33.5204" height="34.7904" transform="rotate(-20.4086 76.958 24.5332)" fill="#FFE7C4"/>
<rect x="154.018" y="231.648" width="33.5204" height="33.2116" transform="rotate(-20.4086 154.018 231.648)" fill="#FFE7C4"/>
<rect x="216.979" y="88.6738" width="36.3898" height="33.5204" transform="rotate(-20.4086 216.979 88.6738)" fill="#FFE7C4"/>
<rect x="7.60889" y="166.573" width="40.3847" height="33.5204" transform="rotate(-20.4086 7.60889 166.573)" fill="#FFE7C4"/>
<rect x="13.7146" y="99.3765" width="33.5204" height="34.8602" transform="rotate(-65.4086 13.7146 99.3765)" fill="#FFE7C4"/>
<rect x="215.947" y="191.927" width="33.5204" height="31.7913" transform="rotate(-65.4086 215.947 191.927)" fill="#FFE7C4"/>
<rect x="160.353" y="40.7515" width="30.9243" height="33.5204" transform="rotate(-65.4086 160.353 40.7515)" fill="#FFE7C4"/>
<rect x="65.115" y="248.852" width="37.4483" height="33.5204" transform="rotate(-65.4086 65.115 248.852)" fill="#FFE7C4"/>
<path d="M114.368 88.44C114.978 85.7034 117.732 83.9538 120.47 84.5636L129.586 86.5942C132.282 87.1946 133.931 89.8549 133.271 92.5362L107.157 198.578C106.496 201.26 103.776 202.947 101.081 202.346L67.7159 194.915C63.9039 194.066 62.5862 189.391 65.3719 186.599L99.2557 152.638C99.9394 151.953 100.414 151.091 100.622 150.156L114.368 88.44Z" fill="#7096D1"/>
<path d="M135.332 92.9287C135.922 90.277 134.274 87.6861 131.622 87.0952L122.287 85.0162C119.592 84.4158 116.872 86.1028 116.211 88.7841L90.0967 194.826C89.4364 197.508 91.0861 200.168 93.7815 200.768L127.528 208.285C131.256 209.115 134.59 205.649 133.567 202.008L121.331 158.473C121.112 157.694 121.09 156.869 121.268 156.072L135.332 92.9287Z" fill="#7096D1"/>
<path d="M102.926 155.476L107.188 137.984L120.91 136.627L116.06 158.402L129.173 203.769L69.0322 190.373L102.926 155.476Z" fill="#D0E3FF"/>
<line x1="105.041" y1="132.904" x2="112.091" y2="134.474" stroke="black"/>
<line x1="103.809" y1="138.434" x2="110.859" y2="140.005" stroke="black"/>
<line x1="109.66" y1="112.166" x2="116.71" y2="113.736" stroke="black"/>
<line x1="106.581" y1="125.991" x2="113.631" y2="127.562" stroke="black"/>
<line x1="108.12" y1="119.078" x2="115.17" y2="120.649" stroke="black"/>
<rect x="109.951" y="81.543" width="33.2863" height="9.91506" transform="rotate(12.5568 109.951 81.543)" fill="#7096D1"/>
<circle cx="139.067" cy="67.1666" r="6.9" fill="#FFB84E"/>
<circle cx="124.5" cy="57.1998" r="6.9" fill="#FFB84E"/>
<circle cx="117.217" cy="52.2167" r="4.21667" fill="#FFB84E"/>
<circle cx="132.167" cy="71.0001" r="6.9" fill="#FFB84E"/>
<circle cx="179.317" cy="90.55" r="2.68333" fill="#FFB84E"/>
<circle cx="163.6" cy="107.8" r="6.9" fill="#FFB84E"/>
<circle cx="156.317" cy="102.817" r="4.21667" fill="#FFB84E"/>
<circle cx="176.633" cy="94.7666" r="5.36667" fill="#FFB84E"/>
<path d="M150.559 132.879L169.11 128.712L182.976 190.441C184.127 195.564 180.907 200.65 175.785 201.8C170.662 202.951 165.576 199.731 164.426 194.608L150.559 132.879Z" fill="#D0E3FF"/>
<path d="M160.185 157.783L171.06 158.817L179.06 191.454C179.796 194.455 177.924 197.475 174.91 198.153C171.936 198.821 168.984 196.951 168.316 193.978L160.185 157.783Z" fill="#FFDE88"/>
<rect x="148.041" y="133.632" width="24.8722" height="9.17875" transform="rotate(-12.6603 148.041 133.632)" fill="#D0E3FF"/>
<line x1="168.513" y1="157.048" x2="175.037" y2="155.582" stroke="black"/>
<path d="M170.347 165.212L176.87 163.747" stroke="black"/>
<path d="M169.485 161.374L176.008 159.909" stroke="black"/>
</svg>
