<svg width="354" height="305" viewBox="0 0 354 305" fill="none" xmlns="http://www.w3.org/2000/svg">
<ellipse cx="150.5" cy="141" rx="134.5" ry="114" fill="#FFF2D0"/>
<path d="M54 54L59 52L166 116L289 94L289 100.5L297 104.5L271.5 230C217.1 199.6 166.5 200 148 204C118.8 180.8 52.8333 181.667 23.5 185L42.5 61L52.5 58L54 54Z" fill="white"/>
<path d="M163.646 112.854C144.399 53.6383 119.227 42.0608 58.5555 48.8435L41.4125 165.39C88.6562 149.428 113.507 141.533 147.86 202.68L163.646 112.854Z" fill="white" stroke="#D0E3FF" stroke-width="3"/>
<path d="M147.759 202.987C115.032 162.645 93.8017 155.665 35.1392 170.526L53.9342 53.0002L58.4342 51.0003" stroke="#D0E3FF" stroke-width="3"/>
<path d="M53.4343 55L48.9342 58.5002L29.4343 178.5C78.3679 166.51 110.198 163.999 147.259 204.486" stroke="#D0E3FF" stroke-width="3"/>
<path d="M51.9343 58.0002L43.4343 60.5645L22.9343 186C73.3381 181.801 107.776 181.327 148.434 205" stroke="#D0E3FF" stroke-width="6"/>
<path d="M28.8937 178.663C77.881 164.581 104.325 165.698 147.354 204.202" stroke="#D0E3FF" stroke-width="3"/>
<path d="M28.8935 178.663C79.1815 170.806 105.43 173.506 145.506 202.942" stroke="#D0E3FF" stroke-width="3"/>
<path d="M166.149 112.643C204.806 63.8312 232.434 61.7405 286.949 89.2198L262.448 204.444C223.716 173.034 203.168 156.982 149.677 202.345L166.149 112.643Z" fill="white" stroke="#D0E3FF" stroke-width="3"/>
<path d="M149.665 202.668C194.388 176.242 216.721 177.09 266.541 211.443L289.834 94.7249L286.312 91.2835" stroke="#D0E3FF" stroke-width="3"/>
<path d="M289.607 96.7738L292.607 101.622L269.113 220.904C227.414 192.629 198.449 179.194 149.612 204.247" stroke="#D0E3FF" stroke-width="3"/>
<path d="M289.968 100.108L297.044 105.471L272.595 230.197C226.806 208.714 194.687 196.282 148.331 204.32" stroke="#D0E3FF" stroke-width="6"/>
<path d="M269.563 221.245C228.542 190.99 203.363 182.831 149.622 203.949" stroke="#D0E3FF" stroke-width="3"/>
<path d="M269.563 221.245C225.156 196.373 199.609 189.767 151.793 203.41" stroke="#D0E3FF" stroke-width="3"/>
<path d="M83.1445 94.8826C82.4219 94.9458 81.5856 94.9332 80.6357 94.845C79.7245 94.7105 78.9804 94.283 78.4035 93.5626C78.0613 93.0785 77.8199 92.5214 77.6791 91.8913C77.5384 91.2612 77.527 90.6411 77.645 90.0312C77.8809 88.8113 78.5911 87.8712 79.7754 87.2109C80.023 87.1036 80.2706 86.9963 80.5182 86.889C80.7658 86.7817 81.0346 86.6725 81.3247 86.5615C82.1137 86.2783 82.7632 86.1145 83.2733 86.0699C83.8221 85.9791 84.5197 85.8752 85.3661 85.7584C85.7487 85.7249 86.0462 85.6989 86.2587 85.6803C86.4712 85.6618 86.7457 85.6163 87.082 85.5441C87.422 85.5144 87.762 85.4846 88.1021 85.4549C88.4384 85.3827 88.7978 85.3298 89.1804 85.2964C89.3929 85.2778 89.9455 85.2295 90.838 85.1514C91.7306 85.0734 92.7933 84.9805 94.0259 84.8727C95.2585 84.7649 96.5568 84.6728 97.9206 84.5964C99.3233 84.4737 100.62 84.3604 101.81 84.2563C103.042 84.1485 104.107 84.0768 105.003 84.0413C105.896 83.9632 106.448 83.9149 106.661 83.8963C107.302 83.8831 107.963 83.8467 108.643 83.7873C109.323 83.7278 110.003 83.6683 110.683 83.6089C111.448 83.542 112.194 83.4982 112.92 83.4775C113.689 83.4531 114.46 83.45 115.232 83.4681C115.58 83.5234 115.925 83.5574 116.269 83.5702C116.655 83.5792 117.028 83.6751 117.386 83.8579C117.876 84.0721 118.271 84.423 118.571 84.9108C118.866 85.356 119.104 85.8706 119.284 86.4545C119.502 86.9922 119.658 87.5567 119.753 88.1481C119.848 88.7394 119.915 89.2689 119.956 89.7364C120.008 90.3315 120.058 90.9053 120.107 91.4578C120.197 92.0067 120.269 92.5786 120.321 93.1737C120.354 93.5562 120.403 94.1088 120.466 94.8314C120.568 95.5077 120.65 96.2072 120.714 96.9298C120.777 97.6523 120.819 98.3768 120.839 99.1031C120.899 99.7831 120.945 100.314 120.979 100.697C121.089 102.443 121.197 104.169 121.303 105.872C121.448 107.53 121.596 109.23 121.749 110.973C121.808 111.653 121.804 112.339 121.736 113.03C121.664 113.679 121.442 114.319 121.069 114.951C120.653 115.587 120.117 116.063 119.459 116.377C118.797 116.649 118.096 116.71 117.355 116.561C116.486 116.423 115.817 116.117 115.347 115.644C114.917 115.125 114.565 114.535 114.293 113.873C114.06 113.166 113.889 112.431 113.779 111.67C113.666 110.866 113.537 110.128 113.393 109.455C112.982 107.692 112.702 105.961 112.553 104.26C112.512 103.793 112.458 103.177 112.391 102.412C112.325 101.646 112.236 100.883 112.127 100.122C112.014 99.318 111.905 98.5566 111.799 97.8378C111.732 97.0727 111.678 96.4564 111.637 95.9888C111.574 95.2663 111.472 94.5899 111.331 93.9598C111.187 93.2871 110.802 92.8068 110.177 92.5188C109.911 92.4136 109.608 92.3759 109.268 92.4056C108.928 92.4353 108.524 92.4706 108.057 92.5115L106.718 92.6286C106.509 92.6897 106.298 92.7295 106.086 92.7481C105.87 92.7242 105.655 92.7215 105.443 92.7401L98.1106 93.3812C97.2605 93.4555 96.4141 93.5724 95.5715 93.7317C94.7676 93.8448 93.9406 93.9386 93.0905 94.0129C92.2404 94.0872 91.3691 94.1634 90.4765 94.2415C89.6227 94.2733 88.7745 94.3689 87.9318 94.5282C87.5955 94.6005 87.3192 94.6246 87.103 94.6007C86.9292 94.5731 86.6723 94.5741 86.3323 94.6038L83.1445 94.8826Z" fill="#FFF2D0"/>
<path d="M83.1445 94.8826C82.4219 94.9458 81.5856 94.9332 80.6357 94.845C79.7245 94.7105 78.9804 94.283 78.4035 93.5626C78.0613 93.0785 77.8199 92.5214 77.6791 91.8913C77.5384 91.2612 77.527 90.6411 77.645 90.0312C77.8809 88.8113 78.5911 87.8712 79.7754 87.2109C80.023 87.1036 80.2706 86.9963 80.5182 86.889C80.7658 86.7817 81.0346 86.6725 81.3247 86.5615C82.1137 86.2783 82.7632 86.1145 83.2733 86.0699C83.8221 85.9791 84.5197 85.8752 85.3661 85.7584C85.7487 85.7249 86.0462 85.6989 86.2587 85.6803C86.4712 85.6618 86.7457 85.6163 87.082 85.5441C87.422 85.5144 87.762 85.4846 88.1021 85.4549C88.4384 85.3827 88.7978 85.3298 89.1804 85.2964C89.3929 85.2778 89.9455 85.2295 90.838 85.1514C91.7306 85.0734 92.7933 84.9805 94.0259 84.8727C95.2585 84.7649 96.5568 84.6728 97.9206 84.5964C99.3233 84.4737 100.62 84.3604 101.81 84.2563C103.042 84.1485 104.107 84.0768 105.003 84.0413C105.896 83.9632 106.448 83.9149 106.661 83.8963C107.302 83.8831 107.963 83.8467 108.643 83.7873C109.323 83.7278 110.003 83.6683 110.683 83.6089C111.448 83.542 112.194 83.4982 112.92 83.4775C113.689 83.4531 114.46 83.45 115.232 83.4681C115.58 83.5234 115.925 83.5574 116.269 83.5702C116.655 83.5792 117.028 83.6751 117.386 83.8579C117.876 84.0721 118.271 84.423 118.571 84.9108C118.866 85.356 119.104 85.8706 119.284 86.4545C119.502 86.9922 119.658 87.5567 119.753 88.1481C119.848 88.7394 119.915 89.2689 119.956 89.7364C120.008 90.3315 120.058 90.9053 120.107 91.4578C120.197 92.0067 120.269 92.5786 120.321 93.1737C120.354 93.5562 120.403 94.1088 120.466 94.8314C120.568 95.5077 120.65 96.2072 120.714 96.9298C120.777 97.6523 120.819 98.3768 120.839 99.1031C120.899 99.7831 120.945 100.314 120.979 100.697C121.089 102.443 121.197 104.169 121.303 105.872C121.448 107.53 121.596 109.23 121.749 110.973C121.808 111.653 121.804 112.339 121.736 113.03C121.664 113.679 121.442 114.319 121.069 114.951C120.653 115.587 120.117 116.063 119.459 116.377C118.797 116.649 118.096 116.71 117.355 116.561C116.486 116.423 115.817 116.117 115.347 115.644C114.917 115.125 114.565 114.535 114.293 113.873C114.06 113.166 113.889 112.431 113.779 111.67C113.666 110.866 113.537 110.128 113.393 109.455C112.982 107.692 112.702 105.961 112.553 104.26C112.512 103.793 112.458 103.177 112.391 102.412C112.325 101.646 112.236 100.883 112.127 100.122C112.014 99.318 111.905 98.5566 111.799 97.8378C111.732 97.0727 111.678 96.4564 111.637 95.9888C111.574 95.2663 111.472 94.5899 111.331 93.9598C111.187 93.2871 110.802 92.8068 110.177 92.5188C109.911 92.4136 109.608 92.3759 109.268 92.4056C108.928 92.4353 108.524 92.4706 108.057 92.5115L106.718 92.6286C106.509 92.6897 106.298 92.7295 106.086 92.7481C105.87 92.7242 105.655 92.7215 105.443 92.7401L98.1106 93.3812C97.2605 93.4555 96.4141 93.5724 95.5715 93.7317C94.7676 93.8448 93.9406 93.9386 93.0905 94.0129C92.2404 94.0872 91.3691 94.1634 90.4765 94.2415C89.6227 94.2733 88.7745 94.3689 87.9318 94.5282C87.5955 94.6005 87.3192 94.6246 87.103 94.6007C86.9292 94.5731 86.6723 94.5741 86.3323 94.6038L83.1445 94.8826Z" fill="#FFB84E"/>
<path d="M197.485 144.116C197.919 144.246 198.348 144.487 198.772 144.837C199.222 145.194 199.514 145.658 199.649 146.228C199.802 146.831 199.706 147.428 199.361 148.021C199.119 148.365 198.848 148.618 198.549 148.779C198.283 148.922 197.941 149.042 197.522 149.139C196.835 149.294 196.203 149.313 195.625 149.196C195.048 149.078 194.428 148.919 193.764 148.72C193.687 148.697 193.585 148.666 193.457 148.628C193.355 148.597 193.125 148.528 192.768 148.421C192.436 148.321 191.95 148.175 191.312 147.984C190.707 147.774 189.855 147.504 188.757 147.174C187.692 146.827 186.342 146.407 184.707 145.916C183.106 145.408 181.16 144.795 178.869 144.079C177.898 143.788 177.126 143.486 176.551 143.174C176.002 142.87 175.586 142.495 175.303 142.048C175.027 141.575 174.875 141.014 174.847 140.366C174.853 139.699 174.942 138.89 175.116 137.94C175.311 136.829 175.581 135.699 175.926 134.55C176.271 133.401 176.574 132.392 176.835 131.523C177.009 130.852 177.191 130.197 177.383 129.558C177.608 128.902 177.82 128.242 178.02 127.578C178.189 127.016 178.392 126.478 178.63 125.965C178.954 125.255 179.504 124.724 180.278 124.372C180.635 124.201 180.988 124.139 181.335 124.188C181.69 124.211 182.035 124.315 182.369 124.499C182.816 124.772 183.151 125.095 183.373 125.468C183.628 125.823 183.799 126.181 183.886 126.541C183.973 126.901 184.008 127.246 183.993 127.576C183.985 127.88 183.951 128.134 183.889 128.338L181.327 137.843C181.191 138.387 181.212 138.783 181.388 139.03C181.597 139.26 181.996 139.464 182.583 139.64C184.626 140.254 186.35 140.771 187.755 141.193C189.185 141.623 190.36 141.976 191.279 142.252C192.224 142.536 192.965 142.758 193.501 142.919C194.063 143.088 194.484 143.215 194.765 143.299C195.046 143.383 195.238 143.441 195.34 143.472C195.468 143.51 195.57 143.541 195.646 143.564C195.943 143.597 196.24 143.672 196.539 143.79C196.863 143.915 197.179 144.024 197.485 144.116Z" fill="#FFF2D0"/>
<path d="M197.485 144.116C197.919 144.246 198.348 144.487 198.772 144.837C199.222 145.194 199.514 145.658 199.649 146.228C199.802 146.831 199.706 147.428 199.361 148.021C199.119 148.365 198.848 148.618 198.549 148.779C198.283 148.922 197.941 149.042 197.522 149.139C196.835 149.294 196.203 149.313 195.625 149.196C195.048 149.078 194.428 148.919 193.764 148.72C193.687 148.697 193.585 148.666 193.457 148.628C193.355 148.597 193.125 148.528 192.768 148.421C192.436 148.321 191.95 148.175 191.312 147.984C190.707 147.774 189.855 147.504 188.757 147.174C187.692 146.827 186.342 146.407 184.707 145.916C183.106 145.408 181.16 144.795 178.869 144.079C177.898 143.788 177.126 143.486 176.551 143.174C176.002 142.87 175.586 142.495 175.303 142.048C175.027 141.575 174.875 141.014 174.847 140.366C174.853 139.699 174.942 138.89 175.116 137.94C175.311 136.829 175.581 135.699 175.926 134.55C176.271 133.401 176.574 132.392 176.835 131.523C177.009 130.852 177.191 130.197 177.383 129.558C177.608 128.902 177.82 128.242 178.02 127.578C178.189 127.016 178.392 126.478 178.63 125.965C178.954 125.255 179.504 124.724 180.278 124.372C180.635 124.201 180.988 124.139 181.335 124.188C181.69 124.211 182.035 124.315 182.369 124.499C182.816 124.772 183.151 125.095 183.373 125.468C183.628 125.823 183.799 126.181 183.886 126.541C183.973 126.901 184.008 127.246 183.993 127.576C183.985 127.88 183.951 128.134 183.889 128.338L181.327 137.843C181.191 138.387 181.212 138.783 181.388 139.03C181.597 139.26 181.996 139.464 182.583 139.64C184.626 140.254 186.35 140.771 187.755 141.193C189.185 141.623 190.36 141.976 191.279 142.252C192.224 142.536 192.965 142.758 193.501 142.919C194.063 143.088 194.484 143.215 194.765 143.299C195.046 143.383 195.238 143.441 195.34 143.472C195.468 143.51 195.57 143.541 195.646 143.564C195.943 143.597 196.24 143.672 196.539 143.79C196.863 143.915 197.179 144.024 197.485 144.116Z" fill="#FF6464"/>
<path d="M245.72 51.9563C245.594 51.9113 245.323 51.7997 244.905 51.6216C244.487 51.4435 244.178 51.3184 243.977 51.2464C243.726 51.1564 243.488 51.0709 243.262 50.9899C243.07 50.8927 242.883 50.7831 242.7 50.6609C242.499 50.5889 242.307 50.4917 242.125 50.3695C241.967 50.2563 241.801 50.1261 241.627 49.9787C241.364 49.686 241.177 49.3781 241.066 49.0551C241.004 48.8344 240.949 48.6307 240.903 48.4441C240.881 48.2665 240.907 48.0773 240.979 47.8765C241.037 47.5573 241.175 47.2103 241.395 46.8357C241.639 46.4701 241.885 46.2184 242.133 46.0806C242.253 45.9821 242.352 45.9042 242.429 45.8469C242.531 45.7986 242.651 45.7422 242.787 45.6778C242.983 45.6063 243.177 45.577 243.371 45.5898C243.574 45.5775 243.759 45.5732 243.928 45.577C244.222 45.6258 244.482 45.6908 244.708 45.7718C244.959 45.8618 245.198 45.9473 245.424 46.0283L247.645 46.8249L248.887 43.3609C248.995 43.0597 249.095 42.7414 249.187 42.4061C249.279 42.0707 249.374 41.765 249.473 41.4889C249.689 40.8865 249.901 40.2966 250.108 39.7192C250.324 39.1168 250.565 38.5234 250.831 37.9389C250.966 37.5624 251.131 37.1823 251.325 36.7987C251.545 36.4241 251.78 36.0836 252.032 35.7772C252.24 35.5119 252.519 35.2863 252.869 35.1002C253.304 34.916 253.734 34.9004 254.161 35.0534L254.236 35.0804C254.763 35.2694 255.154 35.5229 255.408 35.8407C255.672 36.1334 255.845 36.4789 255.929 36.8773C256.047 37.2595 256.071 37.6649 256.003 38.0936C255.959 38.5312 255.878 38.9553 255.759 39.3659C255.6 40.0456 255.395 40.7368 255.143 41.4397C254.891 42.1425 254.643 42.8328 254.4 43.5106L248.392 60.2659C248.086 61.1193 247.783 62.0024 247.484 62.915C247.195 63.8026 246.767 64.5985 246.203 65.3027C245.961 65.584 245.703 65.7891 245.43 65.9179C245.337 65.9411 245.202 65.9634 245.024 65.9847C244.846 66.006 244.673 66.0147 244.505 66.0109C244.336 66.0071 244.172 65.9907 244.012 65.9618C243.878 65.9419 243.748 65.9095 243.622 65.8645C243.045 65.6574 242.643 65.3152 242.418 64.8378C242.209 64.3944 242.102 63.9028 242.097 63.3629C242.101 62.7978 242.173 62.2427 242.312 61.6976C242.451 61.1525 242.592 60.6791 242.736 60.2775L243.222 58.922C243.521 58.0093 243.863 57.0554 244.248 56.0604C244.659 55.0743 245.01 54.0954 245.301 53.1235L245.72 51.9563Z" fill="#FFF2D0"/>
<path d="M245.72 51.9563C245.594 51.9113 245.323 51.7997 244.905 51.6216C244.487 51.4435 244.178 51.3184 243.977 51.2464C243.726 51.1564 243.488 51.0709 243.262 50.9899C243.07 50.8927 242.883 50.7831 242.7 50.6609C242.499 50.5889 242.307 50.4917 242.125 50.3695C241.967 50.2563 241.801 50.1261 241.627 49.9787C241.364 49.686 241.177 49.3781 241.066 49.0551C241.004 48.8344 240.949 48.6307 240.903 48.4441C240.881 48.2665 240.907 48.0773 240.979 47.8765C241.037 47.5573 241.175 47.2103 241.395 46.8357C241.639 46.4701 241.885 46.2184 242.133 46.0806C242.253 45.9821 242.352 45.9042 242.429 45.8469C242.531 45.7986 242.651 45.7422 242.787 45.6778C242.983 45.6063 243.177 45.577 243.371 45.5898C243.574 45.5775 243.759 45.5732 243.928 45.577C244.222 45.6258 244.482 45.6908 244.708 45.7718C244.959 45.8618 245.198 45.9473 245.424 46.0283L247.645 46.8249L248.887 43.3609C248.995 43.0597 249.095 42.7414 249.187 42.4061C249.279 42.0707 249.374 41.765 249.473 41.4889C249.689 40.8865 249.901 40.2966 250.108 39.7192C250.324 39.1168 250.565 38.5234 250.831 37.9389C250.966 37.5624 251.131 37.1823 251.325 36.7987C251.545 36.4241 251.78 36.0836 252.032 35.7772C252.24 35.5119 252.519 35.2863 252.869 35.1002C253.304 34.916 253.734 34.9004 254.161 35.0534L254.236 35.0804C254.763 35.2694 255.154 35.5229 255.408 35.8407C255.672 36.1334 255.845 36.4789 255.929 36.8773C256.047 37.2595 256.071 37.6649 256.003 38.0936C255.959 38.5312 255.878 38.9553 255.759 39.3659C255.6 40.0456 255.395 40.7368 255.143 41.4397C254.891 42.1425 254.643 42.8328 254.4 43.5106L248.392 60.2659C248.086 61.1193 247.783 62.0024 247.484 62.915C247.195 63.8026 246.767 64.5985 246.203 65.3027C245.961 65.584 245.703 65.7891 245.43 65.9179C245.337 65.9411 245.202 65.9634 245.024 65.9847C244.846 66.006 244.673 66.0147 244.505 66.0109C244.336 66.0071 244.172 65.9907 244.012 65.9618C243.878 65.9419 243.748 65.9095 243.622 65.8645C243.045 65.6574 242.643 65.3152 242.418 64.8378C242.209 64.3944 242.102 63.9028 242.097 63.3629C242.101 62.7978 242.173 62.2427 242.312 61.6976C242.451 61.1525 242.592 60.6791 242.736 60.2775L243.222 58.922C243.521 58.0093 243.863 57.0554 244.248 56.0604C244.659 55.0743 245.01 54.0954 245.301 53.1235L245.72 51.9563Z" fill="#FFD596"/>
<path d="M190.139 54.5301C190.377 54.5483 190.613 54.6477 190.848 54.8284C191.075 54.9893 191.253 55.1703 191.381 55.3715C191.529 55.5646 191.617 55.7819 191.647 56.0233C191.688 56.237 191.671 56.451 191.597 56.6654C191.358 57.5465 190.768 58.1903 189.828 58.5968C187.936 59.4376 185.998 60.251 184.015 61.037C182.043 61.7952 179.912 62.6416 177.62 63.5762C177.166 63.7615 176.688 63.945 176.186 64.1267C175.696 64.2805 175.219 64.3828 174.756 64.4335C174.38 64.4717 174.001 64.4188 173.62 64.2748C173.258 64.1228 172.93 63.9111 172.635 63.6397C172.448 63.4627 172.274 63.2341 172.113 62.9539C171.953 62.6738 171.807 62.3994 171.674 62.1309C171.533 61.8427 171.423 61.5998 171.342 61.4023C171.273 61.1769 171.235 61.0544 171.227 61.0346L169.027 55.642C169.011 55.6025 168.949 55.4781 168.841 55.2689C168.752 55.0516 168.661 54.8006 168.568 54.516C168.487 54.2036 168.415 53.8872 168.354 53.5667C168.284 53.2265 168.28 52.9056 168.341 52.6041C168.437 52.1043 168.727 51.6864 169.212 51.3503C169.697 51.0143 170.216 50.7334 170.769 50.5078L183.184 45.4439C183.204 45.4358 183.356 45.3853 183.641 45.2922C183.917 45.1794 184.236 45.0842 184.596 45.0064C184.955 44.9287 185.316 44.9085 185.677 44.9456C186.057 44.9747 186.361 45.1272 186.589 45.4029C186.677 45.5054 186.757 45.6454 186.829 45.8232C186.914 45.9732 186.992 46.1371 187.065 46.3148C187.137 46.4926 187.186 46.6686 187.211 46.8427C187.255 47.0088 187.274 47.1394 187.267 47.2345C187.222 47.5755 187.047 47.854 186.744 48.07C186.48 48.2699 185.952 48.531 185.162 48.8533L174.525 53.1921C174.071 53.3774 173.757 53.5974 173.585 53.8521C173.432 54.0988 173.341 54.3549 173.311 54.6205C173.293 54.8584 173.328 55.0859 173.416 55.3032C173.497 55.5007 173.557 55.6489 173.598 55.7476L174.816 58.3956C174.916 58.5851 175.033 58.8141 175.165 59.0826C175.318 59.343 175.487 59.5043 175.674 59.5664C175.952 59.6834 176.243 59.6913 176.547 59.5902C176.863 59.4613 177.199 59.3243 177.555 59.1793L187.528 55.0767C188.496 54.6819 189.366 54.4997 190.139 54.5301Z" fill="#FFF2D0"/>
<path d="M190.139 54.5301C190.377 54.5483 190.613 54.6477 190.848 54.8284C191.075 54.9893 191.253 55.1703 191.381 55.3715C191.529 55.5646 191.617 55.7819 191.647 56.0233C191.688 56.237 191.671 56.451 191.597 56.6654C191.358 57.5465 190.768 58.1903 189.828 58.5968C187.936 59.4376 185.998 60.251 184.015 61.037C182.043 61.7952 179.912 62.6416 177.62 63.5762C177.166 63.7615 176.688 63.945 176.186 64.1267C175.696 64.2805 175.219 64.3828 174.756 64.4335C174.38 64.4717 174.001 64.4188 173.62 64.2748C173.258 64.1228 172.93 63.9111 172.635 63.6397C172.448 63.4627 172.274 63.2341 172.113 62.9539C171.953 62.6738 171.807 62.3994 171.674 62.1309C171.533 61.8427 171.423 61.5998 171.342 61.4023C171.273 61.1769 171.235 61.0544 171.227 61.0346L169.027 55.642C169.011 55.6025 168.949 55.4781 168.841 55.2689C168.752 55.0516 168.661 54.8006 168.568 54.516C168.487 54.2036 168.415 53.8872 168.354 53.5667C168.284 53.2265 168.28 52.9056 168.341 52.6041C168.437 52.1043 168.727 51.6864 169.212 51.3503C169.697 51.0143 170.216 50.7334 170.769 50.5078L183.184 45.4439C183.204 45.4358 183.356 45.3853 183.641 45.2922C183.917 45.1794 184.236 45.0842 184.596 45.0064C184.955 44.9287 185.316 44.9085 185.677 44.9456C186.057 44.9747 186.361 45.1272 186.589 45.4029C186.677 45.5054 186.757 45.6454 186.829 45.8232C186.914 45.9732 186.992 46.1371 187.065 46.3148C187.137 46.4926 187.186 46.6686 187.211 46.8427C187.255 47.0088 187.274 47.1394 187.267 47.2345C187.222 47.5755 187.047 47.854 186.744 48.07C186.48 48.2699 185.952 48.531 185.162 48.8533L174.525 53.1921C174.071 53.3774 173.757 53.5974 173.585 53.8521C173.432 54.0988 173.341 54.3549 173.311 54.6205C173.293 54.8584 173.328 55.0859 173.416 55.3032C173.497 55.5007 173.557 55.6489 173.598 55.7476L174.816 58.3956C174.916 58.5851 175.033 58.8141 175.165 59.0826C175.318 59.343 175.487 59.5043 175.674 59.5664C175.952 59.6834 176.243 59.6913 176.547 59.5902C176.863 59.4613 177.199 59.3243 177.555 59.1793L187.528 55.0767C188.496 54.6819 189.366 54.4997 190.139 54.5301Z" fill="#081F5C"/>
<path d="M141.585 24.2437C141.68 24.2962 141.836 24.3679 142.054 24.4589C142.271 24.5499 142.438 24.6249 142.553 24.6837C142.764 24.7951 142.962 24.9471 143.148 25.1398C143.339 25.3122 143.451 25.5264 143.482 25.7823C143.553 26.051 143.541 26.3379 143.445 26.6431C143.393 26.8058 143.338 26.945 143.279 27.0607C143.247 27.1624 143.185 27.2882 143.093 27.4381C143.001 27.588 142.895 27.7448 142.777 27.9087C142.678 28.0789 142.542 28.1924 142.367 28.2491C142.018 28.3626 141.702 28.4082 141.418 28.3857C141.12 28.3364 140.799 28.2572 140.453 28.148C140.127 28.0452 139.815 27.9355 139.516 27.8188C139.394 28.2053 139.269 28.5683 139.139 28.9077C139.03 29.2535 138.93 29.5688 138.84 29.8536L138.551 30.7691C138.468 31.0335 138.375 31.3285 138.272 31.654C138.175 31.9592 138.049 32.2547 137.891 32.5405C137.754 32.8328 137.59 33.1053 137.398 33.358C137.233 33.5968 137.03 33.7788 136.789 33.9041C136.455 34.1118 136.085 34.1514 135.678 34.023C135.678 34.023 135.661 34.0064 135.627 33.9732C135.145 33.7987 134.793 33.531 134.571 33.1702C134.37 32.8158 134.249 32.4196 134.209 31.9817C134.188 31.5502 134.222 31.1246 134.31 30.7049C134.404 30.2649 134.502 29.8821 134.605 29.5566L140.329 11.4308C140.335 11.4104 140.364 11.3189 140.415 11.1562C140.473 10.9731 140.558 10.7761 140.669 10.5651C140.787 10.3339 140.925 10.109 141.084 9.89059C141.269 9.65825 141.468 9.4864 141.683 9.37504C141.87 9.27761 142.106 9.24013 142.389 9.26261C142.7 9.27117 142.967 9.31078 143.191 9.38144C143.638 9.52277 143.966 9.79418 144.175 10.1957C144.37 10.5704 144.447 10.9302 144.405 11.2749C144.37 11.5994 144.318 11.9409 144.249 12.2996C144.221 12.6711 144.13 13.101 143.976 13.5892C143.822 14.0775 143.697 14.5079 143.602 14.8805L143.265 15.9485C143.488 16.0192 143.678 16.0904 143.835 16.1621C143.998 16.2135 144.089 16.2424 144.109 16.2488C144.205 16.3013 144.361 16.373 144.578 16.464C144.796 16.555 144.962 16.63 145.078 16.6889C145.289 16.8002 145.487 16.9522 145.672 17.145C145.864 17.3173 145.975 17.5315 146.006 17.7874C146.078 18.0561 146.066 18.3431 145.969 18.6482C145.918 18.811 145.856 18.9705 145.785 19.1268C145.74 19.2692 145.671 19.4154 145.579 19.5653C145.487 19.7152 145.388 19.8517 145.282 19.9748C145.196 20.1044 145.066 20.1975 144.892 20.2543C144.543 20.3678 144.226 20.4133 143.942 20.3908C143.645 20.3415 143.323 20.2623 142.977 20.1531C142.652 20.0503 142.34 19.9406 142.041 19.8239L140.74 23.9434C140.964 24.0141 141.154 24.0853 141.31 24.157C141.473 24.2084 141.565 24.2373 141.585 24.2437Z" fill="#FFF2D0"/>
<path d="M141.585 24.2437C141.68 24.2962 141.836 24.3679 142.054 24.4589C142.271 24.5499 142.438 24.6249 142.553 24.6837C142.764 24.7951 142.962 24.9471 143.148 25.1398C143.339 25.3122 143.451 25.5264 143.482 25.7823C143.553 26.051 143.541 26.3379 143.445 26.6431C143.393 26.8058 143.338 26.945 143.279 27.0607C143.247 27.1624 143.185 27.2882 143.093 27.4381C143.001 27.588 142.895 27.7448 142.777 27.9087C142.678 28.0789 142.542 28.1924 142.367 28.2491C142.018 28.3626 141.702 28.4082 141.418 28.3857C141.12 28.3364 140.799 28.2572 140.453 28.148C140.127 28.0452 139.815 27.9355 139.516 27.8188C139.394 28.2053 139.269 28.5683 139.139 28.9077C139.03 29.2535 138.93 29.5688 138.84 29.8536L138.551 30.7691C138.468 31.0335 138.375 31.3285 138.272 31.654C138.175 31.9592 138.049 32.2547 137.891 32.5405C137.754 32.8328 137.59 33.1053 137.398 33.358C137.233 33.5968 137.03 33.7788 136.789 33.9041C136.455 34.1118 136.085 34.1514 135.678 34.023C135.678 34.023 135.661 34.0064 135.627 33.9732C135.145 33.7987 134.793 33.531 134.571 33.1702C134.37 32.8158 134.249 32.4196 134.209 31.9817C134.188 31.5502 134.222 31.1246 134.31 30.7049C134.404 30.2649 134.502 29.8821 134.605 29.5566L140.329 11.4308C140.335 11.4104 140.364 11.3189 140.415 11.1562C140.473 10.9731 140.558 10.7761 140.669 10.5651C140.787 10.3339 140.925 10.109 141.084 9.89059C141.269 9.65825 141.468 9.4864 141.683 9.37504C141.87 9.27761 142.106 9.24013 142.389 9.26261C142.7 9.27117 142.967 9.31078 143.191 9.38144C143.638 9.52277 143.966 9.79418 144.175 10.1957C144.37 10.5704 144.447 10.9302 144.405 11.2749C144.37 11.5994 144.318 11.9409 144.249 12.2996C144.221 12.6711 144.13 13.101 143.976 13.5892C143.822 14.0775 143.697 14.5079 143.602 14.8805L143.265 15.9485C143.488 16.0192 143.678 16.0904 143.835 16.1621C143.998 16.2135 144.089 16.2424 144.109 16.2488C144.205 16.3013 144.361 16.373 144.578 16.464C144.796 16.555 144.962 16.63 145.078 16.6889C145.289 16.8002 145.487 16.9522 145.672 17.145C145.864 17.3173 145.975 17.5315 146.006 17.7874C146.078 18.0561 146.066 18.3431 145.969 18.6482C145.918 18.811 145.856 18.9705 145.785 19.1268C145.74 19.2692 145.671 19.4154 145.579 19.5653C145.487 19.7152 145.388 19.8517 145.282 19.9748C145.196 20.1044 145.066 20.1975 144.892 20.2543C144.543 20.3678 144.226 20.4133 143.942 20.3908C143.645 20.3415 143.323 20.2623 142.977 20.1531C142.652 20.0503 142.34 19.9406 142.041 19.8239L140.74 23.9434C140.964 24.0141 141.154 24.0853 141.31 24.157C141.473 24.2084 141.565 24.2373 141.585 24.2437Z" fill="#FF6464"/>
<path d="M236.093 99.4952C236.25 99.4629 236.394 99.4495 236.526 99.455C236.689 99.454 236.849 99.4374 237.006 99.4051C237.169 99.4041 237.348 99.3999 237.542 99.3924C237.73 99.3537 237.921 99.3306 238.116 99.3231C238.474 99.3147 238.844 99.369 239.228 99.486C239.605 99.5716 239.907 99.7706 240.135 100.083C240.426 100.383 240.619 100.767 240.716 101.237C240.768 101.488 240.801 101.726 240.815 101.952C240.853 102.14 240.867 102.366 240.856 102.63C240.845 102.894 240.822 103.176 240.786 103.478C240.781 103.773 240.686 104.021 240.499 104.223C240.124 104.627 239.743 104.918 239.355 105.096C238.867 105.262 238.259 105.404 237.532 105.521C236.804 105.638 236.193 105.764 235.698 105.899C235.667 105.905 235.639 105.928 235.614 105.965L235.567 105.975L235.53 106.032L235.559 106.173C235.689 106.963 235.828 107.718 235.977 108.439C236.15 109.122 236.321 109.871 236.489 110.686C236.888 112.303 237.218 113.901 237.478 115.481L237.614 116.139C237.698 116.546 237.776 117.004 237.848 117.512C237.945 117.982 238.01 118.459 238.045 118.942C238.079 119.425 238.063 119.902 237.997 120.373C237.924 120.813 237.776 121.203 237.552 121.543C237.266 122.059 236.81 122.382 236.183 122.511C236.183 122.511 236.149 122.502 236.079 122.484C235.321 122.607 234.664 122.514 234.11 122.204C233.587 121.887 233.139 121.456 232.766 120.912C232.424 120.362 232.157 119.78 231.965 119.166C231.766 118.521 231.615 117.948 231.512 117.446L225.754 89.5217C225.747 89.4904 225.718 89.3494 225.667 89.0986C225.608 88.8166 225.575 88.4967 225.567 88.139C225.552 87.75 225.568 87.3546 225.616 86.9526C225.689 86.5129 225.825 86.1418 226.024 85.8394C226.198 85.5747 226.479 85.3534 226.867 85.1754C227.28 84.9595 227.659 84.8161 228.004 84.745C228.693 84.6028 229.321 84.7183 229.888 85.0915C230.418 85.4398 230.765 85.8582 230.931 86.3467C231.122 86.7974 231.304 87.2827 231.477 87.8026C231.534 87.9215 231.588 88.1063 231.64 88.357C231.812 88.8769 231.957 89.4189 232.073 89.983C232.221 90.5407 232.369 91.0984 232.516 91.656C232.587 92.0008 232.658 92.3455 232.729 92.6903C232.825 92.9972 232.909 93.3231 232.98 93.6678C232.987 93.8623 233.011 94.0536 233.049 94.2416C233.113 94.3919 233.161 94.5454 233.193 94.7021L234.027 98.745C234.059 98.9017 234.095 99.0741 234.134 99.2621C234.172 99.4502 234.239 99.6161 234.334 99.7599C234.341 99.7912 234.501 99.7746 234.814 99.7099C235.127 99.6453 235.3 99.6098 235.331 99.6033C235.626 99.6078 235.849 99.5783 235.999 99.5146L236.093 99.4952Z" fill="#FFF2D0"/>
<path d="M236.093 99.4952C236.25 99.4629 236.394 99.4495 236.526 99.455C236.689 99.454 236.849 99.4374 237.006 99.4051C237.169 99.4041 237.348 99.3999 237.542 99.3924C237.73 99.3537 237.921 99.3306 238.116 99.3231C238.474 99.3147 238.844 99.369 239.228 99.486C239.605 99.5716 239.907 99.7706 240.135 100.083C240.426 100.383 240.619 100.767 240.716 101.237C240.768 101.488 240.801 101.726 240.815 101.952C240.853 102.14 240.867 102.366 240.856 102.63C240.845 102.894 240.822 103.176 240.786 103.478C240.781 103.773 240.686 104.021 240.499 104.223C240.124 104.627 239.743 104.918 239.355 105.096C238.867 105.262 238.259 105.404 237.532 105.521C236.804 105.638 236.193 105.764 235.698 105.899C235.667 105.905 235.639 105.928 235.614 105.965L235.567 105.975L235.53 106.032L235.559 106.173C235.689 106.963 235.828 107.718 235.977 108.439C236.15 109.122 236.321 109.871 236.489 110.686C236.888 112.303 237.218 113.901 237.478 115.481L237.614 116.139C237.698 116.546 237.776 117.004 237.848 117.512C237.945 117.982 238.01 118.459 238.045 118.942C238.079 119.425 238.063 119.902 237.997 120.373C237.924 120.813 237.776 121.203 237.552 121.543C237.266 122.059 236.81 122.382 236.183 122.511C236.183 122.511 236.149 122.502 236.079 122.484C235.321 122.607 234.664 122.514 234.11 122.204C233.587 121.887 233.139 121.456 232.766 120.912C232.424 120.362 232.157 119.78 231.965 119.166C231.766 118.521 231.615 117.948 231.512 117.446L225.754 89.5217C225.747 89.4904 225.718 89.3494 225.667 89.0986C225.608 88.8166 225.575 88.4967 225.567 88.139C225.552 87.75 225.568 87.3546 225.616 86.9526C225.689 86.5129 225.825 86.1418 226.024 85.8394C226.198 85.5747 226.479 85.3534 226.867 85.1754C227.28 84.9595 227.659 84.8161 228.004 84.745C228.693 84.6028 229.321 84.7183 229.888 85.0915C230.418 85.4398 230.765 85.8582 230.931 86.3467C231.122 86.7974 231.304 87.2827 231.477 87.8026C231.534 87.9215 231.588 88.1063 231.64 88.357C231.812 88.8769 231.957 89.4189 232.073 89.983C232.221 90.5407 232.369 91.0984 232.516 91.656C232.587 92.0008 232.658 92.3455 232.729 92.6903C232.825 92.9972 232.909 93.3231 232.98 93.6678C232.987 93.8623 233.011 94.0536 233.049 94.2416C233.113 94.3919 233.161 94.5454 233.193 94.7021L234.027 98.745C234.059 98.9017 234.095 99.0741 234.134 99.2621C234.172 99.4502 234.239 99.6161 234.334 99.7599C234.341 99.7912 234.501 99.7746 234.814 99.7099C235.127 99.6453 235.3 99.6098 235.331 99.6033C235.626 99.6078 235.849 99.5783 235.999 99.5146L236.093 99.4952Z" fill="#577DB7"/>
</svg>

