<svg width="354" height="305" viewBox="0 0 354 305" fill="none" xmlns="http://www.w3.org/2000/svg">
<ellipse cx="150.5" cy="141" rx="134.5" ry="114" fill="#A8C6F3"/>
<path d="M54 54L59 52L166 116L289 94L289 100.5L297 104.5L271.5 230C217.1 199.6 166.5 200 148 204C118.8 180.8 52.8333 181.667 23.5 185L42.5 61L52.5 58L54 54Z" fill="white"/>
<path d="M163.646 112.854C144.399 53.6383 119.227 42.0608 58.5555 48.8435L41.4125 165.39C88.6562 149.428 113.507 141.533 147.86 202.68L163.646 112.854Z" fill="white" stroke="#FFB84E" stroke-width="3"/>
<path d="M147.759 202.987C115.032 162.645 93.8018 155.665 35.1392 170.526L53.9343 53.0002L58.4343 51.0003" stroke="#FFB84E" stroke-width="3"/>
<path d="M53.4342 55L48.9342 58.5002L29.4342 178.5C78.3678 166.51 110.198 163.999 147.259 204.486" stroke="#FFB84E" stroke-width="3"/>
<path d="M51.9342 58.0002L43.4342 60.5645L22.9342 186C73.3381 181.801 107.776 181.327 148.434 205" stroke="#FFB84E" stroke-width="6"/>
<path d="M28.8937 178.663C77.881 164.581 104.325 165.698 147.354 204.202" stroke="#FFB84E" stroke-width="3"/>
<path d="M28.8935 178.663C79.1815 170.806 105.43 173.506 145.506 202.942" stroke="#FFB84E" stroke-width="3"/>
<path d="M166.149 112.643C204.806 63.8312 232.434 61.7405 286.949 89.2198L262.448 204.444C223.716 173.034 203.168 156.982 149.677 202.345L166.149 112.643Z" fill="white" stroke="#FFB84E" stroke-width="3"/>
<path d="M149.665 202.668C194.388 176.242 216.721 177.09 266.541 211.443L289.834 94.7249L286.312 91.2835" stroke="#FFB84E" stroke-width="3"/>
<path d="M289.607 96.7738L292.607 101.622L269.113 220.904C227.414 192.629 198.449 179.194 149.612 204.247" stroke="#FFB84E" stroke-width="3"/>
<path d="M289.968 100.108L297.044 105.471L272.595 230.197C226.806 208.714 194.687 196.282 148.331 204.32" stroke="#FFB84E" stroke-width="6"/>
<path d="M269.563 221.245C228.542 190.99 203.363 182.831 149.622 203.949" stroke="#FFB84E" stroke-width="3"/>
<path d="M269.563 221.245C225.156 196.373 199.609 189.767 151.793 203.41" stroke="#FFB84E" stroke-width="3"/>
<path d="M117.583 117.697C117.648 117.949 117.691 118.202 117.713 118.457C117.775 118.666 117.818 118.919 117.844 119.216C117.889 119.727 117.781 120.207 117.52 120.658C117.412 120.882 117.26 121.109 117.066 121.34C116.869 121.529 116.627 121.7 116.34 121.853C115.33 122.541 114.222 122.852 113.017 122.787C112.407 122.669 111.851 122.439 111.35 122.097C111.258 122.019 111.19 121.983 111.148 121.986C111.102 121.947 111.054 121.887 111.004 121.806C110.957 121.767 110.911 121.729 110.865 121.69C110.815 121.609 110.746 121.55 110.657 121.515C110.426 121.321 110.239 121.145 110.097 120.986C109.951 120.785 109.805 120.583 109.659 120.382C109.555 120.177 109.432 119.995 109.29 119.836C109.186 119.631 109.061 119.428 108.915 119.226C108.815 119.064 108.717 118.922 108.621 118.802C108.521 118.64 108.442 118.475 108.385 118.309C108.182 117.941 108.046 117.611 107.977 117.317L106.365 114.31C103.432 114.566 100.501 114.844 97.5722 115.143C94.6819 115.396 91.7685 115.629 88.832 115.843L87.7663 119.084C87.6961 119.261 87.6472 119.437 87.6196 119.611C87.6345 119.781 87.6068 119.955 87.5367 120.132C87.4665 120.309 87.3964 120.487 87.3262 120.664C87.2949 120.796 87.2441 120.95 87.174 121.127C87.0651 121.351 86.9561 121.575 86.8472 121.798C86.7771 121.976 86.6875 122.176 86.5786 122.4C86.5122 122.62 86.4245 122.842 86.3156 123.065C86.2029 123.247 86.0496 123.453 85.8557 123.684C85.7744 123.734 85.7162 123.803 85.6811 123.892C85.6424 123.938 85.6036 123.984 85.5648 124.031C85.5297 124.119 85.4928 124.187 85.454 124.233C85.4115 124.237 85.3514 124.285 85.2739 124.377C84.8398 124.801 84.3326 125.123 83.7524 125.345C82.5772 125.62 81.4322 125.505 80.3176 125.003C80.0089 124.902 79.7409 124.775 79.5135 124.624C79.2824 124.43 79.0938 124.232 78.9477 124.031C78.613 123.632 78.4233 123.177 78.3787 122.667C78.3527 122.37 78.3304 122.115 78.3118 121.902C78.332 121.644 78.3522 121.385 78.3724 121.126C78.424 120.736 78.4968 120.344 78.5909 119.951C78.6849 119.557 78.732 119.36 78.732 119.36L89.139 85.557L89.4323 84.5034C89.495 84.241 89.5808 83.9979 89.6898 83.7742C89.7987 83.5505 89.8827 83.2862 89.9417 82.9813C90.1059 82.4101 90.2969 81.9009 90.5148 81.4535C90.62 81.1874 90.7483 80.9406 90.8997 80.7132C91.0512 80.4858 91.2026 80.2584 91.354 80.031C91.5793 79.6687 91.9165 79.3608 92.3654 79.1074C92.9419 78.8429 93.6127 78.6771 94.3778 78.6102C95.1854 78.5396 95.896 78.5845 96.5096 78.745C96.9957 78.9167 97.3812 79.1614 97.666 79.4791C97.9969 79.8356 98.3547 80.254 98.7394 80.7344C99.0316 81.1371 99.3081 81.6055 99.5689 82.1394C99.68 82.4295 99.8085 82.6753 99.9546 82.8767C100.101 83.078 100.227 83.3025 100.335 83.5501L100.806 84.5368L116.922 116.021C116.922 116.021 117.003 116.206 117.164 116.578C117.325 116.949 117.464 117.322 117.583 117.697ZM101.107 103.398C100.446 102.214 99.761 100.989 99.0507 99.7234C98.3829 98.4541 97.6708 97.1672 96.9143 95.8629C96.7108 95.4952 96.5073 95.1275 96.3039 94.7598C96.0967 94.3497 95.8914 93.9607 95.6879 93.5931C95.5938 93.9867 95.4804 94.4035 95.3475 94.8435C95.2109 95.2409 95.0744 95.6383 94.9378 96.0357C94.4192 97.4516 93.9199 98.8444 93.4401 100.214C93.0027 101.58 92.5617 102.903 92.1169 104.184L91.2146 107.09L102.5 106.103L101.107 103.398Z" fill="#FFF2D0"/>
<path d="M117.583 117.697C117.648 117.949 117.691 118.202 117.713 118.457C117.775 118.666 117.818 118.919 117.844 119.216C117.889 119.727 117.781 120.207 117.52 120.658C117.412 120.882 117.26 121.109 117.066 121.34C116.869 121.529 116.627 121.7 116.34 121.853C115.33 122.541 114.222 122.852 113.017 122.787C112.407 122.669 111.851 122.439 111.35 122.097C111.258 122.019 111.19 121.983 111.148 121.986C111.102 121.947 111.054 121.887 111.004 121.806C110.957 121.767 110.911 121.729 110.865 121.69C110.815 121.609 110.746 121.55 110.657 121.515C110.426 121.321 110.239 121.145 110.097 120.986C109.951 120.785 109.805 120.583 109.659 120.382C109.555 120.177 109.432 119.995 109.29 119.836C109.186 119.631 109.061 119.428 108.915 119.226C108.815 119.064 108.717 118.922 108.621 118.802C108.521 118.64 108.442 118.475 108.385 118.309C108.182 117.941 108.046 117.611 107.977 117.317L106.365 114.31C103.432 114.566 100.501 114.844 97.5722 115.143C94.6819 115.396 91.7685 115.629 88.832 115.843L87.7663 119.084C87.6961 119.261 87.6472 119.437 87.6196 119.611C87.6345 119.781 87.6068 119.955 87.5367 120.132C87.4665 120.309 87.3964 120.487 87.3262 120.664C87.2949 120.796 87.2441 120.95 87.174 121.127C87.0651 121.351 86.9561 121.575 86.8472 121.798C86.7771 121.976 86.6875 122.176 86.5786 122.4C86.5122 122.62 86.4245 122.842 86.3156 123.065C86.2029 123.247 86.0496 123.453 85.8557 123.684C85.7744 123.734 85.7162 123.803 85.6811 123.892C85.6424 123.938 85.6036 123.984 85.5648 124.031C85.5297 124.119 85.4928 124.187 85.454 124.233C85.4115 124.237 85.3514 124.285 85.2739 124.377C84.8398 124.801 84.3326 125.123 83.7524 125.345C82.5772 125.62 81.4322 125.505 80.3176 125.003C80.0089 124.902 79.7409 124.775 79.5135 124.624C79.2824 124.43 79.0938 124.232 78.9477 124.031C78.613 123.632 78.4233 123.177 78.3787 122.667C78.3527 122.37 78.3304 122.115 78.3118 121.902C78.332 121.644 78.3522 121.385 78.3724 121.126C78.424 120.736 78.4968 120.344 78.5909 119.951C78.6849 119.557 78.732 119.36 78.732 119.36L89.139 85.557L89.4323 84.5034C89.495 84.241 89.5808 83.9979 89.6898 83.7742C89.7987 83.5505 89.8827 83.2862 89.9417 82.9813C90.1059 82.4101 90.2969 81.9009 90.5148 81.4535C90.62 81.1874 90.7483 80.9406 90.8997 80.7132C91.0512 80.4858 91.2026 80.2584 91.354 80.031C91.5793 79.6687 91.9165 79.3608 92.3654 79.1074C92.9419 78.8429 93.6127 78.6771 94.3778 78.6102C95.1854 78.5396 95.896 78.5845 96.5096 78.745C96.9957 78.9167 97.3812 79.1614 97.666 79.4791C97.9969 79.8356 98.3547 80.254 98.7394 80.7344C99.0316 81.1371 99.3081 81.6055 99.5689 82.1394C99.68 82.4295 99.8085 82.6753 99.9546 82.8767C100.101 83.078 100.227 83.3025 100.335 83.5501L100.806 84.5368L116.922 116.021C116.922 116.021 117.003 116.206 117.164 116.578C117.325 116.949 117.464 117.322 117.583 117.697ZM101.107 103.398C100.446 102.214 99.761 100.989 99.0507 99.7234C98.3829 98.4541 97.6708 97.1672 96.9143 95.8629C96.7108 95.4952 96.5073 95.1275 96.3039 94.7598C96.0967 94.3497 95.8914 93.9607 95.6879 93.5931C95.5938 93.9867 95.4804 94.4035 95.3475 94.8435C95.2109 95.2409 95.0744 95.6383 94.9378 96.0357C94.4192 97.4516 93.9199 98.8444 93.4401 100.214C93.0027 101.58 92.5617 102.903 92.1169 104.184L91.2146 107.09L102.5 106.103L101.107 103.398Z" fill="#FFB84E"/>
<path d="M177.527 121.708C177.855 120.804 178.358 120.148 179.038 119.739C179.743 119.338 180.542 119.411 181.436 119.958C181.857 120.224 182.132 120.515 182.259 120.832C182.413 121.156 182.474 121.509 182.443 121.89C182.445 122.252 182.385 122.638 182.263 123.047C182.147 123.43 182.032 123.813 181.917 124.196L180.329 129.483C180.243 129.679 180.168 129.88 180.107 130.084C180.079 130.27 180.042 130.44 179.996 130.593L179.846 131.092L180.804 131.379C181.085 131.464 181.353 131.544 181.608 131.621C181.889 131.705 182.136 131.765 182.348 131.801C183.753 132.223 184.892 132.788 185.765 133.496C186.664 134.211 187.308 135.031 187.699 135.956C188.123 136.863 188.321 137.869 188.296 138.975C188.303 140.063 188.114 141.204 187.727 142.396C187.272 143.819 186.674 144.976 185.933 145.867C185.192 146.758 184.326 147.417 183.335 147.843C182.344 148.269 181.237 148.48 180.013 148.474C178.823 148.451 177.538 148.232 176.159 147.818C174.576 147.342 173.379 146.969 172.569 146.698C171.76 146.427 171.241 146.021 171.014 145.479C170.813 144.945 170.86 144.138 171.157 143.058C171.453 141.977 171.912 140.403 172.534 138.334C173.132 136.342 173.723 134.376 174.306 132.435C174.914 130.501 175.501 128.547 176.066 126.573C176.143 126.318 176.211 126.046 176.27 125.757C176.354 125.476 176.45 125.157 176.557 124.799C176.665 124.442 176.791 124.02 176.937 123.535C177.09 123.024 177.287 122.415 177.527 121.708ZM178.674 143.895C180.101 144.241 181.187 144.149 181.93 143.621C182.326 143.322 182.681 142.927 182.996 142.437C183.31 141.947 183.535 141.43 183.671 140.886C183.806 140.342 183.845 139.796 183.786 139.25C183.761 138.685 183.594 138.176 183.285 137.721C183.019 137.307 182.727 136.982 182.408 136.747C182.096 136.487 181.753 136.286 181.377 136.145C181.009 135.979 180.605 135.844 180.163 135.739C179.729 135.609 179.227 135.472 178.657 135.329L177.276 139.926L176.245 143.082C176.493 143.185 176.753 143.291 177.026 143.401C177.496 143.597 178.045 143.762 178.674 143.895Z" fill="#FFF2D0"/>
<path d="M177.527 121.708C177.855 120.804 178.358 120.148 179.038 119.739C179.743 119.338 180.542 119.411 181.436 119.958C181.857 120.224 182.132 120.515 182.259 120.832C182.413 121.156 182.474 121.509 182.443 121.89C182.445 122.252 182.385 122.638 182.263 123.047C182.147 123.43 182.032 123.813 181.917 124.196L180.329 129.483C180.243 129.679 180.168 129.88 180.107 130.084C180.079 130.27 180.042 130.44 179.996 130.593L179.846 131.092L180.804 131.379C181.085 131.464 181.353 131.544 181.608 131.621C181.889 131.705 182.136 131.765 182.348 131.801C183.753 132.223 184.892 132.788 185.765 133.496C186.664 134.211 187.308 135.031 187.699 135.956C188.123 136.863 188.321 137.869 188.296 138.975C188.303 140.063 188.114 141.204 187.727 142.396C187.272 143.819 186.674 144.976 185.933 145.867C185.192 146.758 184.326 147.417 183.335 147.843C182.344 148.269 181.237 148.48 180.013 148.474C178.823 148.451 177.538 148.232 176.159 147.818C174.576 147.342 173.379 146.969 172.569 146.698C171.76 146.427 171.241 146.021 171.014 145.479C170.813 144.945 170.86 144.138 171.157 143.058C171.453 141.977 171.912 140.403 172.534 138.334C173.132 136.342 173.723 134.376 174.306 132.435C174.914 130.501 175.501 128.547 176.066 126.573C176.143 126.318 176.211 126.046 176.27 125.757C176.354 125.476 176.45 125.157 176.557 124.799C176.665 124.442 176.791 124.02 176.937 123.535C177.09 123.024 177.287 122.415 177.527 121.708ZM178.674 143.895C180.101 144.241 181.187 144.149 181.93 143.621C182.326 143.322 182.681 142.927 182.996 142.437C183.31 141.947 183.535 141.43 183.671 140.886C183.806 140.342 183.845 139.796 183.786 139.25C183.761 138.685 183.594 138.176 183.285 137.721C183.019 137.307 182.727 136.982 182.408 136.747C182.096 136.487 181.753 136.286 181.377 136.145C181.009 135.979 180.605 135.844 180.163 135.739C179.729 135.609 179.227 135.472 178.657 135.329L177.276 139.926L176.245 143.082C176.493 143.185 176.753 143.291 177.026 143.401C177.496 143.597 178.045 143.762 178.674 143.895Z" fill="#FF6464"/>
<path d="M243.62 46.3166C244.002 46.5951 244.193 46.9326 244.192 47.329C244.201 47.7003 244.112 48.0653 243.927 48.4238C243.497 49.1479 242.9 49.4718 242.134 49.3955C241.696 49.3519 241.264 49.2536 240.837 49.1006C240.436 48.9565 240.017 48.8206 239.581 48.6927L236.462 57.3904C236.246 57.9928 235.988 58.5943 235.688 59.1948C235.607 59.4207 235.459 59.6367 235.243 59.8427C235.148 59.9502 235.083 60.012 235.049 60.0281C235.031 60.0783 234.979 60.1446 234.893 60.227C234.643 60.4491 234.361 60.603 234.047 60.6887C233.387 60.7919 232.77 60.6557 232.197 60.2801C231.847 60.0698 231.603 59.8407 231.466 59.593C231.303 59.3363 231.216 59.0644 231.206 58.7774C231.2 58.6339 231.208 58.4949 231.228 58.3604C231.248 58.2259 231.255 58.0868 231.25 57.9433C231.27 57.8088 231.285 57.6869 231.296 57.5775C231.341 57.452 231.377 57.3515 231.404 57.2762L232.187 55.0924C232.655 53.7871 233.141 52.4316 233.645 51.0259C234.174 49.6293 234.673 48.2783 235.141 46.973C234.573 46.7409 233.975 46.5123 233.347 46.2873C232.754 46.0461 232.369 45.738 232.192 45.3629C232.095 45.1582 232.062 44.934 232.093 44.6901C232.133 44.421 232.198 44.161 232.288 43.91C232.403 43.668 232.534 43.4601 232.681 43.2863C232.838 43.0874 232.996 42.9602 233.158 42.9048C233.592 42.7206 233.939 42.661 234.199 42.7259C234.494 42.7747 234.846 42.8585 235.257 42.9775C235.307 42.9955 235.47 43.054 235.746 43.153C236.056 43.2359 236.249 43.2909 236.324 43.3179C236.656 42.4734 236.987 41.629 237.318 40.7845C237.649 39.94 238.003 39.1889 238.381 38.5311C238.792 37.8571 239.231 37.3061 239.696 36.878C240.195 36.4337 240.796 36.1816 241.497 36.1215C242.342 36.0562 243.242 36.1524 244.198 36.4102C245.154 36.6679 245.954 37.0824 246.599 37.6537C246.906 37.9052 247.155 38.2777 247.346 38.7713C247.562 39.2738 247.577 39.7465 247.39 40.1893C247.203 40.6321 246.966 41.0148 246.681 41.3373C246.395 41.6599 245.979 41.7939 245.432 41.7393C245.188 41.7085 244.94 41.6481 244.689 41.5581C244.472 41.452 244.238 41.3539 243.987 41.2639C243.736 41.1739 243.484 41.1261 243.232 41.1203C243.013 41.0985 242.796 41.1485 242.583 41.2702C242.403 41.3758 242.243 41.5451 242.103 41.7781C241.988 42.0201 241.869 42.2747 241.744 42.5418C241.62 42.8089 241.509 43.0806 241.41 43.3567C241.345 43.6167 241.281 43.8345 241.218 44.0103L240.88 44.9516C241.44 45.2088 241.953 45.4355 242.421 45.6316C242.914 45.8367 243.314 46.0651 243.62 46.3166Z" fill="#FFF2D0"/>
<path d="M243.62 46.3166C244.002 46.5951 244.193 46.9326 244.192 47.329C244.201 47.7003 244.112 48.0653 243.927 48.4238C243.497 49.1479 242.9 49.4718 242.134 49.3955C241.696 49.3519 241.264 49.2536 240.837 49.1006C240.436 48.9565 240.017 48.8206 239.581 48.6927L236.462 57.3904C236.246 57.9928 235.988 58.5943 235.688 59.1948C235.607 59.4207 235.459 59.6367 235.243 59.8427C235.148 59.9502 235.083 60.012 235.049 60.0281C235.031 60.0783 234.979 60.1446 234.893 60.227C234.643 60.4491 234.361 60.603 234.047 60.6887C233.387 60.7919 232.77 60.6557 232.197 60.2801C231.847 60.0698 231.603 59.8407 231.466 59.593C231.303 59.3363 231.216 59.0644 231.206 58.7774C231.2 58.6339 231.208 58.4949 231.228 58.3604C231.248 58.2259 231.255 58.0868 231.25 57.9433C231.27 57.8088 231.285 57.6869 231.296 57.5775C231.341 57.452 231.377 57.3515 231.404 57.2762L232.187 55.0924C232.655 53.7871 233.141 52.4316 233.645 51.0259C234.174 49.6293 234.673 48.2783 235.141 46.973C234.573 46.7409 233.975 46.5123 233.347 46.2873C232.754 46.0461 232.369 45.738 232.192 45.3629C232.095 45.1582 232.062 44.934 232.093 44.6901C232.133 44.421 232.198 44.161 232.288 43.91C232.403 43.668 232.534 43.4601 232.681 43.2863C232.838 43.0874 232.996 42.9602 233.158 42.9048C233.592 42.7206 233.939 42.661 234.199 42.7259C234.494 42.7747 234.846 42.8585 235.257 42.9775C235.307 42.9955 235.47 43.054 235.746 43.153C236.056 43.2359 236.249 43.2909 236.324 43.3179C236.656 42.4734 236.987 41.629 237.318 40.7845C237.649 39.94 238.003 39.1889 238.381 38.5311C238.792 37.8571 239.231 37.3061 239.696 36.878C240.195 36.4337 240.796 36.1816 241.497 36.1215C242.342 36.0562 243.242 36.1524 244.198 36.4102C245.154 36.6679 245.954 37.0824 246.599 37.6537C246.906 37.9052 247.155 38.2777 247.346 38.7713C247.562 39.2738 247.577 39.7465 247.39 40.1893C247.203 40.6321 246.966 41.0148 246.681 41.3373C246.395 41.6599 245.979 41.7939 245.432 41.7393C245.188 41.7085 244.94 41.6481 244.689 41.5581C244.472 41.452 244.238 41.3539 243.987 41.2639C243.736 41.1739 243.484 41.1261 243.232 41.1203C243.013 41.0985 242.796 41.1485 242.583 41.2702C242.403 41.3758 242.243 41.5451 242.103 41.7781C241.988 42.0201 241.869 42.2747 241.744 42.5418C241.62 42.8089 241.509 43.0806 241.41 43.3567C241.345 43.6167 241.281 43.8345 241.218 44.0103L240.88 44.9516C241.44 45.2088 241.953 45.4355 242.421 45.6316C242.914 45.8367 243.314 46.0651 243.62 46.3166Z" fill="#FFD596"/>
<path d="M183.177 51.3566C183.482 51.9923 183.746 52.668 183.969 53.3835C184.212 54.091 184.416 54.7908 184.583 55.483C184.845 56.6895 184.927 57.9348 184.829 59.2191C184.73 60.5033 184.321 61.7302 183.6 62.8998C182.855 64.125 181.862 65.1637 180.62 66.016C179.37 66.8485 178.085 67.5683 176.766 68.1754C176.328 68.4003 175.868 68.5995 175.386 68.7731C174.931 68.9584 174.467 69.0903 173.992 69.1688C173.612 69.2546 173.301 69.2547 173.059 69.1692C172.936 69.1502 172.825 69.1035 172.725 69.0289C172.626 68.9543 172.536 68.8756 172.456 68.793C172.357 68.7184 172.267 68.6398 172.187 68.5571C172.119 68.4467 172.041 68.3402 171.953 68.2378C171.893 68.1471 171.837 68.0663 171.785 67.9953C171.745 67.8965 171.709 67.8077 171.676 67.7286L164.775 50.8099C164.719 50.6717 164.667 50.5433 164.618 50.4248C164.57 50.3062 164.541 50.1797 164.533 50.045C164.459 49.7524 164.426 49.501 164.432 49.291C164.415 49.0218 164.455 48.8095 164.553 48.6544C164.631 48.5073 164.721 48.3898 164.824 48.3019C164.918 48.1943 165.007 48.1006 165.089 48.0208C165.192 47.933 165.31 47.8846 165.445 47.8758C165.591 47.8392 165.727 47.7491 165.853 47.6056L170.85 45.7058C172.169 45.2136 173.46 45.0444 174.721 45.1982C175.973 45.3323 177.142 45.6849 178.228 46.2559C179.313 46.827 180.285 47.5711 181.143 48.4883C181.993 49.3858 182.671 50.3419 183.177 51.3566ZM179.962 59.2342C180.096 58.4886 180.094 57.6943 179.958 56.8514C179.821 56.0085 179.582 55.196 179.24 54.4139C178.89 53.6121 178.463 52.8762 177.959 52.2061C177.447 51.5163 176.893 50.9476 176.296 50.5C175.842 50.1783 175.341 49.9677 174.794 49.8684C174.247 49.7692 173.678 49.7592 173.088 49.8384C172.49 49.8979 171.873 50.023 171.237 50.2135C170.62 50.3959 170.025 50.604 169.452 50.8376C169.706 51.4024 169.941 51.9515 170.159 52.4848C170.376 53.0182 170.606 53.5811 170.848 54.1737C171.118 54.8929 171.39 55.5883 171.664 56.2599C171.938 56.9315 172.204 57.5834 172.462 58.2155L174.927 64.26C175.531 63.9905 176.102 63.7232 176.639 63.4581C177.188 63.1651 177.683 62.825 178.124 62.4378C178.585 62.0425 178.968 61.5981 179.273 61.1048C179.591 60.5837 179.82 59.9602 179.962 59.2342Z" fill="#FFF2D0"/>
<path d="M183.177 51.3566C183.482 51.9923 183.746 52.668 183.969 53.3835C184.212 54.091 184.416 54.7908 184.583 55.483C184.845 56.6895 184.927 57.9348 184.829 59.2191C184.73 60.5033 184.321 61.7302 183.6 62.8998C182.855 64.125 181.862 65.1637 180.62 66.016C179.37 66.8485 178.085 67.5683 176.766 68.1754C176.328 68.4003 175.868 68.5995 175.386 68.7731C174.931 68.9584 174.467 69.0903 173.992 69.1688C173.612 69.2546 173.301 69.2547 173.059 69.1692C172.936 69.1502 172.825 69.1035 172.725 69.0289C172.626 68.9543 172.536 68.8756 172.456 68.793C172.357 68.7184 172.267 68.6398 172.187 68.5571C172.119 68.4467 172.041 68.3402 171.953 68.2378C171.893 68.1471 171.837 68.0663 171.785 67.9953C171.745 67.8965 171.709 67.8077 171.676 67.7286L164.775 50.8099C164.719 50.6717 164.667 50.5433 164.618 50.4248C164.57 50.3062 164.541 50.1797 164.533 50.045C164.459 49.7524 164.426 49.501 164.432 49.291C164.415 49.0218 164.455 48.8095 164.553 48.6544C164.631 48.5073 164.721 48.3898 164.824 48.3019C164.918 48.1943 165.007 48.1006 165.089 48.0208C165.192 47.933 165.31 47.8846 165.445 47.8758C165.591 47.8392 165.727 47.7491 165.853 47.6056L170.85 45.7058C172.169 45.2136 173.46 45.0444 174.721 45.1982C175.973 45.3323 177.142 45.6849 178.228 46.2559C179.313 46.827 180.285 47.5711 181.143 48.4883C181.993 49.3858 182.671 50.3419 183.177 51.3566ZM179.962 59.2342C180.096 58.4886 180.094 57.6943 179.958 56.8514C179.821 56.0085 179.582 55.196 179.24 54.4139C178.89 53.6121 178.463 52.8762 177.959 52.2061C177.447 51.5163 176.893 50.9476 176.296 50.5C175.842 50.1783 175.341 49.9677 174.794 49.8684C174.247 49.7692 173.678 49.7592 173.088 49.8384C172.49 49.8979 171.873 50.023 171.237 50.2135C170.62 50.3959 170.025 50.604 169.452 50.8376C169.706 51.4024 169.941 51.9515 170.159 52.4848C170.376 53.0182 170.606 53.5811 170.848 54.1737C171.118 54.8929 171.39 55.5883 171.664 56.2599C171.938 56.9315 172.204 57.5834 172.462 58.2155L174.927 64.26C175.531 63.9905 176.102 63.7232 176.639 63.4581C177.188 63.1651 177.683 62.825 178.124 62.4378C178.585 62.0425 178.968 61.5981 179.273 61.1048C179.591 60.5837 179.82 59.9602 179.962 59.2342Z" fill="#081F5C"/>
<path d="M133.421 12.3704L131.847 17.142L133.068 17.5274C133.908 17.7705 134.654 17.9948 135.305 18.2003C135.956 18.4059 136.675 18.6441 137.462 18.915L137.615 18.9631C137.859 19.0402 138.089 19.1243 138.307 19.2153C138.551 19.2924 138.785 19.3662 139.009 19.4369C139.246 19.5343 139.467 19.6489 139.672 19.7806C139.883 19.8919 140.091 20.0134 140.295 20.1451C140.602 20.3764 140.829 20.6494 140.976 20.9642C141.096 21.2929 141.105 21.62 141.002 21.9455C140.97 22.0472 140.931 22.1693 140.886 22.3117C140.848 22.4337 140.792 22.5392 140.719 22.6281C140.608 22.839 140.411 23.0007 140.13 23.1131C139.983 23.2234 139.758 23.2641 139.454 23.2352C139.163 23.233 138.883 23.2004 138.612 23.1372C138.308 23.1083 138.014 23.0489 137.729 22.9589L136.295 22.5061L130.64 20.754L128.69 26.7156L134.743 28.6941L136.177 29.147C136.34 29.1984 136.493 29.2466 136.635 29.2916C136.778 29.3365 136.907 29.3885 137.022 29.4473C137.172 29.5394 137.305 29.6149 137.42 29.6738C137.563 29.7187 137.689 29.7808 137.798 29.8601C138.016 30.0185 138.184 30.1947 138.302 30.3885C138.441 30.6561 138.506 30.9115 138.497 31.1545C138.485 31.2627 138.46 31.3778 138.421 31.4998C138.409 31.608 138.374 31.7199 138.315 31.8355C138.212 32.161 138.017 32.4238 137.73 32.6241C137.396 32.8318 137.054 32.9249 136.703 32.9035C136.218 32.9517 135.721 32.8955 135.212 32.7349C134.982 32.6846 134.745 32.6209 134.501 32.5438C134.257 32.4667 134.019 32.403 133.789 32.3527L133.606 32.2949C132.007 31.8345 130.359 31.3142 128.663 30.7339C128.256 30.6054 127.934 30.4925 127.696 30.3951C127.452 30.318 127.228 30.2473 127.025 30.1831C126.842 30.1253 126.648 30.0642 126.445 30C126.241 29.9358 125.977 29.8522 125.651 29.7495C125.171 29.6424 124.81 29.439 124.569 29.1392C124.39 28.9261 124.278 28.6783 124.233 28.3956C124.192 28.3153 124.18 28.2446 124.2 28.1836C124.192 28.1365 124.181 28.0996 124.167 28.0728C124.154 28.046 124.143 28.0091 124.135 27.962C124.127 27.8474 124.128 27.7361 124.14 27.6279C124.158 27.4994 124.183 27.3843 124.216 27.2826C124.227 27.1745 124.239 27.0663 124.251 26.9582C124.283 26.8565 124.305 26.7516 124.317 26.6434L124.471 26.1552C124.497 26.0738 124.522 25.9924 124.548 25.9111C124.594 25.8361 124.63 25.758 124.656 25.6766L125.407 23.2964L126.856 18.9216L128.137 14.8631C128.369 14.1307 128.574 13.4798 128.754 12.9101C128.954 12.347 129.171 11.7329 129.403 11.068L129.451 10.9154C129.542 10.6981 129.616 10.4979 129.674 10.3148C129.759 10.1178 129.833 9.91755 129.897 9.71412C130.046 9.31368 130.283 8.95232 130.609 8.63004C130.742 8.49298 130.868 8.37628 130.988 8.27991C131.128 8.18997 131.293 8.13001 131.481 8.10003C131.844 8.0133 132.188 8.02132 132.514 8.1241C132.676 8.17549 132.795 8.22421 132.87 8.27024L132.88 8.23973C133.246 8.35536 133.541 8.4485 133.765 8.51917C133.989 8.58983 134.202 8.65728 134.406 8.72151C134.629 8.79218 134.863 8.86605 135.107 8.94314C135.358 8.99988 135.697 9.0957 136.124 9.2306C136.944 9.46721 137.72 9.70114 138.453 9.9324C139.185 10.1637 139.935 10.4115 140.701 10.6759L140.823 10.7145C141.041 10.8055 141.271 10.8895 141.516 10.9666C141.76 11.0437 141.99 11.1278 142.208 11.2188C142.432 11.2894 142.646 11.3906 142.85 11.5223C143.061 11.6336 143.266 11.7653 143.464 11.9174C143.777 12.1283 144.008 12.3911 144.154 12.7059C144.247 13.0485 144.249 13.3622 144.159 13.6471C144.121 13.7691 144.082 13.8912 144.043 14.0132C144.011 14.1149 143.959 14.2102 143.886 14.2991C143.802 14.4961 143.612 14.6712 143.318 14.8243C143.223 14.8393 143.116 14.8612 142.995 14.8901C142.894 14.9255 142.776 14.9442 142.641 14.9464C142.507 14.9485 142.365 14.9373 142.216 14.9126C142.094 14.8741 141.969 14.8457 141.84 14.8275C141.664 14.8168 141.505 14.789 141.363 14.744C141.241 14.7055 141.099 14.6605 140.936 14.6091L139.563 14.1755L133.45 12.2789L133.421 12.3704Z" fill="#FFF2D0"/>
<path d="M133.421 12.3704L131.847 17.142L133.068 17.5274C133.908 17.7705 134.654 17.9948 135.305 18.2003C135.956 18.4059 136.675 18.6441 137.462 18.915L137.615 18.9631C137.859 19.0402 138.089 19.1243 138.307 19.2153C138.551 19.2924 138.785 19.3662 139.009 19.4369C139.246 19.5343 139.467 19.6489 139.672 19.7806C139.883 19.8919 140.091 20.0134 140.295 20.1451C140.602 20.3764 140.829 20.6494 140.976 20.9642C141.096 21.2929 141.105 21.62 141.002 21.9455C140.97 22.0472 140.931 22.1693 140.886 22.3117C140.848 22.4337 140.792 22.5392 140.719 22.6281C140.608 22.839 140.411 23.0007 140.13 23.1131C139.983 23.2234 139.758 23.2641 139.454 23.2352C139.163 23.233 138.883 23.2004 138.612 23.1372C138.308 23.1083 138.014 23.0489 137.729 22.9589L136.295 22.5061L130.64 20.754L128.69 26.7156L134.743 28.6941L136.177 29.147C136.34 29.1984 136.493 29.2466 136.635 29.2916C136.778 29.3365 136.907 29.3885 137.022 29.4473C137.172 29.5394 137.305 29.6149 137.42 29.6738C137.563 29.7187 137.689 29.7808 137.798 29.8601C138.016 30.0185 138.184 30.1947 138.302 30.3885C138.441 30.6561 138.506 30.9115 138.497 31.1545C138.485 31.2627 138.46 31.3778 138.421 31.4998C138.409 31.608 138.374 31.7199 138.315 31.8355C138.212 32.161 138.017 32.4238 137.73 32.6241C137.396 32.8318 137.054 32.9249 136.703 32.9035C136.218 32.9517 135.721 32.8955 135.212 32.7349C134.982 32.6846 134.745 32.6209 134.501 32.5438C134.257 32.4667 134.019 32.403 133.789 32.3527L133.606 32.2949C132.007 31.8345 130.359 31.3142 128.663 30.7339C128.256 30.6054 127.934 30.4925 127.696 30.3951C127.452 30.318 127.228 30.2473 127.025 30.1831C126.842 30.1253 126.648 30.0642 126.445 30C126.241 29.9358 125.977 29.8522 125.651 29.7495C125.171 29.6424 124.81 29.439 124.569 29.1392C124.39 28.9261 124.278 28.6783 124.233 28.3956C124.192 28.3153 124.18 28.2446 124.2 28.1836C124.192 28.1365 124.181 28.0996 124.167 28.0728C124.154 28.046 124.143 28.0091 124.135 27.962C124.127 27.8474 124.128 27.7361 124.14 27.6279C124.158 27.4994 124.183 27.3843 124.216 27.2826C124.227 27.1745 124.239 27.0663 124.251 26.9582C124.283 26.8565 124.305 26.7516 124.317 26.6434L124.471 26.1552C124.497 26.0738 124.522 25.9924 124.548 25.9111C124.594 25.8361 124.63 25.758 124.656 25.6766L125.407 23.2964L126.856 18.9216L128.137 14.8631C128.369 14.1307 128.574 13.4798 128.754 12.9101C128.954 12.347 129.171 11.7329 129.403 11.068L129.451 10.9154C129.542 10.6981 129.616 10.4979 129.674 10.3148C129.759 10.1178 129.833 9.91755 129.897 9.71412C130.046 9.31368 130.283 8.95232 130.609 8.63004C130.742 8.49298 130.868 8.37628 130.988 8.27991C131.128 8.18997 131.293 8.13001 131.481 8.10003C131.844 8.0133 132.188 8.02132 132.514 8.1241C132.676 8.17549 132.795 8.22421 132.87 8.27024L132.88 8.23973C133.246 8.35536 133.541 8.4485 133.765 8.51917C133.989 8.58983 134.202 8.65728 134.406 8.72151C134.629 8.79218 134.863 8.86605 135.107 8.94314C135.358 8.99988 135.697 9.0957 136.124 9.2306C136.944 9.46721 137.72 9.70114 138.453 9.9324C139.185 10.1637 139.935 10.4115 140.701 10.6759L140.823 10.7145C141.041 10.8055 141.271 10.8895 141.516 10.9666C141.76 11.0437 141.99 11.1278 142.208 11.2188C142.432 11.2894 142.646 11.3906 142.85 11.5223C143.061 11.6336 143.266 11.7653 143.464 11.9174C143.777 12.1283 144.008 12.3911 144.154 12.7059C144.247 13.0485 144.249 13.3622 144.159 13.6471C144.121 13.7691 144.082 13.8912 144.043 14.0132C144.011 14.1149 143.959 14.2102 143.886 14.2991C143.802 14.4961 143.612 14.6712 143.318 14.8243C143.223 14.8393 143.116 14.8612 142.995 14.8901C142.894 14.9255 142.776 14.9442 142.641 14.9464C142.507 14.9485 142.365 14.9373 142.216 14.9126C142.094 14.8741 141.969 14.8457 141.84 14.8275C141.664 14.8168 141.505 14.789 141.363 14.744C141.241 14.7055 141.099 14.6605 140.936 14.6091L139.563 14.1755L133.45 12.2789L133.421 12.3704Z" fill="#FF6464"/>
<path d="M240.035 111.719C240.63 112.544 240.83 113.434 240.635 114.389C240.433 115.313 239.999 116.219 239.333 117.108C238.667 117.997 237.856 118.817 236.9 119.57C235.976 120.316 235.066 120.896 234.171 121.309C233.182 121.742 232.104 122.062 230.938 122.27C229.81 122.502 228.637 122.597 227.419 122.554C226.239 122.536 225.049 122.389 223.849 122.114C222.673 121.801 221.554 121.362 220.49 120.797C219.205 120.115 218.12 119.211 217.235 118.087C216.375 116.925 215.655 115.652 215.075 114.268C214.496 112.885 214.042 111.475 213.714 110.04C213.41 108.567 213.172 107.178 213.002 105.874C212.856 104.695 212.843 103.44 212.96 102.109C213.078 100.778 213.343 99.4487 213.756 98.1221C214.193 96.7576 214.775 95.4613 215.502 94.2332C216.26 92.9986 217.208 91.8884 218.344 90.9026C219.199 90.1382 220.203 89.5391 221.355 89.1055C222.532 88.6341 223.745 88.335 224.993 88.2084C226.266 88.0439 227.496 88.0679 228.684 88.2805C229.896 88.4553 230.968 88.8223 231.9 89.3816C232.492 89.717 233.135 90.2215 233.83 90.8951C234.555 91.5623 235.128 92.2775 235.546 93.0406C235.965 93.8038 236.123 94.5716 236.021 95.3442C235.944 96.0789 235.414 96.6783 234.432 97.1423C234.019 97.3581 233.633 97.4702 233.276 97.4786C232.912 97.4557 232.569 97.3793 232.248 97.2494C231.921 97.0882 231.603 96.8924 231.294 96.662C230.985 96.4317 230.692 96.1981 230.414 95.9612C229.475 95.2074 228.471 94.7773 227.404 94.6707C226.33 94.5327 225.311 94.6612 224.347 95.056C223.407 95.413 222.567 96.0111 221.825 96.8502C221.108 97.6515 220.618 98.6021 220.355 99.7019C220.073 100.871 219.908 102.13 219.859 103.48C219.836 104.792 219.944 106.109 220.184 107.432C220.418 108.723 220.786 109.954 221.289 111.125C221.823 112.289 222.516 113.273 223.368 114.078C224.024 114.726 224.762 115.211 225.579 115.533C226.428 115.848 227.296 116.012 228.18 116.026C229.065 116.039 229.918 115.896 230.738 115.596C231.59 115.29 232.378 114.833 233.103 114.227C233.327 114.05 233.558 113.822 233.795 113.545C234.057 113.229 234.319 112.914 234.58 112.599C234.842 112.283 235.107 111.984 235.375 111.7C235.675 111.409 236.003 111.178 236.359 111.007C236.885 110.702 237.499 110.592 238.202 110.676C238.937 110.753 239.548 111.101 240.035 111.719Z" fill="#FFF2D0"/>
<path d="M240.035 111.719C240.63 112.544 240.83 113.434 240.635 114.389C240.433 115.313 239.999 116.219 239.333 117.108C238.667 117.997 237.856 118.817 236.9 119.57C235.976 120.316 235.066 120.896 234.171 121.309C233.182 121.742 232.104 122.062 230.938 122.27C229.81 122.502 228.637 122.597 227.419 122.554C226.239 122.536 225.049 122.389 223.849 122.114C222.673 121.801 221.554 121.362 220.49 120.797C219.205 120.115 218.12 119.211 217.235 118.087C216.375 116.925 215.655 115.652 215.075 114.268C214.496 112.885 214.042 111.475 213.714 110.04C213.41 108.567 213.172 107.178 213.002 105.874C212.856 104.695 212.843 103.44 212.96 102.109C213.078 100.778 213.343 99.4487 213.756 98.1221C214.193 96.7576 214.775 95.4613 215.502 94.2332C216.26 92.9986 217.208 91.8884 218.344 90.9026C219.199 90.1382 220.203 89.5391 221.355 89.1055C222.532 88.6341 223.745 88.335 224.993 88.2084C226.266 88.0439 227.496 88.0679 228.684 88.2805C229.896 88.4553 230.968 88.8223 231.9 89.3816C232.492 89.717 233.135 90.2215 233.83 90.8951C234.555 91.5623 235.128 92.2775 235.546 93.0406C235.965 93.8038 236.123 94.5716 236.021 95.3442C235.944 96.0789 235.414 96.6783 234.432 97.1423C234.019 97.3581 233.633 97.4702 233.276 97.4786C232.912 97.4557 232.569 97.3793 232.248 97.2494C231.921 97.0882 231.603 96.8924 231.294 96.662C230.985 96.4317 230.692 96.1981 230.414 95.9612C229.475 95.2074 228.471 94.7773 227.404 94.6707C226.33 94.5327 225.311 94.6612 224.347 95.056C223.407 95.413 222.567 96.0111 221.825 96.8502C221.108 97.6515 220.618 98.6021 220.355 99.7019C220.073 100.871 219.908 102.13 219.859 103.48C219.836 104.792 219.944 106.109 220.184 107.432C220.418 108.723 220.786 109.954 221.289 111.125C221.823 112.289 222.516 113.273 223.368 114.078C224.024 114.726 224.762 115.211 225.579 115.533C226.428 115.848 227.296 116.012 228.18 116.026C229.065 116.039 229.918 115.896 230.738 115.596C231.59 115.29 232.378 114.833 233.103 114.227C233.327 114.05 233.558 113.822 233.795 113.545C234.057 113.229 234.319 112.914 234.58 112.599C234.842 112.283 235.107 111.984 235.375 111.7C235.675 111.409 236.003 111.178 236.359 111.007C236.885 110.702 237.499 110.592 238.202 110.676C238.937 110.753 239.548 111.101 240.035 111.719Z" fill="#577DB7"/>
</svg>

