<svg width="340" height="246" viewBox="0 0 340 246" fill="none" xmlns="http://www.w3.org/2000/svg">
<rect x="39" y="18" width="283.014" height="197.488" rx="7" fill="#7096D1"/>
<rect x="51.4402" y="30.4402" width="258.134" height="171.053" rx="5" fill="white"/>
<rect x="98.0909" y="227.928" width="166.388" height="17.1053" rx="8.55263" fill="#7096D1"/>
<rect x="152.517" y="213.933" width="59.0909" height="18.6603" fill="#7096D1"/>
<rect x="164.95" y="102.596" width="133.34" height="88.4039" fill="#D0E3FF"/>
<rect x="170.85" y="168.268" width="122.13" height="17.6808" fill="white"/>
<path d="M256.705 127.351C253.955 124.516 249.405 124.516 246.655 127.351L213.124 161.919C208.818 166.359 211.964 173.793 218.149 173.793H285.211C291.396 173.793 294.542 166.359 290.236 161.919L256.705 127.351Z" fill="white"/>
<path d="M210.456 139.605C206.532 135.585 200.068 135.585 196.144 139.605L178.581 157.597C172.398 163.931 176.885 174.582 185.737 174.582H220.863C229.714 174.582 234.202 163.931 228.019 157.597L210.456 139.605Z" fill="white"/>
<ellipse cx="193.565" cy="123.118" rx="8.555" ry="9.15612" fill="white"/>
<rect x="227" width="113" height="77" rx="20" fill="#FF5151"/>
<rect y="114" width="182" height="92" rx="20" fill="#FFE0B2"/>
<path d="M307 38L272.5 57.9186L272.5 18.0814L307 38Z" fill="white"/>
<path d="M27.425 149.3C27.4417 149.4 27.45 149.5 27.45 149.6C27.4667 149.683 27.475 149.783 27.475 149.9C27.475 150.1 27.4167 150.283 27.3 150.45C27.25 150.533 27.1833 150.617 27.1 150.7C27.0167 150.767 26.9167 150.825 26.8 150.875C26.3833 151.108 25.9417 151.192 25.475 151.125C25.2417 151.058 25.0333 150.95 24.85 150.8C24.8167 150.767 24.7917 150.75 24.775 150.75C24.7583 150.733 24.7417 150.708 24.725 150.675C24.7083 150.658 24.6917 150.642 24.675 150.625C24.6583 150.592 24.6333 150.567 24.6 150.55C24.5167 150.467 24.45 150.392 24.4 150.325C24.35 150.242 24.3 150.158 24.25 150.075C24.2167 149.992 24.175 149.917 24.125 149.85C24.0917 149.767 24.05 149.683 24 149.6C23.9667 149.533 23.9333 149.475 23.9 149.425C23.8667 149.358 23.8417 149.292 23.825 149.225C23.7583 149.075 23.7167 148.942 23.7 148.825L23.175 147.6C22.025 147.6 20.875 147.608 19.725 147.625C18.5917 147.625 17.45 147.617 16.3 147.6L15.775 148.825C15.7417 148.892 15.7167 148.958 15.7 149.025C15.7 149.092 15.6833 149.158 15.65 149.225C15.6167 149.292 15.5833 149.358 15.55 149.425C15.5333 149.475 15.5083 149.533 15.475 149.6C15.425 149.683 15.375 149.767 15.325 149.85C15.2917 149.917 15.25 149.992 15.2 150.075C15.1667 150.158 15.125 150.242 15.075 150.325C15.025 150.392 14.9583 150.467 14.875 150.55C14.8417 150.567 14.8167 150.592 14.8 150.625C14.7833 150.642 14.7667 150.658 14.75 150.675C14.7333 150.708 14.7167 150.733 14.7 150.75C14.6833 150.75 14.6583 150.767 14.625 150.8C14.4417 150.95 14.2333 151.058 14 151.125C13.5333 151.192 13.0917 151.108 12.675 150.875C12.5583 150.825 12.4583 150.767 12.375 150.7C12.2917 150.617 12.225 150.533 12.175 150.45C12.0583 150.283 12 150.1 12 149.9C12 149.783 12 149.683 12 149.6C12.0167 149.5 12.0333 149.4 12.05 149.3C12.0833 149.15 12.125 149 12.175 148.85C12.225 148.7 12.25 148.625 12.25 148.625L17.45 135.825L17.6 135.425C17.6333 135.325 17.675 135.233 17.725 135.15C17.775 135.067 17.8167 134.967 17.85 134.85C17.9333 134.633 18.025 134.442 18.125 134.275C18.175 134.175 18.2333 134.083 18.3 134C18.3667 133.917 18.4333 133.833 18.5 133.75C18.6 133.617 18.7417 133.508 18.925 133.425C19.1583 133.342 19.425 133.3 19.725 133.3C20.0417 133.3 20.3167 133.342 20.55 133.425C20.7333 133.508 20.875 133.617 20.975 133.75C21.0917 133.9 21.2167 134.075 21.35 134.275C21.45 134.442 21.5417 134.633 21.625 134.85C21.6583 134.967 21.7 135.067 21.75 135.15C21.8 135.233 21.8417 135.325 21.875 135.425L22.025 135.825L27.225 148.625C27.225 148.625 27.25 148.7 27.3 148.85C27.35 149 27.3917 149.15 27.425 149.3ZM21.5 143.175C21.2833 142.692 21.0583 142.192 20.825 141.675C20.6083 141.158 20.375 140.633 20.125 140.1C20.0583 139.95 19.9917 139.8 19.925 139.65C19.8583 139.483 19.7917 139.325 19.725 139.175C19.675 139.325 19.6167 139.483 19.55 139.65C19.4833 139.8 19.4167 139.95 19.35 140.1C19.1 140.633 18.8583 141.158 18.625 141.675C18.4083 142.192 18.1917 142.692 17.975 143.175L17.525 144.275H21.95L21.5 143.175Z" fill="#FFF2D0"/>
<path d="M27.425 149.3C27.4417 149.4 27.45 149.5 27.45 149.6C27.4667 149.683 27.475 149.783 27.475 149.9C27.475 150.1 27.4167 150.283 27.3 150.45C27.25 150.533 27.1833 150.617 27.1 150.7C27.0167 150.767 26.9167 150.825 26.8 150.875C26.3833 151.108 25.9417 151.192 25.475 151.125C25.2417 151.058 25.0333 150.95 24.85 150.8C24.8167 150.767 24.7917 150.75 24.775 150.75C24.7583 150.733 24.7417 150.708 24.725 150.675C24.7083 150.658 24.6917 150.642 24.675 150.625C24.6583 150.592 24.6333 150.567 24.6 150.55C24.5167 150.467 24.45 150.392 24.4 150.325C24.35 150.242 24.3 150.158 24.25 150.075C24.2167 149.992 24.175 149.917 24.125 149.85C24.0917 149.767 24.05 149.683 24 149.6C23.9667 149.533 23.9333 149.475 23.9 149.425C23.8667 149.358 23.8417 149.292 23.825 149.225C23.7583 149.075 23.7167 148.942 23.7 148.825L23.175 147.6C22.025 147.6 20.875 147.608 19.725 147.625C18.5917 147.625 17.45 147.617 16.3 147.6L15.775 148.825C15.7417 148.892 15.7167 148.958 15.7 149.025C15.7 149.092 15.6833 149.158 15.65 149.225C15.6167 149.292 15.5833 149.358 15.55 149.425C15.5333 149.475 15.5083 149.533 15.475 149.6C15.425 149.683 15.375 149.767 15.325 149.85C15.2917 149.917 15.25 149.992 15.2 150.075C15.1667 150.158 15.125 150.242 15.075 150.325C15.025 150.392 14.9583 150.467 14.875 150.55C14.8417 150.567 14.8167 150.592 14.8 150.625C14.7833 150.642 14.7667 150.658 14.75 150.675C14.7333 150.708 14.7167 150.733 14.7 150.75C14.6833 150.75 14.6583 150.767 14.625 150.8C14.4417 150.95 14.2333 151.058 14 151.125C13.5333 151.192 13.0917 151.108 12.675 150.875C12.5583 150.825 12.4583 150.767 12.375 150.7C12.2917 150.617 12.225 150.533 12.175 150.45C12.0583 150.283 12 150.1 12 149.9C12 149.783 12 149.683 12 149.6C12.0167 149.5 12.0333 149.4 12.05 149.3C12.0833 149.15 12.125 149 12.175 148.85C12.225 148.7 12.25 148.625 12.25 148.625L17.45 135.825L17.6 135.425C17.6333 135.325 17.675 135.233 17.725 135.15C17.775 135.067 17.8167 134.967 17.85 134.85C17.9333 134.633 18.025 134.442 18.125 134.275C18.175 134.175 18.2333 134.083 18.3 134C18.3667 133.917 18.4333 133.833 18.5 133.75C18.6 133.617 18.7417 133.508 18.925 133.425C19.1583 133.342 19.425 133.3 19.725 133.3C20.0417 133.3 20.3167 133.342 20.55 133.425C20.7333 133.508 20.875 133.617 20.975 133.75C21.0917 133.9 21.2167 134.075 21.35 134.275C21.45 134.442 21.5417 134.633 21.625 134.85C21.6583 134.967 21.7 135.067 21.75 135.15C21.8 135.233 21.8417 135.325 21.875 135.425L22.025 135.825L27.225 148.625C27.225 148.625 27.25 148.7 27.3 148.85C27.35 149 27.3917 149.15 27.425 149.3ZM21.5 143.175C21.2833 142.692 21.0583 142.192 20.825 141.675C20.6083 141.158 20.375 140.633 20.125 140.1C20.0583 139.95 19.9917 139.8 19.925 139.65C19.8583 139.483 19.7917 139.325 19.725 139.175C19.675 139.325 19.6167 139.483 19.55 139.65C19.4833 139.8 19.4167 139.95 19.35 140.1C19.1 140.633 18.8583 141.158 18.625 141.675C18.4083 142.192 18.1917 142.692 17.975 143.175L17.525 144.275H21.95L21.5 143.175Z" fill="#FFB84E"/>
<path d="M36.4805 139.75C36.9638 139.95 37.4055 140.242 37.8055 140.625C38.2055 140.992 38.5471 141.417 38.8305 141.9C39.1305 142.383 39.3555 142.908 39.5055 143.475C39.6721 144.025 39.7555 144.583 39.7555 145.15C39.7721 146 39.5721 146.8 39.1555 147.55C38.7555 148.3 38.0971 148.875 37.1805 149.275C36.4805 149.558 35.7555 149.775 35.0055 149.925C34.2721 150.058 33.5055 150.15 32.7055 150.2V154.775C32.7055 154.875 32.6888 154.967 32.6555 155.05C32.6388 155.133 32.6305 155.217 32.6305 155.3C32.5971 155.467 32.5555 155.617 32.5055 155.75C32.4721 155.883 32.4221 156.025 32.3555 156.175C32.2888 156.275 32.2221 156.367 32.1555 156.45C32.0888 156.533 32.0138 156.617 31.9305 156.7C31.5305 156.9 31.1138 156.942 30.6805 156.825C30.4138 156.808 30.1971 156.725 30.0305 156.575C29.8805 156.425 29.7721 156.267 29.7055 156.1C29.6388 155.933 29.5805 155.742 29.5305 155.525C29.5138 155.442 29.4971 155.358 29.4805 155.275C29.4805 155.208 29.4805 155.133 29.4805 155.05V141.125C29.4805 141.025 29.4805 140.925 29.4805 140.825C29.4971 140.708 29.5138 140.592 29.5305 140.475C29.5471 140.275 29.5971 140.075 29.6805 139.875C29.8305 139.458 30.1388 139.175 30.6055 139.025C31.0721 138.875 31.5971 138.808 32.1805 138.825C32.5805 138.842 32.9888 138.883 33.4055 138.95C33.8388 139.017 34.2471 139.1 34.6305 139.2C35.0305 139.283 35.3888 139.375 35.7055 139.475C36.0221 139.575 36.2805 139.667 36.4805 139.75ZM36.5305 145.15C36.5971 144.683 36.5388 144.292 36.3555 143.975C36.1888 143.642 35.9471 143.375 35.6305 143.175C35.3138 142.958 34.9471 142.792 34.5305 142.675C34.1305 142.558 33.7305 142.475 33.3305 142.425C33.2805 142.408 33.1971 142.4 33.0805 142.4C32.9805 142.4 32.8638 142.4 32.7305 142.4C32.7305 142.933 32.7305 143.45 32.7305 143.95C32.7471 144.433 32.7471 144.958 32.7305 145.525V147.2C33.1138 147.183 33.5138 147.142 33.9305 147.075C34.3638 147.008 34.7638 146.9 35.1305 146.75C35.4971 146.6 35.8055 146.4 36.0555 146.15C36.3221 145.9 36.4805 145.567 36.5305 145.15ZM48.7852 139.75C49.2685 139.95 49.7102 140.242 50.1102 140.625C50.5102 140.992 50.8518 141.417 51.1352 141.9C51.4352 142.383 51.6602 142.908 51.8102 143.475C51.9768 144.025 52.0602 144.583 52.0602 145.15C52.0768 146 51.8768 146.8 51.4602 147.55C51.0602 148.3 50.4018 148.875 49.4852 149.275C48.7852 149.558 48.0602 149.775 47.3102 149.925C46.5768 150.058 45.8102 150.15 45.0102 150.2V154.775C45.0102 154.875 44.9935 154.967 44.9602 155.05C44.9435 155.133 44.9352 155.217 44.9352 155.3C44.9018 155.467 44.8602 155.617 44.8102 155.75C44.7768 155.883 44.7268 156.025 44.6602 156.175C44.5935 156.275 44.5268 156.367 44.4602 156.45C44.3935 156.533 44.3185 156.617 44.2352 156.7C43.8352 156.9 43.4185 156.942 42.9852 156.825C42.7185 156.808 42.5018 156.725 42.3352 156.575C42.1852 156.425 42.0768 156.267 42.0102 156.1C41.9435 155.933 41.8852 155.742 41.8352 155.525C41.8185 155.442 41.8018 155.358 41.7852 155.275C41.7852 155.208 41.7852 155.133 41.7852 155.05V141.125C41.7852 141.025 41.7852 140.925 41.7852 140.825C41.8018 140.708 41.8185 140.592 41.8352 140.475C41.8518 140.275 41.9018 140.075 41.9852 139.875C42.1352 139.458 42.4435 139.175 42.9102 139.025C43.3768 138.875 43.9018 138.808 44.4852 138.825C44.8852 138.842 45.2935 138.883 45.7102 138.95C46.1435 139.017 46.5518 139.1 46.9352 139.2C47.3352 139.283 47.6935 139.375 48.0102 139.475C48.3268 139.575 48.5852 139.667 48.7852 139.75ZM48.8352 145.15C48.9018 144.683 48.8435 144.292 48.6602 143.975C48.4935 143.642 48.2518 143.375 47.9352 143.175C47.6185 142.958 47.2518 142.792 46.8352 142.675C46.4352 142.558 46.0352 142.475 45.6352 142.425C45.5852 142.408 45.5018 142.4 45.3852 142.4C45.2852 142.4 45.1685 142.4 45.0352 142.4C45.0352 142.933 45.0352 143.45 45.0352 143.95C45.0518 144.433 45.0518 144.958 45.0352 145.525V147.2C45.4185 147.183 45.8185 147.142 46.2352 147.075C46.6685 147.008 47.0685 146.9 47.4352 146.75C47.8018 146.6 48.1102 146.4 48.3602 146.15C48.6268 145.9 48.7852 145.567 48.8352 145.15ZM57.4148 149C57.3982 149.083 57.3815 149.167 57.3648 149.25C57.3648 149.317 57.3648 149.392 57.3648 149.475L57.2148 150C57.1815 150.067 57.1565 150.108 57.1398 150.125L57.0648 150.275C56.9815 150.458 56.8315 150.608 56.6148 150.725C56.2148 150.925 55.7898 150.975 55.3398 150.875C55.0565 150.842 54.8315 150.758 54.6648 150.625C54.4982 150.508 54.3815 150.367 54.3148 150.2C54.2482 150.033 54.1982 149.867 54.1648 149.7C54.1148 149.533 54.0898 149.383 54.0898 149.25V135.25C54.0898 135.133 54.0898 135.033 54.0898 134.95C54.1065 134.85 54.1232 134.758 54.1398 134.675C54.1565 134.558 54.1732 134.458 54.1898 134.375C54.2232 134.292 54.2565 134.2 54.2898 134.1C54.3398 133.933 54.4315 133.8 54.5648 133.7C54.7648 133.55 54.9565 133.467 55.1398 133.45C55.2565 133.417 55.3648 133.4 55.4648 133.4C55.5648 133.383 55.6815 133.375 55.8148 133.375C56.0482 133.375 56.3148 133.442 56.6148 133.575C56.8482 133.708 57.0148 133.892 57.1148 134.125C57.2815 134.458 57.3648 134.767 57.3648 135.05C57.3815 135.217 57.3898 135.467 57.3898 135.8C57.4065 136.133 57.4148 136.383 57.4148 136.55V136.65C57.4482 137.183 57.4648 137.7 57.4648 138.2C57.4648 138.683 57.4565 139.217 57.4398 139.8C57.4398 140.367 57.4315 140.917 57.4148 141.45C57.4148 141.967 57.4148 142.483 57.4148 143V148.25C57.4148 148.317 57.4148 148.383 57.4148 148.45C57.4315 148.5 57.4398 148.558 57.4398 148.625C57.4398 148.792 57.4315 148.917 57.4148 149ZM62.6109 141.525C62.6109 141.992 62.6109 142.517 62.6109 143.1C62.6276 143.683 62.6359 144.292 62.6359 144.925C62.6359 145.542 62.6359 146.158 62.6359 146.775C62.6359 147.375 62.6276 147.933 62.6109 148.45C62.5943 148.7 62.5693 148.975 62.5359 149.275C62.5026 149.558 62.4359 149.825 62.3359 150.075C62.2359 150.325 62.0776 150.533 61.8609 150.7C61.6609 150.85 61.3859 150.917 61.0359 150.9C60.5193 150.867 60.1443 150.642 59.9109 150.225C59.6943 149.808 59.5693 149.225 59.5359 148.475C59.5359 148.092 59.5276 147.65 59.5109 147.15C59.5109 146.65 59.5026 146.142 59.4859 145.625C59.4859 145.108 59.4859 144.608 59.4859 144.125C59.4859 143.625 59.4859 143.175 59.4859 142.775C59.4859 142.542 59.4776 142.258 59.4609 141.925C59.4609 141.592 59.4693 141.25 59.4859 140.9C59.5026 140.55 59.5443 140.217 59.6109 139.9C59.6776 139.567 59.7859 139.292 59.9359 139.075C60.0526 138.942 60.2193 138.842 60.4359 138.775C60.6526 138.692 60.8776 138.65 61.1109 138.65C61.3609 138.65 61.5943 138.692 61.8109 138.775C62.0443 138.858 62.2109 138.975 62.3109 139.125C62.3776 139.225 62.4276 139.367 62.4609 139.55C62.4943 139.733 62.5193 139.942 62.5359 140.175C62.5693 140.392 62.5859 140.625 62.5859 140.875C62.6026 141.108 62.6109 141.325 62.6109 141.525ZM61.6609 136.475C61.1443 136.608 60.7109 136.558 60.3609 136.325C60.0276 136.075 59.8193 135.708 59.7359 135.225C59.6693 134.875 59.6943 134.567 59.8109 134.3C59.9276 134.033 60.1026 133.833 60.3359 133.7C60.5693 133.55 60.8359 133.483 61.1359 133.5C61.4359 133.517 61.7359 133.633 62.0359 133.85C62.3193 134.05 62.5193 134.283 62.6359 134.55C62.7693 134.817 62.8109 135.075 62.7609 135.325C62.7276 135.575 62.6193 135.808 62.4359 136.025C62.2526 136.225 61.9943 136.375 61.6609 136.475ZM73.4576 147.575C73.6576 147.525 73.8576 147.492 74.0576 147.475C74.2743 147.458 74.466 147.483 74.6326 147.55C74.816 147.617 74.966 147.733 75.0826 147.9C75.1993 148.05 75.2576 148.267 75.2576 148.55C75.2576 148.75 75.2076 148.942 75.1076 149.125C75.0076 149.308 74.8826 149.475 74.7326 149.625C74.5826 149.775 74.416 149.908 74.2326 150.025C74.0493 150.125 73.8743 150.208 73.7076 150.275C73.2243 150.492 72.666 150.658 72.0326 150.775C71.416 150.892 70.7743 150.933 70.1076 150.9C69.2076 150.867 68.341 150.692 67.5076 150.375C66.691 150.042 66.0493 149.5 65.5826 148.75C65.1493 148.017 64.891 147.2 64.8076 146.3C64.7243 145.4 64.766 144.55 64.9326 143.75C65.116 142.783 65.4243 142 65.8576 141.4C66.3076 140.783 66.841 140.292 67.4576 139.925C68.2076 139.492 69.0493 139.267 69.9826 139.25C70.916 139.233 71.8076 139.417 72.6576 139.8C73.2243 140.05 73.7326 140.392 74.1826 140.825C74.6326 141.242 74.9743 141.75 75.2076 142.35C75.2743 142.5 75.3243 142.683 75.3576 142.9C75.4076 143.117 75.441 143.35 75.4576 143.6C75.4743 143.833 75.4743 144.067 75.4576 144.3C75.441 144.533 75.3993 144.742 75.3326 144.925C75.2326 145.225 75.1076 145.458 74.9576 145.625C74.8076 145.792 74.616 145.917 74.3826 146C74.1493 146.083 73.866 146.142 73.5326 146.175C73.216 146.192 72.8326 146.208 72.3826 146.225C71.9826 146.242 71.6076 146.25 71.2576 146.25C70.9076 146.25 70.5493 146.25 70.1826 146.25C69.816 146.233 69.4326 146.225 69.0326 146.225C68.6493 146.208 68.216 146.192 67.7326 146.175C67.6826 146.508 67.7243 146.8 67.8576 147.05C68.0076 147.283 68.2076 147.483 68.4576 147.65C68.7076 147.8 68.991 147.917 69.3076 148C69.6243 148.083 69.9326 148.133 70.2326 148.15C70.7993 148.183 71.341 148.142 71.8576 148.025C72.3743 147.892 72.9076 147.742 73.4576 147.575ZM72.3826 142.725C72.066 142.358 71.7326 142.092 71.3826 141.925C71.116 141.808 70.8326 141.758 70.5326 141.775C70.2493 141.775 69.9743 141.817 69.7076 141.9C69.2243 142.017 68.816 142.267 68.4826 142.65C68.4493 142.683 68.391 142.767 68.3076 142.9C68.2243 143.017 68.141 143.142 68.0576 143.275C67.991 143.408 67.941 143.533 67.9076 143.65C67.8743 143.767 67.891 143.825 67.9576 143.825H72.8576C72.841 143.592 72.7993 143.4 72.7326 143.25C72.666 143.083 72.5493 142.908 72.3826 142.725ZM85.2785 133.525C85.5952 133.442 85.8702 133.433 86.1035 133.5C86.3535 133.55 86.5618 133.658 86.7285 133.825C86.9118 133.992 87.0452 134.2 87.1285 134.45C87.2285 134.7 87.2785 134.975 87.2785 135.275C87.2952 136.108 87.2952 136.758 87.2785 137.225C87.2785 137.692 87.2785 138.1 87.2785 138.45V146.125C87.2785 147.025 87.2785 147.775 87.2785 148.375C87.2785 148.975 87.2452 149.467 87.1785 149.85C87.1285 150.217 87.0285 150.492 86.8785 150.675C86.7452 150.858 86.5368 150.983 86.2535 151.05C85.9702 151.133 85.5952 151.175 85.1285 151.175C84.6785 151.175 84.1118 151.175 83.4285 151.175C81.6285 151.175 80.2035 150.75 79.1535 149.9C78.1202 149.05 77.5702 147.7 77.5035 145.85C77.4702 145.05 77.5702 144.317 77.8035 143.65C78.0368 142.983 78.3785 142.417 78.8285 141.95C79.2952 141.467 79.8618 141.1 80.5285 140.85C81.2118 140.583 81.9868 140.458 82.8535 140.475H84.2285V136C84.2285 135.733 84.2285 135.475 84.2285 135.225C84.2285 134.958 84.2535 134.717 84.3035 134.5C84.3535 134.267 84.4535 134.067 84.6035 133.9C84.7535 133.733 84.9785 133.608 85.2785 133.525ZM80.9285 147.4C81.2785 147.883 81.9118 148.15 82.8285 148.2C83.0118 148.217 83.1868 148.225 83.3535 148.225C83.5202 148.208 83.6702 148.183 83.8035 148.15C83.9535 148.133 84.0952 148.108 84.2285 148.075V143.45C83.6452 143.35 83.1118 143.292 82.6285 143.275C82.1618 143.242 81.6952 143.408 81.2285 143.775C80.9785 143.975 80.7868 144.233 80.6535 144.55C80.5202 144.85 80.4452 145.175 80.4285 145.525C80.4118 145.858 80.4452 146.192 80.5285 146.525C80.6118 146.858 80.7452 147.15 80.9285 147.4ZM109.535 142.075C109.535 141.692 109.526 141.283 109.51 140.85C109.51 140.417 109.585 140.025 109.735 139.675C109.868 139.358 110.085 139.133 110.385 139C110.701 138.85 111.01 138.817 111.31 138.9C111.61 138.95 111.843 139.042 112.01 139.175C112.176 139.308 112.293 139.467 112.36 139.65C112.443 139.817 112.493 140.017 112.51 140.25C112.526 140.467 112.543 140.683 112.56 140.9C112.726 140.6 112.935 140.358 113.185 140.175C113.435 139.992 113.693 139.842 113.96 139.725C114.226 139.608 114.476 139.525 114.71 139.475C114.96 139.425 115.151 139.4 115.285 139.4C115.918 139.4 116.543 139.542 117.16 139.825C117.793 140.092 118.318 140.475 118.735 140.975C118.968 141.275 119.143 141.592 119.26 141.925C119.393 142.242 119.485 142.575 119.535 142.925C119.601 143.275 119.643 143.633 119.66 144C119.676 144.35 119.693 144.708 119.71 145.075C119.793 146.142 119.793 147.2 119.71 148.25C119.693 148.467 119.685 148.717 119.685 149C119.685 149.283 119.66 149.567 119.61 149.85C119.576 150.117 119.501 150.358 119.385 150.575C119.285 150.775 119.11 150.9 118.86 150.95C118.51 151.033 118.218 151.05 117.985 151C117.768 150.967 117.593 150.892 117.46 150.775C117.326 150.658 117.226 150.508 117.16 150.325C117.093 150.142 117.035 149.933 116.985 149.7C116.951 149.517 116.918 149.308 116.885 149.075C116.868 148.825 116.851 148.575 116.835 148.325C116.835 148.075 116.826 147.833 116.81 147.6C116.81 147.35 116.81 147.125 116.81 146.925C116.81 146.608 116.801 146.258 116.785 145.875C116.768 145.492 116.768 145.133 116.785 144.8C116.785 144.017 116.576 143.425 116.16 143.025C115.76 142.608 115.21 142.433 114.51 142.5C113.976 142.567 113.51 142.783 113.11 143.15C112.71 143.5 112.518 143.958 112.535 144.525C112.535 144.742 112.535 144.942 112.535 145.125C112.535 145.308 112.526 145.492 112.51 145.675C112.51 145.858 112.51 146.058 112.51 146.275C112.51 146.492 112.51 146.733 112.51 147C112.51 147.55 112.51 148.133 112.51 148.75C112.51 149.35 112.435 149.842 112.285 150.225C112.151 150.625 111.926 150.9 111.61 151.05C111.293 151.2 110.918 151.158 110.485 150.925C110.301 150.825 110.151 150.692 110.035 150.525C109.935 150.342 109.851 150.15 109.785 149.95C109.735 149.75 109.701 149.55 109.685 149.35C109.668 149.133 109.651 148.933 109.635 148.75C109.585 148.2 109.551 147.692 109.535 147.225C109.535 146.742 109.535 146.225 109.535 145.675V142.075ZM132.165 146.275C132.165 146.808 132.148 147.383 132.115 148C132.098 148.617 132.073 149.192 132.04 149.725C132.04 150.225 132.015 150.725 131.965 151.225C131.932 151.658 131.865 152.125 131.765 152.625C131.665 153.142 131.523 153.617 131.34 154.05C131.107 154.617 130.79 155.1 130.39 155.5C129.99 155.917 129.473 156.217 128.84 156.4C128.307 156.533 127.807 156.617 127.34 156.65C126.873 156.7 126.373 156.692 125.84 156.625C125.49 156.575 125.115 156.475 124.715 156.325C124.315 156.192 123.94 156.017 123.59 155.8C123.24 155.583 122.932 155.325 122.665 155.025C122.398 154.742 122.215 154.417 122.115 154.05C121.998 153.6 121.99 153.208 122.09 152.875C122.207 152.542 122.382 152.3 122.615 152.15C122.848 152 123.123 151.975 123.44 152.075C123.757 152.175 124.057 152.433 124.34 152.85C124.54 153.15 124.832 153.392 125.215 153.575C125.598 153.758 126.007 153.867 126.44 153.9C126.873 153.933 127.29 153.875 127.69 153.725C128.107 153.592 128.432 153.35 128.665 153C128.832 152.75 128.948 152.392 129.015 151.925C129.098 151.458 129.148 151 129.165 150.55C128.315 150.9 127.44 151.033 126.54 150.95C125.657 150.85 124.848 150.575 124.115 150.125C123.398 149.658 122.815 149.042 122.365 148.275C121.932 147.492 121.748 146.608 121.815 145.625C121.865 144.775 122.04 143.975 122.34 143.225C122.657 142.475 123.173 141.85 123.89 141.35C124.473 140.95 125.132 140.692 125.865 140.575C126.598 140.442 127.307 140.375 127.99 140.375C128.39 140.375 128.782 140.375 129.165 140.375C129.565 140.375 129.932 140.425 130.265 140.525C130.598 140.625 130.898 140.792 131.165 141.025C131.432 141.258 131.632 141.6 131.765 142.05C131.982 142.75 132.098 143.442 132.115 144.125C132.148 144.808 132.165 145.525 132.165 146.275ZM127.34 148.35C127.507 148.35 127.665 148.333 127.815 148.3C127.982 148.267 128.14 148.225 128.29 148.175C128.573 148.075 128.782 147.942 128.915 147.775C129.065 147.608 129.165 147.425 129.215 147.225C129.265 147.008 129.282 146.775 129.265 146.525C129.265 146.275 129.265 146.017 129.265 145.75C129.265 145.533 129.257 145.292 129.24 145.025C129.24 144.758 129.223 144.508 129.19 144.275C129.157 144.025 129.107 143.808 129.04 143.625C128.973 143.442 128.873 143.325 128.74 143.275C128.507 143.208 128.24 143.167 127.94 143.15C127.64 143.117 127.34 143.117 127.04 143.15C126.74 143.167 126.448 143.225 126.165 143.325C125.898 143.408 125.673 143.525 125.49 143.675C125.24 143.892 125.048 144.158 124.915 144.475C124.782 144.792 124.698 145.125 124.665 145.475C124.648 145.825 124.673 146.167 124.74 146.5C124.823 146.833 124.965 147.133 125.165 147.4C125.398 147.733 125.715 147.975 126.115 148.125C126.515 148.275 126.923 148.35 127.34 148.35ZM137.517 149C137.501 149.083 137.484 149.167 137.467 149.25C137.467 149.317 137.467 149.392 137.467 149.475L137.317 150C137.284 150.067 137.259 150.108 137.242 150.125L137.167 150.275C137.084 150.458 136.934 150.608 136.717 150.725C136.317 150.925 135.892 150.975 135.442 150.875C135.159 150.842 134.934 150.758 134.767 150.625C134.601 150.508 134.484 150.367 134.417 150.2C134.351 150.033 134.301 149.867 134.267 149.7C134.217 149.533 134.192 149.383 134.192 149.25V135.25C134.192 135.133 134.192 135.033 134.192 134.95C134.209 134.85 134.226 134.758 134.242 134.675C134.259 134.558 134.276 134.458 134.292 134.375C134.326 134.292 134.359 134.2 134.392 134.1C134.442 133.933 134.534 133.8 134.667 133.7C134.867 133.55 135.059 133.467 135.242 133.45C135.359 133.417 135.467 133.4 135.567 133.4C135.667 133.383 135.784 133.375 135.917 133.375C136.151 133.375 136.417 133.442 136.717 133.575C136.951 133.708 137.117 133.892 137.217 134.125C137.384 134.458 137.467 134.767 137.467 135.05C137.484 135.217 137.492 135.467 137.492 135.8C137.509 136.133 137.517 136.383 137.517 136.55V136.65C137.551 137.183 137.567 137.7 137.567 138.2C137.567 138.683 137.559 139.217 137.542 139.8C137.542 140.367 137.534 140.917 137.517 141.45C137.517 141.967 137.517 142.483 137.517 143V148.25C137.517 148.317 137.517 148.383 137.517 148.45C137.534 148.5 137.542 148.558 137.542 148.625C137.542 148.792 137.534 148.917 137.517 149ZM142.713 141.525C142.713 141.992 142.713 142.517 142.713 143.1C142.73 143.683 142.738 144.292 142.738 144.925C142.738 145.542 142.738 146.158 142.738 146.775C142.738 147.375 142.73 147.933 142.713 148.45C142.697 148.7 142.672 148.975 142.638 149.275C142.605 149.558 142.538 149.825 142.438 150.075C142.338 150.325 142.18 150.533 141.963 150.7C141.763 150.85 141.488 150.917 141.138 150.9C140.622 150.867 140.247 150.642 140.013 150.225C139.797 149.808 139.672 149.225 139.638 148.475C139.638 148.092 139.63 147.65 139.613 147.15C139.613 146.65 139.605 146.142 139.588 145.625C139.588 145.108 139.588 144.608 139.588 144.125C139.588 143.625 139.588 143.175 139.588 142.775C139.588 142.542 139.58 142.258 139.563 141.925C139.563 141.592 139.572 141.25 139.588 140.9C139.605 140.55 139.647 140.217 139.713 139.9C139.78 139.567 139.888 139.292 140.038 139.075C140.155 138.942 140.322 138.842 140.538 138.775C140.755 138.692 140.98 138.65 141.213 138.65C141.463 138.65 141.697 138.692 141.913 138.775C142.147 138.858 142.313 138.975 142.413 139.125C142.48 139.225 142.53 139.367 142.563 139.55C142.597 139.733 142.622 139.942 142.638 140.175C142.672 140.392 142.688 140.625 142.688 140.875C142.705 141.108 142.713 141.325 142.713 141.525ZM141.763 136.475C141.247 136.608 140.813 136.558 140.463 136.325C140.13 136.075 139.922 135.708 139.838 135.225C139.772 134.875 139.797 134.567 139.913 134.3C140.03 134.033 140.205 133.833 140.438 133.7C140.672 133.55 140.938 133.483 141.238 133.5C141.538 133.517 141.838 133.633 142.138 133.85C142.422 134.05 142.622 134.283 142.738 134.55C142.872 134.817 142.913 135.075 142.863 135.325C142.83 135.575 142.722 135.808 142.538 136.025C142.355 136.225 142.097 136.375 141.763 136.475ZM150.885 146.6C150.568 146.4 150.21 146.242 149.81 146.125C149.427 146.008 149.027 145.9 148.61 145.8C148.21 145.7 147.818 145.592 147.435 145.475C147.052 145.342 146.702 145.158 146.385 144.925C145.702 144.408 145.302 143.775 145.185 143.025C145.085 142.258 145.252 141.492 145.685 140.725C145.918 140.325 146.227 140 146.61 139.75C146.993 139.483 147.41 139.283 147.86 139.15C148.327 139 148.802 138.917 149.285 138.9C149.768 138.883 150.227 138.908 150.66 138.975C150.943 139.025 151.243 139.1 151.56 139.2C151.877 139.283 152.168 139.4 152.435 139.55C152.718 139.7 152.968 139.892 153.185 140.125C153.418 140.342 153.585 140.617 153.685 140.95C153.752 141.167 153.76 141.375 153.71 141.575C153.677 141.775 153.593 141.942 153.46 142.075C153.343 142.208 153.185 142.308 152.985 142.375C152.802 142.442 152.602 142.458 152.385 142.425C152.135 142.375 151.902 142.3 151.685 142.2C151.468 142.1 151.252 141.992 151.035 141.875C150.818 141.758 150.593 141.658 150.36 141.575C150.143 141.492 149.91 141.45 149.66 141.45C149.277 141.433 148.96 141.5 148.71 141.65C148.46 141.8 148.285 141.983 148.185 142.2C148.102 142.417 148.11 142.65 148.21 142.9C148.327 143.15 148.56 143.367 148.91 143.55C149.227 143.717 149.577 143.85 149.96 143.95C150.343 144.05 150.718 144.15 151.085 144.25C151.468 144.35 151.835 144.467 152.185 144.6C152.552 144.733 152.877 144.917 153.16 145.15C153.71 145.6 154.043 146.125 154.16 146.725C154.293 147.325 154.26 147.917 154.06 148.5C153.86 149.083 153.51 149.6 153.01 150.05C152.527 150.5 151.952 150.8 151.285 150.95C150.802 151.05 150.277 151.1 149.71 151.1C149.16 151.1 148.61 151.042 148.06 150.925C147.527 150.808 147.01 150.625 146.51 150.375C146.027 150.125 145.618 149.808 145.285 149.425C145.052 149.158 144.927 148.858 144.91 148.525C144.91 148.175 144.977 147.875 145.11 147.625C145.26 147.358 145.468 147.175 145.735 147.075C146.002 146.975 146.302 147.033 146.635 147.25C146.902 147.433 147.218 147.617 147.585 147.8C147.952 147.967 148.318 148.1 148.685 148.2C149.052 148.3 149.402 148.35 149.735 148.35C150.085 148.35 150.385 148.275 150.635 148.125C151.002 147.892 151.193 147.625 151.21 147.325C151.227 147.008 151.118 146.767 150.885 146.6ZM166.013 146.075C166.029 146.408 166.038 146.758 166.038 147.125C166.038 147.475 166.029 147.8 166.013 148.1C165.996 148.55 165.971 148.967 165.938 149.35C165.904 149.717 165.838 150.033 165.738 150.3C165.638 150.55 165.479 150.742 165.263 150.875C165.063 150.992 164.779 151.025 164.413 150.975C164.029 150.925 163.754 150.742 163.588 150.425C163.421 150.108 163.304 149.75 163.238 149.35C163.188 148.933 163.171 148.517 163.188 148.1C163.204 147.683 163.204 147.358 163.188 147.125C163.171 146.758 163.154 146.342 163.138 145.875C163.138 145.392 163.088 144.942 162.988 144.525C162.904 144.092 162.754 143.725 162.538 143.425C162.321 143.125 161.996 142.967 161.563 142.95C161.013 142.917 160.588 142.958 160.288 143.075C160.004 143.192 159.796 143.367 159.663 143.6C159.529 143.817 159.446 144.083 159.413 144.4C159.396 144.717 159.363 145.058 159.313 145.425L159.288 146.4V148.225C159.288 148.525 159.279 148.842 159.263 149.175C159.263 149.492 159.213 149.783 159.113 150.05C159.013 150.317 158.854 150.542 158.638 150.725C158.438 150.908 158.138 151 157.738 151C157.238 151 156.863 150.842 156.613 150.525C156.379 150.192 156.263 149.783 156.263 149.3V134.925C156.263 134.825 156.263 134.733 156.263 134.65C156.279 134.55 156.296 134.45 156.313 134.35C156.346 134.25 156.371 134.158 156.388 134.075C156.404 133.975 156.429 133.883 156.463 133.8C156.513 133.633 156.596 133.508 156.713 133.425C156.796 133.342 156.879 133.275 156.963 133.225C157.046 133.175 157.138 133.142 157.238 133.125C157.321 133.108 157.413 133.1 157.513 133.1C157.613 133.083 157.713 133.075 157.813 133.075C158.063 133.075 158.304 133.15 158.538 133.3C158.638 133.367 158.729 133.442 158.813 133.525C158.896 133.592 158.963 133.692 159.013 133.825C159.146 134.142 159.213 134.442 159.213 134.725C159.229 134.808 159.238 134.933 159.238 135.1C159.254 135.25 159.263 135.408 159.263 135.575C159.263 135.742 159.263 135.908 159.263 136.075C159.279 136.225 159.288 136.342 159.288 136.425V136.55C159.304 137.083 159.313 137.625 159.313 138.175C159.313 138.725 159.313 139.283 159.313 139.85V140.275C160.013 140.042 160.746 139.933 161.513 139.95C162.279 139.95 162.963 140.1 163.563 140.4C164.179 140.717 164.646 141.075 164.963 141.475C165.296 141.875 165.538 142.317 165.688 142.8C165.838 143.283 165.921 143.8 165.938 144.35C165.971 144.9 165.996 145.475 166.013 146.075ZM30.6791 170.7C31.2291 170.433 31.8041 170.242 32.4041 170.125C33.0041 170.008 33.5958 169.983 34.1791 170.05C34.7791 170.117 35.3541 170.275 35.9041 170.525C36.4708 170.775 36.9874 171.125 37.4541 171.575C37.8374 171.958 38.1708 172.425 38.4541 172.975C38.7374 173.508 38.9458 174.033 39.0791 174.55C39.3624 175.467 39.4041 176.392 39.2041 177.325C39.0041 178.258 38.6624 179.125 38.1791 179.925C37.9458 180.292 37.6541 180.625 37.3041 180.925C36.9708 181.208 36.6124 181.442 36.2291 181.625C35.7291 181.858 35.1874 182.017 34.6041 182.1C34.0208 182.2 33.4541 182.225 32.9041 182.175C31.9041 182.125 31.0208 181.875 30.2541 181.425C29.5041 180.975 28.8958 180.4 28.4291 179.7C27.9791 179 27.6791 178.208 27.5291 177.325C27.3958 176.425 27.4541 175.508 27.7041 174.575C27.9708 173.575 28.3541 172.767 28.8541 172.15C29.3708 171.517 29.9791 171.033 30.6791 170.7ZM31.4291 174.05C31.1791 174.283 30.9874 174.575 30.8541 174.925C30.7208 175.275 30.6374 175.642 30.6041 176.025C30.5708 176.392 30.5958 176.767 30.6791 177.15C30.7791 177.517 30.9291 177.85 31.1291 178.15C31.2958 178.4 31.5958 178.608 32.0291 178.775C32.4624 178.942 32.9124 179.042 33.3791 179.075C33.9124 179.108 34.3791 178.967 34.7791 178.65C35.1791 178.317 35.4791 177.908 35.6791 177.425C35.8958 176.942 35.9958 176.417 35.9791 175.85C35.9624 175.283 35.8124 174.767 35.5291 174.3C35.3291 173.967 35.0458 173.725 34.6791 173.575C34.3291 173.408 33.9541 173.325 33.5541 173.325C33.1708 173.308 32.7874 173.367 32.4041 173.5C32.0208 173.617 31.6958 173.8 31.4291 174.05ZM41.3463 173.075C41.3463 172.692 41.338 172.283 41.3213 171.85C41.3213 171.417 41.3963 171.025 41.5463 170.675C41.6796 170.358 41.8963 170.133 42.1963 170C42.513 169.85 42.8213 169.817 43.1213 169.9C43.4213 169.95 43.6546 170.042 43.8213 170.175C43.988 170.308 44.1046 170.467 44.1713 170.65C44.2546 170.817 44.3046 171.017 44.3213 171.25C44.338 171.467 44.3546 171.683 44.3713 171.9C44.538 171.6 44.7463 171.358 44.9963 171.175C45.2463 170.992 45.5046 170.842 45.7713 170.725C46.038 170.608 46.288 170.525 46.5213 170.475C46.7713 170.425 46.963 170.4 47.0963 170.4C47.7296 170.4 48.3546 170.542 48.9713 170.825C49.6046 171.092 50.1296 171.475 50.5463 171.975C50.7796 172.275 50.9546 172.592 51.0713 172.925C51.2046 173.242 51.2963 173.575 51.3463 173.925C51.413 174.275 51.4546 174.633 51.4713 175C51.488 175.35 51.5046 175.708 51.5213 176.075C51.6046 177.142 51.6046 178.2 51.5213 179.25C51.5046 179.467 51.4963 179.717 51.4963 180C51.4963 180.283 51.4713 180.567 51.4213 180.85C51.388 181.117 51.313 181.358 51.1963 181.575C51.0963 181.775 50.9213 181.9 50.6713 181.95C50.3213 182.033 50.0296 182.05 49.7963 182C49.5796 181.967 49.4046 181.892 49.2713 181.775C49.138 181.658 49.038 181.508 48.9713 181.325C48.9046 181.142 48.8463 180.933 48.7963 180.7C48.763 180.517 48.7296 180.308 48.6963 180.075C48.6796 179.825 48.663 179.575 48.6463 179.325C48.6463 179.075 48.638 178.833 48.6213 178.6C48.6213 178.35 48.6213 178.125 48.6213 177.925C48.6213 177.608 48.613 177.258 48.5963 176.875C48.5796 176.492 48.5796 176.133 48.5963 175.8C48.5963 175.017 48.388 174.425 47.9713 174.025C47.5713 173.608 47.0213 173.433 46.3213 173.5C45.788 173.567 45.3213 173.783 44.9213 174.15C44.5213 174.5 44.3296 174.958 44.3463 175.525C44.3463 175.742 44.3463 175.942 44.3463 176.125C44.3463 176.308 44.338 176.492 44.3213 176.675C44.3213 176.858 44.3213 177.058 44.3213 177.275C44.3213 177.492 44.3213 177.733 44.3213 178C44.3213 178.55 44.3213 179.133 44.3213 179.75C44.3213 180.35 44.2463 180.842 44.0963 181.225C43.963 181.625 43.738 181.9 43.4213 182.05C43.1046 182.2 42.7296 182.158 42.2963 181.925C42.113 181.825 41.963 181.692 41.8463 181.525C41.7463 181.342 41.663 181.15 41.5963 180.95C41.5463 180.75 41.513 180.55 41.4963 180.35C41.4796 180.133 41.463 179.933 41.4463 179.75C41.3963 179.2 41.363 178.692 41.3463 178.225C41.3463 177.742 41.3463 177.225 41.3463 176.675V173.075ZM63.2756 170.975C63.4089 171.292 63.4173 171.642 63.3006 172.025C63.2006 172.408 63.0089 172.658 62.7256 172.775C62.5756 172.842 62.3756 172.9 62.1256 172.95C61.8756 172.983 61.6006 173.017 61.3006 173.05C61.0173 173.083 60.7339 173.108 60.4506 173.125C60.1673 173.142 59.9256 173.15 59.7256 173.15C59.7423 173.65 59.7589 174.167 59.7756 174.7C59.7923 175.217 59.8089 175.725 59.8256 176.225C59.8423 176.725 59.8506 177.208 59.8506 177.675C59.8506 178.125 59.8423 178.533 59.8256 178.9C59.8256 179.15 59.8256 179.442 59.8256 179.775C59.8256 180.092 59.8006 180.4 59.7506 180.7C59.7173 181 59.6589 181.267 59.5756 181.5C59.4923 181.717 59.3673 181.858 59.2006 181.925C58.6839 182.142 58.2089 182.2 57.7756 182.1C57.3589 182.017 57.0589 181.842 56.8756 181.575C56.7423 181.358 56.6423 181.108 56.5756 180.825C56.5089 180.525 56.4589 180.225 56.4256 179.925C56.4089 179.608 56.4006 179.308 56.4006 179.025C56.4173 178.725 56.4256 178.467 56.4256 178.25C56.4423 177.55 56.4506 176.758 56.4506 175.875C56.4673 174.975 56.4756 174.075 56.4756 173.175H56.1006C55.9006 173.175 55.6423 173.175 55.3256 173.175C55.0256 173.158 54.7173 173.133 54.4006 173.1C54.1006 173.05 53.8173 172.992 53.5506 172.925C53.2839 172.842 53.0923 172.725 52.9756 172.575C52.7923 172.358 52.6756 172.125 52.6256 171.875C52.5923 171.625 52.6089 171.392 52.6756 171.175C52.7589 170.942 52.8839 170.742 53.0506 170.575C53.2173 170.392 53.4089 170.275 53.6256 170.225C53.9256 170.142 54.3506 170.1 54.9006 170.1C55.4506 170.083 55.9673 170.083 56.4506 170.1C56.4339 169.933 56.4256 169.775 56.4256 169.625C56.4256 169.458 56.4173 169.3 56.4006 169.15C56.3839 168.95 56.3756 168.7 56.3756 168.4C56.3756 168.083 56.3923 167.775 56.4256 167.475C56.4756 167.158 56.5506 166.867 56.6506 166.6C56.7506 166.317 56.8923 166.1 57.0756 165.95C57.3256 165.75 57.5756 165.642 57.8256 165.625C58.0923 165.592 58.3339 165.625 58.5506 165.725C58.7839 165.825 58.9756 165.975 59.1256 166.175C59.2923 166.358 59.4089 166.567 59.4756 166.8C59.5256 167 59.5673 167.242 59.6006 167.525C59.6339 167.792 59.6506 168.075 59.6506 168.375C59.6673 168.675 59.6756 168.975 59.6756 169.275C59.6756 169.575 59.6756 169.85 59.6756 170.1H59.9256C60.1756 170.1 60.4673 170.092 60.8006 170.075C61.1339 170.058 61.4589 170.067 61.7756 170.1C62.1089 170.133 62.4089 170.217 62.6756 170.35C62.9423 170.467 63.1423 170.675 63.2756 170.975ZM73.0426 178.575C73.2426 178.525 73.4426 178.492 73.6426 178.475C73.8592 178.458 74.0509 178.483 74.2176 178.55C74.4009 178.617 74.5509 178.733 74.6676 178.9C74.7842 179.05 74.8426 179.267 74.8426 179.55C74.8426 179.75 74.7926 179.942 74.6926 180.125C74.5926 180.308 74.4676 180.475 74.3176 180.625C74.1676 180.775 74.0009 180.908 73.8176 181.025C73.6342 181.125 73.4592 181.208 73.2926 181.275C72.8092 181.492 72.2509 181.658 71.6176 181.775C71.0009 181.892 70.3592 181.933 69.6926 181.9C68.7926 181.867 67.9259 181.692 67.0926 181.375C66.2759 181.042 65.6342 180.5 65.1676 179.75C64.7342 179.017 64.4759 178.2 64.3926 177.3C64.3092 176.4 64.3509 175.55 64.5176 174.75C64.7009 173.783 65.0092 173 65.4426 172.4C65.8926 171.783 66.4259 171.292 67.0426 170.925C67.7926 170.492 68.6342 170.267 69.5676 170.25C70.5009 170.233 71.3926 170.417 72.2426 170.8C72.8092 171.05 73.3176 171.392 73.7676 171.825C74.2176 172.242 74.5592 172.75 74.7926 173.35C74.8592 173.5 74.9092 173.683 74.9426 173.9C74.9926 174.117 75.0259 174.35 75.0426 174.6C75.0592 174.833 75.0592 175.067 75.0426 175.3C75.0259 175.533 74.9842 175.742 74.9176 175.925C74.8176 176.225 74.6926 176.458 74.5426 176.625C74.3926 176.792 74.2009 176.917 73.9676 177C73.7342 177.083 73.4509 177.142 73.1176 177.175C72.8009 177.192 72.4176 177.208 71.9676 177.225C71.5676 177.242 71.1926 177.25 70.8426 177.25C70.4926 177.25 70.1342 177.25 69.7676 177.25C69.4009 177.233 69.0176 177.225 68.6176 177.225C68.2342 177.208 67.8009 177.192 67.3176 177.175C67.2676 177.508 67.3092 177.8 67.4426 178.05C67.5926 178.283 67.7926 178.483 68.0426 178.65C68.2926 178.8 68.5759 178.917 68.8926 179C69.2092 179.083 69.5176 179.133 69.8176 179.15C70.3842 179.183 70.9259 179.142 71.4426 179.025C71.9592 178.892 72.4926 178.742 73.0426 178.575ZM71.9676 173.725C71.6509 173.358 71.3176 173.092 70.9676 172.925C70.7009 172.808 70.4176 172.758 70.1176 172.775C69.8342 172.775 69.5592 172.817 69.2926 172.9C68.8092 173.017 68.4009 173.267 68.0676 173.65C68.0342 173.683 67.9759 173.767 67.8926 173.9C67.8092 174.017 67.7259 174.142 67.6426 174.275C67.5759 174.408 67.5259 174.533 67.4926 174.65C67.4592 174.767 67.4759 174.825 67.5426 174.825H72.4426C72.4259 174.592 72.3842 174.4 72.3176 174.25C72.2509 174.083 72.1342 173.908 71.9676 173.725ZM77.0885 173.075C77.0885 172.692 77.0801 172.283 77.0635 171.85C77.0635 171.417 77.1385 171.025 77.2885 170.675C77.4218 170.358 77.6385 170.133 77.9385 170C78.2551 169.85 78.5635 169.817 78.8635 169.9C79.1635 169.95 79.3968 170.042 79.5635 170.175C79.7301 170.308 79.8468 170.467 79.9135 170.65C79.9968 170.817 80.0468 171.017 80.0635 171.25C80.0801 171.467 80.0968 171.683 80.1135 171.9C80.2801 171.6 80.4885 171.358 80.7385 171.175C80.9885 170.992 81.2468 170.842 81.5135 170.725C81.7801 170.608 82.0301 170.525 82.2635 170.475C82.5135 170.425 82.7051 170.4 82.8385 170.4C83.4718 170.4 84.0968 170.542 84.7135 170.825C85.3468 171.092 85.8718 171.475 86.2885 171.975C86.5218 172.275 86.6968 172.592 86.8135 172.925C86.9468 173.242 87.0385 173.575 87.0885 173.925C87.1551 174.275 87.1968 174.633 87.2135 175C87.2301 175.35 87.2468 175.708 87.2635 176.075C87.3468 177.142 87.3468 178.2 87.2635 179.25C87.2468 179.467 87.2385 179.717 87.2385 180C87.2385 180.283 87.2135 180.567 87.1635 180.85C87.1301 181.117 87.0551 181.358 86.9385 181.575C86.8385 181.775 86.6635 181.9 86.4135 181.95C86.0635 182.033 85.7718 182.05 85.5385 182C85.3218 181.967 85.1468 181.892 85.0135 181.775C84.8801 181.658 84.7801 181.508 84.7135 181.325C84.6468 181.142 84.5885 180.933 84.5385 180.7C84.5051 180.517 84.4718 180.308 84.4385 180.075C84.4218 179.825 84.4051 179.575 84.3885 179.325C84.3885 179.075 84.3801 178.833 84.3635 178.6C84.3635 178.35 84.3635 178.125 84.3635 177.925C84.3635 177.608 84.3551 177.258 84.3385 176.875C84.3218 176.492 84.3218 176.133 84.3385 175.8C84.3385 175.017 84.1301 174.425 83.7135 174.025C83.3135 173.608 82.7635 173.433 82.0635 173.5C81.5301 173.567 81.0635 173.783 80.6635 174.15C80.2635 174.5 80.0718 174.958 80.0885 175.525C80.0885 175.742 80.0885 175.942 80.0885 176.125C80.0885 176.308 80.0801 176.492 80.0635 176.675C80.0635 176.858 80.0635 177.058 80.0635 177.275C80.0635 177.492 80.0635 177.733 80.0635 178C80.0635 178.55 80.0635 179.133 80.0635 179.75C80.0635 180.35 79.9885 180.842 79.8385 181.225C79.7051 181.625 79.4801 181.9 79.1635 182.05C78.8468 182.2 78.4718 182.158 78.0385 181.925C77.8551 181.825 77.7051 181.692 77.5885 181.525C77.4885 181.342 77.4051 181.15 77.3385 180.95C77.2885 180.75 77.2551 180.55 77.2385 180.35C77.2218 180.133 77.2051 179.933 77.1885 179.75C77.1385 179.2 77.1051 178.692 77.0885 178.225C77.0885 177.742 77.0885 177.225 77.0885 176.675V173.075ZM99.0178 170.975C99.1511 171.292 99.1594 171.642 99.0428 172.025C98.9428 172.408 98.7511 172.658 98.4678 172.775C98.3178 172.842 98.1178 172.9 97.8678 172.95C97.6178 172.983 97.3428 173.017 97.0428 173.05C96.7594 173.083 96.4761 173.108 96.1928 173.125C95.9094 173.142 95.6678 173.15 95.4678 173.15C95.4844 173.65 95.5011 174.167 95.5178 174.7C95.5344 175.217 95.5511 175.725 95.5678 176.225C95.5844 176.725 95.5928 177.208 95.5928 177.675C95.5928 178.125 95.5844 178.533 95.5678 178.9C95.5678 179.15 95.5678 179.442 95.5678 179.775C95.5678 180.092 95.5428 180.4 95.4928 180.7C95.4594 181 95.4011 181.267 95.3178 181.5C95.2344 181.717 95.1094 181.858 94.9428 181.925C94.4261 182.142 93.9511 182.2 93.5178 182.1C93.1011 182.017 92.8011 181.842 92.6178 181.575C92.4844 181.358 92.3844 181.108 92.3178 180.825C92.2511 180.525 92.2011 180.225 92.1678 179.925C92.1511 179.608 92.1428 179.308 92.1428 179.025C92.1594 178.725 92.1678 178.467 92.1678 178.25C92.1844 177.55 92.1928 176.758 92.1928 175.875C92.2094 174.975 92.2178 174.075 92.2178 173.175H91.8428C91.6428 173.175 91.3844 173.175 91.0678 173.175C90.7678 173.158 90.4594 173.133 90.1428 173.1C89.8428 173.05 89.5594 172.992 89.2928 172.925C89.0261 172.842 88.8344 172.725 88.7178 172.575C88.5344 172.358 88.4178 172.125 88.3678 171.875C88.3344 171.625 88.3511 171.392 88.4178 171.175C88.5011 170.942 88.6261 170.742 88.7928 170.575C88.9594 170.392 89.1511 170.275 89.3678 170.225C89.6678 170.142 90.0928 170.1 90.6428 170.1C91.1928 170.083 91.7094 170.083 92.1928 170.1C92.1761 169.933 92.1678 169.775 92.1678 169.625C92.1678 169.458 92.1594 169.3 92.1428 169.15C92.1261 168.95 92.1178 168.7 92.1178 168.4C92.1178 168.083 92.1344 167.775 92.1678 167.475C92.2178 167.158 92.2928 166.867 92.3928 166.6C92.4928 166.317 92.6344 166.1 92.8178 165.95C93.0678 165.75 93.3178 165.642 93.5678 165.625C93.8344 165.592 94.0761 165.625 94.2928 165.725C94.5261 165.825 94.7178 165.975 94.8678 166.175C95.0344 166.358 95.1511 166.567 95.2178 166.8C95.2678 167 95.3094 167.242 95.3428 167.525C95.3761 167.792 95.3928 168.075 95.3928 168.375C95.4094 168.675 95.4178 168.975 95.4178 169.275C95.4178 169.575 95.4178 169.85 95.4178 170.1H95.6678C95.9178 170.1 96.2094 170.092 96.5428 170.075C96.8761 170.058 97.2011 170.067 97.5178 170.1C97.8511 170.133 98.1511 170.217 98.4178 170.35C98.6844 170.467 98.8844 170.675 99.0178 170.975Z" fill="#FFF2D0"/>
<path d="M36.4805 139.75C36.9638 139.95 37.4055 140.242 37.8055 140.625C38.2055 140.992 38.5471 141.417 38.8305 141.9C39.1305 142.383 39.3555 142.908 39.5055 143.475C39.6721 144.025 39.7555 144.583 39.7555 145.15C39.7721 146 39.5721 146.8 39.1555 147.55C38.7555 148.3 38.0971 148.875 37.1805 149.275C36.4805 149.558 35.7555 149.775 35.0055 149.925C34.2721 150.058 33.5055 150.15 32.7055 150.2V154.775C32.7055 154.875 32.6888 154.967 32.6555 155.05C32.6388 155.133 32.6305 155.217 32.6305 155.3C32.5971 155.467 32.5555 155.617 32.5055 155.75C32.4721 155.883 32.4221 156.025 32.3555 156.175C32.2888 156.275 32.2221 156.367 32.1555 156.45C32.0888 156.533 32.0138 156.617 31.9305 156.7C31.5305 156.9 31.1138 156.942 30.6805 156.825C30.4138 156.808 30.1971 156.725 30.0305 156.575C29.8805 156.425 29.7721 156.267 29.7055 156.1C29.6388 155.933 29.5805 155.742 29.5305 155.525C29.5138 155.442 29.4971 155.358 29.4805 155.275C29.4805 155.208 29.4805 155.133 29.4805 155.05V141.125C29.4805 141.025 29.4805 140.925 29.4805 140.825C29.4971 140.708 29.5138 140.592 29.5305 140.475C29.5471 140.275 29.5971 140.075 29.6805 139.875C29.8305 139.458 30.1388 139.175 30.6055 139.025C31.0721 138.875 31.5971 138.808 32.1805 138.825C32.5805 138.842 32.9888 138.883 33.4055 138.95C33.8388 139.017 34.2471 139.1 34.6305 139.2C35.0305 139.283 35.3888 139.375 35.7055 139.475C36.0221 139.575 36.2805 139.667 36.4805 139.75ZM36.5305 145.15C36.5971 144.683 36.5388 144.292 36.3555 143.975C36.1888 143.642 35.9471 143.375 35.6305 143.175C35.3138 142.958 34.9471 142.792 34.5305 142.675C34.1305 142.558 33.7305 142.475 33.3305 142.425C33.2805 142.408 33.1971 142.4 33.0805 142.4C32.9805 142.4 32.8638 142.4 32.7305 142.4C32.7305 142.933 32.7305 143.45 32.7305 143.95C32.7471 144.433 32.7471 144.958 32.7305 145.525V147.2C33.1138 147.183 33.5138 147.142 33.9305 147.075C34.3638 147.008 34.7638 146.9 35.1305 146.75C35.4971 146.6 35.8055 146.4 36.0555 146.15C36.3221 145.9 36.4805 145.567 36.5305 145.15ZM48.7852 139.75C49.2685 139.95 49.7102 140.242 50.1102 140.625C50.5102 140.992 50.8518 141.417 51.1352 141.9C51.4352 142.383 51.6602 142.908 51.8102 143.475C51.9768 144.025 52.0602 144.583 52.0602 145.15C52.0768 146 51.8768 146.8 51.4602 147.55C51.0602 148.3 50.4018 148.875 49.4852 149.275C48.7852 149.558 48.0602 149.775 47.3102 149.925C46.5768 150.058 45.8102 150.15 45.0102 150.2V154.775C45.0102 154.875 44.9935 154.967 44.9602 155.05C44.9435 155.133 44.9352 155.217 44.9352 155.3C44.9018 155.467 44.8602 155.617 44.8102 155.75C44.7768 155.883 44.7268 156.025 44.6602 156.175C44.5935 156.275 44.5268 156.367 44.4602 156.45C44.3935 156.533 44.3185 156.617 44.2352 156.7C43.8352 156.9 43.4185 156.942 42.9852 156.825C42.7185 156.808 42.5018 156.725 42.3352 156.575C42.1852 156.425 42.0768 156.267 42.0102 156.1C41.9435 155.933 41.8852 155.742 41.8352 155.525C41.8185 155.442 41.8018 155.358 41.7852 155.275C41.7852 155.208 41.7852 155.133 41.7852 155.05V141.125C41.7852 141.025 41.7852 140.925 41.7852 140.825C41.8018 140.708 41.8185 140.592 41.8352 140.475C41.8518 140.275 41.9018 140.075 41.9852 139.875C42.1352 139.458 42.4435 139.175 42.9102 139.025C43.3768 138.875 43.9018 138.808 44.4852 138.825C44.8852 138.842 45.2935 138.883 45.7102 138.95C46.1435 139.017 46.5518 139.1 46.9352 139.2C47.3352 139.283 47.6935 139.375 48.0102 139.475C48.3268 139.575 48.5852 139.667 48.7852 139.75ZM48.8352 145.15C48.9018 144.683 48.8435 144.292 48.6602 143.975C48.4935 143.642 48.2518 143.375 47.9352 143.175C47.6185 142.958 47.2518 142.792 46.8352 142.675C46.4352 142.558 46.0352 142.475 45.6352 142.425C45.5852 142.408 45.5018 142.4 45.3852 142.4C45.2852 142.4 45.1685 142.4 45.0352 142.4C45.0352 142.933 45.0352 143.45 45.0352 143.95C45.0518 144.433 45.0518 144.958 45.0352 145.525V147.2C45.4185 147.183 45.8185 147.142 46.2352 147.075C46.6685 147.008 47.0685 146.9 47.4352 146.75C47.8018 146.6 48.1102 146.4 48.3602 146.15C48.6268 145.9 48.7852 145.567 48.8352 145.15ZM57.4148 149C57.3982 149.083 57.3815 149.167 57.3648 149.25C57.3648 149.317 57.3648 149.392 57.3648 149.475L57.2148 150C57.1815 150.067 57.1565 150.108 57.1398 150.125L57.0648 150.275C56.9815 150.458 56.8315 150.608 56.6148 150.725C56.2148 150.925 55.7898 150.975 55.3398 150.875C55.0565 150.842 54.8315 150.758 54.6648 150.625C54.4982 150.508 54.3815 150.367 54.3148 150.2C54.2482 150.033 54.1982 149.867 54.1648 149.7C54.1148 149.533 54.0898 149.383 54.0898 149.25V135.25C54.0898 135.133 54.0898 135.033 54.0898 134.95C54.1065 134.85 54.1232 134.758 54.1398 134.675C54.1565 134.558 54.1732 134.458 54.1898 134.375C54.2232 134.292 54.2565 134.2 54.2898 134.1C54.3398 133.933 54.4315 133.8 54.5648 133.7C54.7648 133.55 54.9565 133.467 55.1398 133.45C55.2565 133.417 55.3648 133.4 55.4648 133.4C55.5648 133.383 55.6815 133.375 55.8148 133.375C56.0482 133.375 56.3148 133.442 56.6148 133.575C56.8482 133.708 57.0148 133.892 57.1148 134.125C57.2815 134.458 57.3648 134.767 57.3648 135.05C57.3815 135.217 57.3898 135.467 57.3898 135.8C57.4065 136.133 57.4148 136.383 57.4148 136.55V136.65C57.4482 137.183 57.4648 137.7 57.4648 138.2C57.4648 138.683 57.4565 139.217 57.4398 139.8C57.4398 140.367 57.4315 140.917 57.4148 141.45C57.4148 141.967 57.4148 142.483 57.4148 143V148.25C57.4148 148.317 57.4148 148.383 57.4148 148.45C57.4315 148.5 57.4398 148.558 57.4398 148.625C57.4398 148.792 57.4315 148.917 57.4148 149ZM62.6109 141.525C62.6109 141.992 62.6109 142.517 62.6109 143.1C62.6276 143.683 62.6359 144.292 62.6359 144.925C62.6359 145.542 62.6359 146.158 62.6359 146.775C62.6359 147.375 62.6276 147.933 62.6109 148.45C62.5943 148.7 62.5693 148.975 62.5359 149.275C62.5026 149.558 62.4359 149.825 62.3359 150.075C62.2359 150.325 62.0776 150.533 61.8609 150.7C61.6609 150.85 61.3859 150.917 61.0359 150.9C60.5193 150.867 60.1443 150.642 59.9109 150.225C59.6943 149.808 59.5693 149.225 59.5359 148.475C59.5359 148.092 59.5276 147.65 59.5109 147.15C59.5109 146.65 59.5026 146.142 59.4859 145.625C59.4859 145.108 59.4859 144.608 59.4859 144.125C59.4859 143.625 59.4859 143.175 59.4859 142.775C59.4859 142.542 59.4776 142.258 59.4609 141.925C59.4609 141.592 59.4693 141.25 59.4859 140.9C59.5026 140.55 59.5443 140.217 59.6109 139.9C59.6776 139.567 59.7859 139.292 59.9359 139.075C60.0526 138.942 60.2193 138.842 60.4359 138.775C60.6526 138.692 60.8776 138.65 61.1109 138.65C61.3609 138.65 61.5943 138.692 61.8109 138.775C62.0443 138.858 62.2109 138.975 62.3109 139.125C62.3776 139.225 62.4276 139.367 62.4609 139.55C62.4943 139.733 62.5193 139.942 62.5359 140.175C62.5693 140.392 62.5859 140.625 62.5859 140.875C62.6026 141.108 62.6109 141.325 62.6109 141.525ZM61.6609 136.475C61.1443 136.608 60.7109 136.558 60.3609 136.325C60.0276 136.075 59.8193 135.708 59.7359 135.225C59.6693 134.875 59.6943 134.567 59.8109 134.3C59.9276 134.033 60.1026 133.833 60.3359 133.7C60.5693 133.55 60.8359 133.483 61.1359 133.5C61.4359 133.517 61.7359 133.633 62.0359 133.85C62.3193 134.05 62.5193 134.283 62.6359 134.55C62.7693 134.817 62.8109 135.075 62.7609 135.325C62.7276 135.575 62.6193 135.808 62.4359 136.025C62.2526 136.225 61.9943 136.375 61.6609 136.475ZM73.4576 147.575C73.6576 147.525 73.8576 147.492 74.0576 147.475C74.2743 147.458 74.466 147.483 74.6326 147.55C74.816 147.617 74.966 147.733 75.0826 147.9C75.1993 148.05 75.2576 148.267 75.2576 148.55C75.2576 148.75 75.2076 148.942 75.1076 149.125C75.0076 149.308 74.8826 149.475 74.7326 149.625C74.5826 149.775 74.416 149.908 74.2326 150.025C74.0493 150.125 73.8743 150.208 73.7076 150.275C73.2243 150.492 72.666 150.658 72.0326 150.775C71.416 150.892 70.7743 150.933 70.1076 150.9C69.2076 150.867 68.341 150.692 67.5076 150.375C66.691 150.042 66.0493 149.5 65.5826 148.75C65.1493 148.017 64.891 147.2 64.8076 146.3C64.7243 145.4 64.766 144.55 64.9326 143.75C65.116 142.783 65.4243 142 65.8576 141.4C66.3076 140.783 66.841 140.292 67.4576 139.925C68.2076 139.492 69.0493 139.267 69.9826 139.25C70.916 139.233 71.8076 139.417 72.6576 139.8C73.2243 140.05 73.7326 140.392 74.1826 140.825C74.6326 141.242 74.9743 141.75 75.2076 142.35C75.2743 142.5 75.3243 142.683 75.3576 142.9C75.4076 143.117 75.441 143.35 75.4576 143.6C75.4743 143.833 75.4743 144.067 75.4576 144.3C75.441 144.533 75.3993 144.742 75.3326 144.925C75.2326 145.225 75.1076 145.458 74.9576 145.625C74.8076 145.792 74.616 145.917 74.3826 146C74.1493 146.083 73.866 146.142 73.5326 146.175C73.216 146.192 72.8326 146.208 72.3826 146.225C71.9826 146.242 71.6076 146.25 71.2576 146.25C70.9076 146.25 70.5493 146.25 70.1826 146.25C69.816 146.233 69.4326 146.225 69.0326 146.225C68.6493 146.208 68.216 146.192 67.7326 146.175C67.6826 146.508 67.7243 146.8 67.8576 147.05C68.0076 147.283 68.2076 147.483 68.4576 147.65C68.7076 147.8 68.991 147.917 69.3076 148C69.6243 148.083 69.9326 148.133 70.2326 148.15C70.7993 148.183 71.341 148.142 71.8576 148.025C72.3743 147.892 72.9076 147.742 73.4576 147.575ZM72.3826 142.725C72.066 142.358 71.7326 142.092 71.3826 141.925C71.116 141.808 70.8326 141.758 70.5326 141.775C70.2493 141.775 69.9743 141.817 69.7076 141.9C69.2243 142.017 68.816 142.267 68.4826 142.65C68.4493 142.683 68.391 142.767 68.3076 142.9C68.2243 143.017 68.141 143.142 68.0576 143.275C67.991 143.408 67.941 143.533 67.9076 143.65C67.8743 143.767 67.891 143.825 67.9576 143.825H72.8576C72.841 143.592 72.7993 143.4 72.7326 143.25C72.666 143.083 72.5493 142.908 72.3826 142.725ZM85.2785 133.525C85.5952 133.442 85.8702 133.433 86.1035 133.5C86.3535 133.55 86.5618 133.658 86.7285 133.825C86.9118 133.992 87.0452 134.2 87.1285 134.45C87.2285 134.7 87.2785 134.975 87.2785 135.275C87.2952 136.108 87.2952 136.758 87.2785 137.225C87.2785 137.692 87.2785 138.1 87.2785 138.45V146.125C87.2785 147.025 87.2785 147.775 87.2785 148.375C87.2785 148.975 87.2452 149.467 87.1785 149.85C87.1285 150.217 87.0285 150.492 86.8785 150.675C86.7452 150.858 86.5368 150.983 86.2535 151.05C85.9702 151.133 85.5952 151.175 85.1285 151.175C84.6785 151.175 84.1118 151.175 83.4285 151.175C81.6285 151.175 80.2035 150.75 79.1535 149.9C78.1202 149.05 77.5702 147.7 77.5035 145.85C77.4702 145.05 77.5702 144.317 77.8035 143.65C78.0368 142.983 78.3785 142.417 78.8285 141.95C79.2952 141.467 79.8618 141.1 80.5285 140.85C81.2118 140.583 81.9868 140.458 82.8535 140.475H84.2285V136C84.2285 135.733 84.2285 135.475 84.2285 135.225C84.2285 134.958 84.2535 134.717 84.3035 134.5C84.3535 134.267 84.4535 134.067 84.6035 133.9C84.7535 133.733 84.9785 133.608 85.2785 133.525ZM80.9285 147.4C81.2785 147.883 81.9118 148.15 82.8285 148.2C83.0118 148.217 83.1868 148.225 83.3535 148.225C83.5202 148.208 83.6702 148.183 83.8035 148.15C83.9535 148.133 84.0952 148.108 84.2285 148.075V143.45C83.6452 143.35 83.1118 143.292 82.6285 143.275C82.1618 143.242 81.6952 143.408 81.2285 143.775C80.9785 143.975 80.7868 144.233 80.6535 144.55C80.5202 144.85 80.4452 145.175 80.4285 145.525C80.4118 145.858 80.4452 146.192 80.5285 146.525C80.6118 146.858 80.7452 147.15 80.9285 147.4ZM109.535 142.075C109.535 141.692 109.526 141.283 109.51 140.85C109.51 140.417 109.585 140.025 109.735 139.675C109.868 139.358 110.085 139.133 110.385 139C110.701 138.85 111.01 138.817 111.31 138.9C111.61 138.95 111.843 139.042 112.01 139.175C112.176 139.308 112.293 139.467 112.36 139.65C112.443 139.817 112.493 140.017 112.51 140.25C112.526 140.467 112.543 140.683 112.56 140.9C112.726 140.6 112.935 140.358 113.185 140.175C113.435 139.992 113.693 139.842 113.96 139.725C114.226 139.608 114.476 139.525 114.71 139.475C114.96 139.425 115.151 139.4 115.285 139.4C115.918 139.4 116.543 139.542 117.16 139.825C117.793 140.092 118.318 140.475 118.735 140.975C118.968 141.275 119.143 141.592 119.26 141.925C119.393 142.242 119.485 142.575 119.535 142.925C119.601 143.275 119.643 143.633 119.66 144C119.676 144.35 119.693 144.708 119.71 145.075C119.793 146.142 119.793 147.2 119.71 148.25C119.693 148.467 119.685 148.717 119.685 149C119.685 149.283 119.66 149.567 119.61 149.85C119.576 150.117 119.501 150.358 119.385 150.575C119.285 150.775 119.11 150.9 118.86 150.95C118.51 151.033 118.218 151.05 117.985 151C117.768 150.967 117.593 150.892 117.46 150.775C117.326 150.658 117.226 150.508 117.16 150.325C117.093 150.142 117.035 149.933 116.985 149.7C116.951 149.517 116.918 149.308 116.885 149.075C116.868 148.825 116.851 148.575 116.835 148.325C116.835 148.075 116.826 147.833 116.81 147.6C116.81 147.35 116.81 147.125 116.81 146.925C116.81 146.608 116.801 146.258 116.785 145.875C116.768 145.492 116.768 145.133 116.785 144.8C116.785 144.017 116.576 143.425 116.16 143.025C115.76 142.608 115.21 142.433 114.51 142.5C113.976 142.567 113.51 142.783 113.11 143.15C112.71 143.5 112.518 143.958 112.535 144.525C112.535 144.742 112.535 144.942 112.535 145.125C112.535 145.308 112.526 145.492 112.51 145.675C112.51 145.858 112.51 146.058 112.51 146.275C112.51 146.492 112.51 146.733 112.51 147C112.51 147.55 112.51 148.133 112.51 148.75C112.51 149.35 112.435 149.842 112.285 150.225C112.151 150.625 111.926 150.9 111.61 151.05C111.293 151.2 110.918 151.158 110.485 150.925C110.301 150.825 110.151 150.692 110.035 150.525C109.935 150.342 109.851 150.15 109.785 149.95C109.735 149.75 109.701 149.55 109.685 149.35C109.668 149.133 109.651 148.933 109.635 148.75C109.585 148.2 109.551 147.692 109.535 147.225C109.535 146.742 109.535 146.225 109.535 145.675V142.075ZM132.165 146.275C132.165 146.808 132.148 147.383 132.115 148C132.098 148.617 132.073 149.192 132.04 149.725C132.04 150.225 132.015 150.725 131.965 151.225C131.932 151.658 131.865 152.125 131.765 152.625C131.665 153.142 131.523 153.617 131.34 154.05C131.107 154.617 130.79 155.1 130.39 155.5C129.99 155.917 129.473 156.217 128.84 156.4C128.307 156.533 127.807 156.617 127.34 156.65C126.873 156.7 126.373 156.692 125.84 156.625C125.49 156.575 125.115 156.475 124.715 156.325C124.315 156.192 123.94 156.017 123.59 155.8C123.24 155.583 122.932 155.325 122.665 155.025C122.398 154.742 122.215 154.417 122.115 154.05C121.998 153.6 121.99 153.208 122.09 152.875C122.207 152.542 122.382 152.3 122.615 152.15C122.848 152 123.123 151.975 123.44 152.075C123.757 152.175 124.057 152.433 124.34 152.85C124.54 153.15 124.832 153.392 125.215 153.575C125.598 153.758 126.007 153.867 126.44 153.9C126.873 153.933 127.29 153.875 127.69 153.725C128.107 153.592 128.432 153.35 128.665 153C128.832 152.75 128.948 152.392 129.015 151.925C129.098 151.458 129.148 151 129.165 150.55C128.315 150.9 127.44 151.033 126.54 150.95C125.657 150.85 124.848 150.575 124.115 150.125C123.398 149.658 122.815 149.042 122.365 148.275C121.932 147.492 121.748 146.608 121.815 145.625C121.865 144.775 122.04 143.975 122.34 143.225C122.657 142.475 123.173 141.85 123.89 141.35C124.473 140.95 125.132 140.692 125.865 140.575C126.598 140.442 127.307 140.375 127.99 140.375C128.39 140.375 128.782 140.375 129.165 140.375C129.565 140.375 129.932 140.425 130.265 140.525C130.598 140.625 130.898 140.792 131.165 141.025C131.432 141.258 131.632 141.6 131.765 142.05C131.982 142.75 132.098 143.442 132.115 144.125C132.148 144.808 132.165 145.525 132.165 146.275ZM127.34 148.35C127.507 148.35 127.665 148.333 127.815 148.3C127.982 148.267 128.14 148.225 128.29 148.175C128.573 148.075 128.782 147.942 128.915 147.775C129.065 147.608 129.165 147.425 129.215 147.225C129.265 147.008 129.282 146.775 129.265 146.525C129.265 146.275 129.265 146.017 129.265 145.75C129.265 145.533 129.257 145.292 129.24 145.025C129.24 144.758 129.223 144.508 129.19 144.275C129.157 144.025 129.107 143.808 129.04 143.625C128.973 143.442 128.873 143.325 128.74 143.275C128.507 143.208 128.24 143.167 127.94 143.15C127.64 143.117 127.34 143.117 127.04 143.15C126.74 143.167 126.448 143.225 126.165 143.325C125.898 143.408 125.673 143.525 125.49 143.675C125.24 143.892 125.048 144.158 124.915 144.475C124.782 144.792 124.698 145.125 124.665 145.475C124.648 145.825 124.673 146.167 124.74 146.5C124.823 146.833 124.965 147.133 125.165 147.4C125.398 147.733 125.715 147.975 126.115 148.125C126.515 148.275 126.923 148.35 127.34 148.35ZM137.517 149C137.501 149.083 137.484 149.167 137.467 149.25C137.467 149.317 137.467 149.392 137.467 149.475L137.317 150C137.284 150.067 137.259 150.108 137.242 150.125L137.167 150.275C137.084 150.458 136.934 150.608 136.717 150.725C136.317 150.925 135.892 150.975 135.442 150.875C135.159 150.842 134.934 150.758 134.767 150.625C134.601 150.508 134.484 150.367 134.417 150.2C134.351 150.033 134.301 149.867 134.267 149.7C134.217 149.533 134.192 149.383 134.192 149.25V135.25C134.192 135.133 134.192 135.033 134.192 134.95C134.209 134.85 134.226 134.758 134.242 134.675C134.259 134.558 134.276 134.458 134.292 134.375C134.326 134.292 134.359 134.2 134.392 134.1C134.442 133.933 134.534 133.8 134.667 133.7C134.867 133.55 135.059 133.467 135.242 133.45C135.359 133.417 135.467 133.4 135.567 133.4C135.667 133.383 135.784 133.375 135.917 133.375C136.151 133.375 136.417 133.442 136.717 133.575C136.951 133.708 137.117 133.892 137.217 134.125C137.384 134.458 137.467 134.767 137.467 135.05C137.484 135.217 137.492 135.467 137.492 135.8C137.509 136.133 137.517 136.383 137.517 136.55V136.65C137.551 137.183 137.567 137.7 137.567 138.2C137.567 138.683 137.559 139.217 137.542 139.8C137.542 140.367 137.534 140.917 137.517 141.45C137.517 141.967 137.517 142.483 137.517 143V148.25C137.517 148.317 137.517 148.383 137.517 148.45C137.534 148.5 137.542 148.558 137.542 148.625C137.542 148.792 137.534 148.917 137.517 149ZM142.713 141.525C142.713 141.992 142.713 142.517 142.713 143.1C142.73 143.683 142.738 144.292 142.738 144.925C142.738 145.542 142.738 146.158 142.738 146.775C142.738 147.375 142.73 147.933 142.713 148.45C142.697 148.7 142.672 148.975 142.638 149.275C142.605 149.558 142.538 149.825 142.438 150.075C142.338 150.325 142.18 150.533 141.963 150.7C141.763 150.85 141.488 150.917 141.138 150.9C140.622 150.867 140.247 150.642 140.013 150.225C139.797 149.808 139.672 149.225 139.638 148.475C139.638 148.092 139.63 147.65 139.613 147.15C139.613 146.65 139.605 146.142 139.588 145.625C139.588 145.108 139.588 144.608 139.588 144.125C139.588 143.625 139.588 143.175 139.588 142.775C139.588 142.542 139.58 142.258 139.563 141.925C139.563 141.592 139.572 141.25 139.588 140.9C139.605 140.55 139.647 140.217 139.713 139.9C139.78 139.567 139.888 139.292 140.038 139.075C140.155 138.942 140.322 138.842 140.538 138.775C140.755 138.692 140.98 138.65 141.213 138.65C141.463 138.65 141.697 138.692 141.913 138.775C142.147 138.858 142.313 138.975 142.413 139.125C142.48 139.225 142.53 139.367 142.563 139.55C142.597 139.733 142.622 139.942 142.638 140.175C142.672 140.392 142.688 140.625 142.688 140.875C142.705 141.108 142.713 141.325 142.713 141.525ZM141.763 136.475C141.247 136.608 140.813 136.558 140.463 136.325C140.13 136.075 139.922 135.708 139.838 135.225C139.772 134.875 139.797 134.567 139.913 134.3C140.03 134.033 140.205 133.833 140.438 133.7C140.672 133.55 140.938 133.483 141.238 133.5C141.538 133.517 141.838 133.633 142.138 133.85C142.422 134.05 142.622 134.283 142.738 134.55C142.872 134.817 142.913 135.075 142.863 135.325C142.83 135.575 142.722 135.808 142.538 136.025C142.355 136.225 142.097 136.375 141.763 136.475ZM150.885 146.6C150.568 146.4 150.21 146.242 149.81 146.125C149.427 146.008 149.027 145.9 148.61 145.8C148.21 145.7 147.818 145.592 147.435 145.475C147.052 145.342 146.702 145.158 146.385 144.925C145.702 144.408 145.302 143.775 145.185 143.025C145.085 142.258 145.252 141.492 145.685 140.725C145.918 140.325 146.227 140 146.61 139.75C146.993 139.483 147.41 139.283 147.86 139.15C148.327 139 148.802 138.917 149.285 138.9C149.768 138.883 150.227 138.908 150.66 138.975C150.943 139.025 151.243 139.1 151.56 139.2C151.877 139.283 152.168 139.4 152.435 139.55C152.718 139.7 152.968 139.892 153.185 140.125C153.418 140.342 153.585 140.617 153.685 140.95C153.752 141.167 153.76 141.375 153.71 141.575C153.677 141.775 153.593 141.942 153.46 142.075C153.343 142.208 153.185 142.308 152.985 142.375C152.802 142.442 152.602 142.458 152.385 142.425C152.135 142.375 151.902 142.3 151.685 142.2C151.468 142.1 151.252 141.992 151.035 141.875C150.818 141.758 150.593 141.658 150.36 141.575C150.143 141.492 149.91 141.45 149.66 141.45C149.277 141.433 148.96 141.5 148.71 141.65C148.46 141.8 148.285 141.983 148.185 142.2C148.102 142.417 148.11 142.65 148.21 142.9C148.327 143.15 148.56 143.367 148.91 143.55C149.227 143.717 149.577 143.85 149.96 143.95C150.343 144.05 150.718 144.15 151.085 144.25C151.468 144.35 151.835 144.467 152.185 144.6C152.552 144.733 152.877 144.917 153.16 145.15C153.71 145.6 154.043 146.125 154.16 146.725C154.293 147.325 154.26 147.917 154.06 148.5C153.86 149.083 153.51 149.6 153.01 150.05C152.527 150.5 151.952 150.8 151.285 150.95C150.802 151.05 150.277 151.1 149.71 151.1C149.16 151.1 148.61 151.042 148.06 150.925C147.527 150.808 147.01 150.625 146.51 150.375C146.027 150.125 145.618 149.808 145.285 149.425C145.052 149.158 144.927 148.858 144.91 148.525C144.91 148.175 144.977 147.875 145.11 147.625C145.26 147.358 145.468 147.175 145.735 147.075C146.002 146.975 146.302 147.033 146.635 147.25C146.902 147.433 147.218 147.617 147.585 147.8C147.952 147.967 148.318 148.1 148.685 148.2C149.052 148.3 149.402 148.35 149.735 148.35C150.085 148.35 150.385 148.275 150.635 148.125C151.002 147.892 151.193 147.625 151.21 147.325C151.227 147.008 151.118 146.767 150.885 146.6ZM166.013 146.075C166.029 146.408 166.038 146.758 166.038 147.125C166.038 147.475 166.029 147.8 166.013 148.1C165.996 148.55 165.971 148.967 165.938 149.35C165.904 149.717 165.838 150.033 165.738 150.3C165.638 150.55 165.479 150.742 165.263 150.875C165.063 150.992 164.779 151.025 164.413 150.975C164.029 150.925 163.754 150.742 163.588 150.425C163.421 150.108 163.304 149.75 163.238 149.35C163.188 148.933 163.171 148.517 163.188 148.1C163.204 147.683 163.204 147.358 163.188 147.125C163.171 146.758 163.154 146.342 163.138 145.875C163.138 145.392 163.088 144.942 162.988 144.525C162.904 144.092 162.754 143.725 162.538 143.425C162.321 143.125 161.996 142.967 161.563 142.95C161.013 142.917 160.588 142.958 160.288 143.075C160.004 143.192 159.796 143.367 159.663 143.6C159.529 143.817 159.446 144.083 159.413 144.4C159.396 144.717 159.363 145.058 159.313 145.425L159.288 146.4V148.225C159.288 148.525 159.279 148.842 159.263 149.175C159.263 149.492 159.213 149.783 159.113 150.05C159.013 150.317 158.854 150.542 158.638 150.725C158.438 150.908 158.138 151 157.738 151C157.238 151 156.863 150.842 156.613 150.525C156.379 150.192 156.263 149.783 156.263 149.3V134.925C156.263 134.825 156.263 134.733 156.263 134.65C156.279 134.55 156.296 134.45 156.313 134.35C156.346 134.25 156.371 134.158 156.388 134.075C156.404 133.975 156.429 133.883 156.463 133.8C156.513 133.633 156.596 133.508 156.713 133.425C156.796 133.342 156.879 133.275 156.963 133.225C157.046 133.175 157.138 133.142 157.238 133.125C157.321 133.108 157.413 133.1 157.513 133.1C157.613 133.083 157.713 133.075 157.813 133.075C158.063 133.075 158.304 133.15 158.538 133.3C158.638 133.367 158.729 133.442 158.813 133.525C158.896 133.592 158.963 133.692 159.013 133.825C159.146 134.142 159.213 134.442 159.213 134.725C159.229 134.808 159.238 134.933 159.238 135.1C159.254 135.25 159.263 135.408 159.263 135.575C159.263 135.742 159.263 135.908 159.263 136.075C159.279 136.225 159.288 136.342 159.288 136.425V136.55C159.304 137.083 159.313 137.625 159.313 138.175C159.313 138.725 159.313 139.283 159.313 139.85V140.275C160.013 140.042 160.746 139.933 161.513 139.95C162.279 139.95 162.963 140.1 163.563 140.4C164.179 140.717 164.646 141.075 164.963 141.475C165.296 141.875 165.538 142.317 165.688 142.8C165.838 143.283 165.921 143.8 165.938 144.35C165.971 144.9 165.996 145.475 166.013 146.075ZM30.6791 170.7C31.2291 170.433 31.8041 170.242 32.4041 170.125C33.0041 170.008 33.5958 169.983 34.1791 170.05C34.7791 170.117 35.3541 170.275 35.9041 170.525C36.4708 170.775 36.9874 171.125 37.4541 171.575C37.8374 171.958 38.1708 172.425 38.4541 172.975C38.7374 173.508 38.9458 174.033 39.0791 174.55C39.3624 175.467 39.4041 176.392 39.2041 177.325C39.0041 178.258 38.6624 179.125 38.1791 179.925C37.9458 180.292 37.6541 180.625 37.3041 180.925C36.9708 181.208 36.6124 181.442 36.2291 181.625C35.7291 181.858 35.1874 182.017 34.6041 182.1C34.0208 182.2 33.4541 182.225 32.9041 182.175C31.9041 182.125 31.0208 181.875 30.2541 181.425C29.5041 180.975 28.8958 180.4 28.4291 179.7C27.9791 179 27.6791 178.208 27.5291 177.325C27.3958 176.425 27.4541 175.508 27.7041 174.575C27.9708 173.575 28.3541 172.767 28.8541 172.15C29.3708 171.517 29.9791 171.033 30.6791 170.7ZM31.4291 174.05C31.1791 174.283 30.9874 174.575 30.8541 174.925C30.7208 175.275 30.6374 175.642 30.6041 176.025C30.5708 176.392 30.5958 176.767 30.6791 177.15C30.7791 177.517 30.9291 177.85 31.1291 178.15C31.2958 178.4 31.5958 178.608 32.0291 178.775C32.4624 178.942 32.9124 179.042 33.3791 179.075C33.9124 179.108 34.3791 178.967 34.7791 178.65C35.1791 178.317 35.4791 177.908 35.6791 177.425C35.8958 176.942 35.9958 176.417 35.9791 175.85C35.9624 175.283 35.8124 174.767 35.5291 174.3C35.3291 173.967 35.0458 173.725 34.6791 173.575C34.3291 173.408 33.9541 173.325 33.5541 173.325C33.1708 173.308 32.7874 173.367 32.4041 173.5C32.0208 173.617 31.6958 173.8 31.4291 174.05ZM41.3463 173.075C41.3463 172.692 41.338 172.283 41.3213 171.85C41.3213 171.417 41.3963 171.025 41.5463 170.675C41.6796 170.358 41.8963 170.133 42.1963 170C42.513 169.85 42.8213 169.817 43.1213 169.9C43.4213 169.95 43.6546 170.042 43.8213 170.175C43.988 170.308 44.1046 170.467 44.1713 170.65C44.2546 170.817 44.3046 171.017 44.3213 171.25C44.338 171.467 44.3546 171.683 44.3713 171.9C44.538 171.6 44.7463 171.358 44.9963 171.175C45.2463 170.992 45.5046 170.842 45.7713 170.725C46.038 170.608 46.288 170.525 46.5213 170.475C46.7713 170.425 46.963 170.4 47.0963 170.4C47.7296 170.4 48.3546 170.542 48.9713 170.825C49.6046 171.092 50.1296 171.475 50.5463 171.975C50.7796 172.275 50.9546 172.592 51.0713 172.925C51.2046 173.242 51.2963 173.575 51.3463 173.925C51.413 174.275 51.4546 174.633 51.4713 175C51.488 175.35 51.5046 175.708 51.5213 176.075C51.6046 177.142 51.6046 178.2 51.5213 179.25C51.5046 179.467 51.4963 179.717 51.4963 180C51.4963 180.283 51.4713 180.567 51.4213 180.85C51.388 181.117 51.313 181.358 51.1963 181.575C51.0963 181.775 50.9213 181.9 50.6713 181.95C50.3213 182.033 50.0296 182.05 49.7963 182C49.5796 181.967 49.4046 181.892 49.2713 181.775C49.138 181.658 49.038 181.508 48.9713 181.325C48.9046 181.142 48.8463 180.933 48.7963 180.7C48.763 180.517 48.7296 180.308 48.6963 180.075C48.6796 179.825 48.663 179.575 48.6463 179.325C48.6463 179.075 48.638 178.833 48.6213 178.6C48.6213 178.35 48.6213 178.125 48.6213 177.925C48.6213 177.608 48.613 177.258 48.5963 176.875C48.5796 176.492 48.5796 176.133 48.5963 175.8C48.5963 175.017 48.388 174.425 47.9713 174.025C47.5713 173.608 47.0213 173.433 46.3213 173.5C45.788 173.567 45.3213 173.783 44.9213 174.15C44.5213 174.5 44.3296 174.958 44.3463 175.525C44.3463 175.742 44.3463 175.942 44.3463 176.125C44.3463 176.308 44.338 176.492 44.3213 176.675C44.3213 176.858 44.3213 177.058 44.3213 177.275C44.3213 177.492 44.3213 177.733 44.3213 178C44.3213 178.55 44.3213 179.133 44.3213 179.75C44.3213 180.35 44.2463 180.842 44.0963 181.225C43.963 181.625 43.738 181.9 43.4213 182.05C43.1046 182.2 42.7296 182.158 42.2963 181.925C42.113 181.825 41.963 181.692 41.8463 181.525C41.7463 181.342 41.663 181.15 41.5963 180.95C41.5463 180.75 41.513 180.55 41.4963 180.35C41.4796 180.133 41.463 179.933 41.4463 179.75C41.3963 179.2 41.363 178.692 41.3463 178.225C41.3463 177.742 41.3463 177.225 41.3463 176.675V173.075ZM63.2756 170.975C63.4089 171.292 63.4173 171.642 63.3006 172.025C63.2006 172.408 63.0089 172.658 62.7256 172.775C62.5756 172.842 62.3756 172.9 62.1256 172.95C61.8756 172.983 61.6006 173.017 61.3006 173.05C61.0173 173.083 60.7339 173.108 60.4506 173.125C60.1673 173.142 59.9256 173.15 59.7256 173.15C59.7423 173.65 59.7589 174.167 59.7756 174.7C59.7923 175.217 59.8089 175.725 59.8256 176.225C59.8423 176.725 59.8506 177.208 59.8506 177.675C59.8506 178.125 59.8423 178.533 59.8256 178.9C59.8256 179.15 59.8256 179.442 59.8256 179.775C59.8256 180.092 59.8006 180.4 59.7506 180.7C59.7173 181 59.6589 181.267 59.5756 181.5C59.4923 181.717 59.3673 181.858 59.2006 181.925C58.6839 182.142 58.2089 182.2 57.7756 182.1C57.3589 182.017 57.0589 181.842 56.8756 181.575C56.7423 181.358 56.6423 181.108 56.5756 180.825C56.5089 180.525 56.4589 180.225 56.4256 179.925C56.4089 179.608 56.4006 179.308 56.4006 179.025C56.4173 178.725 56.4256 178.467 56.4256 178.25C56.4423 177.55 56.4506 176.758 56.4506 175.875C56.4673 174.975 56.4756 174.075 56.4756 173.175H56.1006C55.9006 173.175 55.6423 173.175 55.3256 173.175C55.0256 173.158 54.7173 173.133 54.4006 173.1C54.1006 173.05 53.8173 172.992 53.5506 172.925C53.2839 172.842 53.0923 172.725 52.9756 172.575C52.7923 172.358 52.6756 172.125 52.6256 171.875C52.5923 171.625 52.6089 171.392 52.6756 171.175C52.7589 170.942 52.8839 170.742 53.0506 170.575C53.2173 170.392 53.4089 170.275 53.6256 170.225C53.9256 170.142 54.3506 170.1 54.9006 170.1C55.4506 170.083 55.9673 170.083 56.4506 170.1C56.4339 169.933 56.4256 169.775 56.4256 169.625C56.4256 169.458 56.4173 169.3 56.4006 169.15C56.3839 168.95 56.3756 168.7 56.3756 168.4C56.3756 168.083 56.3923 167.775 56.4256 167.475C56.4756 167.158 56.5506 166.867 56.6506 166.6C56.7506 166.317 56.8923 166.1 57.0756 165.95C57.3256 165.75 57.5756 165.642 57.8256 165.625C58.0923 165.592 58.3339 165.625 58.5506 165.725C58.7839 165.825 58.9756 165.975 59.1256 166.175C59.2923 166.358 59.4089 166.567 59.4756 166.8C59.5256 167 59.5673 167.242 59.6006 167.525C59.6339 167.792 59.6506 168.075 59.6506 168.375C59.6673 168.675 59.6756 168.975 59.6756 169.275C59.6756 169.575 59.6756 169.85 59.6756 170.1H59.9256C60.1756 170.1 60.4673 170.092 60.8006 170.075C61.1339 170.058 61.4589 170.067 61.7756 170.1C62.1089 170.133 62.4089 170.217 62.6756 170.35C62.9423 170.467 63.1423 170.675 63.2756 170.975ZM73.0426 178.575C73.2426 178.525 73.4426 178.492 73.6426 178.475C73.8592 178.458 74.0509 178.483 74.2176 178.55C74.4009 178.617 74.5509 178.733 74.6676 178.9C74.7842 179.05 74.8426 179.267 74.8426 179.55C74.8426 179.75 74.7926 179.942 74.6926 180.125C74.5926 180.308 74.4676 180.475 74.3176 180.625C74.1676 180.775 74.0009 180.908 73.8176 181.025C73.6342 181.125 73.4592 181.208 73.2926 181.275C72.8092 181.492 72.2509 181.658 71.6176 181.775C71.0009 181.892 70.3592 181.933 69.6926 181.9C68.7926 181.867 67.9259 181.692 67.0926 181.375C66.2759 181.042 65.6342 180.5 65.1676 179.75C64.7342 179.017 64.4759 178.2 64.3926 177.3C64.3092 176.4 64.3509 175.55 64.5176 174.75C64.7009 173.783 65.0092 173 65.4426 172.4C65.8926 171.783 66.4259 171.292 67.0426 170.925C67.7926 170.492 68.6342 170.267 69.5676 170.25C70.5009 170.233 71.3926 170.417 72.2426 170.8C72.8092 171.05 73.3176 171.392 73.7676 171.825C74.2176 172.242 74.5592 172.75 74.7926 173.35C74.8592 173.5 74.9092 173.683 74.9426 173.9C74.9926 174.117 75.0259 174.35 75.0426 174.6C75.0592 174.833 75.0592 175.067 75.0426 175.3C75.0259 175.533 74.9842 175.742 74.9176 175.925C74.8176 176.225 74.6926 176.458 74.5426 176.625C74.3926 176.792 74.2009 176.917 73.9676 177C73.7342 177.083 73.4509 177.142 73.1176 177.175C72.8009 177.192 72.4176 177.208 71.9676 177.225C71.5676 177.242 71.1926 177.25 70.8426 177.25C70.4926 177.25 70.1342 177.25 69.7676 177.25C69.4009 177.233 69.0176 177.225 68.6176 177.225C68.2342 177.208 67.8009 177.192 67.3176 177.175C67.2676 177.508 67.3092 177.8 67.4426 178.05C67.5926 178.283 67.7926 178.483 68.0426 178.65C68.2926 178.8 68.5759 178.917 68.8926 179C69.2092 179.083 69.5176 179.133 69.8176 179.15C70.3842 179.183 70.9259 179.142 71.4426 179.025C71.9592 178.892 72.4926 178.742 73.0426 178.575ZM71.9676 173.725C71.6509 173.358 71.3176 173.092 70.9676 172.925C70.7009 172.808 70.4176 172.758 70.1176 172.775C69.8342 172.775 69.5592 172.817 69.2926 172.9C68.8092 173.017 68.4009 173.267 68.0676 173.65C68.0342 173.683 67.9759 173.767 67.8926 173.9C67.8092 174.017 67.7259 174.142 67.6426 174.275C67.5759 174.408 67.5259 174.533 67.4926 174.65C67.4592 174.767 67.4759 174.825 67.5426 174.825H72.4426C72.4259 174.592 72.3842 174.4 72.3176 174.25C72.2509 174.083 72.1342 173.908 71.9676 173.725ZM77.0885 173.075C77.0885 172.692 77.0801 172.283 77.0635 171.85C77.0635 171.417 77.1385 171.025 77.2885 170.675C77.4218 170.358 77.6385 170.133 77.9385 170C78.2551 169.85 78.5635 169.817 78.8635 169.9C79.1635 169.95 79.3968 170.042 79.5635 170.175C79.7301 170.308 79.8468 170.467 79.9135 170.65C79.9968 170.817 80.0468 171.017 80.0635 171.25C80.0801 171.467 80.0968 171.683 80.1135 171.9C80.2801 171.6 80.4885 171.358 80.7385 171.175C80.9885 170.992 81.2468 170.842 81.5135 170.725C81.7801 170.608 82.0301 170.525 82.2635 170.475C82.5135 170.425 82.7051 170.4 82.8385 170.4C83.4718 170.4 84.0968 170.542 84.7135 170.825C85.3468 171.092 85.8718 171.475 86.2885 171.975C86.5218 172.275 86.6968 172.592 86.8135 172.925C86.9468 173.242 87.0385 173.575 87.0885 173.925C87.1551 174.275 87.1968 174.633 87.2135 175C87.2301 175.35 87.2468 175.708 87.2635 176.075C87.3468 177.142 87.3468 178.2 87.2635 179.25C87.2468 179.467 87.2385 179.717 87.2385 180C87.2385 180.283 87.2135 180.567 87.1635 180.85C87.1301 181.117 87.0551 181.358 86.9385 181.575C86.8385 181.775 86.6635 181.9 86.4135 181.95C86.0635 182.033 85.7718 182.05 85.5385 182C85.3218 181.967 85.1468 181.892 85.0135 181.775C84.8801 181.658 84.7801 181.508 84.7135 181.325C84.6468 181.142 84.5885 180.933 84.5385 180.7C84.5051 180.517 84.4718 180.308 84.4385 180.075C84.4218 179.825 84.4051 179.575 84.3885 179.325C84.3885 179.075 84.3801 178.833 84.3635 178.6C84.3635 178.35 84.3635 178.125 84.3635 177.925C84.3635 177.608 84.3551 177.258 84.3385 176.875C84.3218 176.492 84.3218 176.133 84.3385 175.8C84.3385 175.017 84.1301 174.425 83.7135 174.025C83.3135 173.608 82.7635 173.433 82.0635 173.5C81.5301 173.567 81.0635 173.783 80.6635 174.15C80.2635 174.5 80.0718 174.958 80.0885 175.525C80.0885 175.742 80.0885 175.942 80.0885 176.125C80.0885 176.308 80.0801 176.492 80.0635 176.675C80.0635 176.858 80.0635 177.058 80.0635 177.275C80.0635 177.492 80.0635 177.733 80.0635 178C80.0635 178.55 80.0635 179.133 80.0635 179.75C80.0635 180.35 79.9885 180.842 79.8385 181.225C79.7051 181.625 79.4801 181.9 79.1635 182.05C78.8468 182.2 78.4718 182.158 78.0385 181.925C77.8551 181.825 77.7051 181.692 77.5885 181.525C77.4885 181.342 77.4051 181.15 77.3385 180.95C77.2885 180.75 77.2551 180.55 77.2385 180.35C77.2218 180.133 77.2051 179.933 77.1885 179.75C77.1385 179.2 77.1051 178.692 77.0885 178.225C77.0885 177.742 77.0885 177.225 77.0885 176.675V173.075ZM99.0178 170.975C99.1511 171.292 99.1594 171.642 99.0428 172.025C98.9428 172.408 98.7511 172.658 98.4678 172.775C98.3178 172.842 98.1178 172.9 97.8678 172.95C97.6178 172.983 97.3428 173.017 97.0428 173.05C96.7594 173.083 96.4761 173.108 96.1928 173.125C95.9094 173.142 95.6678 173.15 95.4678 173.15C95.4844 173.65 95.5011 174.167 95.5178 174.7C95.5344 175.217 95.5511 175.725 95.5678 176.225C95.5844 176.725 95.5928 177.208 95.5928 177.675C95.5928 178.125 95.5844 178.533 95.5678 178.9C95.5678 179.15 95.5678 179.442 95.5678 179.775C95.5678 180.092 95.5428 180.4 95.4928 180.7C95.4594 181 95.4011 181.267 95.3178 181.5C95.2344 181.717 95.1094 181.858 94.9428 181.925C94.4261 182.142 93.9511 182.2 93.5178 182.1C93.1011 182.017 92.8011 181.842 92.6178 181.575C92.4844 181.358 92.3844 181.108 92.3178 180.825C92.2511 180.525 92.2011 180.225 92.1678 179.925C92.1511 179.608 92.1428 179.308 92.1428 179.025C92.1594 178.725 92.1678 178.467 92.1678 178.25C92.1844 177.55 92.1928 176.758 92.1928 175.875C92.2094 174.975 92.2178 174.075 92.2178 173.175H91.8428C91.6428 173.175 91.3844 173.175 91.0678 173.175C90.7678 173.158 90.4594 173.133 90.1428 173.1C89.8428 173.05 89.5594 172.992 89.2928 172.925C89.0261 172.842 88.8344 172.725 88.7178 172.575C88.5344 172.358 88.4178 172.125 88.3678 171.875C88.3344 171.625 88.3511 171.392 88.4178 171.175C88.5011 170.942 88.6261 170.742 88.7928 170.575C88.9594 170.392 89.1511 170.275 89.3678 170.225C89.6678 170.142 90.0928 170.1 90.6428 170.1C91.1928 170.083 91.7094 170.083 92.1928 170.1C92.1761 169.933 92.1678 169.775 92.1678 169.625C92.1678 169.458 92.1594 169.3 92.1428 169.15C92.1261 168.95 92.1178 168.7 92.1178 168.4C92.1178 168.083 92.1344 167.775 92.1678 167.475C92.2178 167.158 92.2928 166.867 92.3928 166.6C92.4928 166.317 92.6344 166.1 92.8178 165.95C93.0678 165.75 93.3178 165.642 93.5678 165.625C93.8344 165.592 94.0761 165.625 94.2928 165.725C94.5261 165.825 94.7178 165.975 94.8678 166.175C95.0344 166.358 95.1511 166.567 95.2178 166.8C95.2678 167 95.3094 167.242 95.3428 167.525C95.3761 167.792 95.3928 168.075 95.3928 168.375C95.4094 168.675 95.4178 168.975 95.4178 169.275C95.4178 169.575 95.4178 169.85 95.4178 170.1H95.6678C95.9178 170.1 96.2094 170.092 96.5428 170.075C96.8761 170.058 97.2011 170.067 97.5178 170.1C97.8511 170.133 98.1511 170.217 98.4178 170.35C98.6844 170.467 98.8844 170.675 99.0178 170.975Z" fill="white"/>
<path d="M99.2141 136.3L99.1641 140.225H100.164C100.847 140.208 101.456 140.2 101.989 140.2C102.522 140.2 103.114 140.208 103.764 140.225H103.889C104.089 140.225 104.281 140.233 104.464 140.25C104.664 140.25 104.856 140.25 105.039 140.25C105.239 140.267 105.431 140.3 105.614 140.35C105.797 140.383 105.981 140.425 106.164 140.475C106.447 140.575 106.681 140.725 106.864 140.925C107.031 141.142 107.114 141.383 107.114 141.65C107.114 141.733 107.114 141.833 107.114 141.95C107.114 142.05 107.097 142.142 107.064 142.225C107.031 142.408 106.922 142.575 106.739 142.725C106.656 142.842 106.497 142.925 106.264 142.975C106.047 143.042 105.831 143.083 105.614 143.1C105.381 143.15 105.147 143.175 104.914 143.175H103.739L99.1141 143.2L99.0641 148.1L104.039 148.15H105.214C105.347 148.15 105.472 148.15 105.589 148.15C105.706 148.15 105.814 148.158 105.914 148.175C106.047 148.208 106.164 148.233 106.264 148.25C106.381 148.25 106.489 148.267 106.589 148.3C106.789 148.367 106.956 148.458 107.089 148.575C107.256 148.742 107.364 148.917 107.414 149.1C107.431 149.183 107.439 149.275 107.439 149.375C107.456 149.458 107.456 149.55 107.439 149.65C107.439 149.917 107.356 150.158 107.189 150.375C106.989 150.608 106.756 150.758 106.489 150.825C106.139 150.975 105.756 151.05 105.339 151.05C105.156 151.067 104.964 151.075 104.764 151.075C104.564 151.075 104.372 151.083 104.189 151.1H104.039C102.739 151.133 101.389 151.133 99.9891 151.1C99.6557 151.1 99.3891 151.092 99.1891 151.075C98.9891 151.075 98.8057 151.075 98.6391 151.075C98.4891 151.075 98.3307 151.075 98.1641 151.075C97.9974 151.075 97.7807 151.075 97.5141 151.075C97.1307 151.108 96.8141 151.042 96.5641 150.875C96.3807 150.758 96.2391 150.6 96.1391 150.4C96.0891 150.35 96.0641 150.3 96.0641 150.25C96.0474 150.217 96.0307 150.192 96.0141 150.175C95.9974 150.158 95.9807 150.133 95.9641 150.1C95.9307 150.017 95.9057 149.933 95.8891 149.85C95.8724 149.75 95.8641 149.658 95.8641 149.575C95.8474 149.492 95.8307 149.408 95.8141 149.325C95.8141 149.242 95.8057 149.158 95.7891 149.075V148.675C95.7891 148.608 95.7891 148.542 95.7891 148.475C95.8057 148.408 95.8141 148.342 95.8141 148.275V146.325L95.8641 142.725V139.4C95.8641 138.8 95.8641 138.267 95.8641 137.8C95.8807 137.333 95.8974 136.825 95.9141 136.275V136.15C95.9307 135.967 95.9391 135.8 95.9391 135.65C95.9557 135.483 95.9641 135.317 95.9641 135.15C95.9807 134.817 96.0724 134.492 96.2391 134.175C96.3057 134.042 96.3724 133.925 96.4391 133.825C96.5224 133.725 96.6307 133.642 96.7641 133.575C97.0141 133.425 97.2724 133.35 97.5391 133.35C97.6724 133.35 97.7724 133.358 97.8391 133.375V133.35C98.1391 133.35 98.3807 133.35 98.5641 133.35C98.7474 133.35 98.9224 133.35 99.0891 133.35C99.2724 133.35 99.4641 133.35 99.6641 133.35C99.8641 133.333 100.139 133.325 100.489 133.325C101.156 133.308 101.789 133.3 102.389 133.3C102.989 133.3 103.606 133.308 104.239 133.325H104.339C104.522 133.342 104.714 133.35 104.914 133.35C105.114 133.35 105.306 133.358 105.489 133.375C105.672 133.375 105.856 133.4 106.039 133.45C106.222 133.483 106.406 133.533 106.589 133.6C106.872 133.683 107.106 133.825 107.289 134.025C107.439 134.258 107.514 134.492 107.514 134.725C107.514 134.825 107.514 134.925 107.514 135.025C107.514 135.108 107.497 135.192 107.464 135.275C107.447 135.442 107.347 135.617 107.164 135.8C107.097 135.833 107.022 135.875 106.939 135.925C106.872 135.975 106.789 136.017 106.689 136.05C106.589 136.083 106.481 136.108 106.364 136.125C106.264 136.125 106.164 136.133 106.064 136.15C105.931 136.183 105.806 136.2 105.689 136.2C105.589 136.2 105.472 136.2 105.339 136.2H104.214L99.2141 136.225V136.3Z" fill="#FFF2D0"/>
<path d="M99.2141 136.3L99.1641 140.225H100.164C100.847 140.208 101.456 140.2 101.989 140.2C102.522 140.2 103.114 140.208 103.764 140.225H103.889C104.089 140.225 104.281 140.233 104.464 140.25C104.664 140.25 104.856 140.25 105.039 140.25C105.239 140.267 105.431 140.3 105.614 140.35C105.797 140.383 105.981 140.425 106.164 140.475C106.447 140.575 106.681 140.725 106.864 140.925C107.031 141.142 107.114 141.383 107.114 141.65C107.114 141.733 107.114 141.833 107.114 141.95C107.114 142.05 107.097 142.142 107.064 142.225C107.031 142.408 106.922 142.575 106.739 142.725C106.656 142.842 106.497 142.925 106.264 142.975C106.047 143.042 105.831 143.083 105.614 143.1C105.381 143.15 105.147 143.175 104.914 143.175H103.739L99.1141 143.2L99.0641 148.1L104.039 148.15H105.214C105.347 148.15 105.472 148.15 105.589 148.15C105.706 148.15 105.814 148.158 105.914 148.175C106.047 148.208 106.164 148.233 106.264 148.25C106.381 148.25 106.489 148.267 106.589 148.3C106.789 148.367 106.956 148.458 107.089 148.575C107.256 148.742 107.364 148.917 107.414 149.1C107.431 149.183 107.439 149.275 107.439 149.375C107.456 149.458 107.456 149.55 107.439 149.65C107.439 149.917 107.356 150.158 107.189 150.375C106.989 150.608 106.756 150.758 106.489 150.825C106.139 150.975 105.756 151.05 105.339 151.05C105.156 151.067 104.964 151.075 104.764 151.075C104.564 151.075 104.372 151.083 104.189 151.1H104.039C102.739 151.133 101.389 151.133 99.9891 151.1C99.6557 151.1 99.3891 151.092 99.1891 151.075C98.9891 151.075 98.8057 151.075 98.6391 151.075C98.4891 151.075 98.3307 151.075 98.1641 151.075C97.9974 151.075 97.7807 151.075 97.5141 151.075C97.1307 151.108 96.8141 151.042 96.5641 150.875C96.3807 150.758 96.2391 150.6 96.1391 150.4C96.0891 150.35 96.0641 150.3 96.0641 150.25C96.0474 150.217 96.0307 150.192 96.0141 150.175C95.9974 150.158 95.9807 150.133 95.9641 150.1C95.9307 150.017 95.9057 149.933 95.8891 149.85C95.8724 149.75 95.8641 149.658 95.8641 149.575C95.8474 149.492 95.8307 149.408 95.8141 149.325C95.8141 149.242 95.8057 149.158 95.7891 149.075V148.675C95.7891 148.608 95.7891 148.542 95.7891 148.475C95.8057 148.408 95.8141 148.342 95.8141 148.275V146.325L95.8641 142.725V139.4C95.8641 138.8 95.8641 138.267 95.8641 137.8C95.8807 137.333 95.8974 136.825 95.9141 136.275V136.15C95.9307 135.967 95.9391 135.8 95.9391 135.65C95.9557 135.483 95.9641 135.317 95.9641 135.15C95.9807 134.817 96.0724 134.492 96.2391 134.175C96.3057 134.042 96.3724 133.925 96.4391 133.825C96.5224 133.725 96.6307 133.642 96.7641 133.575C97.0141 133.425 97.2724 133.35 97.5391 133.35C97.6724 133.35 97.7724 133.358 97.8391 133.375V133.35C98.1391 133.35 98.3807 133.35 98.5641 133.35C98.7474 133.35 98.9224 133.35 99.0891 133.35C99.2724 133.35 99.4641 133.35 99.6641 133.35C99.8641 133.333 100.139 133.325 100.489 133.325C101.156 133.308 101.789 133.3 102.389 133.3C102.989 133.3 103.606 133.308 104.239 133.325H104.339C104.522 133.342 104.714 133.35 104.914 133.35C105.114 133.35 105.306 133.358 105.489 133.375C105.672 133.375 105.856 133.4 106.039 133.45C106.222 133.483 106.406 133.533 106.589 133.6C106.872 133.683 107.106 133.825 107.289 134.025C107.439 134.258 107.514 134.492 107.514 134.725C107.514 134.825 107.514 134.925 107.514 135.025C107.514 135.108 107.497 135.192 107.464 135.275C107.447 135.442 107.347 135.617 107.164 135.8C107.097 135.833 107.022 135.875 106.939 135.925C106.872 135.975 106.789 136.017 106.689 136.05C106.589 136.083 106.481 136.108 106.364 136.125C106.264 136.125 106.164 136.133 106.064 136.15C105.931 136.183 105.806 136.2 105.689 136.2C105.589 136.2 105.472 136.2 105.339 136.2H104.214L99.2141 136.225V136.3Z" fill="#ADC8F0"/>
<path d="M25.275 177.8C25.4917 178.283 25.5 178.758 25.3 179.225C25.1 179.675 24.7833 180.092 24.35 180.475C23.9167 180.858 23.4167 181.192 22.85 181.475C22.3 181.758 21.775 181.958 21.275 182.075C20.725 182.192 20.1417 182.242 19.525 182.225C18.925 182.225 18.3167 182.15 17.7 182C17.1 181.867 16.5083 181.667 15.925 181.4C15.3583 181.117 14.8333 180.775 14.35 180.375C13.7667 179.892 13.3083 179.317 12.975 178.65C12.6583 177.967 12.425 177.242 12.275 176.475C12.125 175.708 12.0417 174.942 12.025 174.175C12.025 173.392 12.05 172.658 12.1 171.975C12.15 171.358 12.275 170.717 12.475 170.05C12.675 169.383 12.95 168.733 13.3 168.1C13.6667 167.45 14.1 166.85 14.6 166.3C15.1167 165.75 15.7167 165.283 16.4 164.9C16.9167 164.6 17.4917 164.4 18.125 164.3C18.775 164.183 19.425 164.158 20.075 164.225C20.7417 164.275 21.3667 164.417 21.95 164.65C22.55 164.867 23.0583 165.167 23.475 165.55C23.7417 165.783 24.0167 166.108 24.3 166.525C24.6 166.942 24.8167 167.367 24.95 167.8C25.0833 168.233 25.0833 168.642 24.95 169.025C24.8333 169.392 24.5 169.642 23.95 169.775C23.7167 169.842 23.5083 169.858 23.325 169.825C23.1417 169.775 22.975 169.7 22.825 169.6C22.675 169.483 22.5333 169.35 22.4 169.2C22.2667 169.05 22.1417 168.9 22.025 168.75C21.625 168.267 21.1583 167.942 20.625 167.775C20.0917 167.592 19.5583 167.55 19.025 167.65C18.5083 167.733 18.0167 167.95 17.55 168.3C17.1 168.633 16.75 169.067 16.5 169.6C16.2333 170.167 16.0167 170.792 15.85 171.475C15.7 172.142 15.6167 172.825 15.6 173.525C15.5833 174.208 15.6417 174.875 15.775 175.525C15.925 176.175 16.175 176.75 16.525 177.25C16.7917 177.65 17.1167 177.975 17.5 178.225C17.9 178.475 18.325 178.65 18.775 178.75C19.225 178.85 19.675 178.867 20.125 178.8C20.5917 178.733 21.0417 178.583 21.475 178.35C21.6083 178.283 21.75 178.192 21.9 178.075C22.0667 177.942 22.2333 177.808 22.4 177.675C22.5667 177.542 22.7333 177.417 22.9 177.3C23.0833 177.183 23.275 177.1 23.475 177.05C23.775 176.95 24.1 176.958 24.45 177.075C24.8167 177.192 25.0917 177.433 25.275 177.8Z" fill="#FFF2D0"/>
<path d="M25.275 177.8C25.4917 178.283 25.5 178.758 25.3 179.225C25.1 179.675 24.7833 180.092 24.35 180.475C23.9167 180.858 23.4167 181.192 22.85 181.475C22.3 181.758 21.775 181.958 21.275 182.075C20.725 182.192 20.1417 182.242 19.525 182.225C18.925 182.225 18.3167 182.15 17.7 182C17.1 181.867 16.5083 181.667 15.925 181.4C15.3583 181.117 14.8333 180.775 14.35 180.375C13.7667 179.892 13.3083 179.317 12.975 178.65C12.6583 177.967 12.425 177.242 12.275 176.475C12.125 175.708 12.0417 174.942 12.025 174.175C12.025 173.392 12.05 172.658 12.1 171.975C12.15 171.358 12.275 170.717 12.475 170.05C12.675 169.383 12.95 168.733 13.3 168.1C13.6667 167.45 14.1 166.85 14.6 166.3C15.1167 165.75 15.7167 165.283 16.4 164.9C16.9167 164.6 17.4917 164.4 18.125 164.3C18.775 164.183 19.425 164.158 20.075 164.225C20.7417 164.275 21.3667 164.417 21.95 164.65C22.55 164.867 23.0583 165.167 23.475 165.55C23.7417 165.783 24.0167 166.108 24.3 166.525C24.6 166.942 24.8167 167.367 24.95 167.8C25.0833 168.233 25.0833 168.642 24.95 169.025C24.8333 169.392 24.5 169.642 23.95 169.775C23.7167 169.842 23.5083 169.858 23.325 169.825C23.1417 169.775 22.975 169.7 22.825 169.6C22.675 169.483 22.5333 169.35 22.4 169.2C22.2667 169.05 22.1417 168.9 22.025 168.75C21.625 168.267 21.1583 167.942 20.625 167.775C20.0917 167.592 19.5583 167.55 19.025 167.65C18.5083 167.733 18.0167 167.95 17.55 168.3C17.1 168.633 16.75 169.067 16.5 169.6C16.2333 170.167 16.0167 170.792 15.85 171.475C15.7 172.142 15.6167 172.825 15.6 173.525C15.5833 174.208 15.6417 174.875 15.775 175.525C15.925 176.175 16.175 176.75 16.525 177.25C16.7917 177.65 17.1167 177.975 17.5 178.225C17.9 178.475 18.325 178.65 18.775 178.75C19.225 178.85 19.675 178.867 20.125 178.8C20.5917 178.733 21.0417 178.583 21.475 178.35C21.6083 178.283 21.75 178.192 21.9 178.075C22.0667 177.942 22.2333 177.808 22.4 177.675C22.5667 177.542 22.7333 177.417 22.9 177.3C23.0833 177.183 23.275 177.1 23.475 177.05C23.775 176.95 24.1 176.958 24.45 177.075C24.8167 177.192 25.0917 177.433 25.275 177.8Z" fill="#649DF6"/>
<rect x="69" y="52" width="81" height="14" rx="7" fill="#7E7E7E"/>
<rect x="162" y="52" width="50" height="14" rx="7" fill="#7E7E7E"/>
<rect x="69" y="80" width="29" height="14" rx="7" fill="#7E7E7E"/>
<rect x="110" y="80" width="43" height="14" rx="7" fill="#7E7E7E"/>
<rect x="162" y="80" width="65" height="14" rx="7" fill="#7E7E7E"/>
</svg>
