<svg width="223" height="242" viewBox="0 0 223 242" fill="none" xmlns="http://www.w3.org/2000/svg">
<rect x="11.7836" y="5" width="203.509" height="96.3275" fill="#FFF2D0"/>
<rect x="56.5555" y="94.5439" width="115.322" height="142.456" fill="#FFF2D0"/>
<rect x="42.9883" y="70.1228" width="137.029" height="51.5556" fill="#ADC8F0"/>
<path d="M181.039 98.3524C181.039 98.3524 207.693 104.981 214.833 98.3524C221.972 91.7238 214.833 5 214.833 5H141.535M181.039 98.3524V119.343H170.568M181.039 98.3524V70.181H118.688M118.688 119.343H170.568M141.535 5L117.26 37.5905M141.535 5H92.9864M92.9864 70.181L117.26 37.5905M117.26 37.5905L92.9864 5M92.9864 5H11.1208C11.1208 5 15.4045 96.6952 11.1208 98.3524M170.568 119.343V237H92.9864" stroke="#649DF6" stroke-width="10"/>
<path d="M44.0831 98.3524C44.0831 98.3524 19.5894 102.771 9.98407 98.3524C0.378693 93.9333 7.10245 5 9.98407 5C12.8657 5 83.9454 5 83.9454 5H132.933C132.933 5 216.98 5.00081 215.539 5C214.098 4.99919 209.295 98.3524 215.539 98.3524M44.0831 98.3524V119.343H54.649M44.0831 98.3524V70.1809H124.768M119.966 119.343H54.649M54.649 119.343V237H132.933" stroke="#649DF6" stroke-width="10"/>
<path d="M47.7368 88.4385H119.899M180.018 101.327H131.429" stroke="#649DF6" stroke-width="10"/>
</svg>
