<svg width="366" height="293" viewBox="0 0 366 293" fill="none" xmlns="http://www.w3.org/2000/svg">
<path d="M66 41.4048L71 39.4048L178 103.405L301 81.4048L301 87.9048L309 91.9048L283.5 217.405C229.1 187.005 178.5 187.405 160 191.405C130.8 168.205 64.8333 169.071 35.5 172.405L54.5 48.4048L64.5 45.4048L66 41.4048Z" fill="white"/>
<path d="M175.646 100.259C156.399 41.0431 131.227 29.4656 70.5556 36.2483L53.4127 152.795C100.656 136.833 125.507 128.938 159.861 190.085L175.646 100.259Z" fill="white" stroke="#D0E3FF" stroke-width="3"/>
<path d="M159.759 190.392C127.032 150.05 105.802 143.07 47.1391 157.931L65.9341 40.405L70.4342 38.4051" stroke="#D0E3FF" stroke-width="3"/>
<path d="M65.4343 42.4048L60.9343 45.9049L41.4343 165.905C90.368 153.914 122.198 151.404 159.259 191.89" stroke="#D0E3FF" stroke-width="3"/>
<path d="M63.9344 45.405L55.4343 47.9693L34.9343 173.405C85.3382 169.205 119.776 168.732 160.434 192.405" stroke="#D0E3FF" stroke-width="6"/>
<path d="M40.8936 166.068C89.8808 151.986 116.325 153.102 159.354 191.607" stroke="#D0E3FF" stroke-width="3"/>
<path d="M40.8935 166.068C91.1815 158.211 117.43 160.911 157.506 190.347" stroke="#D0E3FF" stroke-width="3"/>
<path d="M178.149 100.048C216.806 51.236 244.434 49.1453 298.949 76.6246L274.448 191.849C235.716 160.439 215.168 144.387 161.677 189.75L178.149 100.048Z" fill="white" stroke="#D0E3FF" stroke-width="3"/>
<path d="M161.665 190.073C206.388 163.647 228.721 164.495 278.541 198.847L301.834 82.1297L298.312 78.6883" stroke="#D0E3FF" stroke-width="3"/>
<path d="M301.607 84.1786L304.607 89.0263L281.113 208.309C239.414 180.033 210.449 166.599 161.612 191.652" stroke="#D0E3FF" stroke-width="3"/>
<path d="M301.969 87.5132L309.044 92.8761L284.596 217.602C238.806 196.119 206.687 183.687 160.331 191.725" stroke="#D0E3FF" stroke-width="6"/>
<path d="M281.563 208.65C240.542 178.395 215.363 170.236 161.622 191.353" stroke="#D0E3FF" stroke-width="3"/>
<path d="M281.563 208.649C237.156 183.778 211.609 177.172 163.793 190.815" stroke="#D0E3FF" stroke-width="3"/>
<path fill-rule="evenodd" clip-rule="evenodd" d="M26.3546 204.511V176.912C26.4909 176.932 26.6302 176.942 26.7718 176.942H126.079C127.692 176.942 129 175.634 129 174.021C129 172.408 127.692 171.1 126.079 171.1H26.7718C26.6302 171.1 26.4909 171.11 26.3546 171.13V171.105C26.2158 171.102 26.0767 171.1 25.9373 171.1C15.1064 171.1 6.32617 179.881 6.32617 190.712C6.32617 201.542 15.1064 210.323 25.9373 210.323C26.0767 210.323 26.2158 210.321 26.3546 210.318V210.293C26.4909 210.313 26.6302 210.323 26.7718 210.323H126.079C127.692 210.323 129 209.015 129 207.402C129 205.789 127.692 204.481 126.079 204.481H26.7718C26.6302 204.481 26.4909 204.491 26.3546 204.511ZM26.0617 176.942C26.1594 176.942 26.2569 176.943 26.3542 176.945V204.478C26.2569 204.48 26.1594 204.481 26.0617 204.481C18.457 204.481 12.2922 198.316 12.2922 190.711C12.2922 183.107 18.457 176.942 26.0617 176.942Z" fill="#649DF6"/>
<path fill-rule="evenodd" clip-rule="evenodd" d="M23.6329 176.323H123.158V204.323H23.6329H23.2018V204.313C16.9769 204.04 12 197.881 12 190.323C12 182.764 16.9769 176.605 23.2018 176.332V176.323H23.6329Z" fill="#E8E8E8"/>
<path fill-rule="evenodd" clip-rule="evenodd" d="M102.645 166.766V146.334H2.16711C0.970284 146.334 6.10352e-05 145.364 6.10352e-05 144.167C6.10352e-05 142.97 0.970291 142 2.16711 142H102.982L103.009 142L103.063 142C113.894 142 122.674 148.514 122.674 156.55C122.674 164.586 113.894 171.1 103.063 171.1C103.035 171.1 103.008 171.1 102.981 171.1H2.16711C0.970284 171.1 6.10352e-05 170.13 6.10352e-05 168.933C6.10352e-05 167.736 0.970291 166.766 2.16711 166.766H102.645ZM102.918 166.766C102.827 166.766 102.736 166.765 102.646 166.764V146.336C102.743 146.335 102.841 146.334 102.938 146.334C110.543 146.334 116.708 150.908 116.708 156.55C116.708 162.187 110.554 166.758 102.959 166.766H102.918Z" fill="#FFB84E"/>
<path fill-rule="evenodd" clip-rule="evenodd" d="M5.99992 146.323H106V146.333C112.185 146.583 116.986 151.444 116.986 156.823C116.986 162.159 112.124 166.519 106 166.807V166.809H105.956C105.756 166.818 105.555 166.823 105.353 166.823C105.15 166.823 104.949 166.818 104.749 166.809H5.99992V146.323Z" fill="#E8E8E8"/>
<path fill-rule="evenodd" clip-rule="evenodd" d="M110.037 113C109.926 113 109.816 113.001 109.705 113.003C109.667 113.001 109.63 113 109.592 113H27.1669C25.9701 113 24.9999 113.97 24.9999 115.167C24.9999 116.364 25.9701 117.334 27.1669 117.334H109.592C109.626 117.334 109.659 117.333 109.693 117.332V137.769C109.659 137.767 109.626 137.766 109.592 137.766H27.1669C25.9701 137.766 24.9999 138.737 24.9999 139.933C24.9999 141.13 25.9701 142.1 27.1669 142.1H109.592C109.631 142.1 109.669 142.099 109.708 142.097C109.817 142.099 109.927 142.1 110.037 142.1C118.974 142.1 126.219 135.586 126.219 127.55C126.219 119.514 118.974 113 110.037 113ZM109.935 117.334C109.854 117.334 109.773 117.335 109.693 117.336V137.764C109.773 137.766 109.854 137.766 109.935 137.766C116.209 137.766 121.296 133.192 121.296 127.55C121.296 121.908 116.209 117.334 109.935 117.334Z" fill="#FFD596"/>
<path fill-rule="evenodd" clip-rule="evenodd" d="M112.189 117.423H29.8169V137.923H112.317H112.817V137.908C117.894 137.608 121.817 132.772 121.817 127.423C121.817 122.119 117.842 117.78 112.817 117.444V117.423H112.189Z" fill="#E8E8E8"/>
</svg>
