<svg width="251" height="255" viewBox="0 0 251 255" fill="none" xmlns="http://www.w3.org/2000/svg">
<path d="M159.375 220.755V94.2536L126.187 62L93 94.2536V220.755H126.187H159.375Z" fill="#D0E3FF" stroke="#ADC8F0" stroke-width="9"/>
<path d="M77 137V221H24V158.738L77 137Z" fill="#D0E3FF" stroke="#ADC8F0" stroke-width="9"/>
<path d="M175 223V139L228 160.738V223H175Z" stroke="#ADC8F0" stroke-width="9"/>
<path d="M246 233H5V250H246V233Z" fill="#D0E3FF" stroke="#ADC8F0" stroke-width="9"/>
<path d="M107.5 217.499C107.5 217.499 105 174.5 125 174.5C145 174.5 143 217.499 143 217.499H107.5Z" fill="#FFF2D0" stroke="#ADC8F0" stroke-width="4"/>
<path d="M125 174V217" stroke="#ADC8F0" stroke-width="4"/>
<path d="M125.18 96C113.18 95.9996 115.18 117 115.18 117C115.18 117 114.18 117.5 111.18 121C108.18 124.5 143.68 124.5 140.18 121C136.68 117.5 135.68 117 135.68 117C135.68 117 137.18 96.0004 125.18 96Z" stroke="#ADC8F0" stroke-width="4"/>
<path d="M201.18 160C189.18 160 191.18 181 191.18 181C191.18 181 190.18 181.5 187.18 185C184.18 188.5 219.68 188.5 216.18 185C212.68 181.5 211.68 181 211.68 181C211.68 181 213.18 160 201.18 160Z" stroke="#ADC8F0" stroke-width="4"/>
<path d="M40.1802 181C40.1802 181 38.1801 160 50.1802 160C62.1802 160 60.6802 181 60.6802 181C60.6802 181 61.6802 181.5 65.1802 185C68.6802 188.5 33.1803 188.5 36.1802 185C39.1801 181.5 40.1802 181 40.1802 181Z" fill="#FFF9F0" stroke="#ADC8F0" stroke-width="4"/>
<path d="M175 139V223H228V160.738L175 139Z" fill="#D0E3FF" stroke="#ADC8F0" stroke-width="9"/>
<path d="M211.82 183C211.82 183 213.82 162 201.82 162C189.82 162 191.32 183 191.32 183C191.32 183 190.32 183.5 186.82 187C183.32 190.5 218.82 190.5 215.82 187C212.82 183.5 211.82 183 211.82 183Z" fill="#FFF9F0" stroke="#ADC8F0" stroke-width="4"/>
<path d="M135.243 117C135.243 117 137.243 95.9996 125.243 96C113.243 96.0004 114.743 117 114.743 117C114.743 117 113.743 117.5 110.243 121C106.743 124.5 142.243 124.5 139.243 121C136.243 117.5 135.243 117 135.243 117Z" fill="#FFF9F0" stroke="#ADC8F0" stroke-width="4"/>
<path d="M79 127.5L21 152V144.5L79 119V127.5Z" fill="#FFD596" stroke="#FFD596" stroke-width="4"/>
<path d="M173 129.5L231 154V146.5L202 133.75L173 121V129.5Z" fill="#FFD596" stroke="#FFD596" stroke-width="4"/>
<path d="M89 86.5L126 50L164 86.5V76.5L126 41L89 76.5V86.5Z" fill="#FFD596" stroke="#FFD596" stroke-width="4"/>
<ellipse cx="124.762" cy="6.71428" rx="4.7619" ry="6.71428" fill="#FFD596"/>
<rect x="120" y="6.71436" width="9.52381" height="40.2857" fill="#FFD596"/>
<ellipse cx="115.762" cy="18.9683" rx="6.71428" ry="4.7619" transform="rotate(-90 115.762 18.9683)" fill="#FFD596"/>
<ellipse cx="133.81" cy="18.9683" rx="6.71428" ry="4.7619" transform="rotate(-90 133.81 18.9683)" fill="#FFD596"/>
<rect x="114.762" y="25.6826" width="13.4286" height="19.0476" transform="rotate(-90 114.762 25.6826)" fill="#FFD596"/>
</svg>
