<svg width="243" height="200" viewBox="0 0 243 200" fill="none" xmlns="http://www.w3.org/2000/svg">
<rect x="46.5" y="52.5" width="174" height="121" fill="white" stroke="#D0E3FF" stroke-width="3"/>
<rect x="39" y="42" width="188" height="12" rx="6" fill="#649DF6"/>
<rect x="39" y="169" width="188" height="12" rx="6" fill="#649DF6"/>
<g filter="url(#filter0_d_67_409)">
<rect x="161.5" y="48.5" width="76" height="48.0875" fill="white" stroke="#AEAEAE"/>
<rect x="161.5" y="48.5" width="76" height="9.5875" fill="white" stroke="#AEAEAE"/>
<rect x="161.5" y="58.125" width="76" height="9.5875" fill="white" stroke="#AEAEAE"/>
<rect x="161.5" y="67.75" width="76" height="9.5875" fill="white" stroke="#AEAEAE"/>
<rect x="161.5" y="77.375" width="76" height="9.5875" fill="white" stroke="#AEAEAE"/>
<rect x="161.5" y="87" width="76" height="9.5875" fill="white" stroke="#AEAEAE"/>
<line x1="180.75" y1="48" x2="180.75" y2="97.0875" stroke="#AEAEAE"/>
<line x1="200" y1="48" x2="200" y2="97.0875" stroke="#AEAEAE"/>
<line x1="218.288" y1="48" x2="218.288" y2="97.0875" stroke="#AEAEAE"/>
<line x1="237.538" y1="48" x2="237.538" y2="97.0875" stroke="#AEAEAE"/>
</g>
<circle cx="183" cy="128" r="23" fill="#FFD596"/>
<path d="M147 190.5C147 170.894 162.894 155 182.5 155V155C202.106 155 218 170.894 218 190.5V200H147V190.5Z" fill="#FFD596"/>
<ellipse cx="72.735" cy="72.855" rx="72.735" ry="72.855" fill="white"/>
<path fill-rule="evenodd" clip-rule="evenodd" d="M77.4929 143.925C85.9789 142.217 93.9588 135.208 100.187 123.955C102.127 120.449 103.873 116.569 105.387 112.375C96.8125 114.598 87.3922 115.948 77.4929 116.24V143.925ZM77.4929 111.237C88.2319 110.909 98.3132 109.29 107.244 106.677C110.185 96.6265 111.866 85.1188 111.866 72.8564L77.4929 72.8564L77.4929 111.237ZM77.4929 67.8564V34.4756C88.2319 34.8038 98.3132 36.4225 107.244 39.0355C109.782 47.7082 111.382 57.4655 111.773 67.8564H77.4929ZM116.866 72.8564C116.866 84.2442 115.467 95.078 112.942 104.82C117.136 103.306 121.016 101.56 124.522 99.6201C137.56 92.4043 144.9 82.8375 144.9 72.8564H116.866ZM144.283 67.8564H116.776C116.429 58.2972 115.095 49.1982 112.942 40.8925C117.136 42.4067 121.016 44.1524 124.522 46.0928C135.363 52.0929 142.265 59.7187 144.283 67.8564ZM72.4929 67.8564H35.0743C35.4653 57.4656 37.0651 47.7083 39.6025 39.0356C49.3988 36.1695 60.5789 34.4996 72.4929 34.4168V67.8564ZM34.9805 72.8564L72.4929 72.8564L72.4929 111.296C60.5789 111.213 49.3988 109.543 39.6025 106.677C36.6619 96.6264 34.9805 85.1188 34.9805 72.8564ZM30.0709 67.8564C30.4177 58.2973 31.752 49.1983 33.9046 40.8926C29.7111 42.4068 25.8308 44.1525 22.3251 46.0928C11.4839 52.0929 4.58222 59.7187 2.56445 67.8564H30.0709ZM1.94731 72.8564H29.9805C29.9805 84.2441 31.3796 95.0779 33.9046 104.82C29.7111 103.306 25.8308 101.56 22.3251 99.6201C9.28749 92.4043 1.94731 82.8375 1.94731 72.8564ZM104.562 126.376C107.156 121.689 109.406 116.414 111.247 110.68C116.981 108.839 122.256 106.589 126.943 103.995C134.977 99.5487 141.465 93.9734 145.468 87.5838C139.571 116.776 116.487 139.739 87.2309 145.457C94.0058 141.514 99.9036 134.793 104.562 126.376ZM87.2309 0.255782C116.487 5.9743 139.571 28.9369 145.468 58.129C141.465 51.7395 134.977 46.1642 126.943 41.7181C122.256 39.1236 116.981 36.8738 111.247 35.0332C109.406 29.2989 107.156 24.0243 104.562 19.3367C99.9036 10.9202 94.0058 4.19928 87.2309 0.255782ZM100.187 21.7579C102.127 25.2637 103.873 29.144 105.387 33.3376C96.8125 31.1152 87.3922 29.765 77.4929 29.4734V1.78828C85.9789 3.4958 93.9588 10.5045 100.187 21.7579ZM72.4929 1.40137V29.4167C61.4455 29.4907 50.9362 30.8815 41.4595 33.3377C42.9737 29.1441 44.7194 25.2637 46.6598 21.7579C53.651 9.12598 62.8493 1.84244 72.4929 1.40137ZM42.2851 19.3367C39.6907 24.0244 37.4408 29.299 35.6002 35.0334C29.866 36.8739 24.5915 39.1237 19.9039 41.7181C10.8697 46.7182 3.78906 53.1465 0 60.5548C5.15555 29.7526 29.3449 5.39961 60.0636 0C53.1007 3.9049 47.0456 10.7354 42.2851 19.3367ZM60.0636 145.713C29.3448 140.313 5.15554 115.96 0 85.1581C3.78906 92.5664 10.8697 98.9947 19.9039 103.995C24.5915 106.589 29.866 108.839 35.6002 110.68C37.4408 116.414 39.6907 121.689 42.2851 126.376C47.0456 134.978 53.1007 141.808 60.0636 145.713ZM46.6598 123.955C44.7194 120.449 42.9737 116.569 41.4595 112.375C50.9362 114.831 61.4455 116.222 72.4929 116.296V144.312C62.8493 143.87 53.651 136.587 46.6598 123.955Z" fill="#FFB84E"/>
<defs>
<filter id="filter0_d_67_409" x="161" y="48" width="81.0376" height="53.0874" filterUnits="userSpaceOnUse" color-interpolation-filters="sRGB">
<feFlood flood-opacity="0" result="BackgroundImageFix"/>
<feColorMatrix in="SourceAlpha" type="matrix" values="0 0 0 0 0 0 0 0 0 0 0 0 0 0 0 0 0 0 127 0" result="hardAlpha"/>
<feOffset dx="4" dy="4"/>
<feComposite in2="hardAlpha" operator="out"/>
<feColorMatrix type="matrix" values="0 0 0 0 0.680354 0 0 0 0 0.785991 0 0 0 0 0.941667 0 0 0 1 0"/>
<feBlend mode="normal" in2="BackgroundImageFix" result="effect1_dropShadow_67_409"/>
<feBlend mode="normal" in="SourceGraphic" in2="effect1_dropShadow_67_409" result="shape"/>
</filter>
</defs>
</svg>
