<svg width="300" height="234" viewBox="0 0 300 234" fill="none" xmlns="http://www.w3.org/2000/svg">
<ellipse cx="91.887" cy="91.994" rx="91.5408" ry="91.994" fill="white"/>
<path fill-rule="evenodd" clip-rule="evenodd" d="M96.5821 182.358C108.057 180.681 118.779 171.514 127.002 156.657C129.639 151.893 131.99 146.586 134 140.833C122.582 143.9 109.922 145.726 96.5821 146.02V182.358ZM96.5821 141.019C110.773 140.697 124.094 138.591 135.839 135.12C139.621 122.324 141.782 107.658 141.782 92.0339C141.782 92.0338 141.782 92.0338 141.782 92.0337H96.5821L96.5821 141.019ZM96.5821 87.0337V43.0485C110.773 43.3708 124.094 45.4763 135.839 48.9476C139.215 60.3692 141.299 73.2808 141.708 87.0337H96.5821ZM146.782 92.0337C146.782 92.0338 146.782 92.0338 146.782 92.0339C146.782 106.78 144.911 120.776 141.552 133.281C147.305 131.272 152.612 128.92 157.377 126.283C173.876 117.151 183.357 104.938 183.357 92.0338L146.782 92.0337ZM182.88 87.0337H146.71C146.337 74.1238 144.529 61.8696 141.552 50.7865C147.305 52.7962 152.612 55.1478 157.377 57.7848C171.727 65.7273 180.769 76.0014 182.88 87.0337ZM91.5821 87.0337H43.7984C44.2071 73.281 46.2912 60.3694 49.6669 48.948C62.1426 45.2606 76.3962 43.1143 91.5821 43.0091V87.0337ZM43.7242 92.0337H91.5821L91.5821 141.059C76.3962 140.953 62.1426 138.807 49.6669 135.12C45.8849 122.324 43.7242 107.658 43.7242 92.0339C43.7242 92.0338 43.7242 92.0338 43.7242 92.0337ZM38.7962 87.0337C39.1689 74.1239 40.977 61.8699 43.9538 50.787C38.2011 52.7965 32.8947 55.1479 28.1303 57.7848C13.7797 65.7273 4.73834 76.0014 2.6272 87.0337H38.7962ZM2.15045 92.0337H38.7242C38.7242 92.0338 38.7242 92.0338 38.7242 92.0339C38.7242 106.78 40.5951 120.776 43.9538 133.281C38.2011 131.271 32.8947 128.92 28.1303 126.283C11.6315 117.151 2.15045 104.938 2.15045 92.0338C2.15045 92.0338 2.15045 92.0338 2.15045 92.0337ZM131.377 159.078C134.668 153.131 137.518 146.424 139.841 139.122C147.143 136.799 153.851 133.949 159.798 130.657C170.492 124.739 178.929 117.26 183.781 108.711C176.856 147.006 146.509 177.151 108.111 183.777C117.211 179.066 125.155 170.319 131.377 159.078ZM108.111 0.290585C146.509 6.9166 176.856 37.0621 183.781 75.357C178.929 66.8073 170.492 59.329 159.798 53.4102C153.851 50.1187 147.143 47.2684 139.841 44.9455C137.518 37.6438 134.668 30.9364 131.377 24.9895C125.155 13.7487 117.211 5.00165 108.111 0.290585ZM127.002 27.4107C129.639 32.1752 131.99 37.4816 134 43.2345C122.582 40.1679 109.922 38.3416 96.5821 38.0473V1.70997C108.057 3.38704 118.779 12.5535 127.002 27.4107ZM91.5821 1.45683V38.009C77.2657 38.1054 63.6793 39.9651 51.5059 43.2349C53.5154 37.4819 55.867 32.1753 58.504 27.4107C67.3588 11.4117 79.1115 2.01171 91.5821 1.45683ZM54.1293 24.9895C50.8379 30.9365 47.9877 37.6441 45.6648 44.9459C38.3633 47.2687 31.656 50.1188 25.7091 53.4102C13.6079 60.1077 4.39677 68.8019 1.71214e-05 78.7857C5.76863 38.2928 37.5911 6.19451 77.9484 0.00976562C68.6167 4.64892 60.4764 13.5214 54.1293 24.9895ZM77.9484 184.058C37.591 177.873 5.76857 145.775 0 105.282C4.39675 115.266 13.6079 123.96 25.7091 130.657C31.6559 133.949 38.3632 136.799 45.6648 139.122C47.9877 146.424 50.8379 153.131 54.1293 159.078C60.4764 170.546 68.6167 179.419 77.9484 184.058ZM58.504 156.657C55.867 151.892 53.5154 146.586 51.5058 140.833C63.6793 144.103 77.2657 145.962 91.5821 146.059V182.611C79.1115 182.056 67.3588 172.656 58.504 156.657Z" fill="#FFB84E"/>
<rect x="241.964" y="157.598" width="32.7342" height="47.1299" fill="#D0E3FF"/>
<path d="M267.144 155.964C267.144 153.716 268.644 151.745 270.81 151.145L293.544 144.85C296.729 143.969 299.878 146.364 299.878 149.669V211.751C299.878 215.056 296.729 217.451 293.544 216.569L270.81 210.275C268.644 209.675 267.144 207.704 267.144 205.456V155.964Z" fill="#649DF6"/>
<rect width="39.4489" height="58.9124" rx="10" transform="matrix(-1 0 0 1 123.618 162.13)" fill="#D0E3FF"/>
<rect width="10.0721" height="71.6012" rx="5.03603" transform="matrix(-1 0 0 1 94.2402 157.598)" fill="#649DF6"/>
<rect x="105.152" y="128.595" width="146.045" height="105.136" rx="20" fill="#649DF6"/>
<rect x="137.047" y="170.287" width="82.2552" height="45.3172" rx="5" fill="#FFF2D0"/>
<ellipse cx="218.882" cy="151.073" rx="7.97371" ry="7.97583" fill="#FF7878"/>
<ellipse cx="192.746" cy="151.073" rx="7.97371" ry="7.97583" fill="#D0E3FF"/>
</svg>
