<svg width="147" height="165" viewBox="0 0 147 165" fill="none" xmlns="http://www.w3.org/2000/svg">
<line x1="113.925" y1="49.4835" x2="132.998" y2="55.197" stroke="#D0E3FF" stroke-width="4"/>
<line x1="107.875" y1="79.5895" x2="122.18" y2="83.8746" stroke="#D0E3FF" stroke-width="4"/>
<line x1="108.956" y1="56.1603" x2="133.478" y2="63.5062" stroke="#ADC8F0" stroke-width="4"/>
<line x1="106.03" y1="63.4489" x2="131.234" y2="70.9988" stroke="#D0E3FF" stroke-width="4"/>
<line x1="104.466" y1="71.1456" x2="128.988" y2="78.4915" stroke="#ADC8F0" stroke-width="4"/>
<line x1="107.875" y1="79.5895" x2="122.18" y2="83.8746" stroke="#D0E3FF" stroke-width="4"/>
<line x1="108.956" y1="56.1603" x2="133.478" y2="63.5062" stroke="#ADC8F0" stroke-width="4"/>
<line x1="106.03" y1="63.4489" x2="131.234" y2="70.9988" stroke="#D0E3FF" stroke-width="4"/>
<line x1="104.466" y1="71.1456" x2="128.988" y2="78.4915" stroke="#ADC8F0" stroke-width="4"/>
<line x1="99.6418" y1="97.1657" x2="118.715" y2="102.879" stroke="#D0E3FF" stroke-width="4"/>
<line x1="93.5915" y1="127.272" x2="107.896" y2="131.557" stroke="#D0E3FF" stroke-width="4"/>
<line x1="94.6716" y1="103.842" x2="119.194" y2="111.188" stroke="#ADC8F0" stroke-width="4"/>
<line x1="88.4221" y1="142.054" x2="103.408" y2="146.543" stroke="#D0E3FF" stroke-width="4"/>
<line x1="81.4089" y1="148.118" x2="105.931" y2="155.464" stroke="#ADC8F0" stroke-width="4"/>
<line x1="119.559" y1="23.3995" x2="144.082" y2="30.7454" stroke="#ADC8F0" stroke-width="4"/>
<line y1="-2" x2="15.6439" y2="-2" transform="matrix(0.957943 0.286958 0.286958 -0.957943 122.196 31.7803)" stroke="#D0E3FF" stroke-width="4"/>
<line x1="91.7468" y1="111.131" x2="116.95" y2="118.681" stroke="#D0E3FF" stroke-width="4"/>
<line x1="90.1833" y1="118.828" x2="114.706" y2="126.174" stroke="#ADC8F0" stroke-width="4"/>
<mask id="path-19-inside-1_21_333" fill="white">
<path fill-rule="evenodd" clip-rule="evenodd" d="M97.8035 138.787C107.99 136.365 116.644 128.728 119.865 117.976C123.085 107.225 120.056 96.0877 112.879 88.4644C102.692 90.8859 94.0382 98.5234 90.8174 109.275C87.5967 120.027 90.626 131.164 97.8035 138.787Z"/>
</mask>
<path d="M97.8035 138.787L94.8913 141.529L96.4774 143.214L98.7286 142.678L97.8035 138.787ZM112.879 88.4644L115.791 85.7224L114.205 84.0377L111.954 84.5728L112.879 88.4644ZM116.033 116.828C113.239 126.157 105.733 132.79 96.8785 134.895L98.7286 142.678C110.248 139.94 120.05 131.299 123.697 119.124L116.033 116.828ZM109.966 91.2064C116.205 97.8328 118.827 107.5 116.033 116.828L123.697 119.124C127.344 106.949 123.907 94.3425 115.791 85.7224L109.966 91.2064ZM94.6492 110.423C97.4436 101.094 104.949 94.4608 113.804 92.356L111.954 84.5728C100.435 87.311 90.6327 95.9524 86.9856 108.127L94.6492 110.423ZM100.716 136.045C94.4768 129.418 91.8548 119.751 94.6492 110.423L86.9856 108.127C83.3386 120.302 86.7751 132.909 94.8913 141.529L100.716 136.045Z" fill="#ADC8F0" mask="url(#path-19-inside-1_21_333)"/>
<mask id="path-21-inside-2_21_333" fill="white">
<path fill-rule="evenodd" clip-rule="evenodd" d="M111.909 91.7022C104.731 84.0789 101.701 72.9414 104.922 62.1895C108.143 51.4381 116.796 43.8007 126.982 41.3789C134.161 49.0022 137.19 60.1397 133.969 70.8917C130.749 81.6431 122.096 89.2804 111.909 91.7022Z"/>
</mask>
<path d="M111.909 91.7022L108.997 94.4443L110.583 96.1289L112.834 95.5937L111.909 91.7022ZM126.982 41.3789L129.894 38.6368L128.308 36.9522L126.057 37.4874L126.982 41.3789ZM114.821 88.96C108.582 82.3336 105.959 72.6661 108.754 63.3373L101.09 61.0416C97.4431 73.2168 100.88 85.8242 108.997 94.4443L114.821 88.96ZM108.754 63.3373C111.548 54.009 119.053 47.3756 127.908 45.2705L126.057 37.4874C114.539 40.2258 104.737 48.8671 101.09 61.0416L108.754 63.3373ZM124.07 44.1211C130.31 50.7475 132.932 60.415 130.138 69.7439L137.801 72.0395C141.448 59.8644 138.011 47.2569 129.894 38.6368L124.07 44.1211ZM130.138 69.7439C127.343 79.0722 119.838 85.7056 110.984 87.8107L112.834 95.5937C124.353 92.8553 134.154 84.214 137.801 72.0395L130.138 69.7439Z" fill="#ADC8F0" mask="url(#path-21-inside-2_21_333)"/>
<path fill-rule="evenodd" clip-rule="evenodd" d="M117.957 20.1187C116.8 29.2543 119.904 38.2398 125.987 44.7012C134.621 42.6487 142.154 36.8492 146.211 28.5824L142.317 27.416C139.113 33.5431 133.676 38.0337 127.349 40.1557C123.23 34.9044 121.158 28.1644 121.85 21.285L117.957 20.1187Z" fill="#ADC8F0"/>
<path fill-rule="evenodd" clip-rule="evenodd" d="M77.9997 152.063C82.0563 143.795 89.5891 137.995 98.2235 135.943C104.308 142.404 107.411 151.39 106.254 160.526L101.384 159.068C101.97 152.762 100.146 146.589 96.5072 141.672C90.7649 143.779 85.847 147.932 82.8696 153.521L77.9997 152.063Z" fill="#ADC8F0"/>
<path d="M18.1274 2C18.1274 0.895429 19.0229 0 20.1274 0H28.7019V12.0851H20.1274C19.0229 12.0851 18.1274 11.1897 18.1274 10.0851V2Z" fill="#649DF6"/>
<rect width="33.4753" height="16.0931" rx="3" transform="matrix(-0.766044 -0.642788 -0.642788 0.766044 95.2651 40.6743)" fill="#649DF6"/>
<rect width="33.4753" height="16.0931" rx="3" transform="matrix(-0.517997 -0.855382 -0.855382 0.517997 77.936 57.3364)" fill="#649DF6"/>
<path d="M53.7456 0H28.0648V12.0851L53.7456 30.2128V0Z" fill="#FFD596"/>
<rect x="4.53174" y="164.66" width="105.745" height="25.6809" transform="rotate(-90 4.53174 164.66)" fill="#ADC8F0"/>
<rect x="9.06396" y="53.2554" width="69.5198" height="21.1489" transform="rotate(-50 9.06396 53.2554)" fill="#ADC8F0"/>
<rect y="143.511" width="142" height="21.1489" rx="3" fill="#649DF6"/>
<rect x="48.3403" y="104.234" width="83.0851" height="9.06383" rx="2" fill="#FFB84E"/>
<path d="M41.8587 47.1553L70.0183 13.596L73.4719 22.41L51.1385 49.026L41.8587 47.1553Z" fill="#FFD596"/>
<path d="M30.2129 113.298H105.745V124.088L30.2129 143.511V113.298Z" fill="#649DF6"/>
<circle cx="19.6381" cy="58.915" r="15.1064" fill="#FFD596"/>
<circle cx="20.3937" cy="59.67" r="5.28723" fill="#577DB7"/>
</svg>
