<svg width="247" height="248" viewBox="0 0 247 248" fill="none" xmlns="http://www.w3.org/2000/svg">
<rect x="178.134" y="20.1294" width="66.8945" height="10.4058" rx="5" transform="rotate(23.4273 178.134 20.1294)" fill="white"/>
<path d="M180.817 32.6313L229.921 53.9084L157.815 220.317C151.94 233.876 136.185 240.106 122.625 234.23V234.23C109.065 228.355 102.836 212.599 108.711 199.04L180.817 32.6313Z" fill="white"/>
<path d="M169.132 74.5527L207.324 91.1016L152.359 217.954C147.789 228.5 135.535 233.345 124.988 228.775V228.775C114.442 224.205 109.597 211.951 114.167 201.405L169.132 74.5527Z" fill="#FFB84E"/>
<rect x="180.817" y="32.6313" width="53.5156" height="7.43272" transform="rotate(23.4273 180.817 32.6313)" fill="#D0E3FF"/>
<ellipse cx="8.72272" cy="8.05174" rx="8.72272" ry="8.05174" transform="matrix(-1 0 0 1 246.92 16.1035)" fill="#FFE296"/>
<ellipse cx="6.70979" cy="6.03881" rx="6.70979" ry="6.03881" transform="matrix(-1 0 0 1 208.003 0)" fill="#FFD596"/>
<circle cx="5.36783" cy="5.36783" r="5.36783" transform="matrix(-1 0 0 1 216.055 16.1035)" fill="#FFB84E"/>
<circle cx="3.35489" cy="3.35489" r="3.35489" transform="matrix(-1 0 0 1 228.133 10.7358)" fill="#FFB84E"/>
<path d="M24.3262 2C24.3262 0.895431 25.2216 0 26.3262 0H38.5167V16.2177H26.3262C25.2216 16.2177 24.3262 15.3223 24.3262 14.2177V2Z" fill="#649DF6"/>
<rect width="44.9224" height="21.5963" rx="3" transform="matrix(-0.766044 -0.642788 -0.642788 0.766044 127.842 54.583)" fill="#649DF6"/>
<rect width="44.9224" height="21.5963" rx="3" transform="matrix(-0.517997 -0.855382 -0.855382 0.517997 104.587 76.9429)" fill="#649DF6"/>
<path d="M72.1245 0H37.6619V16.2177L72.1245 40.5442V0Z" fill="#FFD596"/>
<rect x="6.08154" y="220.966" width="141.905" height="34.4626" transform="rotate(-90 6.08154 220.966)" fill="#ADC8F0"/>
<rect x="12.1636" y="71.4663" width="93.2925" height="28.381" transform="rotate(-50 12.1636 71.4663)" fill="#ADC8F0"/>
<rect y="192.585" width="190.558" height="28.381" rx="3" fill="#649DF6"/>
<rect x="64.8706" y="139.877" width="111.497" height="12.1633" rx="2" fill="#FFD596"/>
<path d="M56.1726 63.2803L93.9615 18.2452L98.5962 30.0732L68.6257 65.7907L56.1726 63.2803Z" fill="#FFD596"/>
<path d="M40.5444 152.041H141.905V166.521L40.5444 192.585V152.041Z" fill="#649DF6"/>
<circle cx="26.3537" cy="79.0612" r="20.2721" fill="#FFD596"/>
<circle cx="27.3672" cy="80.0747" r="7.09524" fill="#577DB7"/>
</svg>
