<svg width="282" height="279" viewBox="0 0 282 279" fill="none" xmlns="http://www.w3.org/2000/svg">
<path d="M57.945 67.1427L90.7772 32.6901L136.619 45.4767L148.87 89.9623L115.787 123.506L70.1959 111.628L57.945 67.1427Z" stroke="#FFD596" stroke-width="5"/>
<circle cx="90.4504" cy="33.3862" r="9.5" transform="rotate(-15.397 90.4504 33.3862)" fill="#649DF6" stroke="#FFD596" stroke-width="5"/>
<circle cx="134.856" cy="43.9761" r="9.5" transform="rotate(-15.397 134.856 43.9761)" fill="#649DF6" stroke="#FFD596" stroke-width="5"/>
<circle cx="57.7272" cy="65.2168" r="9.5" transform="rotate(-15.397 57.7272 65.2168)" fill="#649DF6" stroke="#FFD596" stroke-width="5"/>
<path d="M115.651 124.895L148.483 90.4421L194.325 103.229L206.576 147.714L173.493 181.258L127.902 169.38L115.651 124.895Z" stroke="#FFD596" stroke-width="5"/>
<circle cx="173.379" cy="182.728" r="9.5" transform="rotate(-15.397 173.379 182.728)" fill="#649DF6" stroke="#FFD596" stroke-width="5"/>
<circle cx="192.562" cy="101.728" r="9.5" transform="rotate(-15.397 192.562 101.728)" fill="#649DF6" stroke="#FFD596" stroke-width="5"/>
<circle cx="205.041" cy="147.041" r="9.5" transform="rotate(-15.397 205.041 147.041)" fill="#649DF6" stroke="#FFD596" stroke-width="5"/>
<path d="M114.977 125.08L69.136 112.294L36.3037 146.746L48.5546 191.232L94.1459 203.11L127.228 169.566L114.977 125.08Z" stroke="#FFD596" stroke-width="5"/>
<circle cx="9.5" cy="9.5" r="9.5" transform="matrix(-0.964109 0.265506 0.265506 0.964109 101.633 192.633)" fill="#649DF6" stroke="#FFD596" stroke-width="5"/>
<circle cx="9.5" cy="9.5" r="9.5" transform="matrix(-0.964109 0.265506 0.265506 0.964109 43.6865 132.873)" fill="#649DF6" stroke="#FFD596" stroke-width="5"/>
<circle cx="9.5" cy="9.5" r="9.5" transform="matrix(-0.964109 0.265506 0.265506 0.964109 56.165 178.186)" fill="#649DF6" stroke="#FFD596" stroke-width="5"/>
<circle cx="70.2063" cy="110.53" r="9.5" transform="rotate(-15.397 70.2063 110.53)" fill="#649DF6" stroke="#FFD596" stroke-width="5"/>
<circle cx="115.674" cy="124.977" r="9.5" transform="rotate(-15.397 115.674 124.977)" fill="#649DF6" stroke="#FFD596" stroke-width="5"/>
<circle cx="128.418" cy="171.254" r="9.5" transform="rotate(-15.397 128.418 171.254)" fill="#649DF6" stroke="#FFD596" stroke-width="5"/>
<circle cx="147.335" cy="89.2896" r="9.5" transform="rotate(-15.397 147.335 89.2896)" fill="#649DF6" stroke="#FFD596" stroke-width="5"/>
<path fill-rule="evenodd" clip-rule="evenodd" d="M240.385 103.409C250.964 111.846 266.379 110.11 274.816 99.5316C283.253 88.9531 281.517 73.538 270.938 65.1011C260.359 56.6642 244.944 58.4004 236.507 68.9789C228.071 79.5575 229.807 94.9726 240.385 103.409ZM216.678 97.4993C217.942 98.0301 219.039 98.7901 219.942 99.7107C224.117 100.698 228.144 102.601 231.72 105.453L240.32 112.312C253.274 122.643 255.4 141.518 245.069 154.472L236.748 164.904L238.637 174.119L260.412 166.129C265.597 164.226 271.342 166.887 273.245 172.072L273.517 172.815C275.42 178 272.759 183.745 267.574 185.648L234.894 197.64C231.687 198.817 228.266 198.248 225.672 196.415C223.141 195.062 221.209 192.634 220.588 189.603L219.864 186.074L211.999 195.936L230.345 220.323C232.115 222.676 232.69 225.557 232.171 228.237C232.294 228.877 232.357 229.54 232.352 230.217L232.33 233.063C232.288 238.579 227.788 243.019 222.272 242.987L173.495 242.703C168.181 242.672 163.82 238.491 163.564 233.184L163.493 231.703C163.223 226.085 167.637 221.349 173.261 221.225L193.151 220.785L170.012 190.026C169.577 189.448 169.214 188.838 168.922 188.207L98.2895 262.987C94.1836 267.334 87.5006 267.987 82.6314 264.516C77.0385 260.529 75.9372 252.666 80.2197 247.296L148.643 161.504C148.687 161.448 148.732 161.393 148.777 161.337L189.561 110.201C189.872 109.811 190.191 109.431 190.517 109.06L177.017 103.389L171.319 125.873C169.962 131.226 164.522 134.466 159.168 133.109L158.401 132.915C153.048 131.558 149.808 126.118 151.165 120.765L159.717 87.0204C160.556 83.711 162.955 81.2092 165.93 80.1018C168.476 78.7753 171.573 78.55 174.427 79.7492L216.678 97.4993Z" fill="#649DF6"/>
</svg>
