<svg width="257" height="241" viewBox="0 0 257 241" fill="none" xmlns="http://www.w3.org/2000/svg">
<rect x="198.48" y="25.8882" width="63.1379" height="9.82144" rx="4.91072" transform="rotate(23.4273 198.48 25.8882)" fill="white"/>
<path d="M201.012 37.6885L247.358 57.7707L179.302 214.834C173.756 227.632 158.886 233.511 146.088 227.966C133.289 222.42 127.41 207.55 132.955 194.752L201.012 37.6885Z" fill="white"/>
<path d="M189.984 77.2549L226.031 92.8744L174.152 212.603C169.839 222.557 158.273 227.13 148.319 222.817C138.365 218.503 133.792 206.937 138.105 196.983L189.984 77.2549Z" fill="#649DF6"/>
<rect x="201.012" y="37.6885" width="50.5103" height="7.01532" transform="rotate(23.4273 201.012 37.6885)" fill="#D0E3FF"/>
<path fill-rule="evenodd" clip-rule="evenodd" d="M115.988 39.7645L68.7891 49.1268L74.8514 79.6891L31.7632 206.401C29.2849 213.689 35.6256 220.927 43.1765 219.429L203.354 187.657C210.905 186.159 214.003 177.049 208.93 171.258L122.5 72.5982L115.988 39.7645Z" fill="white"/>
<rect x="68.79" y="49.1265" width="48.118" height="5.34645" transform="rotate(-11.2195 68.79 49.1265)" fill="#D0E3FF"/>
<rect x="60.4141" y="41.25" width="60.1475" height="9.35629" rx="4.67814" transform="rotate(-11.2195 60.4141 41.25)" fill="white"/>
<path fill-rule="evenodd" clip-rule="evenodd" d="M65.5587 145.153C63.1056 145.64 61.0985 147.398 60.2934 149.766L43.1382 200.215C41.4034 205.317 45.8419 210.383 51.1276 209.335L190.842 181.621C196.128 180.573 198.297 174.196 194.746 170.142L159.633 130.061C157.985 128.18 155.459 127.321 153.006 127.807L65.5587 145.153Z" fill="#FFB84E"/>
<circle cx="64.5654" cy="26.73" r="8.68798" fill="#FFE296"/>
<circle cx="103.996" cy="7.34908" r="6.68306" fill="#FFD596"/>
<circle cx="93.9708" cy="24.0567" r="6.01475" fill="#FFB84E"/>
<circle cx="79.2683" cy="16.0368" r="3.34153" fill="#FFB84E"/>
</svg>
