<svg width="233" height="186" viewBox="0 0 233 186" fill="none" xmlns="http://www.w3.org/2000/svg">
<rect x="15.5" y="57.5" width="174" height="121" fill="white" stroke="#D0E3FF" stroke-width="3"/>
<rect x="8" y="47" width="188" height="12" rx="6" fill="#7096D1"/>
<rect x="8" y="174" width="188" height="12" rx="6" fill="#7096D1"/>
<path fill-rule="evenodd" clip-rule="evenodd" d="M179.545 0H191.765V7.60799C197.716 8.55192 203.215 10.8525 207.936 14.1828L213.949 8.17049L222.589 16.8113L216.692 22.7091C220.349 27.6116 222.872 33.4098 223.872 39.7151H232.498V51.9351H223.872C222.888 58.1367 220.431 63.8478 216.871 68.6986L222.59 74.4171L213.949 83.0579L208.183 77.292C203.407 80.717 197.82 83.0818 191.765 84.0422V92.6685H179.545V84.0422C173.24 83.042 167.442 80.519 162.539 76.8618L155.623 83.778L146.982 75.1372L154.013 68.1064C150.682 63.3855 148.382 57.8862 147.438 51.9351H137.793V39.7151H147.438C148.398 33.6602 150.763 28.0729 154.188 23.2974L148.422 17.5314L157.063 8.89059L162.781 14.6091C167.632 11.0487 173.343 8.59171 179.545 7.60801V0ZM186.164 69.2468C198.818 69.2468 209.077 58.9885 209.077 46.3343C209.077 33.68 198.818 23.4217 186.164 23.4217C173.51 23.4217 163.252 33.68 163.252 46.3343C163.252 58.9885 173.51 69.2468 186.164 69.2468Z" fill="#FFB84E"/>
<path fill-rule="evenodd" clip-rule="evenodd" d="M140.294 77.6411H147.989V82.4323C151.737 83.0268 155.2 84.4756 158.173 86.5729L161.96 82.7866L167.401 88.2282L163.687 91.9425C165.99 95.0298 167.579 98.6813 168.209 102.652H173.641V110.348H168.209C167.589 114.253 166.042 117.85 163.8 120.905L167.401 124.506L161.959 129.948L158.328 126.316C155.321 128.473 151.802 129.962 147.989 130.567V136H140.294V130.567C136.323 129.938 132.671 128.349 129.584 126.045L125.228 130.401L119.787 124.959L124.214 120.532C122.117 117.559 120.668 114.095 120.074 110.348H114V102.652H120.074C120.679 98.8389 122.168 95.3203 124.325 92.3128L120.694 88.6817L126.135 83.24L129.736 86.8413C132.791 84.599 136.388 83.0517 140.294 82.4322V77.6411ZM144.462 121.25C152.431 121.25 158.891 114.79 158.891 106.82C158.891 98.8513 152.431 92.3911 144.462 92.3911C136.493 92.3911 130.033 98.8513 130.033 106.82C130.033 114.79 136.493 121.25 144.462 121.25Z" fill="#ADC8F0"/>
<line x1="2.5" y1="165.5" x2="104.817" y2="165.5" stroke="#BBBBBB" stroke-width="5" stroke-linecap="round"/>
<rect x="9.40002" y="122.567" width="18.8" height="37.6" fill="#FFB84E"/>
<rect x="32.9" y="95.9331" width="18.8" height="64.2333" fill="#FFD596"/>
<rect x="56.4" y="74" width="18.8" height="86.1666" fill="#A8C6F3"/>
<rect x="79.9" y="116.3" width="18.8" height="43.8667" fill="#7096D1"/>
</svg>
