<svg width="155" height="192" viewBox="0 0 155 192" fill="none" xmlns="http://www.w3.org/2000/svg">
<path d="M72.2226 3.25294C25.9011 6.25561 12.7123 47.5781 11.9081 67.864C11.7532 70.2232 11.8436 72.779 11.9081 73.7621C13.7845 77.7835 12.8542 78.8559 11.9081 84.2178C10.2997 93.3331 4.13422 102.716 1.45357 109.151C-1.22708 115.585 -0.422882 122.555 5.74261 121.751C11.9081 120.947 11.9081 126.577 10.0316 127.113C8.15518 127.649 7.35099 133.547 11.9081 134.888C16.4652 136.228 19.1458 137.301 15.9291 138.641C12.7123 139.982 14.3207 146.416 17.0013 147.488C19.682 148.561 24.2391 149.633 22.0945 156.604C19.95 163.574 21.8265 168.936 26.6516 172.421C31.4768 175.906 44.0759 172.421 49.9733 170.545C55.8707 168.668 55.6026 167.059 57.211 172.421C58.4977 176.711 58.9878 189.921 59.0771 191.798C59.0771 191.798 77.9559 193.865 102.118 184.773C126.279 175.681 134.029 160.748 134.029 160.748C129.926 155.762 124.817 146.684 123.959 143.467C123.101 140.25 123.602 138.909 123.959 138.641C133.073 128.99 151.999 103.735 154.787 79.9283C157.735 38.1054 130.125 -0.500393 72.2226 3.25294Z" fill="#D0E3FF"/>
<path fill-rule="evenodd" clip-rule="evenodd" d="M53.5906 13.6388L62.05 10.4914L64.0095 15.758C68.3722 14.8786 72.7717 15.0547 76.8975 16.1443L79.5109 10.4338L87.7181 14.1899L85.1545 19.7915C88.9489 22.2433 92.1889 25.6073 94.5053 29.7145L100.477 27.4927L103.624 35.952L97.6527 38.1738C98.569 42.7203 98.3392 47.3067 97.1238 51.5816L102.555 54.0674L98.7993 62.2746L93.3227 59.7682C90.899 63.3691 87.6402 66.4452 83.6961 68.6695L85.918 74.6413L77.4587 77.7887L75.2368 71.8169C70.6144 72.7486 65.9508 72.4954 61.6152 71.2264L58.6087 77.7957L50.4015 74.0397L53.4578 67.3616C49.9364 64.9514 46.9274 61.737 44.7412 57.8606L38.0646 60.3447L34.9172 51.8854L41.5937 49.4013C40.699 44.9624 40.8969 40.4855 42.0378 36.2975L36.5613 33.7912L40.3174 25.584L45.7488 28.0697C48.1897 24.3556 51.5104 21.1837 55.5502 18.9054L53.5906 13.6388ZM76.0082 59.87C84.7681 56.6107 89.2273 46.8673 85.968 38.1074C82.7087 29.3475 72.9653 24.8883 64.2054 28.1476C55.4455 31.4069 50.9863 41.1504 54.2456 49.9103C57.5049 58.6702 67.2483 63.1293 76.0082 59.87Z" fill="#FFB84E"/>
<path fill-rule="evenodd" clip-rule="evenodd" d="M70.4293 80.1704L75.412 77.4351L77.1151 80.5374C79.753 79.5902 82.5103 79.2972 85.1808 79.5985L86.2865 75.8013L91.7439 77.3904L90.6593 81.1153C93.2478 82.2956 95.5744 84.095 97.3935 86.4421L100.911 84.5111L103.646 89.4938L100.129 91.4247C101.116 94.1737 101.393 97.0524 101.027 99.8272L104.638 100.879L103.049 106.336L99.4074 105.276C98.2269 107.741 96.478 109.956 94.2242 111.703L96.1551 115.221L91.1724 117.956L89.2415 114.439C86.4467 115.442 83.5177 115.711 80.7002 115.317L79.4282 119.686L73.9708 118.096L75.2638 113.656C72.8491 112.476 70.68 110.749 68.963 108.534L65.0305 110.693L62.2952 105.71L66.2277 103.551C65.264 100.867 64.9775 98.0598 65.3051 95.3459L61.6635 94.2856L63.2527 88.8281L66.8642 89.8797C68.0452 87.3422 69.8239 85.062 72.1324 83.2727L70.4293 80.1704ZM88.6287 106.924C93.7884 104.092 95.675 97.6125 92.8425 92.4528C90.0099 87.2931 83.5309 85.4065 78.3712 88.239C73.2114 91.0715 71.3249 97.5506 74.1574 102.71C76.9899 107.87 83.4689 109.757 88.6287 106.924Z" fill="white"/>
<path fill-rule="evenodd" clip-rule="evenodd" d="M117.047 39.699L123.992 38.9336L124.469 43.2571C127.91 43.4209 131.179 44.3839 134.071 45.981L137.111 42.1875L142.563 46.557L139.581 50.2783C141.966 52.8353 143.763 55.9724 144.726 59.493L149.629 58.9527L150.394 65.8975L145.492 66.4378C145.321 70.0238 144.282 73.4234 142.563 76.4031L146.171 79.2949L141.801 84.7468L138.163 81.831C135.664 84.0765 132.637 85.7704 129.256 86.6955L129.796 91.5979L122.851 92.3633L122.311 87.4608C118.665 87.2873 115.212 86.2166 112.197 84.4453L108.699 88.8091L103.248 84.4396L106.803 80.0036C104.614 77.5293 102.963 74.548 102.053 71.2251L96.5721 71.8292L95.8067 64.8844L101.288 64.2803C101.454 60.779 102.449 57.4555 104.096 54.5269L100.458 51.6113L104.828 46.1595L108.436 49.0511C110.969 46.7239 114.061 44.9699 117.524 44.0225L117.047 39.699ZM125.146 78.6378C132.338 77.8452 137.525 71.3728 136.733 64.1813C135.94 56.9898 129.468 51.8024 122.276 52.5949C115.085 53.3875 109.897 59.8599 110.69 67.0514C111.482 74.2429 117.955 79.4303 125.146 78.6378Z" fill="#7096D1"/>
</svg>
