<svg width="227" height="163" viewBox="0 0 227 163" fill="none" xmlns="http://www.w3.org/2000/svg">
<path fill-rule="evenodd" clip-rule="evenodd" d="M44.8447 0H50.5953V3.58022C53.3957 4.02442 55.9837 5.10702 58.2053 6.67424L61.0346 3.84495L65.1008 7.91124L62.3255 10.6866C64.0466 12.9937 65.2339 15.7222 65.7046 18.6895H69.7639V24.4401H65.7046C65.2416 27.3585 64.0854 30.0461 62.4099 32.3288L65.1009 35.0198L61.0346 39.0861L58.3213 36.3727C56.074 37.9845 53.4446 39.0973 50.5953 39.5493V43.6087H44.8447V39.5492C41.8775 39.0786 39.149 37.8913 36.842 36.1702L33.5872 39.425L29.5209 35.3587L32.8296 32.05C31.2623 29.8285 30.1797 27.2405 29.7355 24.4401H25.1968V18.6895H29.7355C30.1875 15.8401 31.3003 13.2108 32.912 10.9635L30.1986 8.25011L34.2649 4.18382L36.956 6.87489C39.2387 5.19941 41.9262 4.04318 44.8447 3.58025V0ZM47.9597 32.5867C53.9146 32.5867 58.742 27.7593 58.742 21.8044C58.742 15.8494 53.9146 11.022 47.9597 11.022C42.0047 11.022 37.1773 15.8494 37.1773 21.8044C37.1773 27.7593 42.0047 32.5867 47.9597 32.5867Z" fill="#7096D1"/>
<path fill-rule="evenodd" clip-rule="evenodd" d="M26.3734 36.5371H29.9949V38.7918C31.7586 39.0716 33.3884 39.7534 34.7874 40.7404L36.5693 38.9585L39.13 41.5193L37.3821 43.2672C38.466 44.7201 39.2137 46.4384 39.51 48.307H42.0666V51.9284H39.51C39.2185 53.7664 38.4904 55.4589 37.4352 56.8964L39.1299 58.5912L36.5692 61.1519L34.8604 59.4432C33.4451 60.4582 31.7893 61.159 29.9949 61.4436V64.0001H26.3734V61.4436C24.5048 61.1472 22.7865 60.3995 21.3336 59.3157L19.284 61.3654L16.7232 58.8046L18.8068 56.721C17.8198 55.3219 17.138 53.6921 16.8582 51.9284H14V48.307H16.8582C17.1429 46.5126 17.8437 44.8567 18.8587 43.4415L17.1499 41.7327L19.7107 39.1719L21.4054 40.8666C22.843 39.8115 24.5355 39.0833 26.3734 38.7918V36.5371ZM28.3351 57.0589C32.0853 57.0589 35.1254 54.0188 35.1254 50.2686C35.1254 46.5184 32.0853 43.4783 28.3351 43.4783C24.5849 43.4783 21.5448 46.5184 21.5448 50.2686C21.5448 54.0188 24.5849 57.0589 28.3351 57.0589Z" fill="#ADC8F0"/>
<g filter="url(#filter0_d_9_255)">
<rect x="125.775" y="32.5" width="96.2549" height="61" fill="white" stroke="#AEAEAE"/>
<rect x="125.775" y="32.5" width="96.2549" height="12.3725" fill="white" stroke="#AEAEAE"/>
<rect x="125.775" y="44.6567" width="96.2549" height="12.3725" fill="white" stroke="#AEAEAE"/>
<rect x="125.775" y="56.8135" width="96.2549" height="12.3725" fill="white" stroke="#AEAEAE"/>
<rect x="125.775" y="68.9707" width="96.2549" height="12.3725" fill="white" stroke="#AEAEAE"/>
<rect x="125.775" y="81.1274" width="96.2549" height="12.3725" fill="white" stroke="#AEAEAE"/>
<line x1="150.088" y1="32" x2="150.088" y2="94" stroke="#AEAEAE"/>
<line x1="174.402" y1="32" x2="174.402" y2="94" stroke="#AEAEAE"/>
<line x1="197.5" y1="32" x2="197.5" y2="94" stroke="#AEAEAE"/>
<line x1="221.814" y1="32" x2="221.814" y2="94" stroke="#AEAEAE"/>
</g>
<line x1="2.5" y1="159.515" x2="157.35" y2="159.515" stroke="#BBBBBB" stroke-width="5" stroke-linecap="round"/>
<rect x="14.0015" y="94.3408" width="28.0029" height="56.0058" fill="#FFB84E"/>
<rect x="49.0051" y="54.6699" width="28.0029" height="95.6766" fill="#FFD596"/>
<rect x="84.0088" y="22" width="28.0029" height="128.347" fill="#A8C6F3"/>
<rect x="119.012" y="85.0063" width="28.0029" height="65.3401" fill="#7096D1"/>
<defs>
<filter id="filter0_d_9_255" x="125.275" y="32" width="101.255" height="66" filterUnits="userSpaceOnUse" color-interpolation-filters="sRGB">
<feFlood flood-opacity="0" result="BackgroundImageFix"/>
<feColorMatrix in="SourceAlpha" type="matrix" values="0 0 0 0 0 0 0 0 0 0 0 0 0 0 0 0 0 0 127 0" result="hardAlpha"/>
<feOffset dx="4" dy="4"/>
<feComposite in2="hardAlpha" operator="out"/>
<feColorMatrix type="matrix" values="0 0 0 0 0.680354 0 0 0 0 0.785991 0 0 0 0 0.941667 0 0 0 1 0"/>
<feBlend mode="normal" in2="BackgroundImageFix" result="effect1_dropShadow_9_255"/>
<feBlend mode="normal" in="SourceGraphic" in2="effect1_dropShadow_9_255" result="shape"/>
</filter>
</defs>
</svg>
