<svg width="600" height="87" viewBox="0 0 600 87" fill="none" xmlns="http://www.w3.org/2000/svg">
<path d="M56.24 75.88C56.4 76.28 56.48 76.88 56.48 77.68C56.48 78.4 56.48 79 56.48 79.48C56.48 80.12 56.36 80.72 56.12 81.28C55.88 81.84 55.56 82.36 55.16 82.84C54.44 83.8 53.4 84.52 52.04 85C50.12 85.64 48.32 85.96 46.64 85.96C45.76 86.04 44.84 86.08 43.88 86.08C42.92 86.08 41.96 86.16 41 86.32H40.52C34.36 86.4 28 86.4 21.44 86.32C19.84 86.24 18.04 86.24 16.04 86.32C14.04 86.48 12.08 86.44 10.16 86.2C8.24 86.04 6.48 85.6 4.88 84.88C3.36 84.08 2.28 82.84 1.64 81.16C1.48 80.76 1.36 80.4 1.28 80.08C1.2 79.68 1.16 79.28 1.16 78.88C0.84 76.16 0.72 73.48 0.8 70.84C0.88 68.2 0.92 65.6 0.92 63.04L1.16 45.64V29.56C1.16 26.68 1.16 24.12 1.16 21.88C1.24 19.64 1.32 17.16 1.4 14.44V13.84C1.48 13.04 1.52 12.24 1.52 11.44C1.6 10.64 1.64 9.84 1.64 9.04C1.8 7.2 2.24 5.64 2.96 4.35999C3.44 3.16 4.28 2.2 5.48 1.48C6.52 0.759995 7.76 0.399995 9.2 0.399995C9.76 0.399995 10.28 0.439994 10.76 0.519993C11.32 0.519993 11.84 0.559995 12.32 0.639999C12.8 0.719998 13.24 0.879996 13.64 1.11999C14.12 1.35999 14.6 1.68 15.08 2.07999C15.56 2.64 16 3.32 16.4 4.12C16.72 5 16.92 5.88 17 6.76C17.08 7.32 17.16 7.83999 17.24 8.31999C17.32 8.8 17.36 9.28 17.36 9.76C17.2 10.24 17.12 10.72 17.12 11.2C17.12 11.68 17.12 12.12 17.12 12.52V14.68L16.64 71.2L40.4 71.44H46.04C46.52 71.44 47.04 71.48 47.6 71.56C48.16 71.56 48.72 71.6 49.28 71.68C49.92 71.76 50.48 71.84 50.96 71.92C51.44 72 51.92 72.12 52.4 72.28C53.28 72.52 54 72.92 54.56 73.48C55.44 74.28 56 75.08 56.24 75.88ZM468.857 75.88C469.017 76.28 469.097 76.88 469.097 77.68C469.097 78.4 469.097 79 469.097 79.48C469.097 80.12 468.977 80.72 468.737 81.28C468.497 81.84 468.177 82.36 467.777 82.84C467.057 83.8 466.017 84.52 464.657 85C462.737 85.64 460.937 85.96 459.257 85.96C458.377 86.04 457.457 86.08 456.497 86.08C455.537 86.08 454.577 86.16 453.617 86.32H453.137C446.977 86.4 440.617 86.4 434.057 86.32C432.457 86.24 430.657 86.24 428.657 86.32C426.657 86.48 424.697 86.44 422.777 86.2C420.857 86.04 419.097 85.6 417.497 84.88C415.977 84.08 414.897 82.84 414.257 81.16C414.097 80.76 413.977 80.4 413.897 80.08C413.817 79.68 413.777 79.28 413.777 78.88C413.457 76.16 413.337 73.48 413.417 70.84C413.497 68.2 413.537 65.6 413.537 63.04L413.777 45.64V29.56C413.777 26.68 413.777 24.12 413.777 21.88C413.857 19.64 413.937 17.16 414.017 14.44V13.84C414.097 13.04 414.137 12.24 414.137 11.44C414.217 10.64 414.257 9.84 414.257 9.04C414.417 7.2 414.857 5.64 415.577 4.35999C416.057 3.16 416.897 2.2 418.097 1.48C419.137 0.759995 420.377 0.399995 421.817 0.399995C422.377 0.399995 422.897 0.439994 423.377 0.519993C423.937 0.519993 424.457 0.559995 424.937 0.639999C425.417 0.719998 425.857 0.879996 426.257 1.11999C426.737 1.35999 427.217 1.68 427.697 2.07999C428.177 2.64 428.617 3.32 429.017 4.12C429.337 5 429.537 5.88 429.617 6.76C429.697 7.32 429.777 7.83999 429.857 8.31999C429.937 8.8 429.977 9.28 429.977 9.76C429.817 10.24 429.737 10.72 429.737 11.2C429.737 11.68 429.737 12.12 429.737 12.52V14.68L429.257 71.2L453.017 71.44H458.657C459.137 71.44 459.657 71.48 460.217 71.56C460.777 71.56 461.337 71.6 461.897 71.68C462.537 71.76 463.097 71.84 463.577 71.92C464.057 72 464.537 72.12 465.017 72.28C465.897 72.52 466.617 72.92 467.177 73.48C468.057 74.28 468.617 75.08 468.857 75.88Z" fill="#FFD596"/>
<path d="M81.1934 39.52C81.1934 41.76 81.1934 44.28 81.1934 47.08C81.2734 49.88 81.3134 52.8 81.3134 55.84C81.3134 58.8 81.3134 61.76 81.3134 64.72C81.3134 67.6 81.2734 70.28 81.1934 72.76C81.1134 73.96 80.9934 75.28 80.8334 76.72C80.6734 78.08 80.3534 79.36 79.8734 80.56C79.3934 81.76 78.6334 82.76 77.5934 83.56C76.6334 84.28 75.3134 84.6 73.6334 84.52C71.1534 84.36 69.3534 83.28 68.2334 81.28C67.1934 79.28 66.5934 76.48 66.4334 72.88C66.4334 71.04 66.3934 68.92 66.3134 66.52C66.3134 64.12 66.2734 61.68 66.1934 59.2C66.1934 56.72 66.1934 54.32 66.1934 52C66.1934 49.6 66.1934 47.44 66.1934 45.52C66.1934 44.4 66.1534 43.04 66.0734 41.44C66.0734 39.84 66.1134 38.2 66.1934 36.52C66.2734 34.84 66.4734 33.24 66.7934 31.72C67.1134 30.12 67.6334 28.8 68.3534 27.76C68.9134 27.12 69.7134 26.64 70.7534 26.32C71.7934 25.92 72.8734 25.72 73.9934 25.72C75.1934 25.72 76.3134 25.92 77.3534 26.32C78.4734 26.72 79.2734 27.28 79.7534 28C80.0734 28.48 80.3134 29.16 80.4734 30.04C80.6334 30.92 80.7534 31.92 80.8334 33.04C80.9934 34.08 81.0734 35.2 81.0734 36.4C81.1534 37.52 81.1934 38.56 81.1934 39.52ZM76.6334 15.28C74.1534 15.92 72.0734 15.68 70.3934 14.56C68.7934 13.36 67.7934 11.6 67.3934 9.27999C67.0734 7.6 67.1934 6.12 67.7534 4.83999C68.3134 3.56 69.1534 2.6 70.2734 1.96C71.3934 1.24 72.6734 0.919995 74.1134 0.999994C75.5534 1.07999 76.9934 1.63999 78.4334 2.67999C79.7934 3.64 80.7534 4.76 81.3134 6.03999C81.9534 7.32 82.1534 8.56 81.9134 9.76C81.7534 10.96 81.2334 12.08 80.3534 13.12C79.4734 14.08 78.2334 14.8 76.6334 15.28ZM136.378 38.8C137.018 39.92 137.338 41.12 137.338 42.4C137.418 43.68 137.138 44.88 136.498 46C135.778 47.44 134.738 48.44 133.378 49C132.098 49.48 130.658 49.52 129.058 49.12C128.338 48.96 127.698 48.68 127.138 48.28C126.578 47.88 125.978 47.48 125.338 47.08C124.778 46.6 124.098 46.16 123.298 45.76C122.578 45.36 121.618 45.08 120.418 44.92C119.218 44.76 117.898 44.76 116.458 44.92C115.098 45.08 113.858 45.4 112.738 45.88C110.978 46.76 109.578 48.12 108.538 49.96C107.498 51.72 106.818 53.64 106.498 55.72C106.178 57.72 106.218 59.76 106.618 61.84C107.098 63.92 107.978 65.68 109.258 67.12C110.218 68.24 111.458 69.16 112.978 69.88C114.578 70.6 116.098 71.04 117.538 71.2C118.898 71.36 120.258 71.36 121.618 71.2C122.978 70.96 124.298 70.64 125.578 70.24C126.538 69.84 127.618 69.32 128.818 68.68C130.018 67.96 131.178 67.52 132.298 67.36C133.738 67.36 134.858 67.76 135.658 68.56C136.458 69.28 137.018 70.2 137.338 71.32C137.658 72.36 137.698 73.48 137.458 74.68C137.298 75.88 136.858 76.92 136.138 77.8C135.178 79 133.818 80.16 132.058 81.28C130.298 82.32 128.618 83.08 127.018 83.56C125.098 84.2 122.938 84.56 120.538 84.64C118.218 84.72 116.018 84.64 113.938 84.4C112.978 84.24 111.978 84.04 110.938 83.8C109.898 83.56 108.898 83.28 107.938 82.96C104.418 81.68 101.458 79.88 99.0575 77.56C96.7375 75.16 94.9375 72.48 93.6575 69.52C92.4575 66.56 91.7775 63.4 91.6175 60.04C91.4575 56.68 91.8575 53.36 92.8175 50.08C93.6975 46.96 94.7775 44.32 96.0575 42.16C97.4175 40 98.9775 38.24 100.738 36.88C102.578 35.44 104.618 34.32 106.858 33.52C109.098 32.64 111.578 31.88 114.298 31.24C117.098 30.68 120.058 30.68 123.178 31.24C126.298 31.8 129.098 32.84 131.578 34.36C133.498 35.4 135.098 36.88 136.378 38.8ZM188.687 68.56C189.647 68.32 190.607 68.16 191.567 68.08C192.607 68 193.527 68.12 194.327 68.44C195.207 68.76 195.927 69.32 196.487 70.12C197.047 70.84 197.327 71.88 197.327 73.24C197.327 74.2 197.087 75.12 196.607 76C196.127 76.88 195.527 77.68 194.807 78.4C194.087 79.12 193.287 79.76 192.407 80.32C191.527 80.8 190.687 81.2 189.887 81.52C187.567 82.56 184.887 83.36 181.847 83.92C178.887 84.48 175.807 84.68 172.607 84.52C168.287 84.36 164.127 83.52 160.127 82C156.207 80.4 153.127 77.8 150.887 74.2C148.807 70.68 147.567 66.76 147.167 62.44C146.767 58.12 146.967 54.04 147.767 50.2C148.647 45.56 150.127 41.8 152.207 38.92C154.367 35.96 156.927 33.6 159.887 31.84C163.487 29.76 167.527 28.68 172.007 28.6C176.487 28.52 180.767 29.4 184.847 31.24C187.567 32.44 190.007 34.08 192.167 36.16C194.327 38.16 195.967 40.6 197.087 43.48C197.407 44.2 197.647 45.08 197.807 46.12C198.047 47.16 198.207 48.28 198.287 49.48C198.367 50.6 198.367 51.72 198.287 52.84C198.207 53.96 198.007 54.96 197.687 55.84C197.207 57.28 196.607 58.4 195.887 59.2C195.167 60 194.247 60.6 193.127 61C192.007 61.4 190.647 61.68 189.047 61.84C187.527 61.92 185.687 62 183.527 62.08C181.607 62.16 179.807 62.2 178.127 62.2C176.447 62.2 174.727 62.2 172.967 62.2C171.207 62.12 169.367 62.08 167.447 62.08C165.607 62 163.527 61.92 161.207 61.84C160.967 63.44 161.167 64.84 161.807 66.04C162.527 67.16 163.487 68.12 164.687 68.92C165.887 69.64 167.247 70.2 168.767 70.6C170.287 71 171.767 71.24 173.207 71.32C175.927 71.48 178.527 71.28 181.007 70.72C183.487 70.08 186.047 69.36 188.687 68.56ZM183.527 45.28C182.007 43.52 180.407 42.24 178.727 41.44C177.447 40.88 176.087 40.64 174.647 40.72C173.287 40.72 171.967 40.92 170.687 41.32C168.367 41.88 166.407 43.08 164.807 44.92C164.647 45.08 164.367 45.48 163.967 46.12C163.567 46.68 163.167 47.28 162.767 47.92C162.447 48.56 162.207 49.16 162.047 49.72C161.887 50.28 161.967 50.56 162.287 50.56H185.807C185.727 49.44 185.527 48.52 185.207 47.8C184.887 47 184.327 46.16 183.527 45.28ZM208.108 42.16C208.108 40.32 208.068 38.36 207.988 36.28C207.988 34.2 208.348 32.32 209.068 30.64C209.708 29.12 210.748 28.04 212.188 27.4C213.708 26.68 215.188 26.52 216.628 26.92C218.068 27.16 219.188 27.6 219.988 28.24C220.788 28.88 221.348 29.64 221.668 30.52C222.068 31.32 222.308 32.28 222.388 33.4C222.468 34.44 222.548 35.48 222.628 36.52C223.428 35.08 224.428 33.92 225.628 33.04C226.828 32.16 228.068 31.44 229.348 30.88C230.628 30.32 231.828 29.92 232.948 29.68C234.148 29.44 235.068 29.32 235.708 29.32C238.748 29.32 241.748 30 244.708 31.36C247.748 32.64 250.268 34.48 252.268 36.88C253.388 38.32 254.228 39.84 254.788 41.44C255.428 42.96 255.868 44.56 256.108 46.24C256.428 47.92 256.628 49.64 256.708 51.4C256.788 53.08 256.868 54.8 256.948 56.56C257.348 61.68 257.348 66.76 256.948 71.8C256.868 72.84 256.828 74.04 256.828 75.4C256.828 76.76 256.708 78.12 256.468 79.48C256.308 80.76 255.948 81.92 255.388 82.96C254.908 83.92 254.068 84.52 252.868 84.76C251.188 85.16 249.788 85.24 248.668 85C247.628 84.84 246.788 84.48 246.148 83.92C245.508 83.36 245.028 82.64 244.708 81.76C244.388 80.88 244.108 79.88 243.868 78.76C243.708 77.88 243.548 76.88 243.388 75.76C243.308 74.56 243.228 73.36 243.148 72.16C243.148 70.96 243.108 69.8 243.028 68.68C243.028 67.48 243.028 66.4 243.028 65.44C243.028 63.92 242.988 62.24 242.908 60.4C242.828 58.56 242.828 56.84 242.908 55.24C242.908 51.48 241.908 48.64 239.908 46.72C237.988 44.72 235.348 43.88 231.988 44.2C229.428 44.52 227.188 45.56 225.268 47.32C223.348 49 222.428 51.2 222.508 53.92C222.508 54.96 222.508 55.92 222.508 56.8C222.508 57.68 222.468 58.56 222.388 59.44C222.388 60.32 222.388 61.28 222.388 62.32C222.388 63.36 222.388 64.52 222.388 65.8C222.388 68.44 222.388 71.24 222.388 74.2C222.388 77.08 222.028 79.44 221.308 81.28C220.668 83.2 219.588 84.52 218.068 85.24C216.548 85.96 214.748 85.76 212.668 84.64C211.788 84.16 211.068 83.52 210.508 82.72C210.028 81.84 209.628 80.92 209.308 79.96C209.068 79 208.908 78.04 208.828 77.08C208.748 76.04 208.668 75.08 208.588 74.2C208.348 71.56 208.188 69.12 208.108 66.88C208.108 64.56 208.108 62.08 208.108 59.44V42.16ZM295.613 63.88C294.093 62.92 292.373 62.16 290.453 61.6C288.613 61.04 286.693 60.52 284.693 60.04C282.773 59.56 280.893 59.04 279.053 58.48C277.213 57.84 275.533 56.96 274.013 55.84C270.733 53.36 268.813 50.32 268.253 46.72C267.773 43.04 268.573 39.36 270.653 35.68C271.773 33.76 273.253 32.2 275.093 31C276.933 29.72 278.933 28.76 281.093 28.12C283.333 27.4 285.613 27 287.933 26.92C290.253 26.84 292.453 26.96 294.533 27.28C295.893 27.52 297.333 27.88 298.853 28.36C300.373 28.76 301.773 29.32 303.053 30.04C304.413 30.76 305.613 31.68 306.653 32.8C307.773 33.84 308.573 35.16 309.053 36.76C309.373 37.8 309.413 38.8 309.173 39.76C309.013 40.72 308.613 41.52 307.973 42.16C307.413 42.8 306.653 43.28 305.693 43.6C304.813 43.92 303.853 44 302.813 43.84C301.613 43.6 300.493 43.24 299.453 42.76C298.413 42.28 297.373 41.76 296.333 41.2C295.293 40.64 294.213 40.16 293.093 39.76C292.053 39.36 290.933 39.16 289.733 39.16C287.893 39.08 286.373 39.4 285.173 40.12C283.973 40.84 283.133 41.72 282.653 42.76C282.253 43.8 282.293 44.92 282.773 46.12C283.333 47.32 284.453 48.36 286.133 49.24C287.653 50.04 289.333 50.68 291.173 51.16C293.013 51.64 294.813 52.12 296.573 52.6C298.413 53.08 300.173 53.64 301.853 54.28C303.613 54.92 305.173 55.8 306.533 56.92C309.173 59.08 310.773 61.6 311.333 64.48C311.973 67.36 311.813 70.2 310.853 73C309.893 75.8 308.213 78.28 305.813 80.44C303.493 82.6 300.733 84.04 297.533 84.76C295.213 85.24 292.693 85.48 289.973 85.48C287.333 85.48 284.693 85.2 282.053 84.64C279.493 84.08 277.013 83.2 274.613 82C272.293 80.8 270.333 79.28 268.733 77.44C267.613 76.16 267.013 74.72 266.933 73.12C266.933 71.44 267.253 70 267.893 68.8C268.613 67.52 269.613 66.64 270.893 66.16C272.173 65.68 273.613 65.96 275.213 67C276.493 67.88 278.013 68.76 279.773 69.64C281.533 70.44 283.293 71.08 285.053 71.56C286.813 72.04 288.493 72.28 290.093 72.28C291.773 72.28 293.213 71.92 294.413 71.2C296.173 70.08 297.093 68.8 297.173 67.36C297.253 65.84 296.733 64.68 295.613 63.88ZM362.945 68.56C363.905 68.32 364.865 68.16 365.825 68.08C366.865 68 367.785 68.12 368.585 68.44C369.465 68.76 370.185 69.32 370.745 70.12C371.305 70.84 371.585 71.88 371.585 73.24C371.585 74.2 371.345 75.12 370.865 76C370.385 76.88 369.785 77.68 369.065 78.4C368.345 79.12 367.545 79.76 366.665 80.32C365.785 80.8 364.945 81.2 364.145 81.52C361.825 82.56 359.145 83.36 356.105 83.92C353.145 84.48 350.065 84.68 346.865 84.52C342.545 84.36 338.385 83.52 334.385 82C330.465 80.4 327.385 77.8 325.145 74.2C323.065 70.68 321.825 66.76 321.425 62.44C321.025 58.12 321.225 54.04 322.025 50.2C322.905 45.56 324.385 41.8 326.465 38.92C328.625 35.96 331.185 33.6 334.145 31.84C337.745 29.76 341.785 28.68 346.265 28.6C350.745 28.52 355.025 29.4 359.105 31.24C361.825 32.44 364.265 34.08 366.425 36.16C368.585 38.16 370.225 40.6 371.345 43.48C371.665 44.2 371.905 45.08 372.065 46.12C372.305 47.16 372.465 48.28 372.545 49.48C372.625 50.6 372.625 51.72 372.545 52.84C372.465 53.96 372.265 54.96 371.945 55.84C371.465 57.28 370.865 58.4 370.145 59.2C369.425 60 368.505 60.6 367.385 61C366.265 61.4 364.905 61.68 363.305 61.84C361.785 61.92 359.945 62 357.785 62.08C355.865 62.16 354.065 62.2 352.385 62.2C350.705 62.2 348.985 62.2 347.225 62.2C345.465 62.12 343.625 62.08 341.705 62.08C339.865 62 337.785 61.92 335.465 61.84C335.225 63.44 335.425 64.84 336.065 66.04C336.785 67.16 337.745 68.12 338.945 68.92C340.145 69.64 341.505 70.2 343.025 70.6C344.545 71 346.025 71.24 347.465 71.32C350.185 71.48 352.785 71.28 355.265 70.72C357.745 70.08 360.305 69.36 362.945 68.56ZM357.785 45.28C356.265 43.52 354.665 42.24 352.985 41.44C351.705 40.88 350.345 40.64 348.905 40.72C347.545 40.72 346.225 40.92 344.945 41.32C342.625 41.88 340.665 43.08 339.065 44.92C338.905 45.08 338.625 45.48 338.225 46.12C337.825 46.68 337.425 47.28 337.025 47.92C336.705 48.56 336.465 49.16 336.305 49.72C336.145 50.28 336.225 50.56 336.545 50.56H360.065C359.985 49.44 359.785 48.52 359.465 47.8C359.145 47 358.585 46.16 357.785 45.28ZM493.811 39.52C493.811 41.76 493.811 44.28 493.811 47.08C493.891 49.88 493.931 52.8 493.931 55.84C493.931 58.8 493.931 61.76 493.931 64.72C493.931 67.6 493.891 70.28 493.811 72.76C493.731 73.96 493.611 75.28 493.451 76.72C493.291 78.08 492.971 79.36 492.491 80.56C492.011 81.76 491.251 82.76 490.211 83.56C489.251 84.28 487.931 84.6 486.251 84.52C483.771 84.36 481.971 83.28 480.851 81.28C479.811 79.28 479.211 76.48 479.051 72.88C479.051 71.04 479.011 68.92 478.931 66.52C478.931 64.12 478.891 61.68 478.811 59.2C478.811 56.72 478.811 54.32 478.811 52C478.811 49.6 478.811 47.44 478.811 45.52C478.811 44.4 478.771 43.04 478.691 41.44C478.691 39.84 478.731 38.2 478.811 36.52C478.891 34.84 479.091 33.24 479.411 31.72C479.731 30.12 480.251 28.8 480.971 27.76C481.531 27.12 482.331 26.64 483.371 26.32C484.411 25.92 485.491 25.72 486.611 25.72C487.811 25.72 488.931 25.92 489.971 26.32C491.091 26.72 491.891 27.28 492.371 28C492.691 28.48 492.931 29.16 493.091 30.04C493.251 30.92 493.371 31.92 493.451 33.04C493.611 34.08 493.691 35.2 493.691 36.4C493.771 37.52 493.811 38.56 493.811 39.52ZM489.251 15.28C486.771 15.92 484.691 15.68 483.011 14.56C481.411 13.36 480.411 11.6 480.011 9.27999C479.691 7.6 479.811 6.12 480.371 4.83999C480.931 3.56 481.771 2.6 482.891 1.96C484.011 1.24 485.291 0.919995 486.731 0.999994C488.171 1.07999 489.611 1.63999 491.051 2.67999C492.411 3.64 493.371 4.76 493.931 6.03999C494.571 7.32 494.771 8.56 494.531 9.76C494.371 10.96 493.851 12.08 492.971 13.12C492.091 14.08 490.851 14.8 489.251 15.28ZM538.795 34.24C540.155 34.64 541.035 35.4 541.435 36.52C541.835 37.56 541.955 38.68 541.795 39.88C541.315 42.36 539.955 43.88 537.715 44.44C536.435 44.76 535.115 44.92 533.755 44.92C532.475 44.92 531.155 44.96 529.795 45.04V72.76C529.795 74.68 529.675 76.64 529.435 78.64C529.435 79.36 529.235 80.12 528.835 80.92C528.675 81.32 528.555 81.56 528.475 81.64C528.475 81.8 528.395 82.04 528.235 82.36C527.755 83.24 527.115 83.96 526.315 84.52C524.555 85.48 522.675 85.72 520.675 85.24C519.475 85 518.555 84.6 517.915 84.04C517.195 83.48 516.675 82.8 516.355 82C516.195 81.6 516.075 81.2 515.995 80.8C515.915 80.4 515.795 80 515.635 79.6C515.555 79.2 515.475 78.84 515.395 78.52C515.395 78.12 515.395 77.8 515.395 77.56V70.6C515.395 66.44 515.395 62.12 515.395 57.64C515.475 53.16 515.515 48.84 515.515 44.68C513.675 44.6 511.755 44.56 509.755 44.56C507.835 44.48 506.435 44 505.555 43.12C505.075 42.64 504.755 42.04 504.595 41.32C504.435 40.52 504.355 39.72 504.355 38.92C504.435 38.12 504.595 37.4 504.835 36.76C505.075 36.04 505.395 35.52 505.795 35.2C506.835 34.24 507.755 33.72 508.555 33.64C509.435 33.48 510.515 33.36 511.795 33.28C511.955 33.28 512.475 33.28 513.355 33.28C514.315 33.2 514.915 33.16 515.155 33.16C515.235 30.44 515.315 27.72 515.395 25C515.475 22.28 515.715 19.8 516.115 17.56C516.595 15.24 517.275 13.24 518.155 11.56C519.115 9.8 520.555 8.48 522.475 7.6C524.795 6.55999 527.435 5.92 530.395 5.68C533.355 5.44 536.035 5.8 538.435 6.76C539.555 7.16 540.635 7.96 541.675 9.16C542.795 10.36 543.315 11.68 543.235 13.12C543.155 14.56 542.875 15.88 542.395 17.08C541.915 18.28 540.875 19.08 539.275 19.48C538.555 19.64 537.795 19.72 536.995 19.72C536.275 19.64 535.515 19.6 534.715 19.6C533.915 19.6 533.155 19.72 532.435 19.96C531.795 20.12 531.235 20.48 530.755 21.04C530.355 21.52 530.075 22.16 529.915 22.96C529.835 23.76 529.755 24.6 529.675 25.48C529.595 26.36 529.555 27.24 529.555 28.12C529.635 28.92 529.675 29.6 529.675 30.16V33.16C531.515 33.32 533.195 33.44 534.715 33.52C536.315 33.6 537.675 33.84 538.795 34.24ZM589.351 68.56C590.311 68.32 591.271 68.16 592.231 68.08C593.271 68 594.191 68.12 594.991 68.44C595.871 68.76 596.591 69.32 597.151 70.12C597.711 70.84 597.991 71.88 597.991 73.24C597.991 74.2 597.751 75.12 597.271 76C596.791 76.88 596.191 77.68 595.471 78.4C594.751 79.12 593.951 79.76 593.071 80.32C592.191 80.8 591.351 81.2 590.551 81.52C588.231 82.56 585.551 83.36 582.511 83.92C579.551 84.48 576.471 84.68 573.271 84.52C568.951 84.36 564.791 83.52 560.791 82C556.871 80.4 553.791 77.8 551.551 74.2C549.471 70.68 548.231 66.76 547.831 62.44C547.431 58.12 547.631 54.04 548.431 50.2C549.311 45.56 550.791 41.8 552.871 38.92C555.031 35.96 557.591 33.6 560.551 31.84C564.151 29.76 568.191 28.68 572.671 28.6C577.151 28.52 581.431 29.4 585.511 31.24C588.231 32.44 590.671 34.08 592.831 36.16C594.991 38.16 596.631 40.6 597.751 43.48C598.071 44.2 598.311 45.08 598.471 46.12C598.711 47.16 598.871 48.28 598.951 49.48C599.031 50.6 599.031 51.72 598.951 52.84C598.871 53.96 598.671 54.96 598.351 55.84C597.871 57.28 597.271 58.4 596.551 59.2C595.831 60 594.911 60.6 593.791 61C592.671 61.4 591.311 61.68 589.711 61.84C588.191 61.92 586.351 62 584.191 62.08C582.271 62.16 580.471 62.2 578.791 62.2C577.111 62.2 575.391 62.2 573.631 62.2C571.871 62.12 570.031 62.08 568.111 62.08C566.271 62 564.191 61.92 561.871 61.84C561.631 63.44 561.831 64.84 562.471 66.04C563.191 67.16 564.151 68.12 565.351 68.92C566.551 69.64 567.911 70.2 569.431 70.6C570.951 71 572.431 71.24 573.871 71.32C576.591 71.48 579.191 71.28 581.671 70.72C584.151 70.08 586.711 69.36 589.351 68.56ZM584.191 45.28C582.671 43.52 581.071 42.24 579.391 41.44C578.111 40.88 576.751 40.64 575.311 40.72C573.951 40.72 572.631 40.92 571.351 41.32C569.031 41.88 567.071 43.08 565.471 44.92C565.311 45.08 565.031 45.48 564.631 46.12C564.231 46.68 563.831 47.28 563.431 47.92C563.111 48.56 562.871 49.16 562.711 49.72C562.551 50.28 562.631 50.56 562.951 50.56H586.471C586.391 49.44 586.191 48.52 585.871 47.8C585.551 47 584.991 46.16 584.191 45.28Z" fill="white"/>
</svg>
